<?xml version="1.0" encoding="UTF-8"?>
<svg id="Layer_1" data-name="Layer 1" xmlns="http://www.w3.org/2000/svg" viewBox="0 0 1080 1080">
  <defs>
    <style>
      .cls-1 {
        fill: #231f20;
      }

      .cls-2 {
        font-family: Copperplate-Bold, Copperplate;
        font-size: 91.83px;
        font-weight: 700;
        letter-spacing: .04em;
      }

      .cls-3 {
        fill: none;
        stroke: #231f20;
        stroke-miterlimit: 10;
        stroke-width: 7px;
      }
    </style>
  </defs>
  <text class="cls-2"><tspan x="329.3" y="850.24">LONDON</tspan></text>
  <g>
    <g>
      <g>
        <path class="cls-1" d="M653.28,470.49c.17.12.48.33.68.39.07,0,.1-.07.18-.21.2-.34.73-1.2.83-1.4.04-.17-.45-.35-.57-.45-.13-.07-.17-.04-.24.1-.16.3-.76,1.19-.89,1.54l.02.03Z"/>
        <path class="cls-1" d="M611.71,649.55c-.21.12-.61,1.19-.32,1.39.2.13.46.25.66.35.08.04.13.05.15.02.01-.37-.13-.95-.21-1.34-.08-.33-.16-.49-.25-.44l-.03.02Z"/>
        <path class="cls-1" d="M785.52,618.33c3.73,6.26,5.63,13.84,11.96,18.21,8.07,5.77,19.05,3.31,21.36-7.13,2.17-12.01,1.69-24.44,1.89-36.67,0-1.53-.35-2.91-.59-4.35.25-2.25.3-4.19.73-6.43.28-24.17,1.78-48.45,3.37-72.53.3-7.51-3.89-14.57-9.08-19.69-6.09-7.17-16.54-5.69-24.84-2.6-20.96,5.16-30.66,27.07-38.85,44.9-.68,1.56-1.11,1.11-1.1-.38-.41-9.46,3.3-18.28,7.51-26.48,3.23-9.25,8.34-15.77,16.9-20.68,8.97-7.29,20.81-11.35,29.58-17.72,2.14-.85,3.25-2.9,4.99-4.26,1.96-1.72.84-4.81.95-7.14.08-8.93-13.55-6.93-6.02-11.96,4.74-3.16,10.29-4.79,14.29-8.9,6.41-3.96,14.66-10.66,15.08-18.67-.2-8.45-8.12-14.77-15.96-16.66-12.17-3.23-24.11,2.52-35.12,7.18-16.68,9.81-31.74,22.8-40.99,39.98-3.93-8.47-3.22-21.35-11.68-27.75-3.25-.7-6.34-2.54-9.72-3.34-5.71-.04-4.61,5.06-3.17,8.76,2.45,10.23.44,20.99.4,31.35-.48,3.97-1.53,7.93-.56,11.93,2.93,12.13,5.94,25.33,16.48,33.12,2.43,3.09,5.56,6.32,9.07,8.17,1.05.49,2.09,1.3,1.46,2.57-4.88,10.33-5.89,21.85-8.32,32.87-1.36,12.76-2.2,28.36-2.99,40.75-.42,4.98-1.36,9.92-1.48,14.91-.38,5.42.96,10.76,1.74,16.07.15,1.3-.58,2.19-1.69,2.72-7.26,3.54-14.29,7.75-21.69,10.74-1.48.7-7.9,2.92-7.08-.47.23-9.06.66-18.77,1.49-27.77.54-12.43.25-29.67.4-42.67-.57-6.47-3.02-12.87-4.98-19.14-4.34-9.81-16.58-13.52-26.28-9.61-4.84,2.62-9.05,6.82-13.32,10.25-2.87,3.48-6.3,7-8.64,10.78-2.75,4.7-5.82,9.32-7.91,14.51-.89,2.04.02,2.1,1.39.91.07,0,.07.04.07.12-.07,1.69-1.99,1.66-2.98,2.45-3.32,6.2-5.45,13.3-8.09,19.88-2.65,5.52.41-17.94.31-18.97-.18-.66-.9-.09-.84-1.26.23-2.09.63-3.97,1.42-5.86,8.87-24.24,13.35-25.03,31.97-40.1,7.9-6.62,13.4-7.68,22.22-10,9.56-.97,20.26,5.5,29.38.45,15.52-10.1,1.13-26.63-13.16-26.09-5.41.41-9.14,3.66-14.5,5.23-3.61,1.18-9.38,4.33-4.98-1.55,3.5-5.05,5.46-11.06,7.98-16.65,2.17-6.64,5.2-14.88.59-21.12-4.55-4.88-12.71-7.97-18.79-4.04-3.22,1.06-6.05,3.14-8.58,5.33-1.19,1.6.65,1.75-2.08,4.06-1.04,1.12.96-.05,1.45-.14,2.44-.75,4.47.68,6.9.58,1.77.23,5.16-.32,5.06,2.29.22,4.09-3.17,7.36-5.29,10.46-7,10.35-14.11,20.99-22.88,29.9-1.84,1.52-2.92-9.41-2.74-10.52.7-3.86,2.01-7.73,3.38-11.47.33-.67.11-1.54-.19-1.94-.04-.13-.07-.27-.05-.41.18-1.01,1.33-2.03,1.66-3.01.3-.76-.42-.44-.7.06-2.28,3.28-5.54,8.25-7.83,11.36-.33.39-.76.87-1.26.77-6.35-8.78-2.82-25.19,4.95-32.54,1.69-1.86,3.62-3.12,5.99-4.03,4.27-2.3,8.5-4.37,13.05-5.91,5.44-3.97,11.9-7.64,17.97-10.47,5.33-2.31,12.03-.46,16.85-4.12,2.5-2.16,4.44-6.29,4.37-8.78-1.44-5.56-5.36-10.47-9.03-14.78-4.57-3.95-10.85-4.99-16.71-5.66-3.27-.66-2.68-5.07-3.87-7.5-.59-2.2-2.59-3.73-3.76-5.62-2.53-6.71-6.52-12.51-12.3-16.87-19.6-16.42-40.39-16.21-27.83,14.48.08,3.91,1.3,3.2,2.69,6.18,1.36,3,1.55,6.23,1.68,9.5.58,3,1.16,5.45.15,8.55-1.8,13.87-8.35,13.34-18.89,19.14-11.16,5.59-24.91,10.98-36.76,14.75-3.59.89-7.17,2.03-10.93,1.73-1.97-.07-4.26-.68-6.03.32-2.37,1.96-1.92,7.32-1.06,10,1.31,2.22,3.91,3.83,5.92,5.46,5.27,3.55,12.07,6.58,18.66,6.58,4.48.28,10.02,1.03,14.61.16,5.99-1.29,13.61-4.62,19.66-6.94.61-.18,1.57-.63,1.61-.16-3.99,9.25-8.29,20.45-8.31,31.1-.8,9.45,4.3,17.39,11.05,23.41,4.22,3.3-3.8,5.12-5.79,7-.83.41-5.29,3.2-3.39,3.09.74-.27,1.99-1.38,3.02-1.52,1.46.03-6.97,5.84-7.64,3.45-.8-.65-2.43.68-2.68,1.27.11.46,1.06.2,1.29.55-1.9,2.8-6.54,3.82-9.39,5.58-1.79,1.04-3.76,1.82-5.82,1.45-2.51.13-4.38,2.65-5.94,4.32-2.29,2.22-5.37,4.17-7.94,6.18-1.11.82-1.04,2-2.21,2.23-6.97,3.35-12.5,9.6-19.74,12.39-3.22.04.67,1.22-4.87,3.77-.66.06-.78-.78-1.71-.27-2.7,1.68-5.82,3.69-8.63,5.77-5.89,5.01-12.51,9.18-19.19,13.03-8.33,4.97-16.88,11.5-26.53,4.84-.83-.3-1.57-.85-2.33-.38-.72.52-.88,1.64-1.22,2.43-3.15,5.11-1.3,11.71,2.57,15.86,4.06,5.11,11.69,7.77,17.96,7.37,3.6-.5,7.04-3.02,9.83-5.09,12.5-8.55,22.11-21.28,35.68-28.28,1.85-1.06,4.72-2.86,6.31-3.91.79-.75-.04-1.31.8-2.22,2.45-2.4,5.65-3.63,8.03-5.77,1.1-.75,1.39-1.25,1.79-2.48.88-1.35,2.28-2.89,3.22-4.01.58-.79,7.45-3.57,5.85-4.83-1.9,1.24-3.64,2.5-5.88,3.38-1.68.44-3.17,1.17-4.19,2.63-1.37,1.46-3.68,2.13-5.56,2.39-.1-.69,3.29-2.8,3.23-3.51-.99-.18-2.11.96-3.03,1.09-.89.04.44-.85.71-1.15,3.38-2.86,7.22-5.06,10.45-7.93.93-.39,1.66.13,2.54-.05.85-.07,5.08-2.88,3.54-.51-.41.61-1.6,1.33-1.25,2.08.29.21,1.21-.04,1.45.17.36.36-.2,1.12.07,1.44.61-.26.96-1.12,1.52-1.53.62-.83,2.07.46,2.16-.43,0-.42-.28-1.13.18-1.38,4.72-.25,2.38-2.38,6.15-3.82.68-.04-.64,1.66-.44,1.88,1.7-.14,2.1-2.17,2.51-3.52.27-.87,1.9-1.06,2.05-.05.05.61-1.36,1.69.09,1.4.85-.29,2.4-.81,3.09-1.58.22-.46-1.02-.87-1.03-1.3.08-.54.91-.66,1.33-.94,1.38-.85,1.81-1.37,2.77-.25.61.27.79-.8,1.04-1.18.47-1.17,1.49-1.36,2.59-1.95,1.46-1.02,2.94-1.53,4.61-2.28,1.16-.9,2.93-1.18,4.17-1.27,2.28-1.88,4.39-2.25,7.14-3.56,1.46-.86,2.89-2.14,4.45-2.71,5.78-1.57,2.01,1.5.05,3.6-3.77,4.72-7.34,9.85-10.11,15.16-13.52,24.87-14.79,66.41-11.22,94.19,1.83,7.97-.33,17.03,2.57,24.81,1.59,3.4,3.48,6.77,6.11,9.47,2.57,3.67,5.01,7.67,8.73,10.33,4.86,3.5,14.54,2.76,18.55-1.89,3.48-3.34,4.31-8.09,3.37-12.61-.5-6.14,7.51-5.05,10.16-9.32,1.9-2.32,4.54-4.19,6.8-6.23.5-.29,1.05-1.06,1.15-.21-.57,11.12,6.55,13.25,15.93,15.23,10.52,1.53,10.89-13.88,13.27-20.99,1.39-6.37,8.95.95,22.65-7.78,7.15-3.23,12.93-10.6,21.06-11.37.74.34-.34,1.16-.64,1.56-3.19,3.34-6.43,6.95-10.33,9.45-5.44,3.5-10.12,8.24-16.33,10.51-3,1.34-11.37,2.29-8.19,7.24.54,1.12,1.31,2.08,2.58,2.45,5.07,2.66,2.89,2.31,9.11,2.08,7.98-.35,13.94-6.8,20.29-10.96,8.04-5.46,16.1-11.56,22.98-18.35,2.23-3.58,4.54-6.78,6.85-10.32,1-1.27,2.81-1.59,3.37-3.18.91-2.66,3.57-3.9,5.34-5.69,3.25-14.04,1.22-7.29,7.91-.12l.04.07ZM550.32,569.11c-.28-.11.36-.62.34-.66-.02.1-.6.51-.34.66h0ZM550.87,569.16c.11-.14.88-1.09.91-1.11-.25.31-.67.82-.9,1.11h0ZM551.78,568.04c-.12-.01-.3-.04-.47-.06.17.02.36.04.47.06h0ZM568.39,568.22c-.34.13-1,.62-1.38.63.1.06.17-.03.37-.12.18-.08,1.09-.54,1.03-.52h-.02ZM572.75,554.61c-.01.25.1.48.29.49-.2-.02-.31-.24-.29-.49ZM573.71,552.35l.05.6-.05-.6h0ZM573.59,553.94c.21,0,.36.11.4.26-.04-.15-.19-.25-.4-.26ZM575.29,553.31c-.36.03-1.04.08-1.43.12-.11,0-.09,0,.06,0,.33-.03,1.06-.09,1.37-.11h0ZM587.54,550.64c.04-.12.51-1.46.59-1.56.21.01.48.37.67.5q.22.19,0,0c-.19-.14-.44-.43-.64-.5-.17.16-.59,1.52-.62,1.58v-.02ZM588.39,550.59s-.13.05-.23.07c-.09.02-.05.01.06-.01.23-.06.61-.31.79-.4.05-.02-.53.3-.59.33h-.03ZM595.91,545.17c-.36,1.91-2.07,3.26-3.94,3.18-.31,0-.67-.05-.28-.39.3-.27.72-.61,1.03-.9.3-.25.32-.51.29-.79-.03-.23.01-.39.27-.35.33.02.76.3,1.07.16.2-.13.19-.45.29-.66.08-.44,1.1-.69,1.26-.31v.05ZM597.91,542.78c1.17-.38,2.84-.65,4.04-.96.05,0,.07,0,.05,0-.24.11-4.73,3.12-5.19,3.22.21-.49.78-1.78,1.07-2.25l.03-.03ZM617.55,535.57c-4.11,2.14-8.31,4.22-11.87,7.13-.85.77-1.97.79-2.85,1.45-1.26,1.04-2.98,1.66-5.02,2.11-.38.08-1.95.45-1.11-.03,1.69-.93,7.48-4.07,9.35-5.09.2-.11.42-.26.5-.44.15-.31-.12-.64-.62-.74-.75-.15-1.73.5-2.37.76-.41.18-.56.16-.36-.16,1.34-2.24,4.41-2.74,6.31-4.22.95-.56,1.83-1.56,2.96-1.54.65.12.22.73-.52,1.09-.91.43-1.66,1.02-2.67,1.71-.5.37-3.1,1.95-1.96,2.14.88-.06,1.87-.85,2.72-1.26,2.4-1.26,6.49-4.16,9.21-4.4,1.65-.08-.63.93-1.61,1.47l-.08.04ZM619.62,532.86c-.08-.09.26-.14.69-.3.8-.27,2.86-.98,3.28-1.11.03,0,.04,0,.03.04-.12.21-.38.47-.57.68-.88.99-2.21,1.58-3.4.72l-.03-.03ZM616.45,533.18c.17-.91,1.13-1.57,2.03-1.52.37,0,.62-.13.74-.46.17-.65.32-1.27,1.07-1.46.54-.2,1.27-.32,1.88-.41.69-.08,1.32-.28,1.57-.02.24.2.24.63-.04.78-1,.48-4.62,2.11-6.19,2.83-.65.27-1.06.57-1.06.29v-.04ZM624.4,530.47s-.03-.03.01-.07c.38-.27,2.29-1.53,2.78-1.86.17-.11.3-.13.52-.15.32-.02.91-.09.93,0,0,.11-.21.24-.32.33-1.37,1.04-2.32,1.7-3.89,1.74h-.03ZM630.51,608.72c-.19-.16-.47-.4-.65-.6.11.14.55.53.67.62l-.02-.02ZM630.56,606.81c-.12.12-.42.4-.53.51q-.08.08,0,0c.1-.09.45-.44.53-.52h0ZM630.44,606.5s.07-.91.09-1.13c-.02.19-.02.88-.09,1.13h0ZM630.61,604.17c-.41.39-1.46,1.36-1.71,1.61-.13.13.11.28.18.35-.14-.13-.37-.25-.09-.45.45-.42,1.23-1.16,1.62-1.52h0ZM631.28,607.26c-.06-.38.04-1.05.23-1.36-.18.31-.29.98-.23,1.36h0ZM631.4,576.23s.55-3.25.52-3.06c-.15.86-.39,2.25-.52,3.06h0ZM632,608.91c.06-.34.64-3.74.54-3.18-.16.91-.4,2.32-.54,3.18h0ZM655.34,545.66c.88.27.62.5.29,1.17.04-.07.12-.23.18-.35.16-.29.22-.49,0-.61-.21-.12-.47-.26-.56-.16-.08.07-.16.27-.3.53-.23.46-.51,1.01-.74,1.46-.08.15.12-.23.38-.75.32-.56.49-1.12.71-1.28h.04ZM653.92,548.36l.52.26-.52-.26h0ZM652.86,574.21c1.83-2.05,4.37-5.12,6.06-6.92.53-.54,1.02-1.03,1.46-1.66,1.87-3.53,4.39-6.8,7.05-9.89,3.07-3.87,5.14,8.07,5.45,9.95.15,1,.82,1.76,1.08,2.7.19.74-.1,1.68.42,2.31.15.21.22.29.33.49.57,1.44.77,4.35,1.13,5.92.07.35.21.7.54.83.27.12.58.15.82.36.18.15.32.4.39.74.22,1.12.3,3.11.35,4.38,0,.25-.02.52-.12.73-.16.35-.54.46-1.11.4-9.08-1.44-10.9-9.55-19.95-6.61-1.24.37-2.4.92-3.58,1.32-1.14.34-2.85,1.04-2.55-.46.27-1.59,1.16-3.34,2.17-4.53l.05-.06ZM642.32,569.94c-.2.13-1.14,2.1-1.25,2.23.32-.56.86-1.71,1.22-2.23h.02ZM641.83,572.54h0s-.04-.02-.04-.02l.04.02ZM640.84,573.02s.05,0,.07.01c-.03-.05-.58.13-.62.13l.55-.15ZM640.25,573.17h0s-.09.31-.09.31c0,0,.09-.3.09-.31ZM640.16,573.47s-.09.88.04,1.03c-.12-.19-.07-.81-.04-1.04h0ZM636.47,613.7c-.21-.48-.04-1.27.55-1.42-.55.12-.78.95-.55,1.42h0ZM637.18,613.75c.05-.37.04-1.05-.07-1.39.12.35.12,1.02.07,1.39h0ZM639.13,634c-.18-.05-.99-.27-1.1-.3.16.04.95.25,1.11.3h0ZM639.59,632.52c0-.05.16-.5.11-.62-.03-.12-.3-.14-.59-.24-.59-.2-.53-.13-.67.44-.03.1-.15.6-.05.22.04-.17.11-.49.17-.65.05-.21.22-.1.56-.01.34.11.61.12.6.3-.02.19-.08.38-.12.56h0ZM652.64,613.44c-2.32,6.25-4.16,12.73-6.58,18.83-.34,1.48-1.54,2.52-2.18,3.77-.69,1.83-1.3,4.02-2.05,5.85-.99,2.53-1.6-1.43-1.58-2.31,0-2.34-.11-5.23-.23-7.81-.06-1.02,0-1.95-.28-2.81-.22-.66-.55-1.32-.8-1.98-.91-2.2-.15-4.63-.24-7.01.01-1.31-.09-2.7-.2-3.93,0-1.84-.8-4.77,1.08-5.92,5.61-2.03,9.98-6.43,14.73-9.96.44-.33,1.16-.73,1.56-.31.61.68.4,2.09.15,2.97-.92,3.2-2.3,7.61-3.35,10.56l-.03.07ZM653.07,640.24s.47-.48.47-.48l-.47.48ZM654.76,637.51c-.68.47-1.23,1.55-1.59,2.33.48-1.4,1.6-2.49,2.93-3.11.53-.25-1.12.63-1.29.74l-.05.03ZM658.44,637.28l-.26.09c.17-.07.4-.08.33-.35.02.13,0,.23-.07.26ZM670.14,655.83c.04.41.3,1.11.43,1.48-.12-.37-.38-1.07-.43-1.48h0ZM671.51,657.09c-.1.07-.75.49-.83.55.14-.09.62-.4.85-.56h-.02ZM671.64,653.85c-.31.36-.89,1.02-1.24,1.42-.16.18-.2.23-.09.11.27-.3,1.23-1.42,1.34-1.53h0ZM678.82,623.14c-.16,1.47-.45,3.22-1.91,3.9-.49.14-.54-.59-.86-.45-.4.23-.77.99-1.41,1.42-.34.25-.7.41-1.1.56-4.51,1.63-8.47,4.75-12.81,6.59-1.04.32-2.04-.23-3.06.07-1.07.3-2.29,1.28-3.08,1.52-.06,0-.05-.05,0-.15.03-.06.09-.14.15-.23,1.02-1.43,4.51-6.29,5.75-8,.35-.51.61-.64.31.35-.23.83-.73,1.82-1.23,2.6-.49.84-1.26,1.8-.99,1.99,2.67-1.57,4.87-7.11,6.24-10.06.15-.4.32-1.28-.24-.69-.41.4-.99,1.6-1.44,2.12-.66.81-.53.04-.12-.84.34-.68.63-1.39.96-2.01.18-.33.41-.58.76-.58.79.05.74-.51,1.19-1.25.2-.33.47-.63.71-.94.53-.63.77-1.66,1.15-2.43.82-1.57,1.98-2.99,2.81-4.57.93-1.79,1.78-3.15,2.9-4.73,1.03-1.52,2.39-3.59,3.28-4.82.78-1.04.75-.29,1.46.36.25.22.57.32.8.56.46.52.39,1.22.4,2.04-.07,1.46-.51,2.83-.16,4.29.04,2.62.17,6.31.38,8.96.1,1.52-.67,2.84-.84,4.35v.09ZM802.85,581.29c.12.22.26.56.31.83-.02-.18-.24-.72-.32-.85v.02ZM802.26,583.75c.15-.07.27-.14.38-.22-.11.08-.24.15-.38.22h0ZM751.02,544.44c.05.63.12,1.63.17,2.29.03.37-.16-2.12-.17-2.29h0ZM746.72,463.85c-2.71-7.97-.58-14.81,5.74-21.47.64-.71,1.39-1.36,2.18-1.79,1.21-.6,1.76-1.49,2.86-2.2.62-.38,1.33-.73,2.01-1.03,1.27-.58,2.43-.79,3.71-.93,3.23-.37,6.64-.98,9.62-2.32,3.65-1.45,6.39-4.13,9.23-6.72,2.06-1.71,4.64-2.98,6.96-4.45,2.53-1.45,5.23-2.73,7.84-4.08,1.1-.53,5.29-2.17,5.52-.81,0,.46-.57,1.21-1.01,1.89-4.29,6.44-10.38,13.71-15.5,18.76-3.65,3.36-6.92,7.64-10.84,10.7-1.22.94-2.39,1.55-3.66,2.5-1.09.87-2.34,1.47-3.64,1.94-2.12.94-4.14,2.99-6.01,4.51-.93.94-.77,2.07-1.58,3.23-.94,1.28-2.06,2.45-2.61,3.95-.68,1.94-2.01,4.65-2.42,6.73-.16,1.15-.28,3.12-.34,4.71-.11,1.09.34,2.03.98,2.86.53.74.57,1.96,1.34,2.95,1.14,1.26,2.71,2.37,2.65,4.26.03,1.01-.68,1.96-1.39,3-.44.63-1.27,1.66-1.81.47-1.01-2.32-2.39-5.72-3.4-7.73-.28-.59-.47-1.11-.61-1.77-.19-.85-.26-2.02-.59-2.75-.48-1.12-1.55-1.53-1.95-2.53-1.1-3.51-2.31-8.56-3.29-11.79l-.02-.06ZM753.92,594.11c-.2-.43-.32-.92-.37-1.41-.36-3.38-.79-8.57-.92-11.97-.07-1.08-.97-1.1-1.13-2.12-.95-6.9-1.19-14.65-1.32-21.7-.02-.37-.02-.92-.09-1.19-.19-.7-.73,1.42-.98,1.4-.08.04-.12-.02-.16-.09-.12-.3-.15-.74-.19-1.1-.15-1.68-.12-3.4.27-4.88.29-.8.11-1.61.09-2.4.08-1.01.74-.58.79.21.06.36.07.76.04,1.12-.06.77-.27,1.31.01,1.53.23.17.53.17.81.26,1.07.24,1.34,1.19,2.05,2.21,1.16,1.5,2.58,2.92,4.29,3.76,3.95,1.8,7-3.51,9.44-6.3,2.36-1.93,6.41-5.09,8.4-6.57.53-.27.2.58.09,1.12-1.85,6.66-6.7,11.84-11.29,16.85-1.49,1.69-3.15,3.33-4.66,5-2.55,2.99-3.78,6.87-4.24,10.77-.15,1.08,0,2.16.55,3.11,1.29,2.12,2.64,4.57,4.57,6.15,1.16.87,1.75,1.71,1.1,3.2-.05.22-.18.46.03.58.28.14,1.57-.45,1.78-.34.06.02.06.07.03.13-.18.26-.62.65-.93.91-.65.56-1.3,1.1-1.88,1.73-.77.9-1.38,1.87-2.52,2.6-.55.35-1.29.97-1.93.66-.2-.15-.24-.22-.35-.42-.35-.94-.87-1.9-1.36-2.75l-.03-.06ZM780.51,605.96c-.66.6-1.68,2.35-2.43,2.3-.3-.16-.41-.55-.61-.86-.31-.57-.77-1.01-1.33-1.35-2.27-1.52-5.02-2.06-7.65-2.62-1.33-.63-2.66-1.8-4.29-1.33-2.7.37-8.01,3.73-6.45-.95.12-.96-.49-1.77-.19-2.72.24-.87,1.6-1.53,2.27-.78.27.36-.33,1.24-.34,1.54-.12.57,1.3-.43,1.69-.56,4.3-2.16,9.58-4.29,13.51-6.53,1.52-.83,3.43-1.26,4.93-2.11,1.37-.81,2.51-2.06,3.93-2.87,1.93-1.26,4.38-1.93,6.06-3.62,1.3-1.43,3.22-2.61,4.27-4.27.46-1.16.22-2.84.23-4.08-.03-1.1-.66-1.71-1.21-2.6-1.29-2.73-3.54-5.08-6.19-6.56-1.91-.94-3.88-2.41-5.69-3.42-.48-.28-1.08-.67-1.07-1.16-.05-1.4,2.89-4.84,4.29-6.71,1.62-2.27,3.88-4.39,5.67-6.39,6.36-6.43,6.96-12.15-.13-19.49-1.36-3.17-1.79-7.27-5.61-8.62-7.96-3.24-15.03,3.47-20.31,8.75-1.62,1.59-2.78,3.8-4.88,4.88-1.19.6-.8-.78-.47-1.44,3.27-7.73,8.26-14.68,13.72-20.92,4.94-4.72,13.01-7.82,19.7-8.91,2.55.15,4.82,2.35,5.36,4.98.48,1.61,1.05,3.11,1.31,4.77.44,2.56.55,5.51,1.12,8.16,3.52,18.04,1.73,37.16,1.91,55.46-.09,5.84-.3,11.98-.66,17.49-.47,4.52-1.54,9.87-2.13,14.44-.22,1.98-.37,2.74-2.35,2.41-5.04-.66-10.11-1.79-14.63-4.02-.41-.17-.95-.5-1.33-.3l-.04.02Z"/>
        <path class="cls-1" d="M852.19,698.18c.37-.9.34-2.3,0-3.32-.39-2.44-1.31-4.94-2.19-7.28-.51-1.48-1.26-3.51-1.88-5.07-.46-1.06-.29-2.1-.75-3.1-1.09-1.65-1.49-3.5-2.45-5.24-.34-.63-.78-1-1.42-1.25-.84-.34-2.25-.84-2.92-1.11-.68-.25-.89-.46-1.45-1.08-1.93-2.08-4.84-5.31-6.94-7.56-1.69-1.82-4.64-3.05-6.31-4.88-1.65-1.58-3.76-2.84-5.66-4.16-.82-.51-1.11-.55-2.16-.88-3.4-1.08-9.47-2.74-13.08-4.06-4.07-1.7-8.76-3.21-13.15-2.97-2.96-1.11-6.62-2.56-9.55-3.93-.64-.32-1.05-.52-1.16-.05-.09.48-.05,1.07.05,1.57.15.84.51,1.36,1.07,1.95.84.97,1.96,2.03,2.7,3.06.16.29.13.49-.04.69-.15.2-.16.3.1.48.99.53,1.92,1.25,2.58,2.21.71.89,1.52,1.69,2.14,2.45.43.53.78,1.12,1.15,1.69.75,1.23,1.84,2.32,2.62,3.62.38.61.76,1.23,1.2,1.78,2.87,3.15,6.07,7.07,8.46,10.32,1.36,1.84,2.85,3.63,4.3,5.41,3.01,3.84,5.63,8.1,8.48,12.12,1.93,2.79,3.81,5.4,5.83,7.88,1.55,2.02,2.68,4.34,4.32,6.23.8.81.9,2.04,1.58,2.89.52.52,1.34.68,1.71,1.37.52.85.53,2.03.94,2.95.37.9,1.23.98,1.77,1.79.33.48.47,1.07.63,1.62.07.24.14.45.21.6.1.23.21.3.34.21.21-.19.38-.56.62-.76.55-.39.75.48,1.06,1.27.38.87.36,2.23,1.18,2.46.49.11,1.01-.08,1.52,0,.79.12,1.45.93,2.31,1.03,1.04.14,2.27-.33,3.39-.38,2.92-.22,3.59-2.03,5.17-3.93.72-.66,1.53-1.37,1.6-2.42.11-1.14.29-1.94.91-3.13.43-1.01,1.09-1.92,1.03-3.02,0-1.27-.02-4.46-.02-6.26-.01-.81.02-1.27.16-1.76l.02-.06Z"/>
        <path class="cls-1" d="M611.42,644.27c-.2-.92-.32-1.44-.95-.33-.02.54.36,1.53.46,2.12.05.2.08.38.11.4.23-.5.48-1.55.38-2.12l-.02-.07Z"/>
        <path class="cls-1" d="M577.27,558.44c.7-.08,3.93-1.22,4.78-1.45.33-.1.32-.33.41-.69.1-.51.33-1.34.29-1.56-.04-.21-.31-.04-.45.03-1.56.87-3.7,2.44-5.03,3.65v.02Z"/>
        <path class="cls-1" d="M603.6,529.92c.55.23,1.33.11,1.96,0,.61-.18,1.39-.4,1.69-.93,0-.07-.07-.12-.19-.16-1.29-.35-2.54.13-3.47,1.06v.03Z"/>
      </g>
      <g>
        <path class="cls-1" d="M347.76,621.02h0s-.06-.05-.07-.06h.03s.01.02.02.03c0,0,.02,0,.03.02h0Z"/>
        <path class="cls-1" d="M348.2,621.34c-.11-.08-.23-.16-.32-.24.1.07.21.15.32.24Z"/>
        <path class="cls-1" d="M346.73,627.43c-.06.01-.12.01-.17.02.03,0,.05,0,.09-.01.03,0,.05,0,.09,0Z"/>
        <path class="cls-1" d="M346.99,627.41s-.07,0-.09.01c-.03,0-.05,0-.09,0,0,0,0,0,.01,0,.05,0,.1,0,.15-.01h.01Z"/>
        <path class="cls-1" d="M348.7,622.66s.01-.05.01-.07c-.02.14-.04.27-.07.4.02-.1.03-.22.05-.33Z"/>
        <path class="cls-1" d="M348.75,622.38s0-.05.01-.08c-.01.08-.03.17-.04.25v-.02s.01-.07.02-.11v-.05Z"/>
        <path class="cls-1" d="M348.83,621.84c-.01.07-.03.16-.04.26h0s0-.07.01-.1h0s0-.07.01-.09c0-.02,0-.05.01-.07Z"/>
        <path class="cls-1" d="M345.96,616.13s-.07.08-.1.11c.03-.03.05-.06.08-.09.01,0,.02-.01.03-.02Z"/>
        <path class="cls-1" d="M346.87,614.79s-.01.03-.02.05c0,0,0,.02-.02.03.01-.03.03-.05.04-.07Z"/>
        <path class="cls-1" d="M355.08,614.29c-.02.07-.04.12-.05.16.01-.04.03-.09.05-.16Z"/>
        <path class="cls-1" d="M341.8,610.09s.02-.03.03-.05c-.03.07-.07.12-.09.18.02-.05.05-.09.07-.14Z"/>
        <path class="cls-1" d="M342.74,608.24s-.04.07-.05.1c.01-.03.03-.07.05-.1h0Z"/>
        <path class="cls-1" d="M352.09,620.19c-.14.18-.26.39-.37.6.1-.21.22-.41.37-.6Z"/>
        <path class="cls-1" d="M342,607.21s.08-.11.12-.17c-.08.1-.13.18-.12.17Z"/>
        <path class="cls-1" d="M356.91,614.18h-.03.03Z"/>
        <path class="cls-1" d="M356.98,614.19h-.03s-.02,0-.03,0h.02s.03,0,.04,0Z"/>
        <path class="cls-1" d="M357.66,614.29s-.01,0-.03,0h.03Z"/>
        <path class="cls-1" d="M352.09,625.31s-.06.1-.09.13c.02-.03.06-.09.09-.13Z"/>
        <path class="cls-1" d="M351.76,625.67c-.05.05-.11.09-.17.13-.06.05-.12.09-.18.12-.04.03-.08.06-.12.08-.03.02-.06.04-.09.06-.03.01-.06.03-.09.05-.06.03-.12.07-.19.1-.07.04-.13.07-.2.1-.03.01-.06.03-.09.04.04-.03.09-.05.14-.07.07-.03.13-.07.2-.1.07-.04.14-.08.21-.12.07-.04.14-.09.2-.12.13-.08.26-.18.39-.27Z"/>
        <path class="cls-1" d="M338.65,587.88s.12.12.14.14c.03.03-.11-.11-.13-.14h0Z"/>
        <path class="cls-1" d="M340.2,588.86c-.02-.08-.11-.25-.22-.43-.1-.16-.22-.34-.3-.43.03.03.05.06.08.08.09.1.16.2.24.31.09.14.16.29.2.43v.03Z"/>
        <path class="cls-1" d="M338.49,587.09s-.01-.07-.03-.1c0-.04-.01-.08-.03-.12,0,0,0,0,0-.01,0-.04-.02-.09-.03-.12h0s-.02-.07-.03-.09h0s-.01-.05-.01-.06h0s0,0,0,0h0s0,0,0,0c0,.01,0,.03,0,.05l.02.05c.03.07.07.28.09.41Z"/>
        <path class="cls-1" d="M341.29,588.44c.38-.07.79-.14,1.2-.24-.01,0-.03.01-.04.01-.08.02-.15.04-.22.06h-.01c-.08.01-.16.03-.24.05-.07.01-.14.03-.21.04-.16.03-.33.06-.48.08Z"/>
        <path class="cls-1" d="M342.77,588.13s-.07.02-.1.03c-.06.01-.12.03-.18.04.09-.02.18-.05.28-.07Z"/>
        <path class="cls-1" d="M344.59,587.51s.01,0,.02,0c-.07.03-.13.06-.2.09-.01,0-.03.01-.05.02.08-.04.16-.07.23-.1Z"/>
        <path class="cls-1" d="M344.7,587.46s-.06.03-.09.05c.01,0,.03-.01.05-.03.02,0,.03,0,.05-.02Z"/>
        <polygon class="cls-1" points="344.86 587.39 344.86 587.39 344.86 587.39 344.86 587.39"/>
        <path class="cls-1" d="M345.64,586.9s-.08.07-.13.1c-.03.02-.05.04-.09.05-.03.02-.06.04-.09.06-.02.01-.05.03-.07.05-.05.03-.11.07-.16.1,0,0-.01,0-.02,0,.01-.01.02-.02.03-.02,0,0,.02-.01.03-.02.01,0,.03-.01.04-.02.05-.03.1-.07.16-.1,0,0,.02-.01.03-.02.01,0,.03-.01.03-.02.08-.05.15-.1.22-.16.01,0,.02,0,.03-.01Z"/>
        <path class="cls-1" d="M336.7,615.33c-.04.05-.09.11-.12.16-.13.16-.26.34-.37.5-.03.06-.07.11-.11.16-.03.05-.07.1-.1.15,0,.01-.01.03-.03.04.01-.03.03-.05.05-.08,0-.01.01-.03.03-.05.15-.27.39-.59.67-.89Z"/>
        <path class="cls-1" d="M342.49,606.53c.05-.06.09-.12.13-.17,0,0-.05.06-.13.17Z"/>
        <path class="cls-1" d="M346.1,586.01s.02.05.03.07c-.03-.09-.09-.17-.16-.25.01,0,.03.02.04.03.02.02.04.05.06.07t0,.01s.02.04.03.06Z"/>
        <path class="cls-1" d="M346.14,586.14s-.01-.03-.02-.05c0,0,.01.02.01.03s0,.02,0,.03Z"/>
        <path class="cls-1" d="M337.74,614.32c-.08.08-.21.19-.33.3.02-.03.04-.04.05-.06.02-.02.04-.03.06-.05h0s.08-.07.11-.1c.04-.03.07-.06.1-.08Z"/>
        <path class="cls-1" d="M373.33,702.99s.03.01.05.03c-.01,0-.03,0-.03-.01h-.02Z"/>
        <path class="cls-1" d="M373.51,703.08s.05.03.07.04h0s-.05-.02-.07-.04Z"/>
        <path class="cls-1" d="M373.95,703.31s-.07-.03-.1-.05c-.05-.03-.09-.05-.14-.07-.05-.02-.09-.04-.12-.07h0c.07.04.15.08.24.12.04.03.09.05.12.07Z"/>
        <polygon class="cls-1" points="373.98 703.33 373.98 703.33 373.98 703.33 373.98 703.33"/>
        <path class="cls-1" d="M374.1,703.39s-.08-.04-.12-.06c0,0,.01,0,.02,0,.03.02.07.03.1.05Z"/>
        <path class="cls-1" d="M383.31,690.09s0,0,0,0c0-.01,0,0,0,0Z"/>
        <path class="cls-1" d="M385.31,692.46s-.02.02-.03.03c.01-.01.02-.03.03-.03h0Z"/>
        <path class="cls-1" d="M385.64,691.06s-.04.07-.05.1c0,.02-.01.04-.01.06,0-.02,0-.04,0-.06,0,0,0-.01,0-.02h0s0-.02.01-.03c0-.01,0-.02.02-.03h0s.01-.02.01-.03h0Z"/>
        <path class="cls-1" d="M385.68,691h0s0,.01,0,.01t0-.01Z"/>
        <path class="cls-1" d="M390.47,683.9h0s0,0-.01,0c0,0,0,0,.01,0Z"/>
        <polygon class="cls-1" points="390.22 683.4 390.22 683.4 390.22 683.4 390.22 683.4"/>
        <polygon class="cls-1" points="383.13 690.61 383.13 690.62 383.13 690.62 383.13 690.61"/>
        <path class="cls-1" d="M379.43,702.03h-.01s-.05,0-.07,0c.03,0,.05,0,.09,0Z"/>
        <path class="cls-1" d="M379.53,702.04c.1,0,.24.02.37.03-.12-.01-.26-.03-.37-.03Z"/>
        <path class="cls-1" d="M381.45,706.98s0,.03,0,.05c0,.01,0,.02,0,.02-.01-.01-.03-.07-.05-.15l-.02-.06c-.02-.08-.05-.18-.05-.29,0-.12.07-.23.12-.31-.02.05-.04.1-.05.16,0,.18.06.41.06.58Z"/>
        <path class="cls-1" d="M381.59,690.54s-.07-.13-.06-.12c0-.01.06.11.06.12h0Z"/>
        <path class="cls-1" d="M381.51,690.4s-.04-.13-.05-.15c0,.02.04.14.05.15h0Z"/>
        <path class="cls-1" d="M392.97,690.06s.06.1.15.23c-.05-.08-.1-.16-.15-.23Z"/>
        <path class="cls-1" d="M376.62,703.3s-.1.08-.18.14c-.03.02-.05.03-.08.05s-.05.03-.09.05l-.07.04c-.07.04-.14.08-.22.12t0,0c-.07.03-.13.05-.19.07,0,0-.02,0-.03,0-.33.08-.51.05-.39.05.12-.01.24-.03.36-.08.21-.07.44-.21.63-.33.29-.2.39-.24.26-.12Z"/>
        <path class="cls-1" d="M378.36,699.43c-.87-.31-1.73-.58-2.47-.84.78.27,1.62.54,2.47.84Z"/>
        <path class="cls-1" d="M394.09,683.59h0,0Z"/>
        <path class="cls-1" d="M394.49,691.03s0,.01-.01.02-.03.03-.06.05c.03-.03.05-.05.07-.07Z"/>
        <path class="cls-1" d="M393.6,691.02c-.05-.07-.1-.15-.16-.24.09.14.16.24.16.24h0Z"/>
        <path class="cls-1" d="M396.33,679.08c-.07.03-.13.05-.17.07.05-.02.11-.05.17-.07Z"/>
        <path class="cls-1" d="M375.37,698.42c-.05-.02-.1-.03-.12-.05.02,0,.05.02.12.05Z"/>
        <path class="cls-1" d="M332.71,548.03h0s.05.06.15.18c-.05-.07-.1-.13-.15-.18Z"/>
        <path class="cls-1" d="M329.93,550.6s.03-.06.05-.09c-.01.03-.02.05-.03.07,0,0,0,.01-.01.02Z"/>
        <path class="cls-1" d="M330.09,550.29h0s-.04.09-.06.12c.02-.05.04-.08.06-.12Z"/>
        <path class="cls-1" d="M330.13,550.24s-.03.04-.03.06h0s.03-.04.04-.06Z"/>
        <path class="cls-1" d="M333.41,548.89c-.09-.11-.2-.24-.31-.37.18.22.34.41.31.37Z"/>
        <path class="cls-1" d="M334.45,547.55c-.11.03-.22.09-.31.14.07-.05.18-.1.31-.14Z"/>
        <path class="cls-1" d="M333.99,549.27s-.05.03-.07.04h.01s.03-.03.05-.04Z"/>
        <path class="cls-1" d="M335.68,548.26c-.4.24-.86.52-1.27.75.39-.23.9-.54,1.27-.75Z"/>
        <path class="cls-1" d="M354.09,409.6c-.04.1-.1.23-.16.33.06-.1.12-.22.16-.33Z"/>
        <path class="cls-1" d="M353.6,408.38s-.02-.02-.03-.02c0,0,.02.02.04.03,0,0,0,0-.01,0Z"/>
        <path class="cls-1" d="M338.07,586.65s-.04.03-.01.01c0,0,.01,0,.01-.01Z"/>
        <polygon class="cls-1" points="354.13 409.49 354.13 409.5 354.13 409.49 354.13 409.49"/>
        <path class="cls-1" d="M328.7,550.46s.02-.01.03-.02c-.01.02-.03.03-.05.04,0,0-.02.01-.03.02.01-.02.03-.03.05-.04Z"/>
        <path class="cls-1" d="M308.74,443.97s0,0,0,0h0s0,0,0,0Z"/>
        <path class="cls-1" d="M438.42,434.63h0c.35.48.99,1.23,1.49,1.75-.46-.48-1.12-1.24-1.49-1.75Z"/>
        <path class="cls-1" d="M441.01,432.25s-.09-.37-.35-.76c-.24-.37-.69-.75-.97-.95.14.08.27.18.41.29.13.11.26.24.39.39l.04.05c.26.31.43.61.49.97Z"/>
        <path class="cls-1" d="M438.84,433.6s.06-.17.12-.35c-.04.13-.08.25-.12.35Z"/>
        <path class="cls-1" d="M306.9,450.47c-.01.14-.02.26-.03.37,0-.09.01-.22.03-.37Z"/>
        <path class="cls-1" d="M420.99,505.77c-.09.03-.3.09-.35.11.06-.02.27-.09.36-.12h0Z"/>
        <path class="cls-1" d="M421.37,509.31c-.03-.1-.06-.2-.09-.29-.03-.1-.07-.21-.1-.31-.03-.1-.07-.21-.11-.31-.02-.06-.05-.12-.07-.18-.05-.12-.09-.23-.14-.34-.02-.05-.04-.1-.06-.15-.03-.05-.05-.1-.07-.15-.03-.09-.07-.18-.11-.25-.01-.03-.02-.05-.03-.08.01.02.02.05.03.07.03.07.07.14.1.21.04.09.07.16.11.25.03.05.05.11.07.17.07.16.13.33.19.48.04.1.07.21.1.31.04.1.07.2.1.3.01.05.03.1.04.14.01.05.03.09.04.14Z"/>
        <path class="cls-1" d="M418.98,507.51c-.09.26-.19.62-.28.99.09-.36.19-.71.28-.99h0Z"/>
        <polygon class="cls-1" points="353.85 408.6 353.85 408.6 353.85 408.6 353.85 408.6"/>
        <path class="cls-1" d="M295.06,589.16v.05s0,.03,0,.03c0,0,0-.04,0-.08Z"/>
        <path class="cls-1" d="M321.68,425.94s.03-.03.04-.04c0,0-.01,0-.04.04Z"/>
        <path class="cls-1" d="M361,501.37h0s.31-.2.4-.27c.05-.04.04-.03-.04.03-.09.07-.28.19-.36.25Z"/>
        <path class="cls-1" d="M364.56,535.72s0,0,0-.03c.03-.11.05-.22.07-.34-.02.1-.04.21-.07.31-.01.07-.01.06-.01.06Z"/>
        <path class="cls-1" d="M311.53,598.78s.01-.01.02-.01h0s0,.01-.01.01Z"/>
        <path class="cls-1" d="M312.4,598.27c-.07.05-.13.09-.2.14,0,0,0,0-.01,0-.06.04-.12.07-.18.1-.01,0-.02.01-.03.01,0,0-.01,0-.01.01-.06.03-.11.06-.16.09l-.04.02s-.06.04-.09.05c-.04.02-.07.04-.1.06t-.01,0s.02-.01.03-.03c.05-.03.12-.07.2-.12.14-.07.31-.17.48-.27.05-.03.09-.05.12-.08Z"/>
        <path class="cls-1" d="M312.94,597.82s-.02.02-.03.03c-.01.01-.03.03-.05.04,0-.01.01-.02.02-.03.01-.01.03-.02.03-.03,0,0,.02-.01.03-.02Z"/>
        <path class="cls-1" d="M312.97,597.8s-.02.02-.03.03c0,0,0-.01,0-.01h.02Z"/>
        <path class="cls-1" d="M313.02,597.74l-.04.04s.03-.03.03-.04h0Z"/>
        <path class="cls-1" d="M313.16,597.59s-.04.05-.06.07c-.02.02-.04.05-.07.07v-.02s.01,0,.01,0c.03-.03.07-.06.09-.09.01,0,.02-.01.03-.02Z"/>
        <path class="cls-1" d="M313.27,597.46s-.02.03-.03.04c-.01.01-.02.03-.04.04.03-.03.05-.07.07-.08Z"/>
        <path class="cls-1" d="M338.26,586.54s-.05.02-.09.04c.04-.02.08-.04.09-.04h0Z"/>
        <path class="cls-1" d="M311.13,597.8c.04-.1.08-.2.1-.25h0s-.06.15-.1.25Z"/>
        <path class="cls-1" d="M296.15,586.92h0s-.07.04-.11.06c.04-.02.07-.04.11-.06Z"/>
        <path class="cls-1" d="M365.73,533.04c-.21,0-.44-.08-.57.07h0c.12-.16.36-.08.57-.07Z"/>
        <path class="cls-1" d="M315.43,434.05c-.14.15-.33.35-.52.56.18-.21.36-.41.52-.56h0Z"/>
        <path class="cls-1" d="M315.53,436.78c-.26.48-.72,1.23-.99,1.65.29-.45.74-1.2.99-1.65h0Z"/>
        <path class="cls-1" d="M319.13,428.49s.03-.03.05-.05c-.09.09-.16.18-.25.27.06-.07.13-.14.2-.22Z"/>
        <path class="cls-1" d="M319.29,428.33l-.11.11s.07-.08.1-.11h0Z"/>
        <path class="cls-1" d="M319.48,428.12l.12-.12c-.09.1-.19.2-.28.29.05-.06.11-.12.16-.18Z"/>
        <path class="cls-1" d="M354.02,494.49c.13.03.34.07.57.1-.21-.03-.42-.06-.57-.1h0Z"/>
        <path class="cls-1" d="M355.55,494.67c-.15,0-.34-.01-.54-.03.22.02.43.04.54.03Z"/>
        <path class="cls-1" d="M356.17,492.41v-.08c.03-.74.06-1.58.08-2.36-.03.93-.07,1.95-.1,2.81,0-.12,0-.25.01-.37Z"/>
        <path class="cls-1" d="M411.71,667.65c-.19.18-.48.43-.75.71.06-.07.12-.14.18-.2.18-.2.37-.37.56-.51Z"/>
        <path class="cls-1" d="M367.86,501.61h0s0,0,0,0h0Z"/>
        <path class="cls-1" d="M368.28,505.67c-.03.1-.05.2-.08.28.02-.07.05-.16.08-.28Z"/>
        <path class="cls-1" d="M368.64,504.33c-.02.09-.05.19-.08.3.03-.12.06-.22.08-.3Z"/>
        <path class="cls-1" d="M367.82,506.91s.06.25.06.24c0,0-.05-.22-.06-.24h0Z"/>
        <path class="cls-1" d="M367.47,501.14s.07.08.14.18c-.05-.06-.1-.12-.14-.18Z"/>
        <path class="cls-1" d="M410.71,515.12c-.01.15-.02.3-.03.43,0-.13.02-.27.03-.43Z"/>
        <path class="cls-1" d="M388.77,475.89s-.03.02-.05.03c-.04.02-.09.03-.12.05h0s.03-.01.05-.03c.04-.01.08-.03.12-.05Z"/>
        <path class="cls-1" d="M389.62,475.42c-.1.08-.22.16-.34.23-.1.07-.28.15-.5.24.1-.05.19-.1.29-.14.2-.1.39-.21.56-.33Z"/>
        <path class="cls-1" d="M369.95,529.32c-.06,0-.16-.02-.29-.04.11.02.21.03.29.04Z"/>
        <path class="cls-1" d="M369.48,529.25c-.11-.02-.22-.05-.3-.07.09.02.2.05.3.07Z"/>
        <path class="cls-1" d="M392.88,408.28s.08.04.09.04c.04.02-.01,0-.09-.04Z"/>
        <path class="cls-1" d="M368.03,500.24c-.01.1-.03.2-.04.29,0-.07.02-.18.04-.29Z"/>
        <path class="cls-1" d="M387.76,573.04s0,.03,0,.05c0,.05,0,.1,0,.16,0-.03,0-.07,0-.11,0-.05,0-.12,0-.18,0,.03,0,.05,0,.08Z"/>
        <path class="cls-1" d="M393.99,407.99s-.03-.09-.06-.14c-.09-.22-.16-.37-.22-.47.01.01.03.03.03.05l.03.05c.08.14.16.33.22.52Z"/>
        <path class="cls-1" d="M423.37,569.7s.01,0,.02,0c.01,0,.05.01.01,0,0,0-.02,0-.03,0Z"/>
        <polygon class="cls-1" points="419.04 567.1 419.04 567.1 419.04 567.1 419.04 567.1"/>
        <path class="cls-1" d="M419.01,566.97c-.03-.13-.08-.28-.13-.41.04.12.09.3.13.41Z"/>
        <path class="cls-1" d="M412.31,526.39v.03c-.04-.08-.09-.16-.14-.24.05.07.09.14.14.22Z"/>
        <path class="cls-1" d="M412.58,526.83c-.07-.1-.12-.2-.18-.3.05.08.1.16.16.25,0,0,0,.01.01.02,0,.01.01.02.01.03Z"/>
        <path class="cls-1" d="M412.62,526.9s-.01-.01-.02-.02c0-.01,0-.02-.01-.03.01.02.02.03.03.05Z"/>
        <path class="cls-1" d="M413.15,527.79s-.01-.03-.03-.03c0-.02-.02-.04-.03-.06.02.03.03.07.05.09Z"/>
        <path class="cls-1" d="M413.18,527.84c.03.07.07.12.1.18-.05-.08-.09-.16-.14-.24.01.02.02.03.03.05Z"/>
        <path class="cls-1" d="M432.81,563.87s-.06.08-.07.1c0,0,0,0,0,.01,0-.01.02-.03.03-.05.01-.02.03-.04.05-.06Z"/>
        <path class="cls-1" d="M432.52,566.9c-.1-.09-.2-.16-.28-.21.08.05.18.13.28.21Z"/>
        <path class="cls-1" d="M410.67,572.41c.12.18.18.25.1.15-.03-.04-.06-.09-.1-.15Z"/>
        <path class="cls-1" d="M413.18,529.3c-.15-.08-.43-.22-.6-.31.18.1.41.22.6.31Z"/>
        <path class="cls-1" d="M411.14,521.17c.05-.14.08-.22.08-.22-.03.08-.06.16-.09.24,0,0,0-.01,0-.02Z"/>
        <path class="cls-1" d="M410.35,571.89s.05.09.08.14c-.03-.05-.06-.1-.08-.14h0Z"/>
        <path class="cls-1" d="M410.63,572.36s.02.03.03.04c-.07-.11-.15-.23-.21-.34.06.1.13.21.19.3Z"/>
        <path class="cls-1" d="M412.07,528.58c.07.07.14.14.19.2.03.03-.02-.02-.1-.11-.03-.03-.06-.06-.08-.09Z"/>
        <polygon class="cls-1" points="412.45 528.92 412.45 528.92 412.45 528.92 412.45 528.92"/>
        <path class="cls-1" d="M410.22,522.75s-.01.02-.01.03c-.12.15-.25.28-.36.39.11-.1.23-.24.35-.39,0,0,.01-.02.02-.03Z"/>
        <polygon class="cls-1" points="411.91 528.41 411.92 528.41 411.91 528.41 411.91 528.41"/>
        <path class="cls-1" d="M390.95,690.71s-.03-.02-.05-.03c-.07-.05-.15-.1-.26-.16-.07-.04-.15-.08-.24-.11l-.05-.02c-.06-.02-.11-.04-.17-.05-.41-.1-.81-.07-1.28.04-.1.02-.19.04-.29.07-.41.12-.8.21-1.17.31,1.15-.34,2.5-.87,3.47-.07,0,0,.02.01.03.03Z"/>
        <path class="cls-1" d="M391.02,690.76s-.01,0-.03-.02h-.01s.03,0,.04.02Z"/>
        <path class="cls-1" d="M391.02,695.37s0,.04-.01.07c0-.02,0-.03,0-.05,0,0,0-.01,0-.02Z"/>
        <path class="cls-1" d="M389.18,692.65s0,.01.01.02c-.06-.07-.13-.14-.2-.2.04.03.07.06.1.09.03.03.06.05.09.08Z"/>
        <path class="cls-1" d="M388.97,694.28s.08-.08.12-.12c-.12.12-.24.26-.35.39.07-.09.16-.17.24-.26Z"/>
        <path class="cls-1" d="M396.5,687.74s.05-.07.12-.19c-.04.07-.09.14-.12.19h0Z"/>
        <path class="cls-1" d="M396.53,685.44c-.27.1-.63.25-.99.4.35-.15.7-.29,1-.4h0Z"/>
        <path class="cls-1" d="M394.76,690.08s-.02,0-.03-.01c0,0-.01-.01-.02-.01-.05-.04-.1-.08-.15-.12.06.05.12.09.18.13h.01Z"/>
        <path class="cls-1" d="M394.77,690.1s0,0-.01-.01h.01Z"/>
        <path class="cls-1" d="M394.91,690.18h0,0Z"/>
        <path class="cls-1" d="M395,690.24s-.02,0-.03-.01c0,0-.01-.01-.01-.01.01,0,.03.01.04.03Z"/>
        <path class="cls-1" d="M395.24,690.36s-.04-.01-.06-.03h.01s.03.02.05.03Z"/>
        <path class="cls-1" d="M393.64,692.51c-.05.01-.1.02-.16.03-.07,0-.14,0-.22,0,.07,0,.14,0,.22-.01.06,0,.11-.01.16-.02Z"/>
        <path class="cls-1" d="M393.95,692.42s-.02,0-.03.01c-.02,0-.03,0-.05.01.02,0,.04-.01.05-.02,0,0,.02,0,.03,0Z"/>
        <path class="cls-1" d="M393.96,692.42h0s0,0,0,0h0Z"/>
        <path class="cls-1" d="M394.08,692.37s-.02,0-.03.01h0s.02-.01.03-.01Z"/>
        <path class="cls-1" d="M394.93,687.98s.02.01.03.02c-.06-.03-.12-.06-.17-.09-.01-.01-.03-.03-.05-.03.03.01.05.03.08.05.03.01.06.03.09.05,0,0,0,0,.01,0Z"/>
        <path class="cls-1" d="M395.03,688.05s-.03-.01-.04-.03h0s.02.02.03.03Z"/>
        <path class="cls-1" d="M395.57,688.35c-.06-.02-.12-.06-.19-.1-.04-.02-.08-.04-.12-.07-.07-.04-.16-.09-.24-.14.05.02.09.05.13.07h0c.07.04.14.08.2.12.03.01.06.03.09.05,0,0,.01,0,.02.01.03.01.05.02.07.03.01.01.02.02.03.02Z"/>
        <path class="cls-1" d="M395.66,688.4s-.03-.01-.05-.02l-.02-.02s.05.03.07.04Z"/>
        <path class="cls-1" d="M384.28,705.22c-.11-.09-.24-.18-.35-.27.12.09.25.19.35.27Z"/>
        <path class="cls-1" d="M384.59,700.99s-.07.02-.1.03c-.06.01-.1.02-.15.03-.01,0-.02,0-.03,0-.04.01-.09.02-.12.03.05-.01.12-.03.18-.05h0c.07-.02.14-.04.22-.05Z"/>
        <path class="cls-1" d="M387.55,691.97h-.16s.07,0,.1,0c.02,0,.03,0,.05,0Z"/>
        <path class="cls-1" d="M387.68,691.98h-.01s-.05,0-.07,0h.09Z"/>
        <path class="cls-1" d="M388,692.03c-.09-.02-.18-.03-.26-.04h0s-.04,0-.05,0h.03c.1,0,.2.03.29.05Z"/>
        <path class="cls-1" d="M396.99,686.91s-.01.02-.02.04c0,0-.01.01-.02.03.01-.03.03-.05.03-.07h0Z"/>
        <path class="cls-1" d="M370.33,610.5s.07-.07.14-.12c-.06.05-.1.09-.14.12Z"/>
        <path class="cls-1" d="M370.64,610.24c-.06.05-.12.1-.17.14l.04-.04s.09-.07.13-.1Z"/>
        <path class="cls-1" d="M370.64,610.24c.2-.17.44-.33.71-.46-.1.06-.2.12-.3.18-.12.08-.27.18-.41.28Z"/>
        <path class="cls-1" d="M373.41,608.85c-.61.29-1.35.52-2.06.92.49-.29,1.04-.52,1.47-.68l.05-.02c.24-.1.43-.18.54-.22Z"/>
        <polygon class="cls-1" points="387.36 697.77 387.36 697.77 387.36 697.77 387.36 697.77"/>
        <path class="cls-1" d="M387,690.88c-.22.07-.44.13-.66.21.11-.04.22-.08.33-.12.07-.03.14-.05.21-.07.04,0,.09-.01.12-.03Z"/>
        <path class="cls-1" d="M386.49,695.2s-.05,0-.07.01c-.05,0-.12.01-.18.02-.03,0-.06,0-.09,0-.14.01-.28.03-.43.05-.44.05-.91.11-1.37.2-.61.12-1.21.29-1.69.54.58-.33,1.46-.53,2.21-.65h.08c.6-.1,1.11-.14,1.55-.18Z"/>
        <path class="cls-1" d="M421.29,651.7s-.07-.12-.16-.24c-.18-.26-.36-.33-.53-.29-.06.01-.11.04-.17.08-.13.1-.26.26-.35.45-.04.07-.07.11-.07.11,0-.15.34-.81.63-.78h.05c.16.01.29.12.38.26.07.1.13.22.18.32.02.03.03.07.05.1Z"/>
        <polygon class="cls-1" points="416.07 663.46 416.07 663.46 416.07 663.46 416.07 663.46"/>
        <path class="cls-1" d="M421.57,652.76c.04-.24.05-.5.03-.71.03.22.01.48-.03.71Z"/>
        <polygon class="cls-1" points="430.74 636.62 430.74 636.62 430.74 636.62 430.74 636.62"/>
        <path class="cls-1" d="M430.68,636.86c-.03.17-.04.39-.03.56,0-.18,0-.39.03-.56Z"/>
        <polygon class="cls-1" points="382.37 689.1 382.37 689.1 382.37 689.1 382.37 689.1"/>
        <path class="cls-1" d="M416.41,661.71c-.07.09-.17.24-.26.37.09-.12.18-.26.26-.37Z"/>
        <path class="cls-1" d="M381.97,689.24s-.02,0-.03,0h0s.02,0,.02,0Z"/>
        <path class="cls-1" d="M382.06,689.21s-.05.01-.07.03c.01,0,.03-.01.04-.02.01,0,.02-.01.03,0Z"/>
        <path class="cls-1" d="M382.13,689.17s-.05.02-.07.03c.01,0,.03-.01.05-.02,0,0,.01,0,.03,0Z"/>
        <path class="cls-1" d="M437.24,632.23h0s-.02-.03-.02-.04c0,.01.01.03.03.04Z"/>
        <path class="cls-1" d="M397.08,678.75s-.14.06-.3.14c.11-.05.22-.09.3-.14Z"/>
        <path class="cls-1" d="M432.88,635.27c-.22.07-.5.18-.79.31.28-.12.56-.23.79-.31h0Z"/>
        <path class="cls-1" d="M397.9,675.57c-.16.04-.28.07-.3.08.08-.02.19-.05.3-.08Z"/>
        <path class="cls-1" d="M402.13,668.56s.03-.04.06-.05c-.35.39-.55.8-.6.86.06-.12.13-.24.21-.37l.03-.04c.04-.07.09-.13.14-.2.05-.06.09-.11.14-.16,0-.01.02-.03.03-.03Z"/>
        <path class="cls-1" d="M402.31,668.38s.05-.05.08-.07c-.05.05-.09.09-.14.14.02-.02.04-.05.06-.07Z"/>
        <path class="cls-1" d="M402.7,668.03c.05-.04.1-.07.14-.1-.05.03-.1.07-.15.11h0c-.05.04-.1.08-.15.12.05-.05.1-.09.16-.14h0Z"/>
        <path class="cls-1" d="M403.15,667.73c-.09.05-.19.12-.3.2.02-.03.05-.04.07-.05.08-.05.16-.1.24-.14Z"/>
        <path class="cls-1" d="M436.74,633.27c-.07.16-.14.31-.2.42.06-.12.12-.27.2-.42Z"/>
        <path class="cls-1" d="M437.24,632.24s0,0,0-.01c0,0,0,0,0,0h0Z"/>
        <path class="cls-1" d="M189.42,609.74h-.05c-.71-.19-1.59.39-1.38,1.17.16.67,1.12,1.26,1.71,1.17,1.16-.26.76-2.16-.28-2.34Z"/>
        <path class="cls-1" d="M418.17,521.9c-.83-.22-2.42,2.58-1.63,3.18.76.12,2.35-2.4,1.65-3.16h-.02Z"/>
        <path class="cls-1" d="M182.59,605.51c-.74.49.78,1.38,1.28,1.38h.06c.59.13,1.61-.34,1.1-.99-.5-.51-1.96-.64-2.45-.4Z"/>
        <path class="cls-1" d="M426.51,499.12c-.65.42-.96,1.37-.63,2.04l.02.04c.4.75,1.25-.07,1.53-.54.33-.55.19-1.36-.09-1.65-.25-.24-.58-.08-.83.1Z"/>
        <path class="cls-1" d="M433.96,573.53l-.02.04c-.2.45.15,1.14.67,1.13.4-.03.77-.72.54-1.12-.23-.42-.96-.54-1.19-.05Z"/>
        <path class="cls-1" d="M295.05,589.24s0-.02,0-.03v-.05s0,.07,0,.08ZM308.73,443.97h0s0,0,0,0h0ZM313.02,597.74s-.02.03-.03.04l.04-.04h0ZM319.28,428.33s-.07.07-.1.11l.11-.11h0ZM318.93,428.71c.09-.08.16-.18.25-.27-.02.02-.03.03-.05.05-.07.07-.14.14-.2.22ZM328.57,550.56h0s0,0,0,0h0ZM330.03,550.42s.04-.08.06-.11h0s-.04.07-.06.11ZM330.09,550.29h0s.02-.04.03-.06c-.01.02-.03.04-.04.06ZM333.94,549.29h-.01s.04-.01.07-.03c-.02,0-.04.02-.05.03ZM334.15,547.69c.09-.06.2-.11.31-.14-.13.05-.24.1-.31.14ZM335.97,616.35s.02-.03.03-.04c0-.01.01-.03.02-.05-.02.03-.03.06-.05.08ZM338.37,586.59h0s0,0,0,0c0,.01,0,.03.01.05,0-.01,0-.03,0-.04ZM340.22,588.93h0s0,0,0,0h0ZM344.66,587.48s-.03.02-.05.03c.03-.01.07-.03.09-.05-.01.01-.03.02-.05.02ZM345.08,587.27s.01,0,.02,0c0,0,0-.01.01-.01-.01,0-.02,0-.03.02ZM345.62,586.92s-.07.06-.1.09c-.03.02-.06.04-.09.06.03-.01.06-.03.09-.05.05-.03.09-.07.13-.1,0,0-.01,0-.03.01ZM345.93,616.15s-.05.07-.08.09c.04-.03.07-.07.1-.11,0,0-.01.01-.03.02ZM346.07,585.95s0,0,0-.01c-.02-.03-.04-.05-.06-.07.02.03.04.05.05.07.01.02.03.05.04.07,0-.02-.02-.04-.03-.06ZM346.13,586.11s0-.02-.01-.03c0,.02.01.03.02.05,0,0,0-.02,0-.03ZM346.64,627.44s-.06,0-.09.01c.05,0,.11,0,.17-.02-.03,0-.06,0-.09,0ZM346.98,627.41s-.05.01-.08.01c.03,0,.06,0,.09-.01h-.01ZM347.73,620.99s-.01-.01-.02-.02h-.03s.03.02.07.05h0s-.02-.03-.03-.03ZM347.76,621.01h0s0,0,0,0h0ZM347.88,621.1c.09.07.21.16.32.24-.11-.09-.22-.16-.32-.24ZM350.63,626.36s.07-.03.09-.04c.01-.01.03-.03.05-.03-.05.03-.1.05-.14.07ZM351.37,625.94s-.06.05-.09.07c.05-.02.08-.05.12-.08,0,0-.02.01-.03.01ZM351.72,620.78c.1-.21.22-.41.37-.6-.14.18-.27.39-.37.6ZM352.01,625.44s.06-.09.09-.13c-.03.04-.07.1-.09.13ZM353.92,409.92c.06-.1.12-.23.16-.33-.05.1-.1.23-.16.33ZM356.88,614.18s.02,0,.03,0h0s-.03,0-.03,0ZM356.94,614.19h-.02s.01,0,.03,0c0,0,0,0,0,0ZM357.66,614.28h-.02s.03,0,.03,0h0ZM367.85,501.61h0s0,0,0,0h0ZM367.99,500.53c.01-.09.03-.19.04-.29-.02.12-.03.22-.04.29ZM368.2,505.96c.03-.09.05-.18.08-.28-.03.12-.06.21-.08.28ZM369.18,529.18c.09.03.19.05.3.07-.1-.03-.22-.05-.3-.07ZM370.51,610.34l-.04.04c.05-.05.11-.09.17-.14-.05.03-.09.07-.13.1ZM373.59,703.12h0s.08.05.12.07c-.04-.02-.08-.04-.12-.07ZM379.35,702.02s.05,0,.07,0h.01s-.06,0-.09,0ZM384.19,701.08s.09-.01.12-.03c0,0,.01,0,.03,0,0,0,.02,0,.03-.01-.06.01-.12.03-.18.05ZM385.3,692.46s-.01.02-.03.03c.01-.01.03-.03.03-.03h0ZM385.63,691.06s0,.01-.01.02h0s-.01.02-.02.03c0,0-.01.02-.01.02h0s0,.02,0,.03c0,.02,0,.04,0,.06,0-.02,0-.04.01-.06.01-.03.04-.07.05-.1h0ZM386.67,690.97c-.11.04-.22.08-.33.12.22-.08.44-.14.66-.21-.11.03-.22.06-.33.09ZM387.63,691.97h-.04s.05,0,.07,0c-.01,0-.02,0-.03,0ZM387.75,573.14s0,.08,0,.11c0-.05.01-.1,0-.16,0,.01,0,.03,0,.05ZM388.65,475.95s-.03.01-.05.02h0s.09-.03.12-.05c-.03,0-.05.02-.08.03ZM390.46,683.9s0,0,.01.01h0s0-.01-.01-.01ZM393.47,692.53c-.07,0-.14.01-.22.01.07,0,.14,0,.22,0,.06,0,.11-.01.16-.03-.05,0-.1.01-.16.02ZM393.92,692.43h0s.02,0,.03,0c0,0-.02,0-.03,0ZM393.95,692.42h0s0,0,0,0ZM394.56,689.94c.05.04.1.08.15.12,0,0,.01,0,.02.01h.01c-.06-.04-.12-.08-.18-.13ZM395,688.02h0s.03.02.04.03c-.01,0-.02-.01-.03-.03ZM394.91,687.98s-.06-.04-.09-.05c-.01,0-.02,0-.03-.01.05.03.11.07.17.09-.01,0-.02-.01-.03-.02,0,0,0,0-.01,0ZM395.54,688.33s-.04-.02-.07-.03c0,0-.01,0-.02-.01-.03,0-.05-.02-.07-.03.07.04.13.08.19.1-.01,0-.02,0-.03-.02ZM395.59,688.36l.02.02s.03.02.05.02c-.01-.01-.04-.03-.07-.04ZM396.98,686.91s-.01.03-.01.04c0-.02.01-.03.02-.04h0ZM401.6,669.37c.06-.12.12-.24.21-.37-.08.14-.15.25-.21.37ZM402.13,668.56s.03-.04.06-.05c0-.01.02-.03.03-.04-.04.03-.07.06-.09.09ZM402.54,668.16s.1-.08.15-.12c0,0,0,0,0-.01-.05.05-.1.09-.16.14ZM402.7,668.03s0,0,0,.01c.05-.04.1-.08.15-.11-.05.03-.09.06-.14.1ZM410.2,522.78c-.12.15-.24.28-.35.39.11-.1.24-.24.36-.39,0,0,0-.02.01-.03,0,0-.01.02-.02.03ZM412.56,526.8s-.01-.01-.01-.02c-.05-.08-.1-.17-.16-.25.06.1.12.2.18.3,0-.01,0-.02-.01-.03ZM421.08,508.45s-.01-.04-.03-.06c.04.1.08.21.11.31-.03-.09-.06-.17-.09-.26ZM421.33,509.17c-.02-.05-.03-.1-.05-.15.03.1.07.2.09.29-.01-.05-.03-.1-.04-.14ZM421.61,652.05c.01.21,0,.48-.03.71.05-.23.06-.49.03-.71ZM436.54,633.69c.05-.11.12-.25.2-.42-.07.15-.14.29-.2.42ZM437.21,632.19s0,.02.02.04h0s-.02-.03-.03-.04ZM340.22,588.93h0s0,0,0,0h0Z"/>
        <path class="cls-1" d="M402.13,668.56s-.02.02-.03.03c.03-.03.06-.06.09-.09,0-.01.02-.03.03-.04-.04.03-.07.06-.09.09ZM346.06,585.94h0s-.04-.05-.06-.07c.02.03.04.05.05.07ZM334.45,547.55c-.13.05-.24.1-.31.14.09-.06.2-.11.31-.14Z"/>
        <path class="cls-1" d="M507.42,556.56v-.05c-.56-8.34-6.58-14.82-13.26-19.2-6.1-3.64-13.77-5.33-20.8-5.86-6.93.22-13.97,2.91-19.95,6.42-3.76,2.22-6.24,5.34-10.4,7.06-2.56,1.33-5.47,1.98-7.97,3.35-4.09,2.47-8.54,4.44-13.37,5.19-8.14,1.86-6.65-3.11-5.11-8.78.88-3.83-1.04-7.29-2.34-10.72-1.04-5.65.42-12.36,4.04-17.02,5.94-8.31,8.17-19.11,8.1-29.06.21-1.36,1.28-1.87,2.25-2.65,1.02-.82,1.07-2.41,1.48-3.66.69-2.22,1.18-4.49,1.54-6.77,2.15-5.1,5.96-10.16,6.25-16,.54-4.49.2-8.98,1.79-13.33,2.5-5.84,2.77-10.72,1.2-16.96-.81-4.17-1.86-8.29-2.32-12.46-.78-3.53-.32-7.2-1.41-10.66-1.39-4.64-2.79-9.49-5.02-13.83-3.9-5.81-9.95-11.22-16.58-13.75-7.1-2.52-15.05-3.38-22.57-3.83-5.83.51-11.05,4.34-16.06,7.14-2.13,1.35-4.56,1.97-6.74,3.16-3.58,1.97-6.58,5.57-10.16,7.77-4.51,2.67-8.87,5.45-13.24,8.61-2.16,1.57-5.26,3.5-6.52,5.63,2.57-.2,6.62-3.75,9.45-4.93,2.2-1.18,3.54-1.67,3.2-1.15-4.93,4.4-11.56,7.76-16.53,12.28-2.52,1.86-5.15,5.43-8.02,6.26-.14-.78,1.2-2.58,1.25-3.54,0-.37-.43-.26-1.2.27-1.08.8-2.14,1.76-3.11,2.73-2.29,1.94-5.6,6.68-8.04,7.19-1.79-4.29,4.92-17.33,6.89-21.88,3.96-7.72,8.14-15.68,13.56-22.46,2.07-2.37,4.4-5.33,6.59-7.8,2.33-2.3,5.06-4.1,7.38-6.25,6.34-6.55,12.7-13.24,20.42-18.2,3.45-2.69,6.02-6.77,7.13-11.09.57-2.84-.5-5.34-1.54-7.98-1.7-4.41-3.09-8.95-6.05-12.78-4.24-6.16-9.86-11.61-16.64-14.77-8.82-3.01-9.19,5.79-7.13,11.97,5.36,18.76-9.36,39.34-15.94,56.53-6.44,14.84-12.85,30.55-16.94,46.14-1.55,5.72-2.84,11.95-4.73,17.55-1.36,3.77-3.48,7.49-4.8,11.34-2.22,6.66-5.09,12.76-6.21,19.72-2.09,9.7-2.09,19.61-1.56,29.46-.16,6.27-1.23,13.5,1.14,19.47,2.37,4.13,6.14,7.67,9.04,11.58,2.95,3.72,7.43,2.35,11.56,2.56,8.19,1.42,15.74-4.34,12.8-13.01-2.39-7.33-5.53-8.82,2.3-13.75,1.63-1.5,2.84-3.95,4.55-5.75,1.46-1.43,5.34-5.24,7.15-4.4-.23,2.81-3.11,5.57-4.44,8.13-3.26,5.28-7.52,10.91-6.93,17.45,1.65,9.34,1.82,9.95-6.78,14.6-4,2.26-8.04,4.8-12.21,6.62-3.39,1.41-7.12,2.5-10,4.96-11.29,8.43-6.49,26.91,8.67,24.74,6.48-.52,6.74-8.1,10.65-11.74,3.3-2.96,9.37-4.63,11.47-8.64,1.5-5.16-9,.82-8.82-.65,2.98-3.56,7.27-4.77,11.1-7.34,5.3-2.85,10.37-6.3.29-3.24-1.95.23-16.23,7.27-14.77,3.07.93-2.84,3.4-4.57,5.72-6.34,3.96-3.63,9.57-4.89,14.12-7.44,4.11-3.54,7.76-5.49,7.6,1.96-.29,3.07-2.14,4.7-1.12,7.52.02,2.93-4.59,5.34-6.3,7.44-1.41,1.12-4.86,3.34-.58,2.3,2.94-.8,4.94-3.79,7.43-5.17,2.43.67,4.09,3.54,7.33,2.41,3.24-1.88,4.93-6.41,8.46-8,2.66-1.71,9.18-1.18,8.49,2.98-.78,1.99,3.99,1.24,6.04,3.36,4.92,3.94,7.74,11.01,5.93,17.09-3.43,6.85-13.45,3.58-18.06-.37-2.69-1.86-5.38-3.85-7.47-6.39-3.4-4.89-9.6-8.14-8.22.77.91,3.79.41,7.81,0,11.51.16,3.37.03,8.1-4.13,8.49-3.22-.56-4.77,4.9-7.29,2.58-.78-.92-1.68-1.54-2.92-1.11-1.58.39-4.1,1.17-5.96,1.65-3.15.89-6.42,1-9.52,2.13-4.36,1.83-8.38,2.78-13.03,3.63-9.93,3.95-20.41,6.49-30.64,9.83-11.89,4.65-23.8,9.2-36.21,12.31-5.09,1.67-10.52,2.06-15.88,1.82-5.97-.08-12.07.5-18,.48-5.7.46-13.8-4.19-17.72,1.67-2.36,5.29-.14,11.73,3.33,16.02,2.6,3.09,6.05,4.77,9.25,7.16,4.26,3.58,6.94,9.18,12.12,11.64,7.76,3.05,19.93,4.15,27.6.35,4.83-1.86,7.96-6.29,12.12-9.18,3.17-2.04,6.7-3.35,10.03-5.16,10.88-5.52,21.96-10.44,33.28-14.87,4.96-1.86,9.12-5.25,14.01-7.15,5.34-3.45,4.98-1.96,10.52-3.68,3.85-1.34,6.39-5.19,10.54-5.43,1.96-.15,2.46-2.22,3.91-3.14,6.4-1.97,3.54,4.24,1.92,7.47-1.41,3.25-3.04,6.83-4.17,9.99-4.2,4.85-7.36,4.03-10.44,11.77-1.37,3.37-2.48,7.3-4.14,10.66-5.87,7.75-9.56,2.81-11.84,16.14-2.13,5.43-.67,9.93,5.31,11.67,4.55.75,9.41-.67,14.05,0,5.85-.36,12.3-4.73,16.5-8.68,6.01-7.46,14.45-11.46,23.27-14.68,7.14-3.66,14.46-6.42,22.12-8.81,3.42-.95,19.3-8.55,16.71-.06-1.58,8.99-5.7,17.36-10.74,24.9-3.47,5.49-6.71,11.98-10.91,17.05-2.61,4.54-5.14,9.27-8.42,13.46-3.43,5.03-6.72,10.46-10.54,15.22-4.51,5.44-11.64,8.46-18.62,6.59-6.17-1.07-1.65,1.03-.01,3.09,0,.28-.38.27-.67.27-2.93-.1-5.75-1.82-8.62-1.82-1.51.19-1.82,1.3-3.46,1.23-2.73-.18-5.85-1.42-8.44-.52-.52.25-1.75.39-1.31,1.16,3.87,2.69,9.19,3.82,13.18,6.46,12.42,6.1,3.56,21.5,18.02,22.63,5.45-.4,9.32-5.46,13.31-8.75,4.01-3.76,7.94-7.74,8.01-13.5-.07-2.42,2.39-1.84,3.64-3.26,2.14-2.03,1.41-5.57,3.94-7.17,2.75-2.07,3.17-4.49,5.71-7.04,2.01-2.49,4.77-4.67,6.61-7.14.68-1.13.86-2.35,1.56-3.39.6-.84,1.57-1.37,1.92-2.39.66-1.94.48-2.13,2.6-2.59,3.86-1.66-3.62-3.04-3.11-4.54.98-1.43,4.56-.07,6.15-.73,1.2-.39,2.13-1.34.89-2.32-.54-.82-3.84-1.88-2.64-2.97,1.98-.94,5.36,1.42,7.21-.03,1.3-1.22,1.45-3.21,2.66-4.42,1.18-.75,2.54-1.59,2.99-3.06.78-1.73,2.14-3.45,2.56-5.36,0-3.79.99-6.57,3.34-9.64,3.53-3.9,7.4-5.35,9.51-10.84,1.01-2.07,2.27-4.04,3.25-6.2,1.14-1.76,1.71-4.84,3.96-5.18,13.34-.73,6.66-13.43,3.03-20.85-4-6.13-10.33-11.22-16.27-15.37-4.53-2.41-11.07-2.71-15.33.27-4.48,4.11-1.71,10.5-9,12.56-5.77,2.05-11.74,3.85-17.47,6.04-1.31.15-18.82,8.26-15.09,3.52,4.6-3.24,3.11-3.78,5.02-8.43.63-1.88,2.8-4.06,3.29-5.86.45-2.58,1.35-5.16,3.05-7.42,1.59-2.74,4.65-5.07,5.66-8.17.44-2.46.76-4.85,3.28-5.66,7.42-2.58,15.55-1.82,23.15-4.2,3.07-.6,5.07-.41,7.93-.44,2.13-.24,4.59-.4,6.64-.22,3.19-.18,5.55-1.78,8.87-1.9,13.48-2.94,11.26,2.65,17.46,1.81,1.84-.4.6-2.49,2.24-2.84,1.64-.17,3.31,1.04,4.76,1.51,2.62.17,3.81-2.33,6.96-1.53,4.05.29,8.12,1.56,12.29,1.28,2.82-.29,5.7-1.05,8.48-1.09,7.87.4,18.3-5.34,16.45-14.41ZM440.09,430.84c.13.11.26.24.39.39l.04.05c.26.31.43.61.49.97-.02-.04-.09-.37-.35-.76-.24-.37-.69-.75-.97-.95.14.08.28.18.41.29ZM420.61,507.3c.03.07.07.14.1.21.04.09.07.16.11.25.03.05.05.11.07.17.07.16.13.33.19.48.04.1.07.21.1.31.04.1.07.2.1.3.01.05.03.1.04.14.01.05.03.09.04.14-.03-.1-.06-.2-.09-.29-.03-.1-.07-.21-.1-.31-.03-.1-.07-.21-.11-.31-.02-.06-.05-.12-.07-.18-.05-.12-.09-.23-.14-.34-.02-.05-.04-.1-.06-.15-.03-.05-.05-.1-.07-.15-.03-.09-.07-.18-.11-.25-.01-.03-.02-.05-.03-.08.01.02.02.05.03.07ZM308.73,443.97h0s0,0,0,0c0,0,0,0,0,0ZM335.71,547.4h.09s-.06,0-.09,0h0ZM335.63,547.4h.07s-.04,0-.06,0h-.09s.05,0,.08,0ZM333.94,549.29s.03-.02.05-.03c-.03.01-.05.03-.07.04h.01ZM330.15,550.17s.01-.03.03-.04c0,0,0-.02.01-.03,0,0,0,0,0-.01.02-.03.03-.06.05-.09,0,.03-.02.05-.03.07-.01.02-.02.04-.03.06,0,.02-.02.04-.03.06t-.01.01s0-.02.01-.03ZM330.09,550.29s.03-.04.04-.06c-.01.02-.03.04-.03.06h0s-.04.09-.06.12c.02-.05.04-.08.06-.12ZM328.7,550.46s.02-.01.03-.02c-.01.02-.03.03-.05.04,0,0-.02.01-.03.02.01-.02.03-.03.05-.04ZM328.57,550.56h0s.01,0,.03-.02h.03s-.03.01-.04.02-.01,0-.02,0h0ZM354.09,409.6c-.04.1-.1.23-.16.33.06-.1.12-.22.16-.33ZM353.84,410.06s.01-.03.03-.03c0,0-.01.02-.02.03-.01.02-.02.04-.03.05,0-.01.02-.03.03-.05ZM319.13,428.49s.03-.03.05-.05c.04-.04.07-.08.1-.11h0l-.11.11c-.09.09-.16.18-.25.27.06-.07.13-.14.2-.22ZM329.39,485.06l-.03.04c-1.41,1.68-2.95,3.47-4.39,5.27-1.06,1.12-2.83,3.82-4.5,2.63-.77-.59-1.43-2.07-2.16-3.65-.52-1.14-1.07-2.29-1.55-3.45-.63-1.53-1.16-3.25-1.53-4.17-.29-.73-.57-1.28-.65-.01-.08.91-.18,2.71-.37,3.6-.15.69-.41.8-.69.16-1.44-5.09-.41-13.62-.14-19.89.18-2.08-.14-5.3.75-6.91.76-.81,1.67,1.2,2,2.01.56,1.38,1.01,3.18,1.62,4.68.76,1.97,1.72,3.81,2.68,5.7,1.35,2.52,2.84,4.77,4.76,6.75,2.13,2.18,7.36,3.51,4.19,7.23ZM332.13,458.14h-.05c-4.36.63-7.14-3.32-11.04-4.25-1.34-.46-4.39.35-4.64-1.44-.16-2.38,1.11-5,2.1-7.19.85-1.93,2.03-3.68,3.2-5.41,1.66-2.44,3.2-4.76,4.94-7.15,2.37-3.12,5.3-5.68,7.82-8.63,2.88-3.13,5.26-6.57,8.53-9.31,1.73-1.37,4.51-3.49,6.16-3.96,2.62-.69.99,3.51,1.08,5.2-.05,1.01.01,2.05.22,3.03.72,3.52,4.03,5.98,5,9.43.73,2.48.65,5.32-.16,7.8-.46,1.31-1.21,2.38-2.06,3.48-4.14,5.1-8.51,10.43-13.71,14.47-2.2,1.73-4.58,3.55-7.4,3.92ZM339.38,476.89h0c-.11-.29.16-.8.54-1.58.41-.78.97-1.88,1.47-2.92,1.37-2.95,2.48-6.08,3.15-9.24.58-2.3.87-4.53,1.56-6.81,1.42-3.92,3.47-8.02,5.26-11.76.98-1.9,2.07-4.25,3.25-5.93,1.17-1.67,1.54-1.35,1.65.61.12,2.96.04,6.08.03,9.04,0,7.71-.08,11.51-5.26,17.64-1.83,2.2-3.97,4.32-6.02,6.29-.98.82-4.9,5.19-5.62,4.66ZM356.22,471.54c-.95,2.2-3.21,3.44-5.28,4.72l-.05.03c-.82.54-6.96,3.81-5.62.97.8-1.39,2.71-2.96,4.34-4.47,1.65-1.34,4.62-4.81,6.42-3.84.77.63.55,1.68.2,2.59ZM365.16,533.11h0c.12-.16.36-.08.57-.07-.21,0-.44-.08-.57.07ZM295.06,589.2s0,.03,0,.03c0,0,0-.04,0-.08v.05ZM312.2,598.41s0,0-.01,0c-.06.04-.12.07-.18.1-.01,0-.02.01-.03.01,0,0-.01,0-.01.01-.06.03-.11.06-.16.09l-.04.02s-.06.04-.09.05c-.04.02-.07.04-.1.06t-.01,0s.02-.01.03-.03c.05-.03.12-.07.2-.12.14-.07.31-.17.48-.27.05-.03.09-.05.12-.08-.07.05-.13.09-.2.14ZM312.48,598.22h0s.01-.01.02-.01c0,0-.01,0-.02.01ZM312.94,597.82s-.02.02-.03.03c-.01.01-.03.03-.05.04,0-.01.01-.02.02-.03.01-.01.03-.02.03-.03.01-.01.02-.03.03-.03h.02s-.02,0-.03.01ZM312.99,597.78s.03-.03.03-.04h0l-.04.04ZM313.1,597.67s-.04.05-.07.07v-.02s.01,0,.01,0c.03-.03.07-.06.09-.09.01,0,.02-.01.03-.02-.02.02-.04.05-.06.07ZM338.46,586.99s-.01-.08-.03-.12c0,0,0,0,0-.01,0-.04-.02-.09-.03-.12h0s-.02-.07-.03-.09h0s-.01-.05-.01-.06c0-.02,0-.03,0-.01,0,0,0,0,0,.01h0s0,0,0,0c0,.01,0,.03.01.04v.05c.05.07.09.28.1.41,0-.03-.01-.07-.03-.1ZM339.99,588.43c-.1-.16-.22-.34-.3-.43.03.03.05.06.08.08.09.1.16.2.24.31.09.14.16.29.2.43v.03c-.01-.08-.1-.25-.21-.43ZM340.22,588.94h0,0ZM336.58,615.49c-.12.16-.26.34-.37.5-.03.06-.07.11-.11.16-.03.05-.07.1-.1.15,0,.01-.01.03-.03.04.01-.03.03-.05.05-.08,0-.01.01-.03.03-.05.15-.27.39-.59.67-.89.04-.05.09-.1.13-.15-.09.1-.17.2-.26.31ZM337.4,614.62s0,0,0,0h0s-.05.05-.07.07c.02-.03.05-.05.07-.07.03-.02.05-.04.07-.06.02-.02.04-.03.06-.05h0s.08-.07.11-.1c.04-.03.07-.06.1-.08-.08.08-.21.19-.33.3ZM341.86,609.99s-.02.04-.03.05c.03-.05.05-.09.08-.14-.02.03-.03.06-.05.09ZM341.95,609.81l-.02.03s.02-.05.03-.07v.04ZM342.69,608.34s.03-.07.05-.1h0s-.04.07-.05.1ZM342.67,588.16c-.06.01-.12.03-.18.04-.01,0-.03.01-.04.01-.08.02-.15.04-.22.06h-.01c-.08.01-.16.03-.24.05-.07.01-.14.03-.21.04-.09.01-.16.03-.24.05-.1.01-.2.03-.3.05.02,0,.04,0,.06-.01.38-.07.79-.14,1.2-.24.09-.02.18-.05.28-.07-.03.01-.07.02-.1.03ZM343.24,607.22h0s0-.01,0,0c0,0,0,0,0,0ZM343.11,588.04s.07-.02.1-.03c.07-.02.14-.03.2-.05-.1.03-.2.06-.3.09ZM346.91,614.72h0s0,.03-.02.04l.02-.04ZM346.87,614.79s0,0,0,0c0,.02-.01.03-.03.05,0,0,0,.02-.02.03.01-.03.03-.05.04-.07ZM346,585.87s.04.05.06.07t0,.01c.03.05.05.1.07.16,0,0,0,.01,0,.03,0,.02,0,.05,0,.07,0-.04-.01-.08-.03-.12-.03-.09-.09-.17-.16-.25.01,0,.03.02.04.03ZM345.11,587.25s.02-.01.03-.02c.01,0,.03-.01.04-.02.05-.03.1-.07.16-.1,0,0,.02-.01.03-.02.01,0,.03-.01.03-.02.08-.05.15-.1.22-.16.01,0,.02,0,.03-.01-.04.04-.08.07-.13.1-.03.02-.05.04-.09.05-.03.02-.06.04-.09.06-.02.01-.05.03-.07.05-.05.03-.11.07-.16.1,0,0-.01,0-.02,0,.01-.01.02-.02.03-.02ZM344.66,587.48s.03,0,.05-.02c-.03.02-.06.03-.09.05.01,0,.03-.01.05-.03ZM345.85,616.25s.05-.06.08-.09c.01,0,.02-.01.03-.02-.03.04-.07.08-.1.11ZM346.9,627.42s-.05,0-.09,0c-.03,0-.06,0-.09,0-.06.01-.12.01-.17.02.03,0,.05,0,.09-.01.03,0,.05,0,.09,0,.03,0,.07,0,.1-.01.05,0,.1,0,.15-.01h.01s-.07,0-.09.01ZM347.76,621.02s-.06-.05-.07-.06h.03s.01.02.02.03c0,0,.02,0,.03.02h0s0,0,0,0ZM347.88,621.1c.1.07.21.15.32.24-.11-.08-.23-.16-.32-.24ZM348.77,622.24v-.03s0-.01,0-.02c0,.01,0,.03,0,.05ZM352.09,620.19c-.14.18-.26.39-.37.6.1-.21.22-.41.37-.6ZM351.59,625.8c-.06.05-.12.09-.18.12-.04.03-.08.06-.12.08-.03.02-.06.04-.09.06-.03.01-.06.03-.09.05-.06.03-.12.07-.19.1-.07.04-.13.07-.2.1-.03.01-.06.03-.09.04.04-.03.09-.05.14-.07.07-.03.13-.07.2-.1.07-.04.14-.08.21-.12.07-.04.14-.09.2-.12.13-.08.26-.18.39-.27-.05.05-.11.09-.17.13ZM352.01,625.44s.06-.09.09-.13c-.03.04-.06.1-.09.13ZM357.66,614.28h0s-.01,0-.03,0h.02ZM356.91,614.19s-.03,0-.03,0h.03ZM356.95,614.19s-.02,0-.03,0h.02s.03,0,.04,0h-.03ZM361.84,613.99c.37.2.82.16,1.29-.01-.46.18-.92.22-1.29.01ZM364.3,603.44s-.05-.03-.07-.03c.03,0,.05.02.07.03.12.05.24.09.36.14-.12-.05-.24-.09-.36-.13ZM373.84,703.26c-.05-.03-.09-.05-.14-.07-.05-.02-.09-.04-.12-.07h0s-.05-.02-.07-.04c.03.01.05.03.07.04h0c.07.04.15.08.24.12.04.03.09.05.12.07-.03-.01-.07-.03-.1-.05ZM376.62,703.3s-.1.08-.18.14c-.03.01-.05.03-.08.05s-.05.03-.09.05l-.07.04c-.07.04-.14.08-.22.12t0,0c-.07.03-.13.05-.19.07,0,0-.02,0-.03,0-.33.08-.51.05-.39.05.12-.01.24-.03.36-.08.21-.07.44-.21.63-.33.29-.2.39-.24.26-.12ZM379.17,694.22s0,.06,0,.08v-.08s0-.09,0-.14v.14ZM379.42,702.03s-.05,0-.07,0c.03,0,.05,0,.09,0h-.01ZM394.09,683.59h0,0ZM390.47,683.9h0s0,0-.01,0c0,0,0,0,.01,0ZM386.39,690.12s.01-.01.03-.02c-.01.01-.02.02-.03.03h0ZM385.68,691s.03-.03.03-.03c0,0-.02.02-.03.04h0s0,0,0-.01ZM385.58,691.16s0-.01,0-.02h0s0-.02.01-.03c0-.01,0-.02.02-.03h0s.01-.02.01-.03h0s-.04.07-.05.1c0,.02-.01.04-.01.06,0-.02,0-.04,0-.06ZM385.3,692.46h0s-.02.02-.03.03c.01-.01.02-.03.03-.03ZM381.45,707.03s0,.02,0,.02c-.01-.01-.03-.07-.05-.15l-.02-.06c-.02-.08-.05-.18-.05-.29,0-.12.07-.23.12-.31-.02.05-.04.1-.05.16,0,.18.06.41.06.58,0,.02,0,.03,0,.05ZM381.97,689.24s-.02,0-.03,0c0,0-.02,0-.03.01-.01,0-.03.01-.04.01.02,0,.04-.01.05-.03h.02s.02-.01.03-.01c0,0,0,0,0,0ZM381.98,689.23s.03-.01.04-.02c.01,0,.02-.01.03,0-.03,0-.05.01-.07.03ZM384.49,701.02c-.06.01-.1.02-.15.03-.01,0-.02,0-.03,0-.04.01-.09.02-.12.03.05-.01.12-.03.18-.05h0c.07-.02.14-.04.22-.05-.03.01-.07.02-.1.03ZM384.75,700.94s-.06.01-.09.02c.03-.01.06-.02.09-.03h0ZM386.42,695.22c-.05,0-.12.01-.18.02-.03,0-.06,0-.09.01-.14.01-.28.03-.43.04-.44.05-.91.11-1.37.2-.61.12-1.21.29-1.69.54.58-.33,1.46-.53,2.21-.65h.08c.6-.1,1.11-.14,1.55-.18-.02,0-.05,0-.07.01ZM386.34,691.08c.1-.05.22-.08.33-.12.07-.03.14-.05.21-.07.04,0,.09-.01.12-.03-.22.07-.44.13-.66.21ZM387.49,691.97h-.1s.07,0,.1,0c.02,0,.03,0,.05,0h-.06ZM387.67,691.98s-.05,0-.07,0h.09s-.01,0-.01,0ZM389.54,694.99s0-.05,0-.07h0v.07ZM390.9,690.68c-.07-.05-.15-.1-.26-.16-.07-.04-.15-.08-.24-.11l-.05-.02c-.06-.02-.11-.04-.17-.05-.41-.1-.81-.07-1.28.04-.1.02-.19.04-.29.07-.41.12-.8.21-1.17.31,1.15-.34,2.5-.87,3.47-.07,0,0,.02.01.03.03-.01,0-.03-.02-.05-.03ZM392.33,692.59s-.07.02-.1.03c.03-.01.07-.02.1-.03.01,0,.03,0,.05,0-.01,0-.03,0-.05.01ZM392.5,692.55s-.03,0-.05,0c.02,0,.04,0,.05-.01.02,0,.04,0,.06,0-.02,0-.04,0-.06.01ZM393.61,692.52s-.09.01-.13.01c-.07,0-.14,0-.22,0,.07,0,.14,0,.22-.01.06,0,.11-.01.16-.02,0,0-.02.01-.03.01ZM393.78,692.48s-.02,0-.03,0c-.01,0-.03,0-.05,0,.04,0,.08-.02.11-.03.01,0,.03,0,.04,0-.03.01-.05.02-.07.03ZM393.92,692.44s-.03,0-.05.01c.02,0,.04-.01.05-.02,0,0,.02,0,.03,0,0,0-.02,0-.03.01ZM393.96,692.42h0,0s.02-.01.03-.02c-.01,0-.02.01-.03.02ZM394.08,692.37s-.02,0-.03.01h0s.05-.02.07-.03l-.04.02ZM394.76,690.08s-.02,0-.03-.01c0,0-.01-.01-.02-.01-.05-.04-.1-.08-.15-.12.06.05.12.09.18.13h.01s0,.01,0,.01h0s0,0-.01,0ZM394.74,687.88s.05.03.08.05c.03.01.06.03.09.05,0,0,0,0,.01,0,.01,0,.02.01.03.02-.06-.03-.12-.06-.17-.09-.01-.01-.03-.03-.05-.03ZM395.02,690.25s-.01,0-.02-.01-.02,0-.03-.01c-.01,0-.03-.01-.04-.03-.01,0-.02-.01-.03-.02h0s-.02-.01-.03-.01c-.01-.01-.02-.02-.03-.03.01,0,.02.01.03.02s.02,0,.03.01c0,0,0,0,0,0h0s.01,0,.01,0c0,0,0,0,.01.01,0,0,.02,0,.03.01.01,0,.03.01.04.03,0,0,.01,0,.02,0h0ZM395.24,690.36s-.04-.01-.06-.03c0,0-.01,0-.02-.01.01,0,.02,0,.03.01.07.03.12.06.18.08-.05-.01-.09-.03-.14-.05ZM395.38,688.25s-.08-.04-.12-.07c-.07-.04-.16-.09-.24-.14-.01,0-.03-.01-.04-.03h0c.05.03.1.07.16.1h0c.07.04.14.08.2.12.03.01.06.03.09.05,0,0,.01,0,.02.01.03.01.05.02.07.03.01.01.02.02.03.02-.06-.02-.12-.06-.19-.1ZM395.61,688.38l-.02-.02s.05.03.07.04c-.01,0-.03-.01-.05-.02ZM396.99,686.91s-.01.02-.02.04c0,0-.01.01-.02.03.01-.03.03-.05.03-.07,0-.01.01-.02.01-.02,0,0,0,.01,0,.02ZM402.19,668.51c-.35.39-.55.8-.6.86.06-.12.12-.24.21-.37l.03-.04c.04-.07.09-.13.14-.2.05-.06.09-.11.14-.16,0-.01.02-.03.03-.03.03-.03.05-.06.09-.09-.01.01-.03.03-.03.04ZM402.25,668.44s.04-.05.06-.07c.03-.03.05-.05.08-.07-.05.05-.09.09-.14.14ZM402.85,667.93s-.1.07-.15.11h0c-.05.04-.1.08-.15.12.05-.05.1-.09.16-.14h0c.05-.04.1-.07.14-.1.02-.03.05-.04.07-.05.08-.05.16-.1.24-.14-.09.05-.19.12-.3.2ZM437.24,632.23h0s-.02-.03-.02-.04c0,.01.01.03.03.04ZM436.74,633.27c-.07.16-.14.31-.2.42.06-.12.12-.27.2-.42ZM421.61,652.05c.03.22.01.48-.03.71.04-.24.05-.5.03-.71ZM420.63,651.03h.05c.16.01.29.12.38.26.08.1.14.22.18.32.02.03.03.07.05.1-.03-.03-.07-.12-.16-.24-.18-.26-.36-.33-.53-.29-.06.01-.11.04-.17.08-.13.1-.26.26-.35.45-.04.07-.07.11-.07.11,0-.15.34-.81.63-.78ZM411.14,668.16c.18-.2.37-.37.56-.51-.19.18-.48.43-.75.71.06-.07.12-.14.18-.2ZM371.35,609.77c-.1.06-.2.12-.3.18-.12.08-.27.18-.41.28-.06.05-.12.1-.17.14l.04-.04s.09-.07.13-.1c.2-.17.44-.33.71-.46.49-.29,1.04-.52,1.47-.68l.05-.02c.24-.1.43-.18.54-.22-.61.29-1.35.52-2.06.92ZM387.75,573.1c0,.05,0,.1,0,.16,0-.03,0-.07,0-.11,0-.05,0-.12,0-.18,0,.03,0,.05,0,.08,0,.02,0,.03,0,.05ZM393.75,407.42l.03.05c.08.14.16.33.22.52-.01-.05-.03-.09-.06-.14-.09-.22-.16-.37-.22-.47.01.01.03.03.03.05ZM369.71,401.85h.02c.48-.24,1.36-.16,1.97-.08,1.12.15,2.46.5,3.83.8,1.49.31,3.03.54,4.49.7,1.29.14,2.69.16,3.91.18,1.29.04,2.61.09,3.6.8.79.56.96,1.59.49,2.41-.7,1.39-3.05,2.27-4.64,2.88-1.97.75-3.9,1.94-5.96,2.37-2.83.58-4.04-2.33-5.46-4.38-.8-1.2-1.61-2.5-2.09-3.51-.55-1.18-.82-1.8-.16-2.16ZM378.54,461.02l-.02.03c-.63,1.15-1.83,2.52-3.13,3.13-1.26.63-2.98.75-3.56-.77-.77-1.78-.05-4.57.21-6.59.22-1.57.21-3.13.53-3.9.76-2.01,3.68,1.6,4.34,2.41,1.28,1.68,2.81,3.75,1.63,5.69ZM380.03,475.3c1.34-.36,4.79-1.2,5.7-.03.22.72-.52,1.41-1.55,2.52l-.04.05c-1.9,1.82-3.6,3.81-5.49,5.34-.93.73-2.03,1.37-3.25,2.08-1.05.51-4.05,2.65-4.91,1.56-.34-.47-.22-1.52.06-2.79.33-1.52.85-3.05,1.77-4.32,1.8-2.52,4.74-3.52,7.72-4.41ZM367.86,501.61h0s0,0,0,0h0ZM367.99,500.53c0-.07.02-.18.04-.29-.01.1-.03.2-.04.29ZM368.2,505.96c.02-.07.05-.16.08-.28-.03.1-.05.2-.08.28ZM369.18,529.18c.09.02.2.05.3.07-.11-.02-.22-.05-.3-.07ZM369.91,500.97v-.06c.29-2.1.65-4.05,1.13-5.99.12-.67.16-1.35.33-1.99.43-1.41,1.27-2.76,2.28-3.85,1.26-1.22,2.92-2.45,4.61-2.92,1.14-.27,2.84-.18,3.44.94.41.97-.59,2.14-1.18,2.86-.36.43-.61.74-.43.93.14.16.57.22,1.15.29,1.16.12,2.79.51,3.24,1.72,1.37,4.58-5.26,10.24-8.44,12.98-5.59,5.01-7.14.87-6.13-4.9ZM409.4,523.55h0s.03-.02.03-.03c0,0-.02.01-.03.03ZM410.21,522.78c-.12.15-.25.28-.36.39.11-.1.23-.24.35-.39,0,0,.01-.02.02-.03,0,0-.01.02-.01.03ZM412.39,526.53c.05.08.1.16.16.25,0,0,0,.01.01.02,0,.01.01.02.01.03-.07-.1-.12-.2-.18-.3ZM412.6,526.88s0-.02-.01-.03c.01.02.02.03.03.05-.01,0-.01-.01-.02-.02ZM413.12,527.76s-.03-.05-.04-.07c0-.01,0-.03-.01-.03,0,.01.02.03.03.04.02.03.03.07.05.09,0-.01-.01-.03-.03-.03ZM413.22,498.41c-1.04,4.81-2.64,9.53-3.94,14.24-.67,2.58-1.34,5.27-1.94,7.83v.05c-.28,1.37-1.18,4.22-2.49,2.05-2.13-4.15-.84-8.34-6.3-10.65-1.75-.66-3.66-1.1-5.49-1.33-1.84-.19-3.71.48-5.35,1.45-1.03.63-2.07,1.5-3.22,2.28-1.12.78-2.31,1.48-3.37,2.35-1.43,1.09-3.03,2.77-4.4,3.49-2.39,1.18-6.3,1.37-6.43-2.14-.12-2.82,2.74-4.43,4.94-5.68,4.75-2.74,9.4-6.06,14.18-8.66,4.37-2.46,5.58-1.83,10.12-1.83,3.37-.28,3.47-2.62,4.77-5.06,1.11-2.05,2.54-4.2,4.01-6.26,1.73-2.81,1.88-5.35-.89-7.32-1.49-1.13-3.22-2.14-4.83-3.15-1.75-1.14-5.07-2.85-5.74-4.41-.5-1.32,2.87-1.56,4.53-2.33,5.06-1.74,5.67-6.99,7.93-11.22.8-1.69,1.56-3.69,2.3-5.27.51-1.1.62-2.28.79-3.42.14-.87.29-1.82-.11-2.63-1.37-2.54-5.75-1.59-8.23-1.67-3.64.24-7,.29-10.5,1.06-3.07.73-6.29,1.29-9.15-.27-2.07-1.12-4.96-2.95-4.68-5.56.27-1.65,1.73-3,2.86-4.2,2.17-2.19,4.18-4.9,7.35-5.27,3.43-.51,7.49-.2,10.35-2.57,3.03-2.09,4-6.64,7.96-7.08,3.96.05,5.48,7.56,6.06,10.56.41,2.13.49,4.13.94,6.32.33,1.52.86,2.97,1.43,4.4,1.96,4.26.81,6.85.43,11.22-.46,5.4-1.08,10.74-1.97,16.09-.46,2.66-.45,5.43-.8,8.01-.35,2.41-1.03,4.76-1.09,7.19-.12,3.17.79,6.25-.04,9.39ZM388.6,475.97h0s.03-.01.05-.03c.14-.07.27-.13.41-.2.2-.1.39-.21.56-.33-.1.08-.22.16-.34.23-.1.07-.28.15-.5.24-.01.01-.03.02-.05.03-.04.02-.09.03-.12.05Z"/>
        <polygon class="cls-1" points="437.24 632.23 437.24 632.23 437.24 632.23 437.24 632.23"/>
        <path class="cls-1" d="M416.55,669.32c.1-.01.08,0,0,0h0Z"/>
        <path class="cls-1" d="M365.77,699.76s.01.16.01.18h0s-.01-.2-.01-.18Z"/>
        <path class="cls-1" d="M365.8,700.14s0,.09,0,.11v.02s0-.09,0-.12Z"/>
        <path class="cls-1" d="M341.36,595.38h.06c1.36-.35.7-1.86-.54-1.45-1.21.32-.53,1.63.49,1.45Z"/>
        <path class="cls-1" d="M430.32,647.16h-.04c-.97.21-2.65,1.42-3.27,2.42-.79,1.1-1.27,3.51.79,2.76.56-.2,1.15-.61,1.6-1.04,1.01-.75,2.38-4.36.91-4.14Z"/>
        <path class="cls-1" d="M426.65,652.63c-.32.03-.65.17-.9.39l-.04.03c-.41.33-.39.9.07,1.13.36.21.94-.01,1.26-.36.51-.46.47-1.26-.39-1.19Z"/>
        <path class="cls-1" d="M425.68,654.28c-.76-.46-2.15-.2-1.9.93v.06c.08.39.26.8.55,1.03.52.4,1.58.48,1.95-.15.25-.51-.01-1.51-.59-1.87Z"/>
        <path class="cls-1" d="M406.31,499.39c-.69.11-1.51-.68-1.36-1.17.29-.74,1.46-.7,1.96-.21l.03.03c.59.52,0,1.29-.64,1.35Z"/>
        <path class="cls-1" d="M375.01,459.72c-.07.62-1.45.52-1.6-.09v-.05c-.09-.43.29-.98.74-1.01.53.01.86.68.86,1.15Z"/>
      </g>
    </g>
    <g>
      <path class="cls-3" d="M970.85,414.91c-78.7-70.69-139.11-149.58-178.65-233.46l-8.89-18.83h-314.49,142.36-314.49l-8.89,18.83c-39.54,83.88-99.95,162.77-178.65,233.46"/>
      <path class="cls-3" d="M109.15,665.09c78.7,70.69,139.11,149.58,178.65,233.46l8.89,18.83h314.49-142.36,314.49l8.89-18.83c39.54-83.88,99.95-162.77,178.65-233.46"/>
    </g>
  </g>
  <text class="cls-2" transform="translate(291.75 274.89)"><tspan x="0" y="0">YUETWAN</tspan></text>
</svg>