<?xml version="1.0" encoding="UTF-8"?>
<svg id="Layer_1" data-name="Layer 1" xmlns="http://www.w3.org/2000/svg" viewBox="0 0 1080 1080">
  <defs>
    <style>
      .cls-1 {
        font-family: NotoSansTC-Bold, 'Noto Sans TC';
        font-size: 43.52px;
        letter-spacing: .85em;
      }

      .cls-1, .cls-2 {
        font-weight: 700;
      }

      .cls-2 {
        font-family: Copperplate-Bold, Copperplate;
        font-size: 169.56px;
        letter-spacing: .04em;
      }
    </style>
  </defs>
  <g>
    <g>
      <path d="M623.59,314.63c.14.1.4.27.56.32.06,0,.08-.06.15-.17.16-.28.6-.99.68-1.16.04-.14-.37-.29-.47-.37-.11-.06-.14-.03-.2.08-.13.25-.62.98-.74,1.27v.02Z"/>
      <path d="M589.3,462.3c-.17.1-.5.98-.26,1.15.16.11.38.2.54.29.07.03.11.04.12.02,0-.31-.11-.79-.17-1.1-.07-.27-.13-.4-.21-.37l-.02.02Z"/>
      <path d="M732.65,436.56c3.08,5.16,4.64,11.42,9.86,15.02,6.65,4.76,15.71,2.73,17.61-5.88,1.79-9.9,1.4-20.16,1.56-30.24,0-1.26-.29-2.4-.49-3.59.21-1.85.24-3.45.6-5.31.23-19.94,1.47-39.96,2.78-59.82.24-6.19-3.21-12.02-7.48-16.24-5.02-5.91-13.64-4.69-20.48-2.14-17.28,4.26-25.29,22.32-32.04,37.03-.56,1.29-.92.91-.91-.31-.34-7.8,2.72-15.08,6.19-21.84,2.67-7.63,6.87-13,13.94-17.05,7.4-6.01,17.16-9.36,24.39-14.61,1.76-.7,2.68-2.39,4.11-3.51,1.62-1.42.7-3.97.78-5.89.07-7.37-11.18-5.71-4.96-9.86,3.91-2.61,8.48-3.95,11.79-7.34,5.29-3.26,12.09-8.79,12.44-15.4-.17-6.97-6.7-12.18-13.16-13.74-10.04-2.66-19.88,2.08-28.97,5.92-13.76,8.09-26.17,18.81-33.8,32.97-3.24-6.99-2.66-17.61-9.63-22.88-2.68-.58-5.23-2.1-8.02-2.76-4.71-.03-3.8,4.17-2.62,7.23,2.02,8.44.37,17.31.33,25.85-.4,3.27-1.26,6.54-.46,9.84,2.41,10,4.9,20.89,13.59,27.32,2,2.55,4.59,5.21,7.48,6.74.87.4,1.73,1.07,1.2,2.12-4.02,8.52-4.86,18.02-6.86,27.11-1.12,10.52-1.82,23.39-2.46,33.61-.35,4.11-1.12,8.18-1.22,12.3-.31,4.47.79,8.87,1.44,13.25.13,1.07-.48,1.81-1.4,2.24-5.98,2.92-11.78,6.39-17.88,8.85-1.22.58-6.52,2.4-5.84-.39.19-7.48.55-15.48,1.23-22.9.44-10.25.21-24.47.33-35.19-.47-5.33-2.49-10.62-4.11-15.79-3.58-8.09-13.67-11.15-21.67-7.93-3.99,2.16-7.47,5.62-10.99,8.46-2.36,2.87-5.2,5.77-7.13,8.89-2.27,3.88-4.8,7.69-6.53,11.97-.73,1.68.02,1.73,1.15.75.06,0,.06.04.06.1-.05,1.39-1.64,1.37-2.46,2.02-2.73,5.12-4.49,10.97-6.67,16.39-2.18,4.55.34-14.8.25-15.64-.15-.54-.75-.07-.69-1.04.19-1.72.52-3.27,1.17-4.83,7.32-19.99,11.01-20.65,26.37-33.07,6.51-5.46,11.05-6.34,18.33-8.25,7.89-.8,16.71,4.54,24.23.37,12.8-8.33.93-21.97-10.86-21.52-4.46.34-7.54,3.02-11.96,4.31-2.98.97-7.74,3.57-4.11-1.28,2.88-4.17,4.5-9.12,6.58-13.73,1.79-5.47,4.29-12.27.49-17.42-3.75-4.03-10.48-6.58-15.5-3.33-2.65.87-4.99,2.59-7.08,4.39-.98,1.32.54,1.44-1.72,3.35-.86.92.79-.04,1.19-.11,2.02-.62,3.69.56,5.69.48,1.46.19,4.25-.27,4.17,1.89.18,3.37-2.61,6.07-4.36,8.62-5.77,8.53-11.64,17.31-18.87,24.66-1.52,1.26-2.41-7.76-2.26-8.68.58-3.18,1.66-6.38,2.79-9.46.27-.55.09-1.27-.16-1.6-.03-.11-.06-.22-.04-.34.15-.84,1.1-1.68,1.37-2.49.25-.63-.35-.36-.58.05-1.88,2.71-4.57,6.8-6.45,9.37-.27.32-.62.72-1.04.64-5.24-7.24-2.33-20.78,4.08-26.84,1.4-1.53,2.98-2.58,4.94-3.32,3.52-1.9,7.01-3.61,10.76-4.88,4.49-3.28,9.81-6.3,14.82-8.63,4.4-1.9,9.92-.38,13.89-3.4,2.06-1.78,3.66-5.18,3.6-7.24-1.19-4.59-4.42-8.63-7.45-12.19-3.77-3.26-8.95-4.11-13.78-4.67-2.7-.54-2.21-4.18-3.2-6.19-.49-1.81-2.13-3.07-3.1-4.64-2.09-5.53-5.38-10.32-10.14-13.92-16.17-13.54-33.31-13.37-22.95,11.95.06,3.23,1.07,2.64,2.22,5.1,1.12,2.47,1.28,5.13,1.39,7.83.48,2.47.96,4.5.13,7.05-1.48,11.44-6.89,11-15.58,15.78-9.2,4.61-20.55,9.06-30.32,12.16-2.96.74-5.91,1.67-9.02,1.42-1.62-.06-3.52-.56-4.97.26-1.96,1.61-1.58,6.04-.87,8.25,1.08,1.83,3.23,3.16,4.88,4.5,4.35,2.92,9.95,5.43,15.39,5.43,3.7.23,8.27.85,12.05.13,4.94-1.06,11.23-3.81,16.21-5.72.5-.15,1.3-.52,1.33-.13-3.29,7.63-6.84,16.86-6.86,25.65-.66,7.79,3.55,14.34,9.11,19.3,3.48,2.72-3.13,4.22-4.78,5.78-.68.34-4.36,2.64-2.8,2.55.61-.22,1.64-1.14,2.49-1.25,1.2.02-5.75,4.82-6.3,2.85-.66-.53-2,.56-2.21,1.05.09.38.88.16,1.07.46-1.57,2.31-5.39,3.15-7.75,4.6-1.47.86-3.1,1.5-4.8,1.19-2.07.11-3.61,2.19-4.9,3.56-1.89,1.83-4.43,3.44-6.55,5.1-.91.67-.85,1.65-1.82,1.84-5.75,2.76-10.31,7.92-16.28,10.22-2.66.04.56,1.01-4.01,3.11-.54.05-.65-.64-1.41-.22-2.23,1.38-4.8,3.05-7.12,4.76-4.86,4.13-10.32,7.57-15.83,10.74-6.87,4.1-13.92,9.48-21.88,3.99-.69-.25-1.3-.7-1.92-.31-.59.43-.72,1.35-1.01,2-2.6,4.22-1.08,9.66,2.12,13.08,3.35,4.21,9.65,6.41,14.81,6.08,2.97-.41,5.8-2.49,8.11-4.2,10.31-7.05,18.23-17.55,29.43-23.32,1.53-.87,3.89-2.36,5.2-3.22.65-.62-.03-1.08.66-1.83,2.02-1.98,4.66-2.99,6.62-4.76.91-.62,1.14-1.03,1.48-2.04.73-1.12,1.88-2.38,2.66-3.31.48-.65,6.15-2.94,4.82-3.98-1.56,1.02-3,2.06-4.85,2.79-1.39.36-2.61.96-3.46,2.17-1.13,1.21-3.04,1.75-4.58,1.97-.08-.57,2.72-2.31,2.67-2.89-.82-.15-1.74.79-2.5.9-.73.03.36-.7.59-.95,2.79-2.36,5.96-4.17,8.61-6.54.76-.32,1.37.11,2.09-.04.7-.06,4.19-2.38,2.92-.42-.34.5-1.32,1.1-1.03,1.71.24.17,1-.03,1.2.14.3.3-.17.92.06,1.19.5-.22.79-.92,1.25-1.26.51-.68,1.71.38,1.79-.35,0-.35-.23-.94.15-1.13,3.89-.21,1.97-1.96,5.07-3.15.56-.03-.53,1.37-.36,1.55,1.41-.11,1.73-1.79,2.07-2.9.23-.72,1.57-.87,1.69-.04.04.5-1.12,1.39.08,1.15.7-.24,1.98-.67,2.55-1.3.18-.38-.84-.72-.85-1.07.07-.45.75-.54,1.09-.78,1.14-.7,1.49-1.13,2.28-.2.5.22.65-.66.86-.98.39-.96,1.23-1.12,2.13-1.61,1.2-.84,2.42-1.26,3.8-1.88.96-.75,2.42-.98,3.44-1.05,1.88-1.55,3.62-1.86,5.89-2.93,1.21-.71,2.38-1.76,3.67-2.24,4.77-1.3,1.66,1.24.04,2.97-3.11,3.89-6.05,8.13-8.34,12.5-11.15,20.51-12.2,54.77-9.25,77.68,1.51,6.58-.27,14.05,2.12,20.46,1.31,2.8,2.87,5.58,5.04,7.81,2.12,3.03,4.13,6.32,7.2,8.52,4.01,2.89,11.99,2.27,15.3-1.56,2.87-2.76,3.55-6.67,2.78-10.4-.41-5.07,6.2-4.16,8.38-7.69,1.57-1.91,3.74-3.45,5.61-5.14.41-.24.86-.87.95-.17-.47,9.17,5.4,10.93,13.14,12.56,8.67,1.26,8.98-11.45,10.94-17.31,1.14-5.25,7.38.78,18.68-6.41,5.9-2.66,10.66-8.74,17.37-9.37.61.28-.28.95-.52,1.29-2.63,2.76-5.3,5.73-8.52,7.8-4.49,2.89-8.35,6.79-13.47,8.67-2.48,1.1-9.38,1.89-6.75,5.97.45.93,1.08,1.72,2.12,2.02,4.18,2.19,2.38,1.9,7.51,1.71,6.58-.29,11.5-5.6,16.74-9.04,6.63-4.51,13.28-9.53,18.95-15.14,1.84-2.95,3.74-5.59,5.65-8.51.83-1.05,2.32-1.31,2.78-2.62.75-2.2,2.95-3.21,4.4-4.69,2.68-11.58,1.01-6.01,6.52-.1l.04.06ZM538.67,395.96c-.23-.09.29-.51.28-.55-.02.08-.49.42-.28.55h0ZM539.13,396c.09-.12.73-.9.75-.92-.2.25-.55.68-.74.91h0ZM539.88,395.08c-.09-.01-.25-.03-.39-.05.14.02.29.03.39.05h0ZM553.58,395.23c-.28.11-.83.51-1.14.52.08.05.14-.03.31-.1.15-.06.9-.45.85-.43h-.01ZM557.18,384.01c-.01.21.08.39.24.41-.16-.01-.25-.2-.24-.41ZM557.96,382.15l.04.5-.04-.5h0ZM557.86,383.45c.17,0,.3.09.33.21-.03-.12-.15-.21-.33-.21ZM559.27,382.93c-.3.02-.86.07-1.18.09-.09,0-.07,0,.05,0,.27-.02.87-.07,1.13-.09h0ZM569.37,380.73c.03-.1.42-1.2.49-1.29.17.01.4.31.55.41q.18.15,0,0c-.16-.11-.36-.35-.53-.42-.14.13-.48,1.25-.51,1.31h0ZM570.07,380.69s-.11.04-.19.05c-.07.02-.04.01.05-.01.19-.05.5-.25.65-.33.04-.02-.44.25-.49.28h-.02ZM576.27,376.22c-.3,1.58-1.71,2.68-3.25,2.62-.26,0-.55-.04-.23-.32.25-.23.59-.51.85-.74.25-.21.26-.42.24-.65-.02-.19.01-.32.23-.29.28.02.63.25.89.14.17-.11.16-.37.24-.54.07-.36.9-.57,1.04-.25v.05ZM577.93,374.25c.97-.31,2.34-.54,3.34-.79.04,0,.06,0,.04,0-.2.09-3.9,2.57-4.28,2.66.18-.41.65-1.47.88-1.85l.02-.02ZM594.12,368.31c-3.39,1.76-6.85,3.48-9.79,5.88-.7.64-1.62.65-2.35,1.2-1.04.86-2.46,1.37-4.14,1.74-.31.07-1.61.37-.92-.02,1.39-.76,6.17-3.36,7.71-4.2.16-.09.35-.22.41-.36.13-.25-.1-.53-.51-.61-.62-.12-1.42.41-1.96.62-.33.15-.46.13-.29-.13,1.1-1.85,3.64-2.26,5.2-3.48.78-.46,1.51-1.28,2.44-1.27.53.1.19.6-.43.9-.75.35-1.37.84-2.2,1.41-.42.31-2.56,1.61-1.62,1.76.72-.05,1.54-.7,2.24-1.04,1.98-1.04,5.35-3.43,7.59-3.63,1.36-.07-.52.77-1.33,1.21l-.06.03ZM595.83,366.07c-.07-.08.21-.11.57-.25.66-.22,2.36-.81,2.71-.91.03,0,.03,0,.02.03-.1.17-.31.39-.47.56-.72.81-1.82,1.3-2.81.59l-.02-.02ZM593.21,366.34c.14-.75.93-1.3,1.67-1.25.3,0,.51-.11.61-.38.14-.53.26-1.04.89-1.2.45-.17,1.04-.26,1.55-.34.57-.07,1.09-.23,1.3-.01.19.16.2.52-.03.65-.82.39-3.81,1.74-5.11,2.33-.54.22-.88.47-.87.24v-.03ZM599.77,364.1s-.03-.03,0-.06c.32-.22,1.89-1.26,2.3-1.53.14-.09.25-.11.43-.12.26-.01.75-.07.77,0,0,.09-.18.2-.27.27-1.13.86-1.92,1.41-3.21,1.43h-.03ZM604.81,428.64c-.16-.13-.38-.33-.53-.49.09.11.46.43.55.51h-.02ZM604.85,427.05c-.1.1-.34.33-.44.42q-.06.06,0,0c.08-.08.37-.36.44-.42h0ZM604.75,426.8s.06-.75.07-.94c-.02.16-.02.73-.07.94h0ZM604.89,424.88c-.34.32-1.2,1.12-1.41,1.33-.11.11.09.23.15.29-.12-.11-.31-.2-.07-.37.37-.35,1.02-.96,1.34-1.25h0ZM605.45,427.43c-.05-.31.04-.86.19-1.12-.15.26-.24.81-.19,1.12h0ZM605.54,401.84s.45-2.68.43-2.52c-.12.71-.32,1.86-.43,2.52h0ZM606.04,428.79c.05-.28.53-3.09.45-2.63-.13.75-.33,1.92-.45,2.62h0ZM625.29,376.63c.72.22.51.41.24.96.03-.06.1-.19.14-.29.13-.24.18-.4,0-.5-.17-.1-.38-.21-.46-.13-.07.06-.13.22-.24.43-.19.38-.42.83-.61,1.2-.06.13.1-.19.31-.62.26-.46.41-.93.58-1.06h.03ZM624.11,378.85l.43.22-.43-.21h0ZM623.24,400.17c1.51-1.69,3.6-4.22,5-5.7.43-.44.84-.85,1.2-1.37,1.54-2.91,3.62-5.61,5.81-8.15,2.53-3.19,4.24,6.66,4.5,8.21.13.83.68,1.46.89,2.23.16.61-.08,1.39.35,1.91.12.17.18.24.28.4.47,1.19.63,3.59.93,4.88.05.29.17.57.45.69.22.1.48.13.67.3.15.12.26.33.32.61.18.92.24,2.56.29,3.61,0,.21-.02.43-.1.6-.13.29-.45.38-.92.33-7.49-1.19-8.99-7.87-16.46-5.45-1.02.3-1.98.76-2.95,1.09-.94.28-2.35.85-2.1-.38.23-1.31.96-2.75,1.79-3.74l.04-.05ZM614.55,396.65c-.17.11-.94,1.73-1.03,1.84.27-.46.71-1.41,1.01-1.84h.02ZM614.14,398.79h0s-.03-.02-.03-.02l.03.02ZM613.33,399.19s.04,0,.05,0c-.02-.04-.48.11-.51.11l.46-.12ZM612.84,399.32h0s-.08.25-.08.25c0,0,.08-.25.08-.25ZM612.77,399.56s-.08.73.03.85c-.1-.16-.06-.67-.03-.85h0ZM609.72,432.74c-.18-.39-.03-1.05.45-1.17-.45.1-.64.79-.45,1.17h0ZM610.31,432.78c.04-.3.04-.86-.06-1.15.1.29.1.84.06,1.15h0ZM611.92,449.49c-.15-.04-.82-.22-.91-.25.13.03.78.21.91.25h0ZM612.29,448.26s.13-.41.09-.51c-.03-.09-.25-.12-.48-.2-.48-.17-.44-.11-.55.36-.02.08-.12.5-.05.18.04-.14.09-.4.14-.53.04-.17.18-.09.46-.01.28.09.51.1.49.25-.02.15-.06.32-.1.46h0ZM623.06,432.53c-1.91,5.15-3.43,10.5-5.43,15.53-.28,1.22-1.27,2.08-1.8,3.11-.57,1.51-1.07,3.32-1.69,4.82-.81,2.09-1.32-1.18-1.31-1.9,0-1.93-.09-4.32-.19-6.44-.05-.84,0-1.6-.23-2.32-.18-.54-.45-1.09-.66-1.64-.75-1.81-.13-3.82-.2-5.78.01-1.08-.08-2.23-.16-3.24,0-1.52-.66-3.93.89-4.88,4.62-1.67,8.23-5.3,12.15-8.22.37-.27.95-.6,1.29-.25.5.56.33,1.72.12,2.45-.76,2.64-1.89,6.28-2.77,8.71l-.02.06ZM623.42,454.63s.38-.39.39-.39l-.39.39ZM624.81,452.38c-.56.38-1.02,1.28-1.31,1.92.39-1.16,1.32-2.06,2.42-2.56.43-.21-.92.52-1.07.61l-.04.03ZM627.85,452.19l-.21.08c.14-.06.33-.06.27-.29.02.11,0,.19-.06.22ZM637.49,467.48c.04.34.25.91.35,1.22-.1-.3-.32-.89-.35-1.22h0ZM638.63,468.52c-.08.06-.62.41-.69.45.12-.08.51-.33.7-.46h-.01ZM638.73,465.86c-.26.29-.74.84-1.02,1.17-.13.15-.16.19-.08.09.22-.25,1.02-1.17,1.1-1.26h0ZM644.65,440.52c-.13,1.21-.37,2.65-1.57,3.21-.4.11-.45-.49-.71-.37-.33.19-.64.82-1.16,1.17-.28.21-.58.34-.91.47-3.72,1.35-6.98,3.92-10.56,5.43-.86.26-1.68-.19-2.52.05-.89.25-1.89,1.05-2.54,1.26-.05,0-.04-.04,0-.13.03-.05.07-.12.13-.19.84-1.18,3.72-5.19,4.74-6.6.29-.42.5-.53.26.29-.19.69-.6,1.5-1.01,2.14-.41.69-1.04,1.49-.81,1.64,2.2-1.3,4.02-5.86,5.15-8.3.12-.33.26-1.06-.2-.57-.34.33-.81,1.32-1.18,1.75-.54.67-.44.03-.1-.69.28-.56.52-1.15.79-1.66.15-.27.34-.48.63-.48.65.04.61-.42.98-1.03.17-.27.39-.52.58-.78.43-.52.64-1.37.95-2.01.67-1.3,1.64-2.47,2.32-3.77.77-1.47,1.47-2.6,2.39-3.9.85-1.25,1.97-2.96,2.71-3.97.64-.86.62-.24,1.2.3.2.18.47.27.66.46.38.43.32,1.01.33,1.68-.06,1.21-.42,2.34-.13,3.54.03,2.16.14,5.21.31,7.39.09,1.25-.55,2.35-.69,3.59v.07ZM746.95,406.01c.1.18.21.46.26.68-.02-.15-.2-.59-.27-.7v.02ZM746.46,408.04c.12-.05.22-.11.31-.18-.09.07-.19.13-.31.18h0ZM704.2,375.62c.04.52.1,1.34.14,1.89.02.31-.13-1.75-.14-1.89h0ZM700.65,309.15c-2.24-6.58-.48-12.21,4.73-17.71.53-.58,1.15-1.12,1.8-1.48,1-.5,1.45-1.23,2.36-1.82.51-.32,1.1-.6,1.66-.85,1.05-.48,2-.65,3.06-.77,2.66-.31,5.48-.81,7.93-1.91,3.01-1.2,5.27-3.4,7.62-5.54,1.7-1.41,3.82-2.46,5.74-3.67,2.09-1.2,4.31-2.25,6.47-3.37.9-.43,4.36-1.79,4.56-.67,0,.38-.47,1-.83,1.56-3.54,5.31-8.56,11.31-12.79,15.47-3.01,2.77-5.7,6.31-8.94,8.82-1,.78-1.97,1.27-3.02,2.06-.9.72-1.93,1.21-3,1.6-1.75.78-3.41,2.47-4.96,3.72-.77.77-.64,1.71-1.3,2.66-.77,1.05-1.7,2.02-2.15,3.26-.56,1.6-1.66,3.83-1.99,5.55-.13.95-.23,2.58-.28,3.88-.09.9.28,1.68.81,2.36.44.61.47,1.62,1.1,2.43.94,1.04,2.23,1.95,2.18,3.51.03.83-.56,1.62-1.14,2.47-.37.52-1.05,1.37-1.49.39-.84-1.91-1.97-4.72-2.81-6.38-.23-.49-.39-.91-.5-1.46-.16-.7-.22-1.66-.49-2.27-.39-.93-1.28-1.26-1.61-2.09-.91-2.89-1.91-7.06-2.71-9.72l-.02-.05ZM706.59,416.58c-.17-.36-.26-.76-.31-1.16-.29-2.78-.65-7.07-.76-9.88-.06-.89-.8-.91-.93-1.75-.78-5.69-.98-12.08-1.09-17.89-.02-.3-.02-.76-.08-.98-.16-.58-.61,1.17-.81,1.16-.06.03-.1-.02-.13-.08-.1-.25-.12-.61-.15-.91-.12-1.39-.1-2.81.22-4.03.24-.66.09-1.33.07-1.98.06-.83.61-.48.65.17.05.3.06.62.03.93-.05.64-.22,1.08,0,1.26.19.14.44.14.67.21.88.2,1.11.98,1.69,1.82.96,1.24,2.12,2.41,3.54,3.1,3.26,1.48,5.77-2.9,7.79-5.19,1.95-1.6,5.29-4.2,6.93-5.42.43-.22.17.48.07.92-1.53,5.49-5.53,9.77-9.31,13.9-1.23,1.39-2.6,2.75-3.84,4.12-2.1,2.47-3.12,5.67-3.5,8.88-.12.89,0,1.78.45,2.56,1.06,1.75,2.18,3.77,3.77,5.08.96.72,1.44,1.41.91,2.64-.04.18-.15.38.03.48.23.12,1.3-.37,1.47-.28.05.02.05.05.03.1-.15.22-.51.54-.77.75-.54.46-1.07.91-1.55,1.43-.63.74-1.14,1.54-2.08,2.15-.45.29-1.06.8-1.59.54-.17-.13-.2-.18-.29-.34-.29-.78-.72-1.57-1.12-2.26l-.02-.05ZM728.52,426.36c-.54.5-1.39,1.94-2,1.89-.25-.13-.34-.45-.5-.71-.25-.47-.64-.83-1.1-1.11-1.87-1.25-4.14-1.7-6.31-2.16-1.1-.52-2.19-1.48-3.54-1.1-2.22.31-6.6,3.08-5.32-.78.1-.8-.41-1.46-.16-2.25.2-.72,1.32-1.27,1.87-.64.22.3-.27,1.02-.28,1.27-.1.47,1.07-.36,1.39-.46,3.55-1.78,7.9-3.54,11.15-5.39,1.25-.68,2.83-1.04,4.06-1.74,1.13-.67,2.07-1.7,3.24-2.37,1.6-1.04,3.61-1.59,5-2.98,1.08-1.18,2.66-2.15,3.52-3.52.38-.96.18-2.35.19-3.36-.03-.91-.54-1.41-1-2.14-1.06-2.26-2.92-4.19-5.11-5.41-1.58-.78-3.2-1.99-4.69-2.82-.4-.23-.89-.56-.88-.96-.04-1.15,2.38-4,3.54-5.54,1.34-1.87,3.2-3.62,4.68-5.27,5.25-5.3,5.74-10.02-.11-16.08-1.12-2.61-1.47-6-4.63-7.11-6.56-2.67-12.39,2.86-16.75,7.22-1.33,1.31-2.29,3.13-4.03,4.03-.98.5-.66-.64-.39-1.18,2.7-6.37,6.81-12.11,11.32-17.26,4.07-3.89,10.73-6.45,16.25-7.35,2.11.12,3.98,1.94,4.42,4.11.4,1.33.86,2.57,1.08,3.93.37,2.11.45,4.54.93,6.73,2.9,14.87,1.42,30.65,1.58,45.74-.08,4.81-.25,9.88-.55,14.42-.39,3.73-1.27,8.14-1.75,11.91-.19,1.63-.3,2.26-1.94,1.99-4.16-.55-8.34-1.47-12.07-3.31-.33-.14-.78-.42-1.1-.25l-.04.02Z"/>
      <path d="M787.64,502.42c.3-.75.28-1.89,0-2.74-.32-2.01-1.08-4.07-1.81-6-.42-1.22-1.04-2.89-1.55-4.18-.38-.87-.24-1.73-.62-2.56-.9-1.36-1.23-2.89-2.02-4.32-.28-.52-.65-.83-1.17-1.03-.69-.28-1.86-.69-2.41-.92-.56-.21-.73-.38-1.2-.89-1.59-1.72-3.99-4.38-5.73-6.23-1.39-1.5-3.83-2.51-5.21-4.02-1.36-1.3-3.1-2.34-4.67-3.43-.68-.42-.91-.46-1.78-.72-2.8-.89-7.81-2.26-10.79-3.35-3.36-1.4-7.23-2.65-10.84-2.45-2.44-.91-5.46-2.11-7.88-3.24-.53-.27-.86-.43-.96-.04-.08.4-.04.88.04,1.3.13.69.42,1.12.89,1.61.69.8,1.61,1.67,2.22,2.52.14.24.11.4-.03.57-.12.16-.13.24.08.4.81.44,1.58,1.03,2.13,1.83.58.74,1.25,1.39,1.77,2.02.36.44.65.92.95,1.4.62,1.02,1.52,1.92,2.16,2.98.31.5.62,1.01.99,1.47,2.37,2.6,5.01,5.83,6.97,8.51,1.12,1.52,2.35,2.99,3.55,4.46,2.48,3.16,4.64,6.68,6.99,10,1.59,2.3,3.14,4.45,4.81,6.5,1.28,1.67,2.21,3.58,3.57,5.14.66.67.75,1.68,1.3,2.38.43.43,1.1.56,1.41,1.13.43.7.44,1.68.78,2.43.31.74,1.02.81,1.46,1.47.27.39.39.88.52,1.34.06.2.11.37.17.49.09.19.18.24.28.17.17-.15.32-.47.51-.63.45-.32.62.4.87,1.05.32.72.29,1.84.97,2.03.41.09.84-.07,1.25,0,.65.1,1.19.77,1.9.85.85.11,1.87-.27,2.8-.31,2.4-.18,2.96-1.67,4.26-3.24.6-.54,1.26-1.13,1.32-1.99.09-.94.24-1.6.75-2.58.36-.83.9-1.58.85-2.49,0-1.05-.01-3.68-.02-5.16-.01-.67.01-1.05.13-1.45v-.05Z"/>
      <path d="M589.06,457.96c-.17-.76-.26-1.19-.78-.27-.01.45.3,1.26.38,1.75.04.16.07.32.09.33.19-.42.4-1.28.32-1.75v-.06Z"/>
      <path d="M560.9,387.16c.57-.06,3.24-1.01,3.95-1.2.27-.08.26-.27.34-.57.08-.42.27-1.1.24-1.28-.03-.17-.25-.03-.37.02-1.29.72-3.05,2.01-4.15,3.01v.02Z"/>
      <path d="M582.62,363.64c.46.19,1.1.09,1.62,0,.51-.15,1.15-.33,1.4-.77,0-.05-.06-.1-.16-.13-1.06-.29-2.1.11-2.86.87v.03Z"/>
    </g>
    <g>
      <path d="M369.49,436.16h0s-.05-.04-.06-.05h.02s.01.02.02.03c0,0,.02,0,.02.02h0Z"/>
      <path d="M369.88,436.45c-.1-.07-.21-.15-.29-.21.09.06.19.14.29.21Z"/>
      <path d="M368.55,441.94c-.05.01-.11.01-.15.02.02,0,.05,0,.08-.01.02,0,.05,0,.08,0Z"/>
      <path d="M368.79,441.92s-.06,0-.08.01c-.02,0-.05,0-.08,0,0,0,0,0,.01,0,.04,0,.09,0,.14-.01h.01Z"/>
      <path d="M370.33,437.64s.01-.04.01-.06c-.02.12-.04.25-.06.36.02-.09.03-.19.05-.3Z"/>
      <path d="M370.37,437.39s0-.05.01-.07c-.01.08-.02.15-.04.23v-.02s.01-.06.02-.1v-.04Z"/>
      <path d="M370.45,436.91c-.01.06-.02.15-.04.24h0s0-.06.01-.09h0s0-.06.01-.08c0-.02,0-.04.01-.06Z"/>
      <path d="M367.86,431.76s-.06.07-.09.1c.02-.02.05-.05.07-.08.01,0,.02-.01.02-.02Z"/>
      <path d="M368.68,430.56s-.01.02-.02.04c0,0,0,.02-.02.02.01-.02.02-.05.04-.06Z"/>
      <path d="M376.08,430.1c-.02.06-.04.11-.05.14.01-.04.03-.08.05-.14Z"/>
      <path d="M364.11,426.32s.02-.03.02-.04c-.03.06-.06.11-.08.16.02-.04.04-.08.06-.12Z"/>
      <path d="M364.96,424.65s-.04.06-.05.09c.01-.03.03-.06.04-.09h0Z"/>
      <path d="M373.38,435.41c-.13.16-.24.35-.33.54.09-.19.2-.37.33-.54Z"/>
      <path d="M364.3,423.72s.07-.1.11-.15c-.07.09-.12.16-.11.15Z"/>
      <path d="M377.73,430h-.03.03Z"/>
      <path d="M377.79,430.01h-.03s-.02,0-.02,0h.02s.02,0,.04,0Z"/>
      <path d="M378.4,430.1s-.01,0-.02,0h.02Z"/>
      <path d="M373.38,440.03s-.05.09-.08.12c.02-.03.05-.08.08-.12Z"/>
      <path d="M373.08,440.35s-.1.08-.15.12c-.05.04-.11.08-.16.11-.04.02-.07.05-.11.07-.03.02-.05.04-.08.05-.02.01-.05.03-.08.05-.05.03-.11.06-.17.09-.06.04-.12.06-.18.09-.02.01-.05.02-.08.04.04-.02.08-.04.12-.06.06-.03.12-.06.18-.09.06-.04.13-.07.19-.11.06-.04.12-.08.18-.11.12-.08.24-.16.35-.24Z"/>
      <path d="M361.28,406.32s.1.11.12.13c.03.03-.1-.1-.12-.13h0Z"/>
      <path d="M362.68,407.2c-.02-.08-.1-.23-.19-.39-.09-.15-.2-.31-.27-.39.02.02.05.05.07.08.08.09.15.18.21.28.08.13.15.27.18.39v.03Z"/>
      <path d="M361.13,405.61s-.01-.06-.02-.09c0-.04-.01-.07-.02-.11,0,0,0,0,0-.01,0-.04-.02-.08-.03-.11h0s-.02-.06-.02-.08h0s-.01-.04-.01-.05h0s0,0,0,0h0s0,0,0,0c0,.01,0,.02,0,.04l.02.04c.03.06.06.25.08.37Z"/>
      <path d="M363.65,406.82c.34-.06.71-.13,1.08-.22-.01,0-.02.01-.04.01-.07.02-.14.04-.2.05h-.01c-.07.01-.14.03-.21.05-.06.01-.13.02-.19.04-.15.03-.29.05-.44.07Z"/>
      <path d="M364.99,406.54s-.06.02-.09.02c-.05.01-.11.03-.16.04.08-.02.16-.04.25-.06Z"/>
      <path d="M366.63,405.98s.01,0,.02,0c-.06.03-.12.05-.18.08-.01,0-.03.01-.04.02.07-.04.14-.06.21-.09Z"/>
      <path d="M366.73,405.94s-.05.03-.08.04c.01,0,.02-.01.04-.02.02,0,.03,0,.04-.02Z"/>
      <polygon points="366.87 405.87 366.87 405.87 366.87 405.87 366.87 405.87"/>
      <path d="M367.58,405.44s-.08.06-.12.09c-.02.02-.05.04-.08.05-.03.02-.05.04-.08.05-.02.01-.04.03-.06.04-.05.03-.1.06-.15.09,0,0-.01,0-.02,0,.01-.01.02-.02.03-.02,0,0,.02-.01.02-.02.01,0,.02-.01.04-.02.05-.03.09-.06.14-.09,0,0,.02-.01.02-.02.01,0,.02-.01.03-.02.07-.04.14-.09.2-.14.01,0,.02,0,.02-.01Z"/>
      <path d="M359.53,431.04s-.08.1-.11.15c-.12.15-.24.31-.34.45-.03.05-.06.1-.1.15-.03.05-.06.09-.09.14,0,.01-.01.02-.02.04.01-.02.02-.05.04-.08,0-.01.01-.03.02-.04.14-.25.35-.53.6-.8Z"/>
      <path d="M364.74,423.12c.04-.06.08-.11.12-.15,0,0-.05.06-.12.15Z"/>
      <path d="M367.98,404.63s.02.04.02.06c-.03-.08-.08-.15-.14-.22.01,0,.02.02.04.03.02.02.04.04.05.06t0,.01s.02.04.02.05Z"/>
      <path d="M368.02,404.75s-.01-.03-.02-.05c0,0,.01.02.01.02s0,.02,0,.02Z"/>
      <path d="M360.46,430.13c-.07.07-.19.17-.3.27.02-.02.04-.04.05-.05.02-.02.04-.03.05-.05h0s.07-.06.1-.09c.04-.03.06-.05.09-.08Z"/>
      <path d="M392.51,509.99s.03.01.05.02c-.01,0-.02,0-.03-.01h-.02Z"/>
      <path d="M392.67,510.07s.04.02.06.04h0s-.04-.02-.06-.04Z"/>
      <path d="M393.07,510.27s-.06-.03-.09-.04c-.05-.02-.08-.04-.12-.06-.04-.02-.08-.04-.11-.06h0c.06.04.14.07.21.11.04.02.08.04.11.06Z"/>
      <polygon points="393.1 510.29 393.1 510.29 393.1 510.29 393.1 510.29"/>
      <path d="M393.21,510.35s-.07-.03-.11-.05c0,0,.01,0,.02,0,.03.02.06.03.09.05Z"/>
      <path d="M401.5,498.37s0,0,0,0c0-.01,0,0,0,0Z"/>
      <path d="M403.3,500.51s-.02.02-.03.03c.01-.01.02-.02.02-.03h0Z"/>
      <path d="M403.6,499.24s-.04.06-.05.09c0,.02-.01.04-.01.05,0-.02,0-.04,0-.05,0,0,0-.01,0-.02h0s0-.02.01-.02c0-.01,0-.02.02-.02h0s.01-.02.01-.02h0Z"/>
      <path d="M403.63,499.19h0s0,.01,0,.01t0-.01Z"/>
      <path d="M407.95,492.8h0s0,0-.01,0c0,0,0,0,.01,0Z"/>
      <polygon points="407.72 492.34 407.72 492.34 407.73 492.34 407.72 492.34"/>
      <polygon points="401.34 498.84 401.34 498.85 401.34 498.85 401.34 498.84"/>
      <path d="M398.01,509.13h-.01s-.04,0-.06,0c.02,0,.05,0,.08,0Z"/>
      <path d="M398.1,509.13c.09,0,.21.02.33.03-.11-.01-.23-.02-.33-.03Z"/>
      <path d="M399.83,513.59s0,.03,0,.04c0,.01,0,.02,0,.02-.01-.01-.02-.06-.05-.14l-.02-.05c-.02-.07-.04-.16-.04-.26,0-.11.06-.21.11-.28-.02.04-.04.09-.04.15,0,.16.05.37.05.52Z"/>
      <path d="M399.95,498.77s-.06-.12-.06-.11c0-.01.05.1.06.11h0Z"/>
      <path d="M399.88,498.65s-.04-.12-.04-.14c0,.02.04.12.04.14h0Z"/>
      <path d="M410.2,498.34s.06.09.13.21c-.05-.08-.09-.15-.13-.21Z"/>
      <path d="M395.47,510.27s-.09.07-.16.12c-.02.02-.05.03-.07.05s-.05.03-.08.05l-.06.04c-.06.04-.13.08-.2.11t0,0c-.06.02-.12.05-.17.06,0,0-.02,0-.02,0-.3.07-.46.05-.35.05.11-.01.21-.03.32-.07.19-.06.4-.19.57-.3.26-.18.35-.21.23-.11Z"/>
      <path d="M397.04,506.79c-.78-.28-1.56-.53-2.22-.75.7.24,1.46.49,2.22.75Z"/>
      <path d="M411.21,492.52h0,0Z"/>
      <path d="M411.57,499.22s0,.01-.01.02-.02.02-.05.05c.02-.02.05-.04.06-.06Z"/>
      <path d="M410.77,499.21c-.04-.06-.09-.14-.14-.22.08.13.15.22.14.22h0Z"/>
      <path d="M413.22,488.45c-.06.02-.12.05-.15.06.05-.02.1-.04.15-.06Z"/>
      <path d="M394.35,505.87s-.09-.03-.11-.04c.02,0,.05.02.11.04Z"/>
      <path d="M355.93,370.42h0s.04.05.13.16c-.05-.06-.09-.11-.13-.16Z"/>
      <path d="M353.42,372.74s.02-.05.04-.08c-.01.02-.02.04-.03.06,0,0,0,.01-.01.02Z"/>
      <path d="M353.57,372.46h0s-.04.08-.05.11c.02-.04.04-.08.05-.11Z"/>
      <path d="M353.6,372.41s-.02.04-.03.05h0s.02-.04.04-.05Z"/>
      <path d="M356.56,371.2c-.08-.1-.18-.22-.28-.34.16.19.3.37.28.34Z"/>
      <path d="M357.5,369.99c-.1.03-.19.08-.28.13.06-.04.16-.09.28-.13Z"/>
      <path d="M357.08,371.54s-.04.02-.06.04h.01s.03-.03.05-.04Z"/>
      <path d="M358.6,370.63c-.36.21-.78.47-1.14.68.35-.21.81-.48,1.14-.68Z"/>
      <path d="M375.18,245.74c-.04.09-.09.21-.15.29.05-.09.11-.2.15-.29Z"/>
      <path d="M374.75,244.65s-.02-.01-.02-.02c0,0,.02.01.03.03,0,0,0,0,0,0Z"/>
      <path d="M360.75,405.2s-.03.02-.01,0c0,0,0,0,.01,0Z"/>
      <polygon points="375.22 245.65 375.22 245.65 375.22 245.65 375.22 245.65"/>
      <path d="M352.32,372.62s.02-.01.03-.02c-.01.02-.03.03-.04.04,0,0-.02.01-.03.02.01-.02.02-.03.04-.04Z"/>
      <path d="M334.34,276.7s0,0,0,0h0s0,0,0,0Z"/>
      <path d="M451.13,268.29h0c.32.43.89,1.11,1.34,1.58-.42-.44-1-1.12-1.34-1.58Z"/>
      <path d="M453.47,266.15s-.08-.33-.32-.68c-.21-.33-.62-.67-.87-.85.12.08.25.16.37.27.12.1.23.22.35.35l.04.05c.23.28.39.55.44.88Z"/>
      <path d="M451.52,267.36s.05-.15.11-.32c-.04.11-.07.22-.11.32Z"/>
      <path d="M332.68,282.56c-.01.12-.02.24-.02.34,0-.08.01-.2.02-.34Z"/>
      <path d="M435.43,332.36c-.08.02-.27.08-.32.1.06-.02.24-.08.32-.1h0Z"/>
      <path d="M435.78,335.55c-.02-.09-.05-.18-.08-.27-.03-.09-.06-.19-.09-.28-.03-.09-.06-.19-.1-.28-.02-.05-.04-.11-.06-.16-.04-.11-.08-.21-.12-.31-.02-.05-.04-.09-.05-.14-.02-.05-.04-.09-.06-.14-.03-.08-.06-.16-.1-.23-.01-.02-.02-.05-.03-.08.01.02.02.04.03.06.03.06.06.12.09.19.04.08.06.15.1.22.02.05.04.1.06.15.06.15.12.29.17.44.04.09.06.19.09.28.04.09.06.18.09.27.01.05.02.09.04.13.01.04.02.08.04.13Z"/>
      <path d="M433.62,333.93c-.08.24-.17.55-.26.89.08-.33.17-.64.26-.89h0Z"/>
      <polygon points="374.97 244.85 374.97 244.85 374.97 244.85 374.97 244.85"/>
      <path d="M322.02,407.47v.04s0,.02,0,.03c0,0,0-.04,0-.07Z"/>
      <path d="M345.99,260.46s.03-.02.04-.03c0,0,0,0-.04.03Z"/>
      <path d="M381.41,328.4h0s.28-.18.36-.25c.05-.04.03-.02-.03.02-.08.06-.25.17-.33.22Z"/>
      <path d="M384.62,359.34s0,0,0-.03c.03-.1.05-.2.07-.3-.02.09-.04.19-.06.28-.01.06-.01.05-.01.06Z"/>
      <path d="M336.86,416.13s.01-.01.02-.01h0s0,.01-.01.01Z"/>
      <path d="M337.63,415.67c-.06.05-.12.08-.18.12,0,0,0,0-.01,0-.05.04-.11.06-.16.09-.01,0-.02.01-.02.01,0,0-.01,0-.01.01-.05.02-.1.05-.15.08l-.04.02s-.05.04-.08.05c-.04.02-.06.04-.09.05t-.01,0s.02-.01.03-.02c.04-.02.11-.06.18-.11.12-.06.28-.15.43-.25.04-.02.08-.05.11-.07Z"/>
      <path d="M338.12,415.27s-.02.02-.03.03c-.01.01-.03.02-.04.04,0-.01.01-.02.02-.02.01-.01.02-.02.03-.02,0,0,.02-.01.02-.02Z"/>
      <path d="M338.15,415.25s-.02.02-.02.02c0,0,0-.01,0-.01h.02Z"/>
      <path d="M338.2,415.19l-.04.04s.02-.02.03-.04h0Z"/>
      <path d="M338.32,415.07s-.04.04-.05.06c-.02.02-.04.04-.06.06v-.02s.01,0,.01,0c.03-.03.06-.05.08-.08.01,0,.02-.01.02-.02Z"/>
      <path d="M338.42,414.95s-.02.02-.03.04c-.01.01-.02.02-.04.04.03-.03.05-.06.06-.07Z"/>
      <path d="M360.93,405.11s-.05.02-.08.04c.04-.02.07-.04.08-.04h0Z"/>
      <path d="M336.5,415.25c.03-.09.07-.18.09-.22h0s-.06.13-.09.22Z"/>
      <path d="M323,405.45h0s-.07.03-.1.05c.03-.02.07-.04.1-.05Z"/>
      <path d="M385.66,356.93c-.19,0-.4-.07-.51.06h0c.11-.14.32-.07.51-.06Z"/>
      <path d="M340.37,267.77c-.13.13-.3.31-.47.51.16-.19.33-.37.47-.51h0Z"/>
      <path d="M340.45,270.23c-.24.43-.65,1.11-.89,1.49.26-.4.67-1.08.89-1.49h0Z"/>
      <path d="M343.69,262.77s.03-.03.05-.05c-.08.08-.15.17-.22.24.05-.06.12-.13.18-.19Z"/>
      <path d="M343.84,262.62l-.1.1s.06-.07.09-.1h0Z"/>
      <path d="M344.01,262.43l.11-.11c-.08.09-.17.18-.25.27.05-.05.1-.11.15-.16Z"/>
      <path d="M375.12,322.21c.11.03.31.06.52.09-.19-.03-.38-.06-.52-.09h0Z"/>
      <path d="M376.5,322.37c-.14,0-.31-.01-.49-.03.2.02.38.03.49.03Z"/>
      <path d="M377.06,320.33v-.07c.03-.67.05-1.42.07-2.12-.03.83-.06,1.76-.09,2.53,0-.11,0-.22.01-.33Z"/>
      <path d="M427.08,478.16c-.17.16-.44.39-.67.64.05-.06.11-.12.16-.18.16-.18.33-.34.51-.46Z"/>
      <path d="M387.59,328.61h0s0,0,0,0h0Z"/>
      <path d="M387.96,332.28c-.02.09-.05.18-.07.25.02-.06.04-.15.07-.25Z"/>
      <path d="M388.29,331.06c-.02.08-.05.17-.07.27.02-.11.05-.2.07-.27Z"/>
      <path d="M387.55,333.39s.05.22.05.22c0,0-.05-.2-.05-.22h0Z"/>
      <path d="M387.23,328.19s.06.07.13.16c-.05-.06-.09-.11-.13-.16Z"/>
      <path d="M426.18,340.78c-.01.14-.02.27-.03.38,0-.12.02-.25.03-.38Z"/>
      <path d="M406.42,305.46s-.03.02-.04.02c-.04.02-.08.03-.11.05h0s.03-.01.04-.02c.04-.01.07-.03.11-.05Z"/>
      <path d="M407.18,305.03c-.09.07-.19.14-.31.21-.09.06-.25.14-.45.22.09-.04.17-.09.26-.13.18-.09.35-.19.5-.29Z"/>
      <path d="M389.47,353.58c-.05,0-.14-.02-.26-.03.1.02.19.03.26.03Z"/>
      <path d="M389.05,353.51c-.1-.02-.19-.04-.27-.06.08.02.18.04.27.06Z"/>
      <path d="M410.12,244.56s.07.03.08.04c.04.02,0,0-.08-.04Z"/>
      <path d="M387.74,327.38c-.01.09-.02.18-.04.27,0-.06.02-.16.04-.27Z"/>
      <path d="M405.51,392.95s0,.03,0,.05c0,.05,0,.09,0,.14,0-.03,0-.06,0-.1,0-.05,0-.11,0-.16,0,.02,0,.05,0,.07Z"/>
      <path d="M411.12,244.3s-.03-.08-.05-.13c-.08-.19-.15-.33-.19-.42.01.01.02.03.03.04l.02.05c.07.12.14.29.19.47Z"/>
      <path d="M437.58,389.94s.01,0,.02,0c.01,0,.04.01.01,0,0,0-.02,0-.03,0Z"/>
      <polygon points="433.68 387.6 433.68 387.6 433.68 387.6 433.68 387.6"/>
      <path d="M433.65,387.48c-.03-.12-.07-.25-.11-.37.04.11.08.27.11.37Z"/>
      <path d="M427.62,350.94v.02c-.04-.08-.08-.15-.12-.22.04.06.08.12.12.19Z"/>
      <path d="M427.86,351.33c-.06-.09-.11-.18-.16-.27.05.07.09.15.14.22,0,0,0,.01.01.02,0,.01.01.02.01.03Z"/>
      <path d="M427.9,351.4s-.01-.01-.02-.02c0-.01,0-.02-.01-.03.01.02.02.03.03.05Z"/>
      <path d="M428.37,352.2s-.01-.02-.02-.03c0-.02-.02-.04-.02-.05.02.03.03.06.05.08Z"/>
      <path d="M428.4,352.24c.03.06.06.11.09.17-.05-.07-.08-.14-.12-.21.01.02.02.03.03.05Z"/>
      <path d="M446.08,384.69s-.06.07-.06.09c0,0,0,0,0,.01,0,0,.02-.02.03-.04,0-.02.03-.04.04-.06Z"/>
      <path d="M445.82,387.42c-.09-.08-.18-.14-.25-.19.07.05.16.12.25.19Z"/>
      <path d="M426.14,392.38c.11.16.16.22.09.13-.03-.04-.06-.08-.09-.13Z"/>
      <path d="M428.41,353.56c-.14-.07-.39-.2-.54-.28.17.09.37.2.54.28Z"/>
      <path d="M426.57,346.23c.05-.12.07-.2.07-.2-.02.07-.05.14-.08.22,0,0,0-.01,0-.02Z"/>
      <path d="M425.85,391.92s.04.08.07.13c-.03-.05-.05-.09-.07-.13h0Z"/>
      <path d="M426.11,392.33s.02.03.03.04c-.06-.1-.13-.21-.19-.3.05.09.12.19.17.27Z"/>
      <path d="M427.41,352.91c.06.06.12.13.17.18.02.03-.02-.02-.09-.1-.03-.03-.05-.05-.08-.08Z"/>
      <polygon points="427.74 353.21 427.74 353.21 427.74 353.21 427.74 353.21"/>
      <path d="M425.74,347.66s-.01.02-.01.02c-.11.14-.22.25-.32.35.1-.09.21-.21.32-.35,0,0,.01-.02.02-.02Z"/>
      <polygon points="427.26 352.75 427.27 352.76 427.26 352.75 427.26 352.75"/>
      <path d="M408.38,498.93s-.03-.02-.05-.03c-.06-.04-.14-.09-.23-.14-.06-.04-.14-.07-.22-.1l-.04-.02c-.05-.02-.1-.04-.15-.05-.37-.09-.73-.06-1.15.04-.09.02-.17.04-.26.06-.37.11-.72.19-1.05.28,1.04-.31,2.26-.78,3.13-.06,0,0,.02.01.02.02Z"/>
      <path d="M408.45,498.98s-.01,0-.02-.02h-.01s.03,0,.04.02Z"/>
      <path d="M408.44,503.12s0,.04-.01.06c0-.02,0-.03,0-.04,0,0,0-.01,0-.02Z"/>
      <path d="M406.79,500.68s0,.01.01.02c-.05-.06-.12-.12-.18-.18.04.02.06.05.09.08.02.02.05.05.08.08Z"/>
      <path d="M406.6,502.14s.07-.08.11-.11c-.11.11-.21.23-.32.35.06-.08.14-.15.21-.24Z"/>
      <path d="M413.38,496.26s.05-.07.11-.17c-.04.06-.08.12-.11.17h0Z"/>
      <path d="M413.41,494.19c-.25.09-.56.22-.9.36.32-.14.63-.26.9-.36h0Z"/>
      <path d="M411.81,498.37s-.02,0-.02-.01c0,0-.01-.01-.02-.01-.05-.04-.09-.07-.14-.11.05.04.11.08.16.12h.01Z"/>
      <path d="M411.82,498.38s0,0-.01-.01h.01Z"/>
      <path d="M411.95,498.45h0,0Z"/>
      <path d="M412.03,498.51s-.02,0-.02-.01c0,0-.01-.01-.01-.01.01,0,.02.01.04.02Z"/>
      <path d="M412.25,498.61s-.04-.01-.05-.02h.01s.03.02.04.02Z"/>
      <path d="M410.8,500.55s-.09.02-.15.02c-.06,0-.13,0-.19,0,.06,0,.13,0,.19-.01.05,0,.1-.01.15-.02Z"/>
      <path d="M411.08,500.47s-.02,0-.02.01c-.02,0-.03,0-.05.01.02,0,.04-.01.05-.02,0,0,.02,0,.02,0Z"/>
      <path d="M411.09,500.47h0s0,0,0,0h0Z"/>
      <path d="M411.2,500.43s-.02,0-.03.01h0s.02-.01.03-.01Z"/>
      <path d="M411.96,496.47s.02.01.03.02c-.05-.02-.11-.05-.15-.08-.01-.01-.03-.02-.04-.03.02.01.05.03.07.04.03.01.05.03.08.05,0,0,0,0,.01,0Z"/>
      <path d="M412.06,496.53s-.02-.01-.04-.02h0s.02.02.03.02Z"/>
      <path d="M412.55,496.8c-.05-.02-.11-.05-.17-.09-.04-.02-.07-.04-.11-.06-.06-.04-.14-.08-.21-.12.04.02.08.04.12.06h0c.06.04.12.07.18.11.03.01.05.03.08.04,0,0,.01,0,.02.01.02.01.04.02.06.03.01.01.02.02.03.02Z"/>
      <path d="M412.62,496.85s-.02-.01-.04-.02l-.02-.02s.05.02.06.04Z"/>
      <path d="M402.37,512c-.1-.08-.21-.16-.32-.25.11.08.22.17.32.25Z"/>
      <path d="M402.65,508.18s-.06.02-.09.03c-.05.01-.09.02-.14.03-.01,0-.02,0-.02,0-.04.01-.08.02-.11.02.05-.01.11-.03.16-.04h0c.06-.02.12-.04.19-.05Z"/>
      <path d="M405.32,500.07h-.14s.06,0,.09,0c.02,0,.03,0,.05,0Z"/>
      <path d="M405.44,500.07h-.01s-.05,0-.06,0h.08Z"/>
      <path d="M405.73,500.11c-.08-.02-.16-.03-.24-.04h0s-.04,0-.05,0h.02c.09,0,.18.02.27.04Z"/>
      <path d="M413.82,495.51s-.01.02-.02.04c0,0-.01.01-.02.02.01-.02.02-.04.03-.06h0Z"/>
      <path d="M389.81,426.69s.06-.06.13-.11c-.05.04-.09.08-.13.11Z"/>
      <path d="M390.09,426.45c-.05.05-.11.09-.15.13l.04-.04s.08-.06.12-.09Z"/>
      <path d="M390.09,426.45c.18-.15.4-.29.64-.42-.09.05-.18.11-.27.16-.11.07-.24.16-.37.25Z"/>
      <path d="M392.59,425.2c-.55.27-1.21.47-1.86.83.44-.26.94-.47,1.33-.61l.04-.02c.22-.09.38-.16.49-.2Z"/>
      <polygon points="405.15 505.29 405.15 505.29 405.15 505.29 405.15 505.29"/>
      <path d="M404.82,499.08c-.2.06-.4.12-.59.19.1-.04.19-.07.29-.11.06-.02.13-.04.19-.06.04,0,.08-.01.11-.02Z"/>
      <path d="M404.37,502.98s-.04,0-.06.01c-.05,0-.11.01-.16.02-.02,0-.05,0-.08,0-.12.01-.25.02-.38.04-.39.05-.82.1-1.24.18-.55.11-1.09.27-1.53.48.52-.29,1.32-.48,1.99-.58h.07c.54-.09,1-.13,1.4-.16Z"/>
      <path d="M435.71,463.8s-.06-.11-.14-.22c-.16-.24-.32-.3-.48-.26-.05.01-.1.04-.15.07-.12.09-.23.24-.32.41-.04.06-.06.1-.06.1,0-.14.31-.73.57-.71h.05c.15.01.26.11.34.23.06.09.12.19.16.29.02.03.03.06.04.09Z"/>
      <polygon points="431 474.39 431 474.39 431 474.39 431 474.39"/>
      <path d="M435.96,464.75c.04-.21.04-.45.03-.64.02.2.01.44-.03.64Z"/>
      <polygon points="444.22 450.21 444.22 450.21 444.22 450.21 444.22 450.21"/>
      <path d="M444.16,450.43c-.02.15-.04.35-.03.51,0-.16,0-.35.03-.51Z"/>
      <polygon points="400.65 497.48 400.65 497.48 400.65 497.48 400.65 497.48"/>
      <path d="M431.31,472.81c-.06.08-.15.21-.24.33.08-.11.16-.24.24-.33Z"/>
      <path d="M400.3,497.61s-.02,0-.02,0h0s.02,0,.02,0Z"/>
      <path d="M400.37,497.58s-.04.01-.06.02c.01,0,.02-.01.04-.02.01,0,.02-.01.03,0Z"/>
      <path d="M400.44,497.55s-.05.02-.06.02c.01,0,.02-.01.04-.02,0,0,.01,0,.02,0Z"/>
      <path d="M450.07,446.26h0s-.02-.03-.02-.04c0,.01.01.02.02.04Z"/>
      <path d="M413.91,488.16s-.12.06-.27.12c.1-.04.19-.09.27-.12Z"/>
      <path d="M446.15,449c-.2.06-.45.16-.71.28.25-.11.5-.21.71-.28h0Z"/>
      <path d="M414.64,485.3c-.14.03-.25.06-.27.07.08-.02.17-.05.27-.07Z"/>
      <path d="M418.45,478.98s.03-.04.05-.05c-.31.35-.49.72-.54.77.05-.11.12-.21.19-.34l.02-.04c.04-.06.08-.12.12-.18.04-.05.08-.1.12-.15,0-.01.02-.02.02-.03Z"/>
      <path d="M418.61,478.82s.05-.05.07-.06c-.04.04-.08.08-.12.12.02-.02.04-.04.05-.06Z"/>
      <path d="M418.97,478.5s.09-.06.13-.09c-.04.03-.09.06-.14.1h0s-.09.07-.14.11c.05-.04.09-.08.14-.12h0Z"/>
      <path d="M419.37,478.23c-.08.05-.17.11-.27.18.02-.02.04-.04.06-.05.07-.05.14-.09.21-.13Z"/>
      <path d="M449.62,447.19c-.06.15-.13.28-.18.38.05-.11.11-.24.18-.38Z"/>
      <polygon points="450.08 446.27 450.07 446.26 450.07 446.26 450.08 446.27"/>
      <path d="M226.87,426.01h-.05c-.64-.17-1.43.35-1.24,1.05.15.61,1.01,1.14,1.54,1.06,1.05-.24.69-1.95-.25-2.11Z"/>
      <path d="M432.9,346.89c-.75-.2-2.18,2.33-1.47,2.86.68.11,2.12-2.16,1.49-2.85h-.02Z"/>
      <path d="M220.72,422.19c-.66.45.7,1.24,1.15,1.25h.06c.53.12,1.45-.3,1-.89-.45-.46-1.76-.57-2.2-.36Z"/>
      <path d="M440.4,326.38c-.59.38-.87,1.23-.57,1.84l.02.04c.36.67,1.13-.06,1.38-.48.3-.49.17-1.22-.08-1.48-.22-.22-.53-.08-.75.09Z"/>
      <path d="M447.12,393.39l-.02.04c-.18.4.13,1.03.61,1.02.36-.02.69-.65.48-1.01-.21-.38-.87-.48-1.07-.05Z"/>
      <path d="M322.01,407.54s0-.02,0-.03v-.04s0,.06,0,.07ZM334.33,276.7h0s0,0,0,0h0ZM338.19,415.19s-.02.02-.03.04l.04-.04h0ZM343.84,262.62s-.06.06-.09.1l.1-.1h0ZM343.52,262.96c.08-.08.15-.16.22-.24-.02.02-.03.03-.05.05-.06.06-.12.13-.18.19ZM352.2,372.7h0s0,0,0,0h0ZM353.51,372.58s.04-.07.05-.1h0s-.04.06-.05.1ZM353.57,372.46h0s.02-.04.03-.05c-.01.02-.02.04-.04.05ZM357.03,371.56h-.01s.04-.01.06-.02c-.02,0-.04.02-.05.02ZM357.22,370.12c.08-.05.18-.1.28-.13-.12.04-.21.09-.28.13ZM358.86,431.96s.02-.02.02-.04c0-.01.01-.03.02-.04-.02.03-.03.05-.04.08ZM361.02,405.16h0s0,0,0,0c0,.01,0,.02.01.04,0-.01,0-.02,0-.04ZM362.69,407.26h0s0,0,0,0h0ZM366.69,405.95s-.03.02-.04.02c.03-.01.06-.02.08-.04-.01.01-.02.02-.04.02ZM367.07,405.77s.01,0,.02,0c0,0,0-.01.01-.01-.01,0-.02,0-.03.02ZM367.55,405.45s-.06.05-.09.08c-.02.02-.05.04-.08.05.03-.01.05-.03.08-.05.04-.03.08-.06.12-.09,0,0-.01,0-.02.01ZM367.84,431.78s-.05.06-.07.08c.04-.03.06-.06.09-.1,0,0-.01.01-.02.02ZM367.96,404.58s0,0,0-.01c-.02-.02-.04-.05-.05-.06.02.02.04.04.05.06.01.02.02.04.04.06,0-.02-.02-.04-.02-.05ZM368.02,404.72s0-.02-.01-.02c0,.02.01.03.02.05,0,0,0-.02,0-.02ZM368.48,441.95s-.05,0-.08.01c.05,0,.1,0,.15-.02-.03,0-.05,0-.08,0ZM368.78,441.92s-.05.01-.07.01c.02,0,.05,0,.08-.01h-.01ZM369.46,436.14s-.01-.01-.02-.02h-.02s.03.02.06.04h0s-.02-.02-.02-.02ZM369.48,436.16h0s0,0,0,0h0ZM369.59,436.24c.08.06.19.14.29.21-.1-.08-.2-.15-.29-.21ZM372.07,440.97s.06-.02.08-.04c.01-.01.02-.02.04-.03-.04.02-.09.04-.12.06ZM372.74,440.59s-.05.04-.08.06c.04-.02.08-.05.11-.07,0,0-.02.01-.03.01ZM373.05,435.95c.09-.19.2-.37.33-.54-.13.16-.24.35-.33.54ZM373.31,440.14s.05-.08.08-.12c-.02.04-.06.09-.08.12ZM375.03,246.04c.05-.09.11-.21.15-.29-.04.09-.09.21-.15.29ZM377.7,430s.02,0,.03,0h0s-.03,0-.03,0ZM377.75,430.01h-.02s.01,0,.02,0c0,0,0,0,0,0ZM378.4,430.1h-.02s.02,0,.02,0h0ZM387.58,328.61h0s0,0,0,0h0ZM387.7,327.65c.01-.08.02-.17.04-.27-.02.11-.03.2-.04.27ZM387.89,332.53c.02-.08.05-.16.07-.25-.03.11-.05.19-.07.25ZM388.77,353.45c.08.02.17.05.27.06-.09-.02-.19-.05-.27-.06ZM389.98,426.54l-.04.04s.1-.08.15-.13c-.04.03-.08.06-.12.09ZM392.74,510.11h0s.07.04.11.06c-.04-.02-.07-.04-.11-.06ZM397.93,509.12s.05,0,.06,0h.01s-.05,0-.08,0ZM402.29,508.27s.08-.01.11-.02c0,0,.01,0,.02,0,0,0,.02,0,.02-.01-.05.01-.11.03-.16.04ZM403.29,500.51s-.01.02-.02.03c.01-.01.02-.02.03-.03h0ZM403.59,499.24s0,.01-.01.02h0s-.01.02-.02.03c0,0-.01.02-.01.02h0s0,.02,0,.02c0,.02,0,.04,0,.05,0-.02,0-.04.01-.05.01-.02.04-.06.05-.09h0ZM404.52,499.16c-.1.04-.19.07-.29.11.19-.07.39-.13.59-.19-.1.02-.2.05-.3.08ZM405.4,500.07h-.04s.04,0,.06,0c-.01,0-.02,0-.03,0ZM405.5,393.04s0,.07,0,.1c0-.05.01-.09,0-.14,0,.01,0,.02,0,.04ZM406.31,305.5s-.03.01-.04.02h0s.08-.02.11-.04c-.02,0-.05.02-.07.02ZM407.94,492.79s0,0,.01.01h0s0-.01-.01-.01ZM410.66,500.57c-.06,0-.13.01-.19.01.06,0,.13,0,.19,0,.05,0,.1-.01.15-.02-.05,0-.09.01-.15.02ZM411.06,500.48h0s.02,0,.02,0c0,0-.02,0-.02,0ZM411.09,500.47h0s0,0,0,0ZM411.63,498.24s.09.07.14.11c0,0,.01,0,.02.01h.01c-.05-.04-.11-.08-.16-.12ZM412.03,496.51h0s.02.02.04.02c-.01,0-.02-.01-.03-.02ZM411.95,496.47s-.05-.04-.08-.05c-.01,0-.02,0-.03-.01.05.03.1.06.15.08-.01,0-.02-.01-.03-.02,0,0,0,0-.01,0ZM412.52,496.79s-.04-.02-.06-.03c0,0-.01,0-.02-.01-.02,0-.04-.02-.06-.03.06.04.12.07.17.09-.01,0-.02,0-.03-.02ZM412.56,496.82l.02.02s.03.02.04.02c-.01-.01-.04-.02-.06-.04ZM413.81,495.51s-.01.02-.01.04c0-.02.01-.03.02-.04h0ZM417.97,479.71c.05-.11.11-.22.19-.34-.07.12-.14.22-.19.34ZM418.45,478.98s.03-.04.05-.05c0-.01.02-.02.03-.04-.04.03-.06.05-.08.08ZM418.82,478.62s.09-.08.14-.11c0,0,0,0,0-.01-.05.04-.09.08-.14.12ZM418.97,478.5s0,0,0,.01c.05-.04.09-.07.14-.1-.04.02-.08.05-.13.09ZM425.72,347.68c-.11.14-.22.25-.32.35.1-.09.21-.21.32-.35,0,0,0-.02.01-.02,0,0-.01.02-.02.02ZM427.85,351.3s-.01-.01-.01-.02c-.05-.08-.09-.15-.14-.22.05.09.11.18.16.27,0-.01,0-.02-.01-.03ZM435.52,334.77s-.01-.04-.02-.05c.04.09.07.19.1.28-.02-.08-.05-.15-.08-.23ZM435.74,335.42s-.03-.09-.05-.14c.03.09.06.18.08.27-.01-.05-.02-.09-.04-.13ZM435.99,464.11c.01.19,0,.43-.03.64.04-.21.05-.44.03-.64ZM449.45,447.57c.05-.1.11-.23.18-.38-.06.14-.12.27-.18.38ZM450.05,446.22s0,.02.02.04h0s-.02-.02-.02-.04ZM362.69,407.26h0s0,0,0,0h0Z"/>
      <path d="M418.45,478.98s-.02.02-.02.03c.03-.03.05-.05.08-.08,0-.01.02-.02.03-.04-.04.03-.06.05-.08.08ZM367.95,404.57h0s-.04-.05-.05-.06c.02.02.04.04.05.06ZM357.5,369.99c-.12.04-.21.09-.28.13.08-.05.18-.1.28-.13Z"/>
      <path d="M513.28,378.11v-.05c-.5-7.52-5.93-13.35-11.94-17.29-5.5-3.28-12.4-4.8-18.73-5.28-6.24.2-12.58,2.62-17.96,5.78-3.39,2-5.62,4.81-9.37,6.36-2.31,1.2-4.92,1.78-7.18,3.02-3.69,2.23-7.69,4-12.04,4.68-7.33,1.67-5.99-2.8-4.6-7.9.79-3.45-.94-6.56-2.11-9.66-.94-5.09.38-11.13,3.64-15.33,5.35-7.48,7.36-17.21,7.29-26.17.19-1.23,1.15-1.68,2.03-2.39.92-.74.97-2.17,1.34-3.3.62-2,1.07-4.05,1.39-6.1,1.94-4.59,5.37-9.15,5.63-14.41.49-4.05.18-8.09,1.61-12.01,2.25-5.26,2.49-9.65,1.08-15.27-.73-3.76-1.68-7.46-2.09-11.23-.7-3.18-.29-6.48-1.27-9.6-1.25-4.18-2.51-8.55-4.52-12.46-3.52-5.24-8.96-10.1-14.93-12.39-6.4-2.27-13.56-3.05-20.33-3.45-5.25.46-9.95,3.9-14.47,6.43-1.92,1.22-4.11,1.77-6.07,2.84-3.23,1.77-5.93,5.02-9.15,7-4.06,2.41-7.99,4.91-11.93,7.75-1.94,1.41-4.74,3.15-5.87,5.07,2.31-.18,5.97-3.38,8.51-4.44,1.98-1.06,3.19-1.5,2.89-1.04-4.44,3.96-10.41,6.99-14.89,11.06-2.27,1.67-4.64,4.89-7.22,5.64-.13-.7,1.08-2.33,1.12-3.19,0-.33-.39-.24-1.08.25-.97.72-1.93,1.58-2.8,2.46-2.06,1.75-5.05,6.01-7.24,6.48-1.61-3.86,4.43-15.61,6.2-19.71,3.56-6.96,7.33-14.12,12.21-20.23,1.87-2.14,3.96-4.8,5.93-7.02,2.1-2.07,4.56-3.69,6.65-5.63,5.71-5.9,11.44-11.92,18.39-16.39,3.1-2.43,5.42-6.1,6.42-9.99.51-2.56-.45-4.81-1.39-7.19-1.53-3.98-2.79-8.06-5.45-11.51-3.82-5.55-8.88-10.45-14.98-13.31-7.95-2.71-8.28,5.22-6.43,10.78,4.82,16.9-8.43,35.43-14.36,50.91-5.8,13.37-11.57,27.51-15.26,41.55-1.4,5.15-2.56,10.76-4.26,15.81-1.23,3.39-3.13,6.74-4.32,10.21-2,6-4.59,11.49-5.6,17.76-1.88,8.73-1.88,17.66-1.4,26.53-.14,5.65-1.11,12.16,1.02,17.53,2.14,3.72,5.53,6.91,8.15,10.43,2.66,3.35,6.69,2.12,10.41,2.3,7.38,1.28,14.18-3.9,11.53-11.72-2.15-6.6-4.98-7.95,2.07-12.39,1.47-1.35,2.56-3.56,4.1-5.18,1.31-1.28,4.81-4.72,6.44-3.96-.21,2.53-2.8,5.02-4,7.32-2.94,4.76-6.77,9.82-6.24,15.72,1.48,8.42,1.64,8.96-6.11,13.15-3.6,2.04-7.24,4.32-11,5.96-3.06,1.27-6.41,2.26-9.01,4.47-10.17,7.59-5.84,24.24,7.81,22.28,5.84-.47,6.07-7.29,9.59-10.57,2.97-2.66,8.44-4.17,10.33-7.78,1.35-4.65-8.11.74-7.95-.59,2.68-3.2,6.54-4.29,10-6.61,4.78-2.57,9.34-5.67.27-2.92-1.76.21-14.62,6.55-13.3,2.77.84-2.56,3.06-4.12,5.15-5.71,3.56-3.27,8.62-4.4,12.72-6.7,3.7-3.19,6.99-4.95,6.84,1.77-.27,2.77-1.93,4.23-1.01,6.77.02,2.64-4.13,4.81-5.68,6.7-1.27,1.01-4.38,3.01-.52,2.07,2.65-.72,4.45-3.41,6.69-4.66,2.19.6,3.69,3.19,6.6,2.17,2.92-1.7,4.44-5.77,7.62-7.2,2.39-1.54,8.26-1.07,7.65,2.69-.71,1.8,3.59,1.12,5.44,3.03,4.44,3.55,6.97,9.91,5.34,15.4-3.09,6.17-12.12,3.23-16.26-.33-2.42-1.68-4.84-3.47-6.73-5.75-3.06-4.4-8.65-7.33-7.4.7.82,3.41.37,7.03,0,10.37.14,3.04.03,7.29-3.72,7.65-2.9-.5-4.3,4.41-6.57,2.32-.71-.83-1.51-1.39-2.63-1-1.43.35-3.69,1.05-5.37,1.48-2.84.8-5.78.9-8.57,1.91-3.92,1.65-7.55,2.5-11.73,3.27-8.95,3.56-18.38,5.84-27.6,8.85-10.71,4.19-21.43,8.29-32.61,11.08-4.58,1.51-9.48,1.86-14.3,1.64-5.38-.07-10.87.45-16.21.44-5.14.41-12.43-3.77-15.96,1.5-2.13,4.76-.13,10.56,3,14.42,2.34,2.79,5.45,4.29,8.33,6.45,3.84,3.23,6.25,8.27,10.92,10.48,6.99,2.75,17.95,3.74,24.86.31,4.35-1.68,7.17-5.67,10.91-8.26,2.86-1.84,6.04-3.02,9.04-4.65,9.79-4.97,19.78-9.4,29.97-13.39,4.46-1.67,8.21-4.73,12.62-6.44,4.81-3.11,4.48-1.76,9.47-3.31,3.47-1.21,5.75-4.67,9.49-4.89,1.76-.14,2.21-2,3.52-2.83,5.76-1.77,3.19,3.82,1.73,6.73-1.27,2.93-2.74,6.15-3.76,8.99-3.78,4.36-6.63,3.63-9.41,10.6-1.24,3.04-2.23,6.58-3.73,9.6-5.29,6.98-8.61,2.53-10.67,14.54-1.91,4.89-.61,8.95,4.78,10.51,4.1.67,8.48-.6,12.66,0,5.27-.32,11.08-4.26,14.86-7.82,5.41-6.71,13.02-10.32,20.96-13.22,6.43-3.3,13.02-5.78,19.93-7.93,3.08-.86,17.39-7.7,15.05-.05-1.42,8.1-5.13,15.63-9.68,22.43-3.12,4.95-6.04,10.79-9.83,15.35-2.35,4.09-4.63,8.35-7.58,12.13-3.09,4.53-6.05,9.42-9.49,13.71-4.06,4.9-10.48,7.62-16.77,5.94-5.55-.97-1.49.93-.01,2.79,0,.25-.34.25-.6.25-2.64-.09-5.18-1.64-7.76-1.64-1.36.17-1.64,1.17-3.12,1.11-2.46-.16-5.27-1.28-7.6-.47-.47.22-1.57.35-1.18,1.04,3.49,2.42,8.28,3.44,11.87,5.82,11.18,5.5,3.21,19.37,16.23,20.38,4.91-.36,8.39-4.92,11.99-7.88,3.61-3.39,7.15-6.97,7.22-12.16-.06-2.18,2.15-1.66,3.28-2.93,1.93-1.83,1.27-5.01,3.55-6.46,2.48-1.86,2.86-4.04,5.14-6.34,1.81-2.24,4.29-4.21,5.95-6.43.61-1.02.78-2.11,1.4-3.06.54-.76,1.41-1.24,1.73-2.15.59-1.74.44-1.91,2.34-2.33,3.48-1.5-3.26-2.74-2.8-4.09.88-1.28,4.11-.06,5.54-.66,1.08-.35,1.92-1.21.8-2.09-.49-.74-3.46-1.7-2.38-2.67,1.78-.84,4.82,1.28,6.49-.02,1.17-1.1,1.3-2.89,2.4-3.98,1.07-.68,2.29-1.43,2.69-2.76.71-1.55,1.93-3.11,2.31-4.83,0-3.42.9-5.92,3-8.68,3.18-3.52,6.67-4.82,8.56-9.77.91-1.86,2.04-3.63,2.93-5.58,1.02-1.58,1.54-4.36,3.56-4.66,12.02-.66,6-12.09,2.73-18.78-3.6-5.52-9.31-10.1-14.65-13.84-4.08-2.17-9.97-2.44-13.81.24-4.03,3.7-1.54,9.45-8.1,11.31-5.2,1.85-10.57,3.47-15.74,5.44-1.18.14-16.95,7.44-13.59,3.17,4.14-2.92,2.8-3.4,4.52-7.59.57-1.7,2.52-3.66,2.96-5.28.41-2.33,1.21-4.65,2.75-6.68,1.43-2.47,4.19-4.56,5.1-7.36.39-2.21.68-4.36,2.96-5.09,6.68-2.32,14.01-1.64,20.85-3.78,2.76-.54,4.57-.37,7.14-.4,1.91-.22,4.13-.36,5.98-.19,2.87-.16,5-1.6,7.99-1.71,12.14-2.64,10.14,2.39,15.73,1.63,1.66-.36.54-2.24,2.02-2.56,1.48-.15,2.98.94,4.29,1.36,2.36.15,3.43-2.1,6.27-1.38,3.65.27,7.31,1.41,11.07,1.15,2.54-.27,5.13-.95,7.64-.98,7.09.36,16.48-4.81,14.81-12.98ZM452.64,264.87c.12.1.23.22.35.35l.04.05c.23.28.39.55.44.88-.02-.04-.08-.33-.32-.68-.21-.33-.62-.67-.87-.85.13.07.25.16.37.27ZM435.1,333.74c.03.06.06.12.09.19.04.08.06.15.1.22.02.05.04.1.06.15.06.15.12.29.17.44.04.09.06.19.09.28.04.09.06.18.09.27.01.05.02.09.04.13.01.04.02.08.04.13-.02-.09-.05-.18-.08-.27-.03-.09-.06-.19-.09-.28-.03-.09-.06-.19-.1-.28-.02-.05-.04-.11-.06-.16-.04-.11-.08-.21-.12-.31-.02-.05-.04-.09-.05-.14-.02-.05-.04-.09-.06-.14-.03-.08-.06-.16-.1-.23-.01-.02-.02-.05-.03-.08.01.02.02.04.03.06ZM334.33,276.71h0s0,0,0,0c0,0,0,0,0,0ZM358.63,369.85h.08s-.05,0-.08,0h0ZM358.55,369.86h.06s-.04,0-.05,0h-.08s.05,0,.07,0ZM357.03,371.56s.03-.02.05-.02c-.02.01-.04.02-.06.04h.01ZM353.62,372.35s.01-.02.02-.04c0,0,0-.02.01-.03,0,0,0,0,0-.01.02-.03.03-.05.04-.08,0,.02-.02.04-.03.06-.01.02-.02.04-.03.05,0,.02-.02.04-.02.05t-.01.01s0-.02.01-.03ZM353.57,372.46s.02-.04.04-.05c-.01.02-.02.04-.03.05h0s-.04.08-.05.11c.02-.04.04-.08.05-.11ZM352.32,372.62s.02-.01.03-.02c-.01.02-.03.03-.04.04,0,0-.02.01-.03.02.01-.02.02-.03.04-.04ZM352.2,372.7h0s.01,0,.02-.02h.02s-.03.01-.04.02-.01,0-.02,0h0ZM375.18,245.74c-.04.09-.09.21-.15.29.05-.09.11-.2.15-.29ZM374.96,246.16s.01-.02.02-.03c0,0-.01.02-.02.03-.01.02-.02.04-.03.05,0-.01.02-.03.02-.05ZM343.69,262.77s.03-.03.05-.05c.04-.04.06-.07.09-.1h0l-.1.1c-.08.08-.15.17-.22.24.05-.06.12-.13.18-.19ZM352.94,313.71l-.02.04c-1.27,1.51-2.66,3.13-3.96,4.75-.95,1.01-2.55,3.44-4.05,2.37-.69-.53-1.28-1.87-1.95-3.29-.47-1.03-.96-2.06-1.4-3.11-.57-1.38-1.04-2.93-1.38-3.75-.26-.66-.51-1.15-.59-.01-.07.82-.16,2.44-.33,3.24-.14.62-.37.72-.62.15-1.3-4.58-.37-12.26-.12-17.92.16-1.87-.12-4.78.68-6.22.68-.73,1.5,1.08,1.8,1.81.5,1.24.91,2.86,1.46,4.22.68,1.78,1.55,3.43,2.41,5.14,1.22,2.27,2.56,4.3,4.29,6.08,1.91,1.96,6.63,3.16,3.78,6.51ZM355.41,289.46h-.05c-3.93.57-6.43-2.99-9.94-3.83-1.21-.41-3.95.32-4.18-1.3-.14-2.14,1-4.51,1.89-6.47.77-1.74,1.83-3.31,2.89-4.87,1.5-2.2,2.89-4.29,4.45-6.44,2.14-2.81,4.77-5.11,7.04-7.77,2.6-2.82,4.74-5.92,7.68-8.38,1.55-1.24,4.06-3.15,5.55-3.57,2.36-.62.9,3.16.97,4.68-.05.91.01,1.84.2,2.73.65,3.17,3.63,5.38,4.51,8.49.65,2.23.58,4.79-.15,7.03-.42,1.18-1.09,2.14-1.86,3.13-3.73,4.59-7.67,9.39-12.35,13.03-1.98,1.56-4.12,3.2-6.66,3.53ZM361.93,306.35h0c-.1-.27.15-.72.49-1.43.37-.7.88-1.69,1.33-2.63,1.23-2.66,2.23-5.47,2.83-8.32.52-2.07.78-4.08,1.4-6.14,1.28-3.53,3.12-7.22,4.74-10.59.88-1.71,1.86-3.83,2.93-5.34,1.05-1.5,1.38-1.22,1.49.55.11,2.66.04,5.47.02,8.15,0,6.94-.07,10.37-4.74,15.88-1.65,1.98-3.58,3.89-5.42,5.67-.88.74-4.41,4.68-5.06,4.2ZM377.1,301.54c-.85,1.98-2.89,3.1-4.76,4.25l-.05.03c-.74.48-6.27,3.43-5.06.87.72-1.25,2.44-2.67,3.9-4.03,1.49-1.21,4.16-4.33,5.78-3.46.69.57.49,1.51.18,2.33ZM385.15,356.99h0c.11-.14.32-.07.51-.06-.19,0-.4-.07-.51.06ZM322.02,407.51s0,.02,0,.03c0,0,0-.04,0-.07v.04ZM337.46,415.8s0,0-.01,0c-.05.04-.11.06-.16.09-.01,0-.02.01-.02.01,0,0-.01,0-.01.01-.05.02-.1.05-.15.08l-.04.02s-.05.04-.08.05c-.04.02-.06.04-.09.05t-.01,0s.02-.01.03-.02c.04-.02.11-.06.18-.11.12-.06.28-.15.43-.25.04-.02.08-.05.11-.07-.06.05-.12.08-.18.12ZM337.7,415.62h0s.01-.01.02-.01c0,0-.01,0-.02.01ZM338.12,415.27s-.02.02-.03.03c-.01.01-.03.02-.04.04,0-.01.01-.02.02-.02.01-.01.02-.02.03-.02.01-.01.02-.02.03-.03h.02s-.02,0-.02.01ZM338.16,415.23s.02-.02.03-.04h0l-.04.04ZM338.26,415.13s-.04.04-.06.06v-.02s.01,0,.01,0c.03-.03.06-.05.08-.08.01,0,.02-.01.02-.02-.02.02-.04.04-.05.06ZM361.11,405.51s-.01-.07-.02-.11c0,0,0,0,0-.01,0-.04-.02-.08-.03-.11h0s-.02-.06-.02-.08h0s-.01-.04-.01-.05c0-.02,0-.02,0-.01,0,0,0,0,0,.01h0s0,0,0,0c0,.01,0,.02.01.04v.05c.04.06.08.25.09.37,0-.03-.01-.06-.02-.09ZM362.48,406.81c-.09-.15-.2-.31-.27-.39.02.02.05.05.07.08.08.09.15.18.21.28.08.13.15.27.18.39v.03c-.01-.08-.09-.23-.19-.39ZM362.69,407.27h0,0ZM359.41,431.19c-.11.15-.23.31-.34.45-.03.05-.06.1-.1.15-.03.05-.06.09-.09.14,0,.01-.01.02-.02.04.01-.02.02-.05.04-.08,0-.01.01-.03.02-.04.14-.25.35-.53.6-.8.04-.04.08-.09.12-.14-.08.09-.15.18-.23.28ZM360.16,430.4s0,0,0,0h0s-.05.04-.06.06c.02-.02.04-.04.06-.06.02-.02.04-.04.06-.05.02-.02.04-.03.05-.05h0s.07-.06.1-.09c.04-.03.06-.05.09-.08-.07.07-.19.17-.3.27ZM364.17,426.23s-.02.04-.03.05c.02-.04.05-.08.07-.13-.02.03-.03.05-.04.08ZM364.25,426.07l-.02.03s.02-.04.03-.06v.04ZM364.91,424.74s.03-.06.04-.09h0s-.04.06-.05.09ZM364.9,406.57c-.05.01-.11.03-.16.04-.01,0-.02.01-.04.01-.07.02-.14.04-.2.05h-.01c-.07.01-.14.03-.21.05-.06.01-.13.02-.19.04-.08.01-.15.03-.22.04-.09.01-.18.03-.27.04.02,0,.04,0,.05-.01.34-.06.71-.13,1.08-.22.08-.02.16-.04.25-.06-.03.01-.06.02-.09.02ZM365.42,423.74h0s0-.01,0,0c0,0,0,0,0,0ZM365.3,406.46s.06-.02.09-.03c.06-.02.12-.03.18-.05-.09.02-.18.05-.27.08ZM368.71,430.49h0s0,.03-.02.04l.02-.04ZM368.68,430.56s0,0,0,0c0,.02-.01.03-.02.05,0,0,0,.02-.02.02.01-.02.02-.05.04-.06ZM367.9,404.5s.04.04.05.06t0,.01s.05.09.06.14c0,0,0,.01,0,.02,0,.02,0,.04,0,.06,0-.04-.01-.07-.02-.11-.03-.08-.08-.15-.14-.22.01,0,.02.02.04.03ZM367.1,405.75s.02-.01.02-.02c.01,0,.02-.01.04-.02.05-.03.09-.06.14-.09,0,0,.02-.01.02-.02.01,0,.02-.01.03-.02.07-.04.14-.09.2-.14.01,0,.02,0,.02-.01-.04.04-.08.06-.12.09-.02.02-.05.04-.08.05-.03.02-.05.04-.08.05-.02.01-.04.03-.06.04-.05.03-.1.06-.15.09,0,0-.01,0-.02,0,.01-.01.02-.02.03-.02ZM366.69,405.95s.03,0,.04-.02c-.02.02-.05.03-.08.04.01,0,.02-.01.04-.02ZM367.77,431.86s.05-.05.07-.08c.01,0,.02-.01.02-.02-.03.04-.06.07-.09.1ZM368.71,441.93s-.05,0-.08,0c-.02,0-.05,0-.08,0-.05.01-.11.01-.15.02.02,0,.05,0,.08-.01.02,0,.05,0,.08,0,.03,0,.06,0,.09-.01.04,0,.09,0,.14-.01h.01s-.06,0-.08.01ZM369.48,436.16s-.05-.04-.06-.05h.02s.01.02.02.03c0,0,.02,0,.02.02h0s0,0,0,0ZM369.59,436.24c.09.06.19.14.29.21-.1-.07-.21-.15-.29-.21ZM370.39,437.26v-.02s0-.01,0-.02c0,.01,0,.02,0,.04ZM373.38,435.41c-.13.16-.24.35-.33.54.09-.19.2-.37.33-.54ZM372.93,440.47c-.05.04-.11.08-.16.11-.04.02-.07.05-.11.07-.03.02-.05.04-.08.05-.02.01-.05.03-.08.05-.05.03-.11.06-.17.09-.06.04-.12.06-.18.09-.02.01-.05.02-.08.04.04-.02.08-.04.12-.06.06-.03.12-.06.18-.09.06-.04.13-.07.19-.11.06-.04.12-.08.18-.11.12-.08.24-.16.35-.24-.05.04-.1.08-.15.12ZM373.31,440.14s.05-.08.08-.12c-.02.04-.05.09-.08.12ZM378.4,430.1h0s-.01,0-.02,0h.02ZM377.73,430.01s-.02,0-.03,0h.03ZM377.76,430.01s-.02,0-.02,0h.02s.02,0,.04,0h-.03ZM382.16,429.83c.34.18.74.15,1.17-.01-.42.16-.83.19-1.17.01ZM384.38,420.33s-.04-.02-.06-.03c.02,0,.05.02.06.02.11.04.22.08.32.12-.11-.04-.21-.08-.32-.12ZM392.97,510.23s-.08-.04-.12-.06c-.04-.02-.08-.04-.11-.06h0s-.04-.02-.06-.04c.02.01.04.02.06.04h0c.06.04.14.07.21.11.04.02.08.04.11.06-.03-.01-.06-.03-.09-.04ZM395.47,510.27s-.09.08-.16.13c-.02.01-.05.02-.07.04s-.05.03-.08.05l-.06.04c-.06.04-.13.08-.2.11t0,0c-.06.02-.12.05-.17.06,0,0-.02,0-.02,0-.3.07-.46.05-.35.05.11-.01.21-.03.32-.07.19-.06.4-.19.57-.3.26-.18.35-.21.23-.11ZM397.77,502.09s0,.05,0,.07v-.07s0-.08,0-.12v.12ZM398,509.13s-.04,0-.06,0c.02,0,.05,0,.08,0h-.01ZM411.21,492.52h0,0ZM407.95,492.8h0s0,0-.01,0c0,0,0,0,.01,0ZM404.28,498.4s.01-.01.02-.02c-.01.01-.02.02-.03.03h0ZM403.63,499.19s.02-.02.03-.02c0,0-.02.02-.03.04h0s0,0,0-.01ZM403.55,499.33s0-.01,0-.02h0s0-.02.01-.02c0-.01,0-.02.02-.02h0s.01-.02.01-.02h0s-.04.06-.05.09c0,.02-.01.04-.01.05,0-.02,0-.04,0-.05ZM403.29,500.51h0s-.02.02-.03.03c.01-.01.02-.02.02-.03ZM399.82,513.63s0,.02,0,.02c-.01-.01-.02-.06-.05-.14l-.02-.05c-.02-.07-.04-.16-.04-.26,0-.11.06-.21.11-.28-.02.04-.04.09-.04.15,0,.16.05.37.05.52,0,.02,0,.03,0,.04ZM400.3,497.61s-.02,0-.02,0c0,0-.02,0-.02.01-.01,0-.02.01-.04.01.02,0,.04-.01.05-.02h.02s.02-.01.02-.01c0,0,0,0,0,0ZM400.31,497.6s.02-.01.04-.02c.01,0,.02-.01.03,0-.02,0-.04.01-.06.02ZM402.56,508.21c-.05.01-.09.02-.14.03-.01,0-.02,0-.02,0-.04.01-.08.02-.11.02.05-.01.11-.03.16-.04h0c.06-.02.12-.04.19-.05-.03.01-.06.02-.09.03ZM402.8,508.14s-.05.01-.08.02c.03-.01.05-.02.08-.02h0ZM404.3,502.99s-.11.01-.16.02c-.02,0-.05,0-.08.01-.12.01-.25.02-.38.04-.39.05-.82.1-1.24.18-.55.11-1.09.27-1.53.48.52-.29,1.32-.48,1.99-.58h.07c.54-.09,1-.13,1.4-.16-.02,0-.04,0-.06.01ZM404.23,499.27c.09-.04.19-.08.29-.11.06-.02.13-.04.19-.06.04,0,.08-.01.11-.02-.2.06-.4.12-.59.19ZM405.27,500.07h-.09s.06,0,.09,0c.02,0,.03,0,.05,0h-.05ZM405.43,500.07s-.05,0-.06,0h.08s-.01,0-.01,0ZM407.11,502.78s0-.04,0-.06h0v.06ZM408.34,498.9c-.06-.04-.14-.09-.23-.14-.06-.04-.14-.07-.22-.1l-.04-.02c-.05-.02-.1-.04-.15-.05-.37-.09-.73-.06-1.15.04-.09.02-.17.04-.26.06-.37.11-.72.19-1.05.28,1.04-.31,2.26-.78,3.13-.06,0,0,.02.01.02.02-.01,0-.03-.02-.05-.03ZM409.62,500.62s-.06.02-.09.02c.03-.01.06-.02.09-.03.01,0,.03,0,.04,0-.01,0-.02,0-.04.01ZM409.78,500.59s-.03,0-.05,0c.02,0,.04,0,.05-.01.02,0,.04,0,.05,0-.02,0-.04,0-.05.01ZM410.77,500.56s-.08.01-.12.01c-.06,0-.13,0-.19,0,.06,0,.13,0,.19-.01.05,0,.1-.01.15-.02,0,0-.02.01-.03.01ZM410.93,500.53s-.02,0-.02,0c-.01,0-.03,0-.05,0,.04,0,.07-.02.1-.03.01,0,.02,0,.04,0-.02.01-.05.02-.06.02ZM411.06,500.49s-.03,0-.05.01c.02,0,.04-.01.05-.02,0,0,.02,0,.02,0,0,0-.02,0-.02.01ZM411.09,500.47h0,0s.02-.01.03-.02c-.01,0-.02.01-.03.02ZM411.2,500.43s-.02,0-.03.01h0s.04-.02.06-.03l-.04.02ZM411.81,498.37s-.02,0-.02-.01c0,0-.01-.01-.02-.01-.05-.04-.09-.07-.14-.11.05.04.11.08.16.12h.01s0,.01,0,.01h0s0,0-.01,0ZM411.8,496.38s.05.03.07.04c.03.01.05.03.08.05,0,0,0,0,.01,0,.01,0,.02.01.03.02-.05-.02-.11-.05-.15-.08-.01-.01-.03-.02-.04-.03ZM412.05,498.52s-.01,0-.02-.01-.02,0-.02-.01c-.01,0-.02-.01-.04-.02-.01,0-.02-.01-.03-.02h0s-.02-.01-.02-.01c-.01-.01-.02-.02-.03-.02.01,0,.02.01.03.02s.02,0,.02.01c0,0,0,0,0,0h0s.01,0,.01,0c0,0,0,0,.01.01,0,0,.02,0,.02.01.01,0,.02.01.04.02,0,0,.01,0,.02,0h0ZM412.25,498.61s-.04-.01-.05-.02c0,0-.01,0-.02-.01.01,0,.02,0,.03.01.06.03.11.05.16.07-.04-.01-.08-.03-.12-.05ZM412.38,496.72s-.07-.04-.11-.06c-.06-.04-.14-.08-.21-.12-.01,0-.02-.01-.04-.02h0s.09.06.15.09h0c.06.04.12.07.18.11.03.01.05.03.08.04,0,0,.01,0,.02.01.02.01.04.02.06.03.01.01.02.02.03.02-.05-.02-.11-.05-.17-.09ZM412.58,496.83l-.02-.02s.05.02.06.04c-.01,0-.02-.01-.04-.02ZM413.82,495.51s-.01.02-.02.04c0,0-.01.01-.02.02.01-.02.02-.04.03-.06,0-.01.01-.02.01-.02,0,0,0,.01,0,.02ZM418.51,478.93c-.31.35-.49.72-.54.77.05-.11.11-.22.19-.34l.02-.04c.04-.06.08-.12.12-.18.04-.05.08-.1.12-.15,0-.01.02-.02.02-.03.02-.03.05-.05.08-.08-.01.01-.02.02-.03.04ZM418.56,478.88s.04-.04.05-.06c.02-.02.05-.05.07-.06-.04.04-.08.08-.12.12ZM419.1,478.41s-.09.06-.14.1h0s-.09.07-.14.11c.05-.04.09-.08.14-.12h0s.09-.06.13-.09c.02-.02.04-.04.06-.05.07-.05.14-.09.21-.13-.08.05-.17.11-.27.18ZM450.07,446.26h0s-.02-.03-.02-.04c0,.01.01.02.02.04ZM449.62,447.19c-.06.15-.13.28-.18.38.05-.11.11-.24.18-.38ZM435.99,464.11c.02.2.01.44-.03.64.04-.21.04-.45.03-.64ZM435.12,463.19h.05c.15.01.26.11.34.23.07.09.12.19.16.29.02.03.03.06.04.09-.02-.03-.06-.11-.14-.22-.16-.24-.32-.3-.48-.26-.05.01-.1.04-.15.07-.12.09-.23.24-.32.41-.04.06-.06.1-.06.1,0-.14.31-.73.57-.71ZM426.57,478.62c.16-.18.33-.34.51-.46-.17.16-.44.39-.67.64.05-.06.11-.12.16-.18ZM390.73,426.03c-.09.05-.18.11-.27.16-.11.07-.24.16-.37.25-.05.05-.11.09-.15.13l.04-.04s.08-.06.12-.09c.18-.15.4-.29.64-.42.44-.26.94-.47,1.33-.61l.04-.02c.22-.09.38-.16.49-.2-.55.27-1.21.47-1.86.83ZM405.5,393s0,.09,0,.14c0-.03,0-.06,0-.1,0-.05,0-.11,0-.16,0,.02,0,.05,0,.07,0,.02,0,.03,0,.05ZM410.9,243.79l.02.05c.07.12.14.29.19.47-.01-.04-.03-.08-.05-.13-.08-.19-.15-.33-.19-.42.01.01.02.03.03.04ZM389.25,238.77h.02c.44-.21,1.23-.15,1.77-.08,1.01.14,2.21.45,3.45.72,1.34.28,2.73.49,4.05.63,1.17.12,2.42.14,3.52.17,1.16.04,2.35.08,3.24.72.71.51.87,1.43.44,2.17-.63,1.25-2.74,2.04-4.18,2.6-1.77.68-3.52,1.75-5.37,2.13-2.55.52-3.64-2.1-4.92-3.95-.72-1.08-1.45-2.26-1.88-3.16-.49-1.06-.74-1.63-.14-1.95ZM397.2,292.06l-.02.03c-.57,1.04-1.65,2.27-2.82,2.82-1.13.57-2.68.68-3.21-.69-.69-1.6-.05-4.12.19-5.94.2-1.41.19-2.82.48-3.52.68-1.81,3.32,1.44,3.9,2.17,1.15,1.51,2.53,3.37,1.47,5.12ZM398.55,304.92c1.21-.32,4.31-1.08,5.14-.03.2.65-.47,1.27-1.4,2.27l-.04.04c-1.71,1.64-3.25,3.43-4.95,4.81-.84.66-1.83,1.24-2.93,1.87-.94.46-3.65,2.39-4.42,1.4-.31-.42-.2-1.37.05-2.51.3-1.37.77-2.75,1.59-3.89,1.62-2.27,4.27-3.17,6.95-3.97ZM387.59,328.62h0s0,0,0,0h0ZM387.7,327.65c0-.06.02-.16.04-.27-.01.09-.02.18-.04.27ZM387.89,332.53c.02-.06.04-.15.07-.25-.02.09-.05.18-.07.25ZM388.77,353.45c.08.02.18.04.27.06-.1-.02-.19-.04-.27-.06ZM389.43,328.04v-.05c.27-1.89.59-3.65,1.02-5.4.11-.6.14-1.22.29-1.8.38-1.27,1.14-2.49,2.06-3.47,1.14-1.1,2.63-2.21,4.15-2.63,1.02-.24,2.56-.16,3.1.84.37.87-.53,1.93-1.07,2.57-.32.39-.55.67-.39.84.13.14.51.19,1.04.27,1.05.11,2.51.46,2.92,1.55,1.23,4.13-4.74,9.22-7.6,11.69-5.04,4.51-6.43.78-5.52-4.41ZM425,348.38h0s.02-.02.03-.02c0,0-.02.01-.03.02ZM425.73,347.68c-.11.14-.22.25-.32.35.1-.09.21-.21.32-.35,0,0,.01-.02.02-.02,0,0-.01.02-.01.02ZM427.69,351.06c.05.07.09.15.14.22,0,0,0,.01.01.02,0,.01.01.02.01.03-.06-.09-.11-.18-.16-.27ZM427.88,351.38s0-.02-.01-.03c.01.02.02.03.03.05-.01,0-.01-.01-.02-.02ZM428.35,352.17s-.02-.04-.04-.06c0-.01,0-.02-.01-.03,0,.01.02.02.02.04.02.03.03.06.05.08,0-.01-.01-.02-.02-.03ZM428.44,325.73c-.94,4.33-2.38,8.58-3.55,12.83-.6,2.32-1.21,4.75-1.74,7.06v.04c-.25,1.23-1.06,3.8-2.24,1.84-1.91-3.74-.76-7.51-5.67-9.59-1.58-.59-3.29-.99-4.95-1.2-1.66-.17-3.34.44-4.82,1.31-.93.57-1.87,1.35-2.9,2.05-1.01.7-2.08,1.34-3.04,2.11-1.29.98-2.73,2.5-3.96,3.15-2.16,1.06-5.67,1.23-5.79-1.93-.11-2.54,2.47-3.99,4.45-5.11,4.28-2.47,8.46-5.45,12.78-7.8,3.93-2.21,5.02-1.65,9.12-1.65,3.03-.25,3.12-2.36,4.29-4.56,1-1.84,2.29-3.79,3.61-5.64,1.56-2.53,1.7-4.82-.8-6.6-1.34-1.02-2.9-1.93-4.35-2.84-1.57-1.02-4.56-2.57-5.17-3.98-.45-1.19,2.59-1.41,4.08-2.1,4.55-1.57,5.11-6.3,7.14-10.11.72-1.52,1.41-3.32,2.07-4.75.46-.99.56-2.06.71-3.08.12-.78.26-1.64-.1-2.37-1.24-2.29-5.18-1.43-7.42-1.5-3.28.21-6.3.27-9.46.95-2.76.66-5.67,1.16-8.24-.25-1.87-1.01-4.47-2.66-4.21-5.01.25-1.48,1.56-2.7,2.58-3.78,1.96-1.97,3.76-4.42,6.62-4.75,3.09-.46,6.74-.18,9.32-2.31,2.73-1.88,3.6-5.98,7.17-6.37,3.56.05,4.94,6.81,5.46,9.51.37,1.91.44,3.72.85,5.7.3,1.37.77,2.67,1.28,3.96,1.76,3.84.73,6.17.39,10.11-.41,4.86-.97,9.68-1.77,14.49-.41,2.4-.41,4.89-.72,7.22-.32,2.17-.92,4.29-.98,6.48-.11,2.86.71,5.62-.04,8.46ZM406.27,305.53h0s.03-.01.04-.02c.12-.06.25-.12.37-.18.18-.09.35-.19.5-.29-.09.07-.19.14-.31.21-.09.06-.25.14-.45.22-.01.01-.03.02-.04.02-.04.02-.08.03-.11.05Z"/>
      <polygon points="450.07 446.26 450.07 446.26 450.07 446.26 450.07 446.26"/>
      <path d="M431.44,479.67c.09,0,.07,0,0,0h0Z"/>
      <path d="M385.71,507.08s.01.15.01.16h0s-.01-.18-.01-.16Z"/>
      <path d="M385.73,507.42s0,.08,0,.1v.02s0-.08,0-.11Z"/>
      <path d="M363.72,413.07h.05c1.22-.31.63-1.67-.49-1.31-1.09.28-.48,1.47.44,1.31Z"/>
      <path d="M443.84,459.71h-.03c-.88.19-2.38,1.28-2.94,2.18-.72.99-1.15,3.16.71,2.49.5-.18,1.04-.55,1.44-.93.91-.68,2.14-3.93.82-3.73Z"/>
      <path d="M440.53,464.64c-.29.02-.59.16-.81.35l-.03.03c-.37.3-.35.81.06,1.01.32.19.85-.01,1.14-.32.46-.41.43-1.14-.36-1.07Z"/>
      <path d="M439.66,466.12c-.68-.41-1.93-.18-1.71.84v.06c.07.35.23.72.5.93.47.36,1.42.43,1.75-.14.22-.46-.01-1.36-.54-1.68Z"/>
      <path d="M422.21,326.62c-.62.1-1.36-.61-1.22-1.06.26-.67,1.31-.63,1.76-.19l.03.03c.53.47,0,1.16-.57,1.22Z"/>
      <path d="M394.03,290.89c-.06.56-1.3.47-1.44-.08v-.04c-.08-.38.26-.88.67-.91.48.01.78.61.78,1.04Z"/>
    </g>
  </g>
  <g>
    <text class="cls-2" transform="translate(91.89 674.86)"><tspan x="0" y="0">YUETWAN</tspan><tspan x="69.35" y="136.01">LONDON</tspan></text>
    <text class="cls-1" transform="translate(166.19 890.19)"><tspan x="0" y="0">倫敦粵韻曲藝文化協會</tspan></text>
  </g>
</svg>