<?xml version="1.0" encoding="UTF-8"?>
<svg id="Layer_1" data-name="Layer 1" xmlns="http://www.w3.org/2000/svg" viewBox="0 0 800 700">
  <g>
    <path d="M541.19,313.84c.16.11.47.32.66.38.07,0,.1-.07.18-.2.19-.33.71-1.17.81-1.37.04-.17-.44-.34-.56-.44-.13-.07-.16-.04-.24.1-.16.3-.74,1.16-.87,1.5l.02.03Z"/>
    <path d="M500.64,488.47c-.21.12-.59,1.16-.31,1.36.19.13.45.24.64.34.08.04.13.05.14.02.01-.36-.13-.93-.2-1.31-.08-.32-.16-.47-.24-.43l-.03.02Z"/>
    <path d="M670.16,458.02c3.64,6.1,5.49,13.5,11.66,17.76,7.87,5.63,18.58,3.23,20.83-6.95,2.12-11.71,1.65-23.84,1.84-35.76,0-1.49-.34-2.84-.57-4.24.24-2.19.29-4.09.71-6.27.28-23.58,1.74-47.25,3.29-70.74.29-7.32-3.79-14.21-8.85-19.2-5.94-6.99-16.13-5.55-24.22-2.53-20.44,5.04-29.9,26.4-37.89,43.79-.66,1.52-1.08,1.08-1.08-.37-.4-9.23,3.22-17.83,7.32-25.82,3.15-9.02,8.13-15.38,16.49-20.17,8.75-7.11,20.29-11.07,28.85-17.28,2.09-.83,3.17-2.83,4.86-4.16,1.91-1.68.82-4.69.93-6.96.08-8.71-13.22-6.76-5.87-11.66,4.62-3.09,10.03-4.67,13.94-8.68,6.25-3.86,14.3-10.39,14.71-18.21-.2-8.24-7.92-14.41-15.57-16.25-11.87-3.15-23.51,2.45-34.26,7-16.27,9.57-30.95,22.24-39.97,38.99-3.83-8.26-3.14-20.82-11.39-27.06-3.17-.69-6.18-2.48-9.48-3.26-5.57-.04-4.49,4.93-3.09,8.55,2.39,9.98.43,20.47.39,30.57-.47,3.87-1.49,7.74-.54,11.63,2.85,11.83,5.79,24.7,16.07,32.3,2.37,3.02,5.43,6.16,8.85,7.97,1.02.48,2.04,1.27,1.42,2.5-4.76,10.08-5.74,21.31-8.12,32.06-1.32,12.44-2.15,27.66-2.91,39.74-.41,4.86-1.33,9.68-1.44,14.54-.37,5.29.94,10.49,1.7,15.67.15,1.27-.56,2.14-1.65,2.65-7.08,3.45-13.93,7.56-21.15,10.47-1.45.68-7.71,2.84-6.9-.46.23-8.84.65-18.31,1.46-27.08.52-12.12.25-28.94.39-41.61-.55-6.31-2.95-12.55-4.86-18.67-4.23-9.57-16.17-13.18-25.63-9.37-4.72,2.55-8.83,6.65-12.99,10-2.79,3.39-6.15,6.83-8.43,10.51-2.69,4.59-5.67,9.09-7.72,14.15-.87,1.99.02,2.05,1.36.89.07,0,.07.04.07.11-.06,1.64-1.94,1.62-2.9,2.39-3.23,6.05-5.31,12.97-7.89,19.39-2.58,5.38.4-17.5.3-18.5-.17-.64-.88-.09-.82-1.23.23-2.04.61-3.87,1.38-5.72,8.65-23.64,13.02-24.41,31.18-39.1,7.7-6.46,13.07-7.5,21.67-9.75,9.33-.94,19.76,5.37,28.66.44,15.14-9.85,1.1-25.98-12.84-25.45-5.27.4-8.92,3.57-14.14,5.1-3.52,1.15-9.15,4.23-4.86-1.51,3.41-4.93,5.32-10.79,7.78-16.23,2.12-6.47,5.07-14.51.58-20.6-4.44-4.76-12.39-7.78-18.33-3.94-3.14,1.03-5.9,3.07-8.37,5.19-1.16,1.56.64,1.71-2.03,3.96-1.02,1.09.94-.05,1.41-.13,2.38-.73,4.36.66,6.73.56,1.73.22,5.03-.32,4.93,2.23.22,3.99-3.09,7.17-5.16,10.2-6.82,10.09-13.76,20.47-22.31,29.16-1.8,1.49-2.85-9.18-2.67-10.26.68-3.76,1.96-7.54,3.3-11.19.32-.65.11-1.5-.19-1.89-.04-.13-.07-.26-.05-.4.17-.99,1.3-1.98,1.62-2.94.29-.74-.41-.43-.68.06-2.22,3.2-5.4,8.04-7.63,11.08-.32.38-.74.85-1.23.75-6.2-8.56-2.75-24.57,4.83-31.74,1.65-1.82,3.53-3.05,5.85-3.93,4.16-2.25,8.29-4.26,12.73-5.77,5.31-3.88,11.6-7.45,17.52-10.21,5.2-2.25,11.73-.45,16.43-4.02,2.44-2.11,4.33-6.13,4.26-8.56-1.4-5.42-5.23-10.21-8.81-14.42-4.46-3.85-10.58-4.86-16.29-5.52-3.19-.64-2.62-4.94-3.78-7.32-.58-2.14-2.52-3.64-3.67-5.48-2.47-6.54-6.36-12.2-12-16.46-19.12-16.02-39.39-15.81-27.14,14.13.08,3.81,1.27,3.12,2.62,6.03,1.32,2.93,1.51,6.07,1.64,9.26.57,2.92,1.13,5.32.15,8.34-1.75,13.53-8.15,13.01-18.43,18.66-10.88,5.46-24.3,10.71-35.85,14.38-3.5.87-6.99,1.98-10.66,1.68-1.92-.07-4.16-.66-5.88.31-2.32,1.91-1.87,7.14-1.03,9.76,1.28,2.17,3.81,3.73,5.77,5.32,5.14,3.46,11.77,6.42,18.2,6.42,4.37.27,9.77,1.01,14.25.16,5.84-1.25,13.28-4.5,19.17-6.77.6-.17,1.53-.61,1.57-.16-3.89,9.02-8.09,19.94-8.11,30.33-.78,9.22,4.2,16.96,10.78,22.83,4.12,3.22-3.71,4.99-5.65,6.83-.81.4-5.16,3.12-3.31,3.02.73-.26,1.94-1.35,2.95-1.48,1.42.03-6.8,5.7-7.45,3.37-.78-.63-2.37.67-2.61,1.24.1.45,1.04.19,1.26.54-1.86,2.73-6.38,3.73-9.16,5.44-1.74,1.02-3.67,1.78-5.68,1.41-2.45.13-4.27,2.59-5.79,4.21-2.23,2.16-5.24,4.07-7.74,6.03-1.08.79-1.01,1.95-2.16,2.17-6.8,3.26-12.19,9.36-19.26,12.09-3.14.04.66,1.19-4.75,3.68-.64.06-.76-.76-1.67-.26-2.63,1.63-5.68,3.6-8.42,5.63-5.75,4.88-12.2,8.96-18.72,12.7-8.12,4.85-16.46,11.22-25.88,4.72-.81-.3-1.54-.82-2.28-.37-.7.51-.85,1.6-1.19,2.37-3.07,4.99-1.27,11.42,2.51,15.47,3.96,4.98,11.41,7.58,17.52,7.19,3.51-.48,6.86-2.95,9.59-4.96,12.19-8.33,21.56-20.76,34.8-27.58,1.81-1.03,4.6-2.79,6.15-3.81.77-.73-.04-1.28.78-2.17,2.39-2.34,5.51-3.54,7.83-5.63,1.07-.73,1.35-1.22,1.75-2.42.86-1.32,2.22-2.82,3.14-3.92.56-.77,7.27-3.48,5.71-4.71-1.85,1.21-3.55,2.44-5.73,3.3-1.64.43-3.09,1.14-4.09,2.57-1.34,1.43-3.59,2.07-5.42,2.33-.1-.67,3.21-2.73,3.15-3.42-.96-.18-2.05.94-2.95,1.07-.86.04.43-.83.7-1.12,3.3-2.79,7.04-4.94,10.19-7.74.9-.38,1.62.13,2.47-.05.83-.07,4.96-2.81,3.45-.5-.4.59-1.56,1.3-1.22,2.03.28.21,1.18-.04,1.42.16.35.35-.2,1.09.07,1.4.59-.26.94-1.09,1.48-1.49.6-.81,2.02.45,2.11-.42,0-.41-.28-1.11.18-1.34,4.6-.25,2.33-2.32,6-3.73.66-.04-.63,1.62-.43,1.83,1.66-.13,2.05-2.12,2.45-3.43.27-.85,1.85-1.03,2-.05.05.59-1.33,1.65.09,1.36.83-.29,2.34-.79,3.02-1.54.21-.45-.99-.85-1-1.27.08-.53.89-.64,1.29-.92,1.35-.83,1.76-1.33,2.7-.24.59.26.77-.78,1.02-1.15.46-1.14,1.45-1.33,2.52-1.91,1.42-1,2.86-1.49,4.5-2.23,1.14-.88,2.86-1.15,4.06-1.24,2.23-1.84,4.29-2.2,6.96-3.47,1.43-.84,2.82-2.08,4.34-2.65,5.64-1.53,1.96,1.47.05,3.52-3.67,4.6-7.16,9.61-9.86,14.79-13.19,24.26-14.43,64.77-10.94,91.86,1.79,7.78-.32,16.61,2.5,24.2,1.55,3.31,3.39,6.6,5.96,9.24,2.51,3.58,4.88,7.48,8.52,10.08,4.74,3.41,14.18,2.69,18.09-1.85,3.39-3.26,4.2-7.89,3.29-12.3-.49-5.99,7.33-4.92,9.91-9.09,1.85-2.26,4.43-4.08,6.63-6.08.49-.28,1.02-1.03,1.13-.2-.56,10.85,6.39,12.93,15.53,14.86,10.26,1.49,10.62-13.54,12.94-20.47,1.35-6.21,8.73.93,22.09-7.58,6.98-3.15,12.61-10.33,20.54-11.09.73.33-.34,1.13-.62,1.52-3.11,3.26-6.27,6.78-10.08,9.22-5.3,3.42-9.87,8.03-15.92,10.25-2.93,1.3-11.09,2.24-7.98,7.06.53,1.1,1.28,2.03,2.51,2.39,4.95,2.59,2.82,2.25,8.88,2.02,7.78-.34,13.6-6.63,19.79-10.69,7.84-5.33,15.71-11.27,22.41-17.9,2.18-3.49,4.43-6.61,6.68-10.06.98-1.24,2.74-1.55,3.29-3.1.89-2.6,3.49-3.8,5.2-5.55,3.17-13.7,1.19-7.11,7.71-.11l.04.07ZM440.76,410.02c-.27-.11.35-.6.33-.65-.02.09-.58.5-.33.65h0ZM441.31,410.07c.11-.14.86-1.06.88-1.09-.24.3-.65.8-.88,1.08h0ZM442.19,408.98c-.11-.01-.29-.04-.46-.06.17.02.35.04.46.05h0ZM458.39,409.16c-.33.13-.98.61-1.35.61.09.06.17-.03.36-.11.17-.07,1.07-.53,1-.51h-.02ZM462.65,395.89c-.01.24.09.46.28.48-.19-.02-.3-.24-.28-.48ZM463.58,393.68l.05.59-.05-.59h0ZM463.46,395.23c.21,0,.35.11.39.25-.04-.15-.18-.25-.39-.25ZM465.12,394.61c-.35.03-1.02.08-1.4.11-.1,0-.08,0,.06,0,.32-.03,1.03-.08,1.34-.11h0ZM477.06,392.01c.04-.12.5-1.42.57-1.52.2.01.47.36.65.48q.21.18,0,0c-.18-.13-.43-.42-.62-.49-.16.16-.57,1.48-.61,1.55v-.02ZM477.89,391.97s-.13.05-.22.06c-.09.02-.05.01.06-.01.22-.06.6-.3.77-.39.04-.02-.52.29-.58.33h-.03ZM485.23,386.67c-.35,1.87-2.02,3.17-3.85,3.1-.31,0-.65-.05-.27-.38.29-.27.7-.6,1-.87.29-.25.31-.5.28-.77-.03-.22.01-.38.27-.35.33.02.74.29,1.05.16.2-.13.19-.44.28-.64.08-.43,1.07-.68,1.23-.3v.05ZM487.18,384.34c1.14-.37,2.77-.64,3.94-.93.05,0,.07,0,.05,0-.24.11-4.62,3.04-5.06,3.14.21-.48.76-1.74,1.04-2.19l.03-.02ZM506.34,377.32c-4.01,2.09-8.1,4.12-11.58,6.95-.83.75-1.92.77-2.78,1.42-1.23,1.01-2.91,1.62-4.9,2.06-.37.08-1.9.44-1.08-.03,1.64-.9,7.3-3.97,9.12-4.97.19-.1.41-.26.49-.43.15-.3-.11-.63-.6-.72-.73-.15-1.68.49-2.31.74-.4.17-.54.15-.35-.15,1.31-2.19,4.3-2.68,6.15-4.11.92-.55,1.79-1.52,2.89-1.5.63.11.22.71-.51,1.06-.89.42-1.62,1-2.6,1.67-.49.36-3.02,1.9-1.91,2.08.86-.06,1.82-.83,2.65-1.23,2.34-1.22,6.33-4.06,8.98-4.29,1.61-.08-.61.91-1.57,1.43l-.08.04ZM508.35,374.67c-.08-.09.25-.13.67-.29.78-.26,2.79-.96,3.2-1.08.03,0,.04,0,.03.04-.12.2-.37.46-.55.66-.86.96-2.16,1.54-3.32.7l-.03-.03ZM505.26,374.99c.16-.88,1.1-1.53,1.98-1.48.36,0,.61-.13.72-.45.17-.63.31-1.24,1.05-1.42.53-.2,1.24-.31,1.83-.4.67-.08,1.29-.28,1.54-.01.23.19.24.61-.04.76-.98.46-4.5,2.05-6.04,2.76-.63.27-1.04.56-1.03.28v-.04ZM513.01,372.34s-.03-.03.01-.07c.37-.26,2.23-1.49,2.71-1.81.16-.11.29-.13.51-.14.31-.01.89-.09.91,0,0,.11-.21.23-.32.32-1.34,1.01-2.27,1.66-3.79,1.7h-.03ZM518.98,448.66c-.18-.15-.46-.39-.63-.58.11.13.54.51.65.6l-.02-.02ZM519.02,446.79c-.12.11-.41.39-.52.5q-.08.07,0,0c.09-.09.44-.43.52-.5h0ZM518.9,446.49s.07-.88.09-1.11c-.02.19-.02.86-.09,1.11h0ZM519.08,444.21c-.4.38-1.42,1.33-1.67,1.57-.13.13.11.28.18.35-.14-.13-.36-.24-.09-.44.44-.41,1.2-1.13,1.58-1.48h0ZM519.73,447.24c-.06-.37.04-1.02.22-1.33-.18.31-.28.96-.22,1.33h0ZM519.84,416.97s.54-3.17.51-2.98c-.14.84-.38,2.2-.51,2.98h0ZM520.43,448.84c.06-.33.62-3.65.53-3.11-.15.89-.39,2.27-.53,3.1h0ZM543.19,387.16c.85.26.61.49.28,1.14.04-.07.12-.23.17-.34.15-.28.21-.48,0-.59-.2-.12-.45-.25-.55-.16-.08.07-.16.27-.29.51-.23.45-.5.98-.72,1.42-.08.15.11-.23.37-.73.31-.55.48-1.09.69-1.25h.04ZM541.8,389.78l.51.25-.51-.25h0ZM540.77,415c1.79-2,4.26-4.99,5.91-6.75.51-.52,1-1,1.42-1.62,1.83-3.44,4.28-6.63,6.88-9.64,2.99-3.77,5.01,7.88,5.32,9.71.15.98.8,1.72,1.05,2.63.18.73-.1,1.64.41,2.25.14.2.22.29.33.48.56,1.4.75,4.24,1.1,5.77.06.34.21.68.53.81.26.12.56.15.8.35.18.15.31.39.38.72.22,1.09.29,3.03.34,4.27,0,.25-.02.51-.11.71-.15.34-.53.44-1.08.39-8.85-1.4-10.63-9.31-19.46-6.45-1.21.36-2.34.9-3.49,1.29-1.11.33-2.78,1.01-2.49-.45.27-1.55,1.14-3.25,2.12-4.42l.05-.06ZM530.49,410.83c-.2.13-1.11,2.05-1.22,2.18.32-.54.83-1.67,1.19-2.18h.02ZM530.01,413.37h0s-.04-.02-.04-.02l.04.02ZM529.05,413.84s.04,0,.06.01c-.02-.05-.56.13-.6.13l.54-.14ZM528.47,413.99h0s-.09.3-.09.3c0,0,.09-.29.09-.3ZM528.38,414.28s-.09.86.04,1c-.12-.19-.07-.79-.04-1.01h0ZM524.78,453.51c-.21-.46-.04-1.24.54-1.39-.54.12-.76.93-.54,1.39h0ZM525.48,453.56c.04-.36.04-1.02-.07-1.36.11.34.12,1,.07,1.36h0ZM527.39,473.32c-.17-.05-.97-.26-1.07-.29.15.04.92.25,1.08.29h0ZM527.83,471.86c0-.05.15-.49.11-.6-.03-.11-.29-.14-.57-.23-.57-.2-.52-.13-.65.43-.02.1-.15.59-.05.21.04-.17.11-.48.16-.63.05-.2.21-.1.55-.01.33.11.6.12.58.29-.02.18-.07.37-.12.54h0ZM540.56,453.26c-2.26,6.09-4.06,12.41-6.42,18.36-.33,1.44-1.5,2.46-2.13,3.67-.67,1.78-1.27,3.93-2,5.7-.96,2.47-1.56-1.4-1.55-2.25,0-2.28-.11-5.1-.23-7.62-.06-1,0-1.9-.27-2.74-.21-.64-.54-1.29-.78-1.93-.89-2.14-.15-4.52-.24-6.84.01-1.28-.09-2.63-.19-3.84,0-1.8-.78-4.65,1.05-5.77,5.47-1.98,9.73-6.27,14.36-9.72.43-.32,1.13-.71,1.52-.3.59.67.39,2.04.14,2.9-.9,3.12-2.24,7.43-3.27,10.3l-.03.07ZM540.98,479.4s.46-.47.46-.47l-.46.47ZM542.63,476.74c-.66.45-1.2,1.51-1.55,2.27.47-1.37,1.56-2.43,2.86-3.03.51-.24-1.09.61-1.26.73l-.05.03ZM546.22,476.51l-.25.09c.17-.07.39-.08.32-.35.02.13,0,.23-.07.25ZM557.62,494.6c.04.4.29,1.08.42,1.44-.12-.36-.37-1.05-.42-1.44h0ZM558.97,495.83c-.1.07-.73.48-.81.53.14-.09.6-.39.83-.54h-.02ZM559.09,492.68c-.3.35-.87,1-1.21,1.38-.15.17-.19.22-.09.11.26-.3,1.2-1.38,1.31-1.49h0ZM566.09,462.72c-.16,1.43-.44,3.14-1.86,3.8-.47.13-.53-.58-.83-.44-.39.22-.75.97-1.37,1.39-.33.24-.69.4-1.08.55-4.4,1.59-8.26,4.63-12.49,6.42-1.01.31-1.99-.22-2.99.06-1.05.29-2.24,1.24-3.01,1.48-.06,0-.05-.05,0-.15.03-.06.09-.14.15-.23.99-1.39,4.4-6.13,5.6-7.81.34-.49.59-.62.3.34-.23.81-.71,1.78-1.2,2.53-.48.82-1.22,1.76-.96,1.94,2.61-1.53,4.75-6.93,6.09-9.82.15-.39.31-1.25-.24-.67-.4.39-.96,1.56-1.4,2.07-.64.79-.52.04-.12-.82.33-.66.61-1.35.94-1.96.17-.32.4-.56.74-.57.77.04.72-.5,1.16-1.22.2-.32.46-.61.69-.92.51-.62.75-1.62,1.12-2.37.8-1.54,1.93-2.92,2.74-4.45.91-1.74,1.73-3.07,2.83-4.62,1-1.48,2.33-3.5,3.2-4.7.76-1.01.73-.28,1.42.36.24.22.55.31.78.55.45.51.38,1.19.39,1.99-.07,1.43-.5,2.76-.16,4.18.04,2.55.17,6.16.37,8.74.1,1.48-.65,2.77-.82,4.24v.08ZM687.06,421.9c.12.21.25.54.3.8-.02-.18-.24-.7-.32-.83v.02ZM686.48,424.3c.14-.06.27-.14.37-.21-.11.08-.23.15-.37.21h0ZM636.51,385.97c.05.61.12,1.59.17,2.23.03.36-.16-2.07-.17-2.24h0ZM632.31,307.37c-2.65-7.78-.57-14.44,5.6-20.94.62-.69,1.35-1.32,2.13-1.75,1.18-.59,1.72-1.45,2.79-2.15.61-.38,1.3-.71,1.96-1.01,1.24-.57,2.37-.77,3.62-.9,3.15-.36,6.48-.96,9.38-2.26,3.56-1.42,6.23-4.03,9.01-6.55,2.01-1.67,4.52-2.91,6.78-4.34,2.47-1.42,5.1-2.66,7.65-3.98,1.07-.51,5.16-2.11,5.39-.79,0,.45-.55,1.18-.98,1.84-4.19,6.28-10.12,13.37-15.12,18.3-3.56,3.28-6.75,7.46-10.57,10.43-1.19.92-2.33,1.51-3.57,2.43-1.06.85-2.28,1.43-3.55,1.89-2.07.92-4.03,2.92-5.86,4.4-.91.91-.75,2.02-1.54,3.15-.91,1.25-2.01,2.39-2.54,3.85-.66,1.9-1.96,4.53-2.36,6.56-.15,1.12-.27,3.05-.33,4.59-.11,1.06.33,1.98.96,2.79.52.72.55,1.91,1.3,2.88,1.11,1.23,2.64,2.31,2.58,4.15.03.98-.67,1.91-1.35,2.92-.43.62-1.24,1.62-1.76.46-.99-2.26-2.33-5.58-3.32-7.54-.27-.57-.46-1.08-.59-1.73-.19-.83-.25-1.97-.58-2.69-.47-1.09-1.51-1.49-1.9-2.47-1.07-3.42-2.25-8.35-3.2-11.49l-.02-.06ZM639.33,434.41c-.2-.42-.31-.89-.36-1.37-.35-3.29-.77-8.36-.9-11.68-.07-1.05-.94-1.07-1.1-2.07-.93-6.73-1.16-14.29-1.29-21.16-.02-.36-.02-.9-.09-1.16-.18-.68-.72,1.38-.96,1.37-.07.04-.12-.02-.16-.09-.12-.3-.14-.72-.18-1.07-.14-1.64-.11-3.32.26-4.76.28-.78.11-1.57.08-2.34.07-.98.72-.56.77.2.06.35.07.74.04,1.1-.06.75-.26,1.28.01,1.49.22.17.52.16.79.25,1.04.23,1.31,1.16,2,2.15,1.13,1.47,2.51,2.85,4.19,3.67,3.85,1.75,6.83-3.43,9.21-6.14,2.3-1.89,6.26-4.96,8.2-6.41.51-.26.2.57.08,1.09-1.81,6.49-6.54,11.55-11.01,16.44-1.46,1.65-3.08,3.25-4.54,4.87-2.48,2.92-3.69,6.7-4.13,10.5-.14,1.05,0,2.11.53,3.03,1.26,2.07,2.58,4.46,4.45,6,1.13.85,1.7,1.67,1.08,3.12-.04.21-.17.45.03.56.28.14,1.53-.44,1.74-.33.06.02.06.06.03.12-.17.25-.61.64-.91.89-.64.55-1.27,1.07-1.83,1.69-.75.88-1.35,1.82-2.46,2.54-.54.34-1.26.94-1.88.64-.2-.15-.23-.21-.34-.41-.34-.92-.85-1.86-1.33-2.68l-.03-.06ZM665.27,445.97c-.64.59-1.64,2.3-2.37,2.24-.3-.16-.4-.54-.59-.84-.3-.55-.75-.98-1.3-1.31-2.22-1.48-4.89-2.01-7.46-2.56-1.3-.61-2.59-1.76-4.19-1.3-2.63.36-7.81,3.64-6.29-.93.12-.94-.48-1.73-.18-2.66.23-.85,1.56-1.5,2.22-.76.26.36-.32,1.21-.33,1.51-.11.55,1.27-.42,1.65-.55,4.19-2.11,9.34-4.19,13.18-6.37,1.48-.81,3.34-1.23,4.8-2.06,1.34-.79,2.45-2.01,3.84-2.8,1.89-1.23,4.27-1.88,5.91-3.53,1.27-1.39,3.14-2.55,4.16-4.17.45-1.13.22-2.77.22-3.97-.03-1.08-.64-1.67-1.18-2.53-1.26-2.67-3.45-4.96-6.04-6.4-1.87-.92-3.78-2.35-5.55-3.34-.47-.27-1.05-.66-1.04-1.13-.05-1.36,2.82-4.72,4.19-6.55,1.58-2.21,3.78-4.29,5.53-6.23,6.21-6.27,6.79-11.85-.12-19.01-1.33-3.09-1.74-7.09-5.47-8.41-7.76-3.16-14.66,3.38-19.81,8.53-1.58,1.55-2.71,3.7-4.76,4.76-1.16.59-.78-.76-.46-1.4,3.19-7.54,8.05-14.32,13.38-20.41,4.81-4.6,12.68-7.63,19.21-8.69,2.49.15,4.7,2.29,5.22,4.86.47,1.57,1.02,3.04,1.28,4.65.43,2.5.54,5.37,1.1,7.96,3.43,17.59,1.68,36.25,1.86,54.09-.09,5.69-.29,11.69-.65,17.05-.46,4.41-1.5,9.62-2.07,14.08-.22,1.93-.36,2.67-2.29,2.35-4.92-.65-9.86-1.74-14.27-3.92-.4-.17-.93-.49-1.3-.29l-.04.02Z"/>
    <path d="M735.18,535.91c.36-.88.33-2.24,0-3.24-.38-2.38-1.28-4.81-2.14-7.1-.49-1.44-1.22-3.42-1.83-4.94-.45-1.03-.28-2.04-.73-3.03-1.07-1.61-1.45-3.42-2.39-5.11-.33-.61-.77-.98-1.39-1.22-.82-.33-2.19-.82-2.85-1.08-.66-.24-.87-.45-1.41-1.06-1.88-2.03-4.72-5.18-6.77-7.37-1.65-1.77-4.53-2.97-6.16-4.76-1.61-1.54-3.66-2.77-5.52-4.06-.8-.49-1.08-.54-2.11-.85-3.31-1.05-9.24-2.67-12.76-3.96-3.97-1.66-8.55-3.13-12.82-2.89-2.89-1.08-6.46-2.49-9.32-3.84-.62-.31-1.02-.51-1.13-.05-.09.47-.05,1.04.05,1.53.15.82.5,1.32,1.05,1.9.82.94,1.91,1.98,2.63,2.98.16.28.13.47-.04.68-.14.19-.16.29.1.47.96.52,1.87,1.22,2.52,2.16.69.87,1.48,1.65,2.09,2.39.42.52.76,1.09,1.12,1.65.73,1.2,1.8,2.27,2.55,3.53.37.59.74,1.2,1.17,1.74,2.8,3.07,5.92,6.9,8.25,10.06,1.32,1.8,2.78,3.54,4.2,5.27,2.94,3.74,5.49,7.9,8.27,11.82,1.88,2.72,3.71,5.27,5.68,7.69,1.52,1.97,2.61,4.23,4.22,6.08.78.79.88,1.99,1.54,2.82.5.5,1.3.67,1.67,1.33.51.83.52,1.98.92,2.88.36.87,1.2.96,1.73,1.74.32.46.46,1.04.61,1.58.07.23.13.44.2.59.1.22.21.29.33.2.2-.18.38-.55.6-.74.53-.38.74.47,1.03,1.24.37.85.35,2.17,1.15,2.4.48.11.99-.08,1.48,0,.77.11,1.41.91,2.25,1.01,1.01.13,2.21-.32,3.31-.37,2.84-.22,3.5-1.98,5.04-3.83.7-.64,1.49-1.34,1.56-2.36.11-1.11.28-1.89.89-3.06.42-.98,1.06-1.87,1.01-2.95,0-1.24-.02-4.35-.02-6.11-.01-.79.02-1.24.16-1.72l.02-.06Z"/>
    <path d="M500.36,483.33c-.2-.89-.31-1.41-.92-.32-.02.53.35,1.49.45,2.07.05.19.08.37.11.39.22-.49.47-1.51.38-2.07v-.07Z"/>
    <path d="M467.05,399.62c.68-.08,3.83-1.19,4.67-1.41.32-.1.31-.32.4-.68.1-.5.32-1.3.28-1.52-.04-.21-.3-.04-.44.03-1.53.85-3.61,2.38-4.9,3.56v.02Z"/>
    <path d="M492.73,371.81c.54.22,1.3.11,1.91,0,.6-.17,1.35-.39,1.65-.91,0-.06-.07-.12-.19-.16-1.26-.34-2.48.13-3.38,1.03v.03Z"/>
  </g>
  <g>
    <path d="M240.69,457.56h0s-.06-.05-.08-.06h.03s.01.02.02.03c0,0,.02,0,.03.02h0Z"/>
    <path d="M241.16,457.9c-.12-.08-.24-.17-.34-.25.1.08.22.16.34.25Z"/>
    <path d="M239.59,464.39c-.06.01-.13.01-.18.02.03,0,.06,0,.09-.01.03,0,.06,0,.09,0Z"/>
    <path d="M239.87,464.37s-.07,0-.1.01c-.03,0-.06,0-.09,0,0,0,0,0,.01,0,.05,0,.1,0,.16-.01h.01Z"/>
    <path d="M241.7,459.31s.01-.05.01-.07c-.02.15-.04.29-.07.42.02-.11.03-.23.06-.36Z"/>
    <path d="M241.75,459.01s0-.06.01-.08c-.01.09-.03.18-.04.27v-.02s.01-.08.02-.12v-.05Z"/>
    <path d="M241.83,458.44c-.01.08-.03.17-.04.28h0s0-.08.01-.11h0s0-.07.01-.1c0-.02,0-.05.01-.07Z"/>
    <path d="M238.77,452.36s-.07.08-.11.12c.03-.03.06-.06.08-.1.01,0,.02-.01.03-.02Z"/>
    <path d="M239.74,450.93s-.01.03-.02.05c0,0,0,.02-.02.03.01-.03.03-.06.04-.08Z"/>
    <path d="M248.49,450.39c-.02.07-.04.13-.06.17.01-.04.03-.1.06-.17Z"/>
    <path d="M234.34,445.92s.02-.03.03-.05c-.03.07-.07.13-.1.2.02-.05.05-.1.07-.15Z"/>
    <path d="M235.35,443.95s-.04.07-.06.1c.01-.03.03-.07.05-.1h0Z"/>
    <path d="M245.3,456.68c-.15.2-.28.41-.39.63.1-.22.24-.44.39-.63Z"/>
    <path d="M234.56,442.85c.04-.05.08-.11.13-.18-.08.11-.14.19-.13.18Z"/>
    <path d="M250.44,450.28h-.03.03Z"/>
    <path d="M250.52,450.29h-.03s-.02,0-.03,0h.02s.03,0,.04,0Z"/>
    <path d="M251.24,450.39s-.01,0-.03,0h.03Z"/>
    <path d="M245.31,462.13s-.06.1-.09.14c.02-.03.06-.1.09-.14Z"/>
    <path d="M244.95,462.51c-.06.05-.12.09-.18.14-.06.05-.13.09-.2.13-.04.03-.08.06-.13.08-.03.02-.06.04-.1.06-.03.01-.06.03-.09.06-.06.03-.13.07-.2.1-.07.04-.14.08-.21.11-.03.01-.06.03-.1.04.04-.03.1-.05.15-.08.07-.03.14-.07.21-.11.08-.04.15-.08.22-.13.08-.04.15-.09.22-.13.14-.09.28-.19.41-.29Z"/>
    <path d="M230.99,422.27s.12.13.14.15c.03.03-.12-.12-.14-.15h0Z"/>
    <path d="M232.64,423.31c-.02-.09-.12-.27-.23-.46-.11-.17-.24-.36-.32-.46.03.03.06.06.08.09.09.1.17.22.25.33.1.15.17.31.21.46v.03Z"/>
    <path d="M230.82,421.43s-.01-.07-.03-.11c0-.04-.01-.08-.03-.13,0,0,0,0,0-.01,0-.04-.02-.09-.03-.13h0s-.02-.07-.03-.09h0s-.01-.05-.01-.06h0s0,0,0,0h0s0,0,0,0c0,.01,0,.03,0,.05l.02.05c.03.08.08.3.1.43Z"/>
    <path d="M233.8,422.86c.4-.07.84-.15,1.28-.26-.01,0-.03.01-.04.01-.08.02-.16.04-.24.06h-.01c-.08.01-.17.03-.25.06-.08.01-.15.03-.22.04-.17.03-.35.06-.52.08Z"/>
    <path d="M235.38,422.53s-.07.02-.1.03c-.06.01-.13.03-.19.04.1-.02.19-.05.3-.07Z"/>
    <path d="M237.32,421.87s.01,0,.02,0c-.07.03-.14.06-.22.1-.01,0-.03.01-.05.02.08-.04.17-.08.24-.11Z"/>
    <path d="M237.43,421.82s-.06.03-.1.05c.01,0,.03-.01.05-.03.02,0,.03,0,.05-.02Z"/>
    <polygon points="237.6 421.74 237.6 421.74 237.6 421.74 237.6 421.74"/>
    <path d="M238.44,421.22s-.09.08-.14.11c-.03.02-.06.04-.09.06-.03.02-.06.04-.1.06-.02.01-.05.03-.08.05-.06.03-.12.07-.17.1,0,0-.01,0-.02,0,.01-.01.02-.02.03-.02,0,0,.02-.01.03-.02.01,0,.03-.01.04-.02.06-.03.11-.07.17-.1,0,0,.02-.01.03-.02.01,0,.03-.01.03-.02.08-.05.16-.1.24-.17.01,0,.02,0,.03-.01Z"/>
    <path d="M228.92,451.5c-.04.06-.09.12-.13.17-.14.17-.28.36-.4.54-.03.06-.08.12-.12.17-.03.06-.07.11-.11.16,0,.01-.01.03-.03.04.01-.03.03-.06.05-.09,0-.01.01-.03.03-.05.16-.29.42-.63.71-.95Z"/>
    <path d="M235.08,442.13c.05-.07.1-.13.14-.18,0-.01-.05.07-.14.18Z"/>
    <path d="M238.92,420.28s.02.05.03.08c-.03-.1-.09-.18-.17-.26.01,0,.03.02.04.03.02.02.04.05.06.08t0,.01s.02.04.03.06Z"/>
    <path d="M238.97,420.41s-.01-.03-.02-.06c0,0,.01.02.01.03s0,.02,0,.03Z"/>
    <path d="M230.02,450.43c-.08.08-.22.2-.36.32.02-.03.04-.04.06-.06.02-.02.04-.03.06-.06h0s.08-.08.12-.11c.04-.03.08-.06.11-.09Z"/>
    <path d="M267.92,544.87s.03.01.06.03c-.01,0-.03,0-.03-.01h-.02Z"/>
    <path d="M268.12,544.96s.05.03.08.04h0s-.05-.02-.07-.04Z"/>
    <path d="M268.58,545.2s-.08-.03-.11-.05c-.06-.03-.1-.05-.15-.08-.05-.02-.09-.04-.13-.07h0c.08.04.16.08.25.13.04.03.09.05.13.07Z"/>
    <polygon points="268.62 545.22 268.62 545.22 268.62 545.22 268.62 545.22"/>
    <path d="M268.75,545.28s-.09-.04-.13-.06c0,0,.01,0,.02,0,.03.02.08.03.11.06Z"/>
    <path d="M278.55,531.12s0,0,0,0c0-.01,0,0,0,0Z"/>
    <path d="M280.68,533.65s-.02.02-.03.03c.01-.01.02-.03.03-.03h0Z"/>
    <path d="M281.04,532.16s-.04.08-.06.1c0,.02-.01.04-.01.06,0-.02,0-.04,0-.06,0,0,0-.01,0-.02h0s0-.02.01-.03c0-.01,0-.02.02-.03h0s.01-.02.01-.03h0Z"/>
    <path d="M281.08,532.09h0s0,.01,0,.01t0-.01Z"/>
    <path d="M286.18,524.54h0s0,0-.01,0c0,0,0,0,.01,0Z"/>
    <polygon points="285.91 523.99 285.91 523.99 285.91 524 285.91 523.99"/>
    <polygon points="278.36 531.68 278.36 531.69 278.36 531.69 278.36 531.68"/>
    <path d="M274.43,543.84h-.01s-.05,0-.08,0c.03,0,.06,0,.09,0Z"/>
    <path d="M274.53,543.85c.11,0,.25.02.39.03-.13-.01-.27-.03-.39-.03Z"/>
    <path d="M276.58,549.12s0,.03,0,.05c0,.01,0,.02,0,.02-.01-.01-.03-.07-.06-.16l-.02-.06c-.02-.08-.05-.2-.05-.31,0-.13.07-.24.13-.33-.02.05-.04.1-.05.17,0,.19.06.44.06.61Z"/>
    <path d="M276.72,531.6s-.08-.14-.07-.13c0-.01.06.11.07.13h0Z"/>
    <path d="M276.64,531.46s-.04-.14-.05-.16c0,.02.04.15.05.16h0Z"/>
    <path d="M288.84,531.09s.07.11.16.25c-.06-.09-.11-.17-.16-.25Z"/>
    <path d="M271.42,545.19s-.11.08-.2.15c-.03.02-.06.03-.08.06s-.06.03-.09.06l-.07.04c-.08.04-.15.09-.24.13t0,0c-.07.03-.14.06-.2.08,0,0-.02,0-.03,0-.36.08-.54.06-.41.06.13-.01.25-.03.38-.08.22-.08.47-.22.67-.36.31-.21.41-.25.27-.13Z"/>
    <path d="M273.28,541.08c-.93-.33-1.85-.62-2.63-.89.83.29,1.73.58,2.63.89Z"/>
    <path d="M290.03,524.2h0,0Z"/>
    <path d="M290.46,532.13s0,.01-.01.02-.03.03-.06.06c.03-.03.06-.05.08-.08Z"/>
    <path d="M289.51,532.12c-.05-.07-.11-.16-.17-.26.1.15.17.26.17.26h0Z"/>
    <path d="M292.42,519.4c-.07.03-.14.06-.18.07.06-.02.12-.05.18-.07Z"/>
    <path d="M270.1,539.99c-.06-.02-.1-.03-.13-.05.02,0,.06.02.13.05Z"/>
    <path d="M224.66,379.82h0s.05.06.15.19c-.06-.07-.11-.14-.15-.19Z"/>
    <path d="M221.7,382.56s.03-.06.05-.1c-.01.03-.02.05-.03.08,0,0,0,.01-.01.02Z"/>
    <path d="M221.87,382.23h0s-.04.09-.06.13c.02-.05.04-.09.06-.13Z"/>
    <path d="M221.91,382.17s-.03.04-.03.06h0s.03-.04.04-.06Z"/>
    <path d="M225.41,380.74c-.09-.11-.21-.25-.33-.4.19.23.36.44.33.4Z"/>
    <path d="M226.52,379.31c-.12.03-.23.09-.33.15.08-.05.19-.1.33-.15Z"/>
    <path d="M226.03,381.14s-.05.03-.07.04h.01s.03-.03.06-.04Z"/>
    <path d="M227.82,380.07c-.42.25-.92.55-1.35.8.41-.24.95-.57,1.35-.8Z"/>
    <path d="M247.43,232.38c-.04.1-.11.24-.17.35.06-.1.13-.24.17-.35Z"/>
    <path d="M246.91,231.09s-.02-.02-.03-.02c0,0,.02.02.04.03,0,0,0,0-.01,0Z"/>
    <path d="M230.37,420.95s-.04.03-.02.01c0,0,.01,0,.02-.01Z"/>
    <polygon points="247.48 232.27 247.48 232.28 247.48 232.27 247.48 232.27"/>
    <path d="M220.39,382.42s.02-.01.03-.02c-.01.02-.03.03-.05.04,0,0-.02.01-.03.02.01-.02.03-.03.05-.04Z"/>
    <path d="M199.13,268.99s0,0,0,0h0s0,0,0,0Z"/>
    <path d="M337.24,259.04h0c.38.51,1.05,1.32,1.58,1.86-.49-.51-1.19-1.32-1.58-1.86Z"/>
    <path d="M340.01,256.51s-.1-.39-.38-.81c-.25-.39-.73-.79-1.03-1.01.15.09.29.19.43.31.14.12.27.26.41.41l.04.06c.27.33.46.65.52,1.04Z"/>
    <path d="M337.7,257.95s.06-.18.13-.37c-.04.13-.09.26-.13.37Z"/>
    <path d="M197.17,275.92c-.01.15-.02.28-.03.4,0-.1.01-.24.03-.4Z"/>
    <path d="M318.68,334.81c-.09.03-.32.1-.37.12.07-.02.29-.09.38-.12h0Z"/>
    <path d="M319.09,338.58c-.03-.1-.06-.21-.1-.31-.03-.11-.07-.22-.11-.33-.03-.11-.08-.22-.12-.33-.02-.06-.05-.13-.07-.19-.05-.13-.09-.24-.15-.36-.02-.06-.04-.1-.06-.16-.03-.06-.05-.11-.08-.16-.03-.1-.08-.19-.12-.27-.01-.03-.02-.06-.03-.09.01.02.02.05.03.07.03.07.07.15.1.22.04.09.08.17.12.26.03.06.05.12.08.18.07.17.14.35.2.52.04.11.08.22.11.33.04.1.07.22.1.32.01.06.03.1.04.15.01.05.03.1.04.15Z"/>
    <path d="M316.54,336.66c-.09.28-.2.66-.3,1.06.1-.39.21-.75.3-1.06h0Z"/>
    <polygon points="247.18 231.33 247.18 231.33 247.18 231.33 247.18 231.33"/>
    <path d="M184.56,423.63v.05s0,.03,0,.03c0,0,0-.04,0-.08Z"/>
    <path d="M212.91,249.79s.03-.03.04-.04c0,0-.01,0-.04.04Z"/>
    <path d="M254.79,330.13h0s.33-.22.43-.29c.06-.04.04-.03-.04.03-.1.07-.29.2-.39.26Z"/>
    <path d="M258.59,366.71s0,0,0-.03c.03-.12.06-.24.08-.36-.02.11-.04.22-.07.33-.01.07-.01.06-.01.07Z"/>
    <path d="M202.11,433.87s.01-.01.02-.01h0s0,.01-.01.01Z"/>
    <path d="M203.03,433.33c-.07.06-.14.1-.21.15,0,0,0,0-.01,0-.06.04-.13.08-.19.11-.01,0-.02.01-.03.01,0,0-.01,0-.01.01-.06.03-.12.06-.17.09l-.04.02s-.06.04-.1.06c-.04.02-.08.04-.11.06t-.01,0s.02-.01.03-.03c.05-.03.13-.07.22-.13.15-.08.33-.18.51-.29.05-.03.09-.06.13-.08Z"/>
    <path d="M203.61,432.86s-.02.02-.03.03c-.01.01-.03.03-.05.04,0-.01.01-.02.02-.03.01-.01.03-.02.03-.03,0,0,.02-.01.03-.02Z"/>
    <path d="M203.63,432.83s-.02.02-.03.03c0,0,0-.01,0-.01h.02Z"/>
    <path d="M203.7,432.77l-.04.04s.03-.03.03-.04h0Z"/>
    <path d="M203.84,432.61s-.04.05-.06.08c-.02.02-.04.05-.07.07v-.02s.01,0,.01,0c.03-.03.07-.06.09-.1.01,0,.02-.01.03-.02Z"/>
    <path d="M203.96,432.47s-.02.03-.03.04c-.01.01-.02.03-.04.04.03-.03.06-.07.08-.08Z"/>
    <path d="M230.57,420.84s-.06.02-.09.04c.05-.02.09-.04.09-.04h0Z"/>
    <path d="M201.68,432.83c.04-.1.08-.22.11-.26h0c-.03.05-.07.16-.11.26Z"/>
    <path d="M185.72,421.25h0s-.08.04-.12.06c.04-.02.08-.05.12-.06Z"/>
    <path d="M259.83,363.86c-.22,0-.47-.08-.61.08h0c.13-.17.38-.08.61-.08Z"/>
    <path d="M206.26,258.43c-.15.16-.35.37-.55.6.2-.22.39-.43.55-.6h0Z"/>
    <path d="M206.36,261.34c-.28.51-.76,1.31-1.05,1.76.31-.48.79-1.28,1.05-1.76h0Z"/>
    <path d="M210.19,252.51s.03-.03.06-.06c-.09.1-.17.2-.26.29.06-.08.14-.15.21-.23Z"/>
    <path d="M210.37,252.34l-.12.12s.08-.08.11-.12h0Z"/>
    <path d="M210.57,252.11l.13-.13c-.1.1-.2.21-.3.31.06-.06.12-.13.17-.19Z"/>
    <path d="M247.36,322.8c.13.03.36.07.61.1-.23-.03-.44-.07-.61-.1h0Z"/>
    <path d="M248.99,322.99c-.16,0-.37-.02-.58-.04.24.02.45.04.58.04Z"/>
    <path d="M249.65,320.59v-.09c.03-.79.06-1.68.09-2.51-.03.99-.07,2.08-.1,3,0-.13,0-.26.01-.4Z"/>
    <path d="M308.8,507.22c-.2.19-.52.46-.79.75.06-.08.13-.15.2-.21.19-.21.39-.4.6-.54Z"/>
    <path d="M262.1,330.38h0s0,0,0,0h0Z"/>
    <path d="M262.54,334.71c-.03.11-.06.21-.08.3.02-.08.05-.17.08-.3Z"/>
    <path d="M262.93,333.28c-.02.1-.06.2-.08.32.03-.13.06-.24.08-.32Z"/>
    <path d="M262.06,336.03s.06.26.06.26c0,0-.05-.24-.06-.26h0Z"/>
    <path d="M261.68,329.88s.07.09.15.19c-.05-.07-.11-.13-.15-.19Z"/>
    <path d="M307.73,344.77c-.01.16-.02.32-.03.45,0-.14.02-.29.03-.45Z"/>
    <path d="M284.37,302.99s-.03.02-.05.03c-.04.02-.09.03-.13.06h0s.03-.01.05-.03c.04-.01.08-.03.13-.06Z"/>
    <path d="M285.27,302.49c-.11.08-.23.17-.36.24-.1.07-.3.16-.54.26.1-.05.2-.1.31-.15.21-.11.41-.22.59-.35Z"/>
    <path d="M264.33,359.9c-.06,0-.17-.02-.31-.04.11.02.22.03.31.04Z"/>
    <path d="M263.83,359.82c-.12-.02-.23-.05-.32-.08.09.02.21.05.32.08Z"/>
    <path d="M288.74,230.98s.09.04.09.04c.04.02-.01,0-.09-.04Z"/>
    <path d="M262.28,328.92c-.01.11-.03.22-.04.31,0-.08.02-.19.04-.31Z"/>
    <path d="M283.29,406.47s0,.03,0,.06c0,.06,0,.11,0,.17,0-.03,0-.08,0-.12,0-.06,0-.13,0-.19,0,.03,0,.06,0,.08Z"/>
    <path d="M289.93,230.68s-.03-.1-.06-.15c-.1-.23-.17-.39-.23-.5.01.01.03.03.03.05l.03.06c.08.15.17.35.23.55Z"/>
    <path d="M321.22,402.9s.01,0,.02,0c.02,0,.05.01.01,0,0,0-.02,0-.03,0Z"/>
    <polygon points="316.61 400.13 316.61 400.13 316.61 400.13 316.61 400.13"/>
    <path d="M316.57,400c-.04-.14-.08-.3-.13-.44.04.13.1.32.13.44Z"/>
    <path d="M309.45,356.78v.03c-.04-.09-.1-.17-.15-.26.05.08.1.15.15.23Z"/>
    <path d="M309.72,357.24c-.07-.11-.13-.22-.2-.32.06.08.11.17.17.26,0,0,0,.01.01.02,0,.01.01.02.01.03Z"/>
    <path d="M309.77,357.32s-.01-.01-.02-.02c0-.01,0-.02-.01-.03.01.02.02.03.03.06Z"/>
    <path d="M310.33,358.27s-.01-.03-.03-.03c0-.02-.02-.04-.03-.06.02.03.03.07.06.1Z"/>
    <path d="M310.37,358.32c.03.07.07.13.11.2-.06-.08-.1-.17-.15-.25.01.02.02.03.03.06Z"/>
    <path d="M331.27,396.7s-.07.08-.08.1c0,0,0,.01,0,.02,0-.01.02-.03.04-.05.01-.02.03-.04.05-.07Z"/>
    <path d="M330.97,399.92c-.11-.09-.22-.17-.3-.22.08.06.19.14.3.22Z"/>
    <path d="M307.69,405.78c.13.19.19.27.11.16-.03-.04-.07-.1-.11-.16Z"/>
    <path d="M310.37,359.88c-.16-.08-.46-.24-.64-.33.2.1.44.23.64.33Z"/>
    <path d="M308.19,351.21c.06-.15.09-.24.09-.23-.03.08-.06.17-.1.26,0,0,0-.02,0-.02Z"/>
    <path d="M307.35,405.24s.05.09.09.15c-.03-.05-.06-.11-.09-.15h0Z"/>
    <path d="M307.65,405.73s.02.03.03.04c-.08-.11-.16-.24-.23-.36.06.11.14.23.2.31Z"/>
    <path d="M309.19,359.11c.07.08.14.15.2.21.03.03-.02-.02-.11-.12-.03-.03-.06-.06-.09-.09Z"/>
    <polygon points="309.58 359.47 309.59 359.47 309.58 359.47 309.58 359.47"/>
    <path d="M307.22,352.9s-.01.02-.01.03c-.13.16-.26.3-.38.41.12-.11.24-.25.38-.41,0,0,.01-.02.02-.03Z"/>
    <polygon points="309.02 358.92 309.02 358.93 309.02 358.92 309.02 358.92"/>
    <path d="M286.69,531.79s-.03-.02-.06-.04c-.07-.05-.16-.1-.27-.17-.08-.04-.16-.08-.26-.12l-.05-.02c-.06-.02-.12-.04-.18-.06-.43-.11-.86-.07-1.36.04-.1.02-.2.04-.31.07-.43.13-.85.22-1.25.33,1.23-.36,2.67-.93,3.7-.07,0,0,.02.01.03.03Z"/>
    <path d="M286.77,531.84s-.01,0-.03-.02h-.01s.03,0,.04.02Z"/>
    <path d="M286.76,536.75s0,.04-.01.07c0-.02,0-.03,0-.05,0,0,0-.01,0-.02Z"/>
    <path d="M284.81,533.86s0,.01.01.02c-.06-.08-.14-.15-.22-.21.04.03.08.06.11.1.03.03.06.06.09.09Z"/>
    <path d="M284.58,535.58s.08-.09.13-.13c-.13.13-.25.27-.38.41.08-.09.17-.18.25-.28Z"/>
    <path d="M292.6,528.62s.06-.08.13-.2c-.05.08-.09.14-.13.2h0Z"/>
    <path d="M292.64,526.17c-.29.11-.67.26-1.06.43.37-.16.74-.31,1.06-.43h0Z"/>
    <path d="M290.74,531.12s-.02,0-.03-.01c0,0-.01-.01-.02-.01-.06-.04-.1-.08-.16-.13.06.05.13.1.19.14h.01Z"/>
    <path d="M290.76,531.13s0,0-.01-.01h.01Z"/>
    <path d="M290.91,531.22h0,0Z"/>
    <path d="M291.01,531.29s-.02,0-.03-.01c0,0-.01-.01-.01-.01.01,0,.03.01.04.03Z"/>
    <path d="M291.26,531.41s-.04-.01-.06-.03h.01s.03.02.05.03Z"/>
    <path d="M289.55,533.7c-.06.01-.11.02-.17.03-.08,0-.15,0-.23,0,.08,0,.15,0,.23-.01.06,0,.12-.01.17-.02Z"/>
    <path d="M289.88,533.61s-.02,0-.03.01c-.02,0-.03,0-.06.01.02,0,.04-.01.06-.02,0,0,.02,0,.03,0Z"/>
    <path d="M289.9,533.6h0s0,0,0,0h0Z"/>
    <path d="M290.02,533.56s-.02,0-.03.01h0s.02-.01.03-.01Z"/>
    <path d="M290.93,528.88s.02.01.03.02c-.06-.03-.13-.06-.18-.1-.01-.01-.03-.03-.05-.03.03.01.06.03.08.05.03.01.06.03.1.06,0,0,0,0,.01,0Z"/>
    <path d="M291.04,528.95s-.03-.01-.04-.03h0s.02.02.03.03Z"/>
    <path d="M291.62,529.27c-.06-.02-.13-.06-.2-.1-.04-.02-.08-.04-.13-.07-.08-.04-.17-.1-.25-.15.05.02.1.05.14.08h0c.08.04.15.08.22.13.03.01.06.03.09.05,0,0,.01,0,.02.01.03.01.05.02.07.03.01.01.02.02.03.02Z"/>
    <path d="M291.71,529.33s-.03-.01-.05-.02l-.02-.02s.06.03.07.04Z"/>
    <path d="M279.59,547.24c-.12-.09-.25-.2-.38-.29.13.09.26.2.38.29Z"/>
    <path d="M279.91,542.73s-.07.02-.1.03c-.06.01-.11.02-.16.03-.01,0-.02,0-.03,0-.04.01-.09.02-.13.03.06-.01.13-.03.19-.05h0c.07-.02.15-.04.23-.06Z"/>
    <path d="M283.07,533.13h-.17s.07,0,.11,0c.02,0,.03,0,.06,0Z"/>
    <path d="M283.21,533.14h-.01s-.06,0-.08,0h.09Z"/>
    <path d="M283.55,533.19c-.09-.02-.19-.03-.28-.04h0s-.04,0-.06,0h.03c.1,0,.21.03.31.05Z"/>
    <path d="M293.12,527.74s-.01.02-.02.04c0,0-.01.01-.02.03.01-.03.03-.05.03-.07h0Z"/>
    <path d="M264.73,446.36s.08-.07.15-.13c-.06.05-.11.1-.15.13Z"/>
    <path d="M265.06,446.08c-.06.06-.13.1-.18.15l.04-.04s.09-.08.14-.11Z"/>
    <path d="M265.06,446.08c.22-.18.47-.35.75-.49-.1.06-.22.13-.32.19-.13.08-.29.19-.43.3Z"/>
    <path d="M268.01,444.6c-.65.31-1.43.56-2.19.98.52-.31,1.11-.56,1.57-.72l.05-.02c.26-.1.45-.19.58-.24Z"/>
    <polygon points="282.87 539.3 282.87 539.3 282.87 539.3 282.87 539.3"/>
    <path d="M282.48,531.96c-.24.07-.47.14-.7.22.12-.04.23-.08.35-.13.08-.03.15-.05.22-.07.04,0,.09-.01.13-.03Z"/>
    <path d="M281.94,536.57s-.05,0-.08.01c-.06,0-.13.01-.2.02-.03,0-.06,0-.1,0-.15.01-.3.03-.45.05-.47.06-.97.12-1.46.22-.65.13-1.29.31-1.8.57.62-.35,1.56-.56,2.35-.69h.08c.63-.11,1.18-.15,1.65-.19Z"/>
    <path d="M319,490.24s-.08-.13-.17-.26c-.2-.28-.38-.36-.56-.31-.06.01-.12.04-.18.08-.14.1-.27.28-.38.48-.04.08-.07.12-.08.12,0-.16.36-.86.67-.84h.06c.17.01.31.13.4.27.08.1.14.23.19.34.02.04.03.07.05.1Z"/>
    <polygon points="313.44 502.77 313.44 502.77 313.44 502.77 313.44 502.77"/>
    <path d="M319.31,491.37c.04-.25.05-.54.03-.76.03.24.01.52-.03.76Z"/>
    <polygon points="329.07 474.17 329.07 474.17 329.07 474.17 329.07 474.17"/>
    <path d="M329,474.43c-.03.18-.04.41-.03.6,0-.19,0-.41.03-.6Z"/>
    <polygon points="277.55 530.07 277.55 530.07 277.55 530.07 277.55 530.07"/>
    <path d="M313.81,500.9c-.07.1-.18.25-.28.39.09-.13.2-.28.28-.39Z"/>
    <path d="M277.13,530.22s-.02,0-.03,0h0s.02,0,.02,0Z"/>
    <path d="M277.22,530.18s-.05.01-.08.03c.01,0,.03-.01.04-.02.01,0,.02-.01.03,0Z"/>
    <path d="M277.3,530.15s-.06.02-.08.03c.01,0,.03-.01.05-.02,0,0,.01,0,.03,0Z"/>
    <path d="M335.99,469.5h0s-.02-.03-.02-.04c0,.01.01.03.03.04Z"/>
    <path d="M293.22,519.05s-.14.07-.32.14c.12-.05.23-.1.32-.14Z"/>
    <path d="M331.35,472.74c-.23.08-.53.19-.84.33.3-.13.59-.24.85-.33h0Z"/>
    <path d="M294.09,515.66c-.17.04-.3.07-.32.08.09-.02.2-.05.32-.08Z"/>
    <path d="M298.6,508.2s.03-.04.06-.06c-.37.41-.59.86-.63.91.06-.13.14-.25.22-.4l.03-.04c.04-.07.1-.14.15-.21.05-.06.1-.12.15-.17,0-.01.02-.03.03-.03Z"/>
    <path d="M298.79,508s.06-.06.08-.08c-.05.05-.1.1-.15.15.02-.02.04-.05.06-.07Z"/>
    <path d="M299.21,507.62c.06-.04.1-.08.15-.1-.05.03-.1.08-.16.12h0c-.06.04-.11.08-.16.13.06-.05.11-.1.17-.15h0Z"/>
    <path d="M299.68,507.31c-.09.06-.2.13-.32.21.02-.03.05-.04.07-.06.08-.06.17-.11.25-.15Z"/>
    <path d="M335.46,470.61c-.08.17-.15.33-.21.45.06-.13.13-.29.21-.45Z"/>
    <path d="M336,469.51s0,0,0-.01c0,0,0,0,0,0h0Z"/>
    <path d="M72.05,445.55h-.05c-.75-.2-1.69.42-1.47,1.24.17.72,1.19,1.34,1.82,1.25,1.24-.28.81-2.3-.3-2.49Z"/>
    <path d="M315.68,352c-.89-.24-2.57,2.75-1.73,3.38.81.13,2.5-2.56,1.76-3.37h-.02Z"/>
    <path d="M64.78,441.04c-.78.53.83,1.47,1.36,1.47h.07c.63.14,1.72-.36,1.18-1.05-.53-.54-2.09-.68-2.61-.42Z"/>
    <path d="M324.56,327.74c-.69.45-1.03,1.45-.67,2.18l.02.04c.43.8,1.33-.07,1.63-.57.36-.58.2-1.44-.1-1.75-.26-.26-.62-.09-.88.11Z"/>
    <path d="M332.5,406.98l-.02.05c-.21.48.16,1.22.72,1.2.43-.03.82-.77.57-1.19-.25-.45-1.02-.57-1.27-.06Z"/>
    <path d="M184.56,423.71s0-.02,0-.03v-.05s0,.08,0,.08ZM199.13,268.99h0s0,0,0,0h0ZM203.69,432.77s-.02.03-.03.04l.04-.04h0ZM210.36,252.34s-.07.08-.11.12l.12-.12h0ZM209.99,252.74c.09-.09.17-.19.26-.29-.02.02-.03.04-.06.06-.07.08-.15.15-.21.23ZM220.25,382.51h0s0,0,0,0h0ZM221.81,382.37s.04-.08.06-.12h0s-.04.07-.06.12ZM221.87,382.23h0s.02-.04.03-.06c-.01.02-.03.04-.04.06ZM225.97,381.17h-.01s.04-.01.07-.03c-.02,0-.04.02-.06.03ZM226.19,379.46c.1-.06.21-.12.33-.15-.14.05-.25.1-.33.15ZM228.13,452.59s.02-.03.03-.04c0-.01.01-.03.02-.05-.02.03-.03.06-.05.09ZM230.69,420.9h0s0,0,0,0c0,.01,0,.03.01.05,0-.01,0-.03,0-.04ZM232.66,423.38h0s0,0,0,0h0ZM237.39,421.84s-.03.02-.05.03c.03-.01.07-.03.1-.05-.01.01-.03.02-.05.02ZM237.84,421.61s.01,0,.02,0c0,0,0-.01.01-.01-.01,0-.02,0-.03.02ZM238.41,421.24s-.08.06-.11.09c-.03.02-.06.04-.09.06.03-.01.06-.04.09-.06.05-.03.1-.07.14-.11,0,0-.01,0-.03.01ZM238.74,452.38s-.06.07-.08.1c.04-.03.08-.08.11-.12,0,0-.01.01-.03.02ZM238.89,420.21s0,0,0-.01c-.02-.03-.04-.06-.06-.08.02.03.04.05.06.08.01.02.03.05.04.08,0-.02-.02-.04-.03-.06ZM238.96,420.38s0-.02-.01-.03c0,.02.01.03.02.06,0,0,0-.02,0-.03ZM239.5,464.4s-.06,0-.09.01c.06,0,.12,0,.18-.02-.03,0-.06,0-.09,0ZM239.86,464.37s-.06.01-.08.01c.03,0,.06,0,.1-.01h-.01ZM240.66,457.53s-.01-.01-.02-.02h-.03s.03.02.08.05h0s-.02-.03-.03-.03ZM240.69,457.55h0s0,0,0,0h0ZM240.82,457.65c.1.08.22.17.34.25-.12-.09-.24-.17-.34-.25ZM243.75,463.24s.07-.03.1-.04c.01-.01.03-.03.05-.03-.05.03-.1.05-.15.08ZM244.54,462.8s-.06.05-.1.07c.05-.02.09-.06.13-.08,0,0-.02.01-.03.01ZM244.91,457.31c.11-.22.24-.44.39-.63-.15.2-.29.41-.39.63ZM245.21,462.27s.06-.1.09-.14c-.03.04-.07.1-.09.14ZM247.26,232.73c.06-.1.13-.24.17-.35-.05.11-.11.24-.17.35ZM250.4,450.28s.02,0,.03,0h0s-.03,0-.03,0ZM250.47,450.28h-.02s.01,0,.03,0c0,0,0,0,0,0ZM251.23,450.39h-.02s.03,0,.03,0h0ZM262.09,330.38h0s0,0,0,0h0ZM262.24,329.24c.01-.1.03-.2.04-.31-.02.13-.03.24-.04.31ZM262.46,335.01c.03-.09.06-.19.08-.3-.03.13-.06.22-.08.3ZM263.5,359.74c.09.03.2.06.32.08-.11-.03-.23-.06-.32-.08ZM264.93,446.19l-.04.04c.06-.05.12-.1.18-.15-.05.03-.09.08-.14.11ZM268.2,545.01h0s.08.05.13.07c-.04-.02-.08-.04-.13-.07ZM274.34,543.84s.06,0,.08,0h.01s-.06,0-.09,0ZM279.49,542.83s.09-.01.13-.03c0,0,.01,0,.03,0,0,0,.02,0,.03-.01-.06.01-.13.03-.19.05ZM280.67,533.65s-.01.02-.03.03c.01-.01.03-.03.03-.03h0ZM281.03,532.16s0,.01-.01.02h0s-.01.02-.02.03c0,0-.01.02-.01.02h0s0,.02,0,.03c0,.02,0,.04,0,.06,0-.02,0-.04.01-.06.01-.03.04-.08.06-.1h0ZM282.13,532.06c-.12.04-.23.08-.35.13.23-.08.47-.15.7-.22-.12.03-.24.06-.36.1ZM283.16,533.13h-.04s.05,0,.08,0c-.01,0-.02,0-.03,0ZM283.28,406.57s0,.08,0,.12c0-.06.01-.11,0-.17,0,.01,0,.03,0,.05ZM284.24,303.05s-.03.01-.05.02h0s.09-.03.13-.05c-.03,0-.06.02-.08.03ZM286.17,524.53s0,0,.01.01h0s0-.01-.01-.01ZM289.38,533.72c-.08,0-.15.01-.23.01.08,0,.15,0,.23,0,.06,0,.12-.01.17-.03-.06,0-.11.01-.17.02ZM289.85,533.62h0s.02,0,.03,0c0,0-.02,0-.03,0ZM289.89,533.61h0s0,0,0,0ZM290.54,530.96c.06.04.1.08.16.13,0,0,.01,0,.02.01h.01c-.06-.04-.13-.09-.19-.14ZM291,528.92h0s.03.02.04.03c-.01,0-.02-.01-.03-.03ZM290.91,528.88s-.06-.04-.1-.06c-.01,0-.02,0-.03-.01.06.03.12.07.18.1-.01,0-.02-.01-.03-.02,0,0,0,0-.01,0ZM291.58,529.25s-.04-.02-.07-.03c0,0-.01,0-.02-.01-.03,0-.05-.02-.08-.03.08.04.14.08.2.1-.01,0-.02,0-.03-.02ZM291.64,529.29l.02.02s.03.02.05.02c-.01-.01-.04-.03-.07-.04ZM293.11,527.74s-.01.03-.01.04c0-.02.01-.04.02-.04h0ZM298.03,509.05c.06-.13.13-.26.22-.4-.08.15-.16.26-.22.4ZM298.6,508.2s.03-.04.06-.06c0-.01.02-.03.03-.04-.04.03-.07.06-.1.1ZM299.03,507.77s.1-.09.16-.13c0,0,0,0,0-.01-.06.05-.11.1-.17.15ZM299.21,507.62s0,0,0,.01c.06-.04.11-.08.16-.12-.05.03-.1.06-.15.1ZM307.2,352.93c-.13.16-.26.3-.38.41.12-.11.25-.25.38-.41,0,0,0-.02.01-.03,0,0-.01.02-.02.03ZM309.71,357.21s-.01-.01-.01-.02c-.06-.09-.11-.18-.17-.26.06.1.13.21.2.32,0-.01,0-.02-.01-.03ZM318.79,337.67s-.01-.04-.03-.06c.04.11.08.22.12.33-.03-.09-.06-.18-.09-.27ZM319.04,338.43c-.02-.06-.03-.11-.06-.16.03.1.07.21.1.31-.01-.06-.03-.1-.04-.15ZM319.34,490.61c.01.22,0,.51-.03.76.05-.24.06-.52.03-.76ZM335.25,471.05c.06-.12.13-.27.21-.45-.08.16-.15.31-.21.45ZM335.96,469.46s0,.02.02.04h0s-.02-.03-.03-.04ZM232.66,423.38h0s0,0,0,0h0Z"/>
    <path d="M298.6,508.2s-.02.02-.03.03c.03-.03.06-.06.09-.09,0-.01.02-.03.03-.04-.04.03-.07.06-.1.1ZM238.88,420.2h0s-.04-.06-.06-.08c.02.03.04.05.06.08ZM226.52,379.31c-.14.05-.25.1-.33.15.1-.06.21-.12.33-.15Z"/>
    <path d="M410.74,388.91v-.06c-.59-8.89-7.01-15.78-14.12-20.45-6.5-3.88-14.66-5.68-22.15-6.24-7.38.24-14.88,3.1-21.24,6.84-4,2.37-6.64,5.69-11.08,7.52-2.73,1.41-5.82,2.11-8.49,3.57-4.36,2.63-9.1,4.73-14.24,5.53-8.67,1.98-7.08-3.31-5.44-9.35.93-4.08-1.11-7.76-2.49-11.42-1.11-6.02.45-13.16,4.3-18.13,6.32-8.85,8.7-20.35,8.62-30.95.22-1.45,1.36-1.99,2.4-2.82,1.09-.88,1.14-2.56,1.58-3.9.73-2.36,1.26-4.78,1.64-7.21,2.29-5.43,6.35-10.82,6.66-17.04.58-4.79.21-9.56,1.9-14.2,2.66-6.22,2.95-11.42,1.27-18.06-.86-4.44-1.99-8.82-2.47-13.28-.83-3.76-.34-7.67-1.5-11.35-1.48-4.94-2.97-10.11-5.35-14.73-4.16-6.19-10.59-11.94-17.66-14.65-7.56-2.68-16.03-3.6-24.04-4.07-6.21.54-11.76,4.62-17.11,7.61-2.27,1.44-4.85,2.1-7.18,3.36-3.82,2.1-7.01,5.93-10.82,8.27-4.8,2.85-9.45,5.81-14.1,9.17-2.3,1.67-5.61,3.73-6.94,6,2.74-.21,7.06-4,10.06-5.25,2.35-1.25,3.77-1.78,3.41-1.23-5.25,4.69-12.31,8.27-17.61,13.08-2.68,1.98-5.48,5.78-8.54,6.67-.15-.83,1.27-2.75,1.33-3.77,0-.39-.46-.28-1.28.29-1.15.86-2.28,1.87-3.32,2.91-2.44,2.07-5.97,7.11-8.56,7.66-1.91-4.57,5.24-18.46,7.33-23.3,4.21-8.23,8.67-16.7,14.44-23.92,2.21-2.53,4.69-5.68,7.01-8.3,2.48-2.44,5.39-4.37,7.86-6.66,6.75-6.97,13.53-14.1,21.74-19.38,3.67-2.87,6.41-7.21,7.59-11.81.61-3.03-.54-5.68-1.64-8.5-1.81-4.7-3.29-9.54-6.44-13.62-4.52-6.56-10.5-12.36-17.72-15.73-9.4-3.2-9.79,6.17-7.6,12.75,5.7,19.98-9.97,41.9-16.98,60.21-6.86,15.81-13.69,32.53-18.05,49.14-1.65,6.09-3.03,12.73-5.04,18.69-1.45,4.01-3.71,7.98-5.11,12.08-2.37,7.1-5.43,13.59-6.62,21.01-2.23,10.33-2.22,20.89-1.66,31.38-.17,6.68-1.31,14.38,1.21,20.73,2.53,4.4,6.54,8.17,9.63,12.33,3.14,3.96,7.91,2.51,12.31,2.72,8.73,1.51,16.76-4.62,13.64-13.86-2.54-7.81-5.89-9.4,2.44-14.65,1.73-1.6,3.03-4.21,4.85-6.12,1.55-1.52,5.68-5.58,7.62-4.69-.24,2.99-3.31,5.93-4.73,8.66-3.48,5.63-8.01,11.62-7.38,18.59,1.76,9.95,1.94,10.59-7.22,15.55-4.26,2.41-8.56,5.11-13,7.05-3.61,1.5-7.58,2.67-10.65,5.29-12.02,8.98-6.91,28.66,9.24,26.35,6.9-.56,7.18-8.62,11.34-12.5,3.52-3.15,9.98-4.93,12.22-9.2,1.6-5.5-9.59.88-9.4-.7,3.17-3.79,7.74-5.08,11.83-7.81,5.65-3.04,11.05-6.71.31-3.45-2.08.24-17.29,7.74-15.73,3.27.99-3.02,3.62-4.87,6.09-6.76,4.21-3.87,10.19-5.2,15.04-7.93,4.38-3.77,8.27-5.85,8.09,2.09-.31,3.27-2.28,5-1.19,8.01.02,3.12-4.89,5.69-6.71,7.92-1.5,1.19-5.17,3.56-.62,2.45,3.13-.86,5.26-4.03,7.91-5.51,2.59.71,4.36,3.78,7.81,2.57,3.45-2.01,5.25-6.83,9.01-8.52,2.83-1.82,9.77-1.26,9.04,3.18-.84,2.12,4.25,1.32,6.43,3.58,5.24,4.2,8.24,11.72,6.32,18.21-3.66,7.3-14.33,3.82-19.23-.39-2.86-1.98-5.73-4.1-7.96-6.8-3.62-5.2-10.22-8.66-8.76.82.97,4.03.44,8.32,0,12.26.17,3.59.03,8.62-4.4,9.05-3.43-.59-5.08,5.22-7.77,2.74-.84-.98-1.79-1.64-3.11-1.18-1.69.42-4.37,1.25-6.35,1.76-3.36.95-6.84,1.07-10.13,2.26-4.64,1.95-8.93,2.96-13.87,3.87-10.58,4.21-21.74,6.91-32.64,10.47-12.66,4.95-25.35,9.8-38.57,13.11-5.42,1.78-11.21,2.19-16.91,1.94-6.36-.08-12.85.54-19.17.52-6.07.49-14.7-4.46-18.87,1.78-2.51,5.63-.15,12.49,3.55,17.06,2.77,3.29,6.44,5.08,9.85,7.63,4.54,3.82,7.39,9.78,12.91,12.4,8.27,3.25,21.22,4.42,29.39.37,5.15-1.99,8.48-6.7,12.91-9.77,3.38-2.17,7.14-3.57,10.68-5.5,11.58-5.88,23.39-11.12,35.44-15.84,5.28-1.98,9.71-5.59,14.92-7.61,5.69-3.68,5.3-2.08,11.2-3.91,4.1-1.43,6.8-5.52,11.23-5.79,2.08-.16,2.62-2.37,4.17-3.34,6.81-2.1,3.77,4.51,2.05,7.96-1.5,3.46-3.24,7.27-4.44,10.64-4.47,5.16-7.84,4.3-11.12,12.54-1.46,3.59-2.64,7.78-4.41,11.35-6.25,8.25-10.18,2.99-12.61,17.19-2.26,5.78-.72,10.58,5.66,12.43,4.85.79,10.02-.71,14.97,0,6.23-.38,13.1-5.04,17.57-9.24,6.4-7.94,15.39-12.2,24.78-15.64,7.61-3.9,15.4-6.84,23.56-9.38,3.64-1.02,20.56-9.11,17.8-.06-1.68,9.58-6.07,18.48-11.44,26.52-3.69,5.85-7.15,12.76-11.62,18.16-2.78,4.83-5.47,9.87-8.96,14.34-3.66,5.36-7.16,11.14-11.23,16.21-4.8,5.79-12.4,9.01-19.83,7.02-6.57-1.14-1.76,1.1-.01,3.29,0,.3-.4.29-.71.29-3.12-.11-6.13-1.94-9.18-1.94-1.61.2-1.94,1.39-3.68,1.31-2.91-.19-6.23-1.51-8.99-.55-.56.26-1.86.42-1.39,1.23,4.12,2.86,9.79,4.07,14.04,6.88,13.23,6.5,3.8,22.9,19.2,24.1,5.8-.42,9.93-5.82,14.18-9.32,4.27-4,8.46-8.25,8.53-14.38-.07-2.58,2.54-1.96,3.88-3.47,2.28-2.17,1.5-5.93,4.19-7.63,2.93-2.2,3.38-4.78,6.08-7.49,2.15-2.65,5.08-4.97,7.04-7.61.72-1.2.92-2.5,1.66-3.61.64-.9,1.67-1.46,2.05-2.54.7-2.06.52-2.26,2.77-2.76,4.11-1.77-3.86-3.24-3.32-4.83,1.04-1.52,4.85-.07,6.55-.78,1.27-.42,2.27-1.43.95-2.47-.58-.87-4.09-2.01-2.81-3.16,2.11-1,5.7,1.51,7.68-.03,1.39-1.3,1.54-3.42,2.83-4.71,1.26-.8,2.7-1.69,3.18-3.26.84-1.84,2.28-3.68,2.73-5.71,0-4.04,1.06-7,3.55-10.27,3.76-4.16,7.88-5.7,10.13-11.55,1.08-2.2,2.42-4.3,3.46-6.6,1.21-1.87,1.82-5.15,4.21-5.52,14.21-.78,7.09-14.3,3.23-22.2-4.26-6.53-11-11.94-17.33-16.37-4.82-2.56-11.79-2.89-16.33.29-4.77,4.37-1.82,11.18-9.58,13.38-6.15,2.19-12.5,4.1-18.61,6.43-1.39.16-20.05,8.8-16.07,3.75,4.9-3.45,3.31-4.03,5.35-8.98.67-2.01,2.98-4.33,3.5-6.24.48-2.75,1.43-5.5,3.25-7.91,1.69-2.92,4.95-5.4,6.03-8.7.47-2.62.81-5.16,3.5-6.02,7.91-2.74,16.56-1.94,24.66-4.47,3.27-.63,5.4-.44,8.44-.47,2.26-.26,4.89-.42,7.08-.23,3.4-.2,5.91-1.89,9.44-2.02,14.35-3.13,11.99,2.82,18.6,1.93,1.96-.42.64-2.65,2.39-3.02,1.75-.18,3.52,1.11,5.07,1.61,2.79.18,4.06-2.48,7.41-1.63,4.31.31,8.64,1.66,13.09,1.36,3-.31,6.07-1.12,9.03-1.16,8.39.42,19.49-5.69,17.52-15.34ZM339.03,255c.14.12.27.26.41.41l.04.06c.27.33.46.65.52,1.04-.02-.04-.1-.39-.38-.81-.25-.39-.73-.79-1.03-1.01.15.08.3.19.43.31ZM318.28,336.44c.03.07.07.15.1.22.04.09.08.17.12.26.03.06.05.12.08.18.07.17.14.35.2.52.04.11.08.22.11.33.04.1.07.22.1.32.01.06.03.1.04.15.01.05.03.1.04.15-.03-.1-.06-.21-.1-.31-.03-.11-.07-.22-.11-.33-.03-.11-.08-.22-.12-.33-.02-.06-.05-.13-.07-.19-.05-.13-.09-.24-.15-.36-.02-.06-.04-.1-.06-.16-.03-.06-.05-.11-.08-.16-.03-.1-.08-.19-.12-.27-.01-.03-.02-.06-.03-.09.01.02.02.05.03.07ZM199.13,269h0s0,0,0,0c0,0,0,0,0,0ZM227.86,379.15h.09s-.06,0-.1,0h0ZM227.77,379.16h.08s-.04,0-.06,0h-.1s.06,0,.08,0ZM225.97,381.17s.03-.02.06-.03c-.03.01-.05.03-.07.04h.01ZM221.94,382.1s.01-.03.03-.04c0,0,0-.02.01-.03,0,0,0,0,0-.01.02-.03.03-.06.05-.09,0,.03-.02.05-.03.08-.01.02-.02.04-.03.06,0,.02-.02.04-.03.06t-.01.01s0-.02.01-.03ZM221.87,382.23s.03-.04.04-.06c-.01.02-.03.04-.03.06h0s-.04.09-.06.13c.02-.05.04-.09.06-.13ZM220.39,382.42s.02-.01.03-.02c-.01.02-.03.03-.05.04,0,0-.02.01-.03.02.01-.02.03-.03.05-.04ZM220.25,382.51h0s.01,0,.03-.02h.03s-.03.01-.04.02-.01,0-.02,0h0ZM247.43,232.38c-.04.1-.11.24-.17.35.06-.1.13-.24.17-.35ZM247.17,232.88s.01-.03.03-.03c0,0-.01.02-.02.03-.01.02-.02.04-.03.06,0-.01.02-.03.03-.06ZM210.19,252.51s.03-.03.06-.06c.04-.04.08-.08.11-.12h0l-.12.12c-.09.1-.17.2-.26.29.06-.08.14-.15.21-.23ZM221.13,312.75l-.03.04c-1.5,1.79-3.14,3.7-4.68,5.61-1.13,1.2-3.02,4.07-4.79,2.8-.82-.63-1.52-2.21-2.31-3.89-.56-1.22-1.14-2.44-1.65-3.68-.67-1.63-1.23-3.46-1.63-4.44-.31-.78-.61-1.36-.7-.01-.08.97-.19,2.89-.39,3.83-.16.74-.43.86-.73.17-1.53-5.42-.44-14.5-.15-21.19.19-2.21-.15-5.65.8-7.35.81-.86,1.78,1.28,2.13,2.15.59,1.47,1.08,3.39,1.73,4.99.81,2.1,1.83,4.06,2.86,6.07,1.44,2.69,3.02,5.08,5.07,7.19,2.26,2.32,7.84,3.74,4.46,7.7ZM224.05,284.08h-.06c-4.65.67-7.61-3.54-11.76-4.53-1.43-.49-4.67.38-4.94-1.53-.17-2.54,1.18-5.33,2.24-7.65.91-2.05,2.16-3.91,3.41-5.76,1.77-2.6,3.41-5.07,5.27-7.61,2.53-3.32,5.64-6.05,8.33-9.19,3.07-3.33,5.6-7,9.08-9.91,1.84-1.46,4.8-3.72,6.56-4.22,2.79-.74,1.06,3.73,1.15,5.54-.06,1.08.01,2.18.24,3.22.77,3.75,4.3,6.37,5.33,10.04.77,2.64.69,5.66-.17,8.31-.49,1.4-1.29,2.54-2.19,3.71-4.41,5.43-9.07,11.11-14.61,15.41-2.34,1.84-4.88,3.78-7.88,4.18ZM231.77,304.05h0c-.12-.31.17-.86.58-1.69.43-.83,1.04-2,1.57-3.11,1.46-3.14,2.64-6.47,3.35-9.84.62-2.44.93-4.83,1.66-7.26,1.51-4.18,3.69-8.54,5.6-12.52,1.04-2.03,2.2-4.53,3.46-6.32,1.25-1.78,1.64-1.44,1.76.65.13,3.15.04,6.47.03,9.63,0,8.21-.08,12.26-5.61,18.78-1.95,2.34-4.23,4.6-6.41,6.7-1.04.87-5.22,5.53-5.98,4.97ZM249.7,298.36c-1.01,2.34-3.42,3.66-5.63,5.03l-.06.03c-.87.57-7.41,4.06-5.98,1.03.85-1.48,2.89-3.16,4.62-4.76,1.76-1.43,4.92-5.13,6.84-4.09.81.67.59,1.79.21,2.76ZM259.22,363.94h0c.13-.17.38-.08.61-.08-.22,0-.47-.08-.61.08ZM184.56,423.68s0,.03,0,.03c0,0,0-.04,0-.08v.05ZM202.82,433.48s0,0-.01,0c-.06.04-.13.08-.19.11-.01,0-.02.01-.03.01,0,0-.01,0-.01.01-.06.03-.12.06-.17.09l-.04.02s-.06.04-.1.06c-.04.02-.08.04-.11.06t-.01,0s.02-.01.03-.03c.05-.03.13-.07.22-.13.15-.08.33-.18.51-.29.05-.03.09-.06.13-.08-.07.06-.14.1-.21.15ZM203.11,433.27h0s.01-.01.02-.01c0,0-.01,0-.02.01ZM203.61,432.86s-.02.02-.03.03c-.01.01-.03.03-.05.04,0-.01.01-.02.02-.03.01-.01.03-.02.03-.03.01-.01.02-.03.03-.03h.02s-.02,0-.03.01ZM203.65,432.81s.03-.03.03-.04h0l-.04.04ZM203.77,432.69s-.04.05-.07.07v-.02s.01,0,.01,0c.03-.03.07-.06.09-.1.01,0,.02-.01.03-.02-.02.02-.04.05-.06.08ZM230.79,421.31s-.01-.08-.03-.13c0,0,0,0,0-.01,0-.04-.02-.09-.03-.13h0s-.02-.07-.03-.09h0s-.01-.05-.01-.06c0-.02,0-.03,0-.01,0,0,0,0,0,.01h0s0,0,0,0c0,.01,0,.03.01.04v.06c.05.08.09.3.11.43,0-.03-.01-.07-.03-.11ZM232.41,422.85c-.11-.17-.24-.36-.32-.46.03.03.06.06.08.09.09.1.17.22.25.33.1.15.17.31.21.46v.03c-.01-.09-.11-.27-.22-.46ZM232.66,423.39h0,0ZM228.78,451.68c-.13.17-.27.36-.4.54-.03.06-.08.12-.12.17-.03.06-.07.11-.11.16,0,.01-.01.03-.03.04.01-.03.03-.06.05-.09,0-.01.01-.03.03-.05.16-.29.42-.63.71-.95.04-.05.09-.1.14-.16-.09.1-.18.22-.27.33ZM229.66,450.75s0,0,0,0h0s-.06.05-.08.07c.02-.03.05-.05.07-.08.03-.02.05-.04.08-.06.02-.02.04-.03.06-.06h0s.08-.08.12-.11c.04-.03.08-.06.11-.09-.08.08-.22.2-.36.32ZM234.41,445.81s-.02.04-.03.06c.03-.05.06-.1.08-.15-.02.03-.03.06-.05.1ZM234.5,445.62l-.02.03s.02-.05.03-.08v.04ZM235.29,444.06s.03-.07.05-.1h0s-.04.07-.06.1ZM235.28,422.56c-.06.01-.13.03-.19.04-.01,0-.03.01-.04.01-.08.02-.16.04-.24.06h-.01c-.08.01-.17.03-.25.06-.08.01-.15.03-.22.04-.09.01-.17.03-.26.05-.11.01-.22.03-.32.05.02,0,.04,0,.06-.01.4-.07.84-.15,1.28-.26.1-.02.19-.05.3-.07-.03.01-.07.02-.1.03ZM235.88,442.86h0s0-.01,0,0c0,0,0,0,0,0ZM235.74,422.44s.07-.02.1-.04c.07-.02.15-.03.22-.06-.1.03-.21.06-.32.09ZM239.78,450.85h0s0,.03-.02.04l.02-.04ZM239.74,450.93s0,0,0,0c0,.02-.01.03-.03.06,0,0,0,.02-.02.03.01-.03.03-.06.04-.08ZM238.82,420.12s.04.05.06.08t0,.01c.03.06.06.11.07.17,0,0,0,.01,0,.03,0,.02,0,.05,0,.07,0-.04-.01-.08-.03-.13-.03-.1-.09-.18-.17-.26.01,0,.03.02.04.03ZM237.87,421.59s.02-.01.03-.02c.01,0,.03-.01.04-.02.06-.03.11-.07.17-.1,0,0,.02-.01.03-.02.01,0,.03-.01.03-.02.08-.05.16-.1.24-.17.01,0,.02,0,.03-.01-.04.04-.09.08-.14.11-.03.02-.06.04-.09.06-.03.02-.06.04-.1.06-.02.01-.05.03-.08.05-.06.03-.12.07-.17.1,0,0-.01,0-.02,0,.01-.01.02-.02.03-.02ZM237.39,421.84s.03,0,.05-.02c-.03.02-.06.03-.1.05.01,0,.03-.01.05-.03ZM238.66,452.48s.06-.06.08-.1c.01,0,.02-.01.03-.02-.03.04-.07.08-.11.12ZM239.78,464.38s-.06,0-.09,0c-.03,0-.06,0-.09,0-.06.01-.13.01-.18.02.03,0,.06,0,.09-.01.03,0,.06,0,.09,0,.03,0,.07,0,.1-.01.05,0,.1,0,.16-.01h.01s-.07,0-.1.01ZM240.69,457.56s-.06-.05-.08-.06h.03s.01.02.02.03c0,0,.02,0,.03.02h0s0,0,0,0ZM240.82,457.65c.1.08.22.16.34.25-.12-.08-.24-.17-.34-.25ZM241.77,458.86v-.03s0-.01,0-.02c0,.01,0,.03,0,.05ZM245.3,456.68c-.15.2-.28.41-.39.63.1-.22.24-.44.39-.63ZM244.77,462.65c-.06.05-.13.09-.2.13-.04.03-.08.06-.13.08-.03.02-.06.04-.1.06-.03.01-.06.03-.09.06-.06.03-.13.07-.2.1-.07.04-.14.08-.21.11-.03.01-.06.03-.1.04.04-.03.1-.05.15-.08.07-.03.14-.07.21-.11.08-.04.15-.08.22-.13.08-.04.15-.09.22-.13.14-.09.28-.19.41-.29-.06.05-.12.09-.18.14ZM245.21,462.27s.06-.1.09-.14c-.03.04-.06.1-.09.14ZM251.23,450.39h0s-.01,0-.03,0h.02ZM250.44,450.28s-.03,0-.03,0h.03ZM250.48,450.29s-.02,0-.03,0h.02s.03,0,.04,0h-.03ZM255.68,450.07c.4.21.88.17,1.38-.01-.49.19-.98.23-1.38.01ZM258.31,438.84s-.05-.03-.08-.03c.03,0,.06.02.08.03.13.05.26.1.38.15-.13-.05-.25-.1-.38-.14ZM268.47,545.15c-.06-.03-.1-.05-.15-.08-.05-.02-.09-.04-.13-.07h0s-.05-.02-.07-.04c.03.01.05.03.08.04h0c.08.04.16.08.25.13.04.03.09.05.13.07-.03-.01-.08-.03-.11-.05ZM271.42,545.19s-.11.09-.2.15c-.03.01-.06.03-.08.05s-.06.03-.09.06l-.07.04c-.08.04-.15.09-.24.13t0,0c-.07.03-.14.06-.2.08,0,0-.02,0-.03,0-.36.08-.54.06-.41.06.13-.01.25-.03.38-.08.22-.08.47-.22.67-.36.31-.21.41-.25.27-.13ZM274.15,535.53s0,.06,0,.08v-.08s0-.09,0-.15v.15ZM274.41,543.84s-.05,0-.08,0c.03,0,.06,0,.09,0h-.01ZM290.03,524.2h0,0ZM286.18,524.54h0s0,0-.01,0c0,0,0,0,.01,0ZM281.84,531.15s.01-.01.03-.02c-.01.01-.02.02-.03.03h0ZM281.08,532.09s.03-.03.03-.03c0,0-.02.02-.03.04h0s0,0,0-.01ZM280.97,532.26s0-.01,0-.02h0s0-.02.01-.03c0-.01,0-.02.02-.03h0s.01-.02.01-.03h0s-.04.08-.06.1c0,.02-.01.04-.01.06,0-.02,0-.04,0-.06ZM280.67,533.65h0s-.02.02-.03.03c.01-.01.02-.03.03-.03ZM276.57,549.16s0,.02,0,.02c-.01-.01-.03-.07-.06-.16l-.02-.06c-.02-.08-.05-.2-.05-.31,0-.13.07-.24.13-.33-.02.05-.04.1-.05.17,0,.19.06.44.06.61,0,.02,0,.03,0,.05ZM277.13,530.22s-.02,0-.03,0c0,0-.02,0-.03.01-.01,0-.03.01-.04.01.02,0,.04-.01.06-.03h.02s.02-.01.03-.01c0,0,0,0,0,0ZM277.14,530.21s.03-.01.04-.02c.01,0,.02-.01.03,0-.03,0-.05.01-.08.03ZM279.81,542.76c-.06.01-.11.02-.16.03-.01,0-.02,0-.03,0-.04.01-.09.02-.13.03.06-.01.13-.03.19-.05h0c.07-.02.15-.04.23-.06-.03.01-.07.02-.1.03ZM280.09,542.68s-.06.01-.09.02c.03-.01.06-.02.1-.03h0ZM281.86,536.59c-.06,0-.13.01-.2.02-.03,0-.06,0-.1.01-.15.01-.3.03-.45.04-.47.06-.97.12-1.46.22-.65.13-1.29.31-1.8.57.62-.35,1.56-.56,2.35-.69h.08c.63-.11,1.18-.15,1.65-.19-.02,0-.05,0-.08.01ZM281.78,532.18c.1-.05.23-.09.35-.13.08-.03.15-.05.22-.07.04,0,.09-.01.13-.03-.24.07-.47.14-.7.22ZM283.01,533.13h-.1s.07,0,.11,0c.02,0,.03,0,.06,0h-.06ZM283.19,533.14s-.06,0-.08,0h.09s-.01,0-.01,0ZM285.19,536.34s0-.05,0-.07h0v.07ZM286.64,531.75c-.07-.05-.16-.1-.27-.17-.08-.04-.16-.08-.26-.12l-.05-.02c-.06-.02-.12-.04-.18-.06-.43-.11-.86-.07-1.36.04-.1.02-.2.04-.31.07-.43.13-.85.22-1.25.33,1.23-.36,2.67-.93,3.7-.07,0,0,.02.01.03.03-.01,0-.03-.02-.06-.04ZM288.16,533.79s-.07.02-.1.03c.03-.01.07-.02.1-.03.01,0,.03,0,.05,0-.01,0-.03,0-.05.01ZM288.34,533.74s-.03,0-.06,0c.02,0,.04,0,.06-.01.02,0,.04,0,.06,0-.02,0-.04,0-.06.01ZM289.52,533.72s-.09.01-.14.01c-.08,0-.15,0-.23,0,.08,0,.15,0,.23-.01.06,0,.12-.01.17-.02,0,0-.02.01-.03.01ZM289.71,533.67s-.02,0-.03,0c-.01,0-.03,0-.06,0,.04,0,.08-.02.12-.03.01,0,.03,0,.04,0-.03.01-.06.02-.08.03ZM289.85,533.63s-.03,0-.06.01c.02,0,.04-.01.06-.02,0,0,.02,0,.03,0,0,0-.02,0-.03.01ZM289.9,533.61h0,0s.02-.01.03-.02c-.01,0-.02.01-.03.02ZM290.02,533.56s-.02,0-.03.01h0s.05-.02.08-.03l-.04.02ZM290.74,531.12s-.02,0-.03-.01c0,0-.01-.01-.02-.01-.06-.04-.1-.08-.16-.13.06.05.13.1.19.14h.01s0,.01,0,.01h0s0,0-.01,0ZM290.73,528.77s.06.03.08.05c.03.01.06.03.1.06,0,0,0,0,.01,0,.01,0,.02.01.03.02-.06-.03-.13-.06-.18-.1-.01-.01-.03-.03-.05-.03ZM291.03,531.3s-.01,0-.02-.01-.02,0-.03-.01c-.01,0-.03-.01-.04-.03-.01,0-.02-.01-.03-.02h0s-.02-.01-.03-.01c-.01-.01-.02-.02-.03-.03.01,0,.02.01.03.02s.02,0,.03.01c0,0,0,0,0,0h0s.01,0,.01,0c0,0,0,0,.01.01,0,0,.02,0,.03.01.01,0,.03.01.04.03,0,0,.01,0,.02,0h0ZM291.26,531.41s-.04-.01-.06-.03c0,0-.01,0-.02-.01.01,0,.02,0,.03.01.07.03.13.06.2.08-.05-.01-.1-.03-.15-.06ZM291.41,529.17s-.08-.04-.13-.07c-.08-.04-.17-.1-.25-.15-.01,0-.03-.01-.04-.03h0c.06.03.11.07.17.1h0c.08.04.15.08.22.13.03.01.06.03.09.05,0,0,.01,0,.02.01.03.01.05.02.07.03.01.01.02.02.03.02-.06-.02-.13-.06-.2-.1ZM291.66,529.31l-.02-.02s.06.03.07.04c-.01,0-.03-.01-.05-.02ZM293.12,527.74s-.01.02-.02.04c0,0-.01.01-.02.03.01-.03.03-.05.03-.07,0-.01.01-.02.01-.02,0,0,0,.01,0,.02ZM298.66,508.14c-.37.41-.59.86-.63.91.06-.13.13-.26.22-.4l.03-.04c.04-.07.1-.14.15-.21.05-.06.1-.12.15-.17,0-.01.02-.03.03-.03.03-.03.06-.06.1-.1-.01.01-.03.03-.03.04ZM298.73,508.07s.04-.05.06-.07c.03-.03.06-.06.08-.08-.05.05-.1.1-.15.15ZM299.36,507.52s-.1.08-.16.12h0c-.06.04-.11.08-.16.13.06-.05.11-.1.17-.15h0c.06-.04.1-.08.15-.1.02-.03.05-.04.07-.06.08-.06.17-.11.25-.15-.09.06-.2.13-.32.21ZM335.99,469.5h0s-.02-.03-.02-.04c0,.01.01.03.03.04ZM335.46,470.61c-.08.17-.15.33-.21.45.06-.13.13-.29.21-.45ZM319.34,490.61c.03.24.01.52-.03.76.04-.25.05-.54.03-.76ZM318.31,489.52h.06c.17.01.31.13.4.27.08.11.15.23.19.34.02.04.03.07.05.1-.03-.03-.08-.13-.17-.26-.2-.28-.38-.36-.56-.31-.06.01-.12.04-.18.08-.14.1-.27.28-.38.48-.04.08-.07.12-.08.12,0-.16.36-.86.67-.84ZM308.2,507.76c.19-.21.39-.4.6-.54-.2.19-.52.46-.79.75.06-.08.13-.15.2-.21ZM265.82,445.58c-.1.06-.22.13-.32.19-.13.08-.29.19-.43.3-.06.06-.13.1-.18.15l.04-.04s.09-.08.14-.11c.22-.18.47-.35.75-.49.52-.31,1.11-.56,1.57-.72l.05-.02c.26-.1.45-.19.58-.24-.65.31-1.43.56-2.19.98ZM283.29,406.52c0,.06,0,.11,0,.17,0-.03,0-.08,0-.12,0-.06,0-.13,0-.19,0,.03,0,.06,0,.08,0,.02,0,.03,0,.06ZM289.67,230.07l.03.06c.08.15.17.35.23.55-.01-.05-.03-.1-.06-.15-.1-.23-.17-.39-.23-.5.01.01.03.03.03.05ZM264.07,224.14h.02c.52-.25,1.45-.17,2.1-.09,1.2.16,2.62.54,4.08.85,1.59.33,3.22.58,4.78.75,1.38.15,2.86.17,4.17.2,1.37.04,2.78.1,3.83.85.84.6,1.02,1.69.52,2.57-.75,1.48-3.25,2.42-4.95,3.07-2.1.8-4.16,2.07-6.35,2.52-3.02.62-4.3-2.48-5.82-4.67-.86-1.28-1.71-2.67-2.23-3.74-.59-1.25-.87-1.92-.17-2.31ZM273.47,287.15l-.02.03c-.67,1.23-1.95,2.68-3.33,3.33-1.34.68-3.17.8-3.8-.81-.81-1.89-.06-4.87.22-7.02.24-1.67.22-3.33.56-4.16.81-2.15,3.92,1.7,4.62,2.57,1.36,1.79,2.99,3.99,1.74,6.06ZM275.06,302.36c1.43-.38,5.1-1.28,6.07-.03.24.77-.56,1.5-1.65,2.69l-.04.05c-2.02,1.94-3.84,4.06-5.85,5.69-.99.78-2.16,1.46-3.46,2.21-1.11.54-4.32,2.82-5.23,1.66-.36-.5-.24-1.62.06-2.97.36-1.62.91-3.25,1.88-4.6,1.92-2.69,5.05-3.75,8.22-4.69ZM262.1,330.39h0s0,0,0,0h0ZM262.24,329.24c0-.08.02-.19.04-.31-.01.11-.03.22-.04.31ZM262.46,335.01c.02-.08.05-.17.08-.3-.03.11-.06.21-.08.3ZM263.5,359.74c.09.02.21.05.32.08-.12-.02-.23-.05-.32-.08ZM264.28,329.7v-.06c.31-2.24.7-4.32,1.2-6.38.13-.71.17-1.44.35-2.12.45-1.5,1.35-2.94,2.43-4.1,1.34-1.3,3.11-2.61,4.91-3.11,1.21-.29,3.03-.19,3.66,1,.44,1.03-.63,2.28-1.26,3.04-.38.46-.65.79-.46.99.15.17.61.23,1.23.31,1.24.13,2.97.54,3.45,1.83,1.46,4.88-5.61,10.91-8.98,13.83-5.96,5.34-7.61.93-6.53-5.22ZM306.35,353.75h0s.03-.02.03-.03c0,0-.02.01-.03.03ZM307.2,352.93c-.13.16-.26.3-.38.41.12-.11.24-.25.38-.41,0,0,.01-.02.02-.03,0,0-.01.02-.01.03ZM309.53,356.92c.06.08.11.17.17.26,0,0,0,.01.01.02,0,.01.01.02.01.03-.07-.11-.13-.22-.2-.32ZM309.75,357.3s0-.02-.01-.03c.01.02.02.03.03.06-.01,0-.01-.01-.02-.02ZM310.3,358.23s-.03-.05-.04-.07c0-.01,0-.03-.01-.03,0,.01.02.03.03.04.02.03.03.07.06.1,0-.01-.01-.03-.03-.03ZM310.41,326.97c-1.11,5.12-2.81,10.15-4.2,15.17-.71,2.74-1.43,5.61-2.06,8.34v.05c-.3,1.46-1.25,4.5-2.65,2.18-2.26-4.42-.9-8.88-6.71-11.34-1.87-.7-3.89-1.17-5.85-1.42-1.96-.2-3.95.52-5.7,1.55-1.1.67-2.21,1.6-3.43,2.42-1.2.83-2.47,1.58-3.59,2.5-1.53,1.16-3.23,2.95-4.69,3.72-2.55,1.25-6.71,1.46-6.85-2.28-.13-3,2.92-4.72,5.27-6.05,5.06-2.92,10.01-6.45,15.11-9.22,4.65-2.62,5.94-1.95,10.78-1.95,3.59-.3,3.69-2.79,5.08-5.39,1.18-2.18,2.71-4.48,4.27-6.67,1.85-2.99,2.01-5.7-.95-7.8-1.59-1.2-3.43-2.28-5.14-3.36-1.86-1.21-5.4-3.04-6.12-4.7-.54-1.41,3.06-1.66,4.82-2.48,5.38-1.85,6.04-7.45,8.44-11.95.86-1.8,1.66-3.93,2.45-5.61.54-1.17.66-2.43.84-3.64.15-.93.31-1.94-.12-2.8-1.46-2.71-6.13-1.69-8.77-1.78-3.88.25-7.45.31-11.19,1.13-3.27.78-6.7,1.37-9.74-.29-2.21-1.19-5.29-3.14-4.98-5.92.29-1.76,1.85-3.19,3.05-4.47,2.31-2.33,4.45-5.22,7.83-5.61,3.65-.54,7.97-.21,11.02-2.74,3.22-2.22,4.26-7.07,8.48-7.54,4.21.06,5.84,8.05,6.46,11.25.44,2.26.52,4.4,1,6.74.36,1.62.91,3.16,1.52,4.69,2.08,4.54.86,7.29.46,11.95-.49,5.75-1.15,11.44-2.1,17.14-.49,2.83-.48,5.79-.85,8.53-.38,2.57-1.09,5.07-1.16,7.66-.13,3.38.84,6.65-.04,10ZM284.19,303.08h0s.03-.01.05-.03c.15-.07.29-.14.44-.21.21-.11.41-.22.59-.35-.11.08-.23.17-.36.24-.1.07-.3.16-.54.26-.01.01-.03.02-.05.03-.04.02-.09.03-.13.06Z"/>
    <polygon points="335.99 469.5 335.99 469.5 335.99 469.5 335.99 469.5"/>
    <path d="M313.96,509.01c.11-.01.08,0,0,0h0Z"/>
    <path d="M259.88,541.42s.01.17.01.19h0s-.02-.21-.01-.19Z"/>
    <path d="M259.91,541.83s0,.1,0,.11v.02s0-.09,0-.13Z"/>
    <path d="M233.87,430.26h.06c1.44-.37.74-1.98-.58-1.55-1.29.34-.57,1.74.52,1.55Z"/>
    <path d="M328.62,485.4h-.04c-1.04.23-2.82,1.51-3.48,2.57-.85,1.17-1.36,3.74.84,2.94.59-.22,1.23-.65,1.71-1.1,1.08-.8,2.53-4.64.97-4.41Z"/>
    <path d="M324.71,491.23c-.35.03-.7.18-.96.41l-.04.04c-.43.35-.41.95.08,1.2.38.23,1-.01,1.35-.38.54-.48.5-1.35-.42-1.27Z"/>
    <path d="M323.68,492.98c-.8-.49-2.29-.22-2.03.99v.07c.08.42.27.85.59,1.1.55.42,1.68.51,2.07-.16.26-.54-.01-1.61-.63-1.99Z"/>
    <path d="M303.05,328.02c-.74.12-1.61-.72-1.45-1.25.31-.79,1.55-.75,2.09-.23l.04.04c.62.56,0,1.37-.68,1.44Z"/>
    <path d="M269.72,285.77c-.07.66-1.54.55-1.71-.1v-.05c-.1-.45.3-1.04.79-1.08.56.01.92.72.92,1.22Z"/>
  </g>
</svg>