<?xml version="1.0" encoding="UTF-8"?>
<svg id="Layer_1" data-name="Layer 1" xmlns="http://www.w3.org/2000/svg" viewBox="0 0 1080 1080">
  <defs>
    <style>
      .cls-1 {
        font-family: NotoSansTC-Bold, 'Noto Sans TC';
        font-size: 70.6px;
      }

      .cls-1, .cls-2 {
        font-weight: 700;
      }

      .cls-2 {
        font-family: Copperplate-Bold, Copperplate;
        font-size: 154.55px;
        letter-spacing: .04em;
      }
    </style>
  </defs>
  <g>
    <g>
      <path d="M617.03,630.68c-.22.13-.64,1.25-.34,1.46.21.14.49.26.69.37.08.04.14.05.15.02.01-.39-.14-1-.22-1.4-.09-.34-.17-.51-.26-.46l-.03.02Z"/>
      <path d="M799.41,597.91c3.91,6.57,5.91,14.52,12.55,19.11,8.47,6.05,19.99,3.47,22.41-7.48,2.28-12.6,1.78-25.65,1.98-38.48,0-1.61-.37-3.05-.62-4.57.26-2.36.31-4.4.77-6.75.3-25.36,1.87-50.84,3.54-76.11.31-7.88-4.08-15.29-9.52-20.66-6.39-7.52-17.36-5.97-26.06-2.72-21.99,5.42-32.17,28.4-40.77,47.11-.71,1.64-1.17,1.16-1.16-.4-.43-9.93,3.46-19.18,7.88-27.78,3.39-9.71,8.75-16.55,17.74-21.7,9.41-7.65,21.83-11.91,31.04-18.59,2.25-.89,3.42-3.04,5.23-4.47,2.06-1.81.89-5.05,1-7.49.09-9.37-14.22-7.27-6.32-12.55,4.98-3.32,10.79-5.03,15-9.34,6.73-4.15,15.39-11.18,15.82-19.59-.21-8.87-8.52-15.5-16.75-17.48-12.77-3.39-25.3,2.64-36.86,7.54-17.51,10.3-33.3,23.93-43.01,41.95-4.13-8.89-3.38-22.4-12.26-29.11-3.41-.74-6.65-2.67-10.2-3.51-5.99-.04-4.83,5.31-3.33,9.2,2.57,10.73.47,22.02.42,32.89-.5,4.17-1.6,8.32-.59,12.52,3.07,12.73,6.23,26.58,17.29,34.75,2.55,3.25,5.84,6.63,9.52,8.57,1.1.51,2.2,1.36,1.53,2.69-5.12,10.84-6.18,22.93-8.73,34.49-1.42,13.39-2.31,29.76-3.13,42.76-.45,5.23-1.43,10.41-1.55,15.65-.4,5.69,1.01,11.29,1.83,16.86.16,1.36-.61,2.3-1.78,2.85-7.61,3.71-14.99,8.13-22.75,11.26-1.56.73-8.29,3.06-7.43-.49.24-9.51.69-19.7,1.57-29.14.56-13.04.27-31.13.42-44.77-.6-6.79-3.17-13.51-5.23-20.09-4.55-10.3-17.39-14.18-27.57-10.08-5.08,2.74-9.5,7.15-13.98,10.76-3.01,3.65-6.61,7.34-9.07,11.31-2.89,4.94-6.1,9.78-8.3,15.22-.93,2.14.02,2.21,1.46.95.07,0,.08.05.07.12-.07,1.77-2.09,1.75-3.12,2.58-3.48,6.51-5.72,13.96-8.49,20.86-2.78,5.79.43-18.83.32-19.9-.19-.69-.95-.09-.88-1.32.24-2.19.66-4.16,1.49-6.15,9.31-25.43,14.01-26.27,33.55-42.07,8.29-6.95,14.06-8.06,23.32-10.49,10.04-1.02,21.26,5.78,30.83.47,16.29-10.6,1.18-27.95-13.81-27.38-5.67.43-9.59,3.84-15.22,5.48-3.79,1.23-9.85,4.55-5.23-1.63,3.67-5.3,5.73-11.6,8.37-17.47,2.28-6.97,5.46-15.61.62-22.17-4.78-5.12-13.34-8.37-19.72-4.24-3.37,1.11-6.34,3.3-9.01,5.59-1.25,1.68.68,1.84-2.19,4.26-1.09,1.17,1.01-.05,1.52-.14,2.56-.79,4.69.71,7.24.61,1.86.24,5.41-.34,5.31,2.4.23,4.29-3.32,7.72-5.55,10.97-7.34,10.86-14.8,22.03-24,31.37-1.93,1.6-3.06-9.87-2.87-11.04.73-4.05,2.11-8.11,3.55-12.04.34-.7.12-1.61-.2-2.04-.04-.14-.07-.28-.05-.43.19-1.06,1.4-2.13,1.74-3.16.31-.8-.44-.46-.74.06-2.39,3.44-5.81,8.65-8.21,11.92-.34.41-.79.92-1.33.81-6.67-9.21-2.96-26.44,5.19-34.15,1.78-1.95,3.79-3.28,6.29-4.23,4.48-2.42,8.92-4.59,13.69-6.2,5.71-4.17,12.48-8.02,18.85-10.98,5.6-2.42,12.62-.49,17.68-4.33,2.63-2.27,4.66-6.6,4.59-9.21-1.51-5.84-5.62-10.98-9.47-15.51-4.79-4.15-11.39-5.23-17.53-5.94-3.43-.69-2.82-5.32-4.07-7.87-.62-2.31-2.71-3.91-3.95-5.9-2.66-7.04-6.84-13.13-12.91-17.7-20.57-17.23-42.38-17.01-29.2,15.2.08,4.1,1.37,3.35,2.82,6.49,1.42,3.15,1.63,6.53,1.76,9.97.61,3.15,1.22,5.72.16,8.97-1.89,14.55-8.77,13.99-19.83,20.08-11.71,5.87-26.14,11.53-38.57,15.47-3.76.94-7.52,2.13-11.47,1.81-2.06-.08-4.47-.71-6.33.33-2.49,2.05-2.01,7.68-1.11,10.5,1.37,2.33,4.1,4.02,6.21,5.73,5.53,3.72,12.66,6.91,19.58,6.9,4.71.29,10.52,1.09,15.33.17,6.28-1.35,14.29-4.85,20.63-7.28.64-.19,1.65-.66,1.69-.17-4.18,9.71-8.7,21.46-8.72,32.63-.84,9.92,4.52,18.25,11.6,24.56,4.43,3.46-3.99,5.37-6.08,7.35-.87.43-5.55,3.36-3.56,3.25.78-.28,2.08-1.45,3.17-1.59,1.53.03-7.32,6.13-8.02,3.62-.83-.68-2.55.72-2.81,1.34.11.48,1.12.21,1.36.58-2,2.94-6.86,4.01-9.86,5.85-1.87,1.09-3.95,1.91-6.11,1.52-2.64.14-4.59,2.78-6.23,4.53-2.4,2.33-5.64,4.38-8.33,6.48-1.16.86-1.09,2.1-2.32,2.34-7.32,3.51-13.12,10.07-20.72,13-3.38.05.71,1.28-5.11,3.96-.69.07-.82-.82-1.8-.28-2.83,1.76-6.11,3.87-9.06,6.06-6.18,5.25-13.12,9.64-20.14,13.67-8.74,5.22-17.71,12.07-27.84,5.07-.88-.32-1.65-.89-2.45-.4-.75.55-.92,1.72-1.28,2.55-3.31,5.36-1.37,12.29,2.7,16.65,4.26,5.36,12.27,8.15,18.85,7.73,3.77-.52,7.38-3.17,10.32-5.34,13.12-8.97,23.2-22.33,37.44-29.68,1.95-1.11,4.95-3,6.62-4.1.83-.79-.04-1.38.84-2.33,2.57-2.51,5.93-3.81,8.43-6.05,1.16-.79,1.46-1.31,1.88-2.6.93-1.42,2.39-3.03,3.38-4.21.61-.83,7.82-3.74,6.14-5.06-1.99,1.3-3.82,2.63-6.17,3.55-1.77.46-3.33,1.23-4.4,2.76-1.44,1.54-3.87,2.23-5.83,2.51-.11-.72,3.46-2.94,3.39-3.68-1.04-.19-2.21,1.01-3.18,1.15-.93.04.46-.89.75-1.21,3.55-3,7.58-5.31,10.96-8.32.97-.41,1.74.14,2.66-.05.89-.07,5.33-3.03,3.71-.54-.43.64-1.68,1.4-1.31,2.18.3.22,1.27-.04,1.53.17.38.38-.21,1.17.08,1.51.64-.28,1.01-1.18,1.59-1.6.65-.87,2.17.49,2.27-.45,0-.44-.3-1.19.19-1.44,4.95-.26,2.5-2.5,6.45-4.01.71-.04-.68,1.74-.46,1.97,1.79-.14,2.2-2.28,2.64-3.69.29-.91,2-1.11,2.15-.06.05.64-1.43,1.77.1,1.47.89-.31,2.52-.85,3.24-1.65.23-.48-1.07-.92-1.08-1.36.08-.57.96-.69,1.39-.99,1.45-.9,1.9-1.43,2.9-.26.64.28.82-.83,1.09-1.24.5-1.22,1.56-1.43,2.71-2.05,1.53-1.08,3.08-1.6,4.84-2.4,1.22-.95,3.07-1.24,4.37-1.34,2.4-1.98,4.61-2.37,7.49-3.73,1.54-.9,3.03-2.24,4.67-2.85,6.07-1.65,2.11,1.58.05,3.78-3.95,4.95-7.7,10.34-10.61,15.91-14.19,26.1-15.52,69.69-11.77,98.83,1.92,8.37-.34,17.87,2.69,26.04,1.67,3.56,3.65,7.1,6.41,9.94,2.7,3.85,5.25,8.04,9.16,10.84,5.1,3.67,15.26,2.89,19.46-1.99,3.65-3.51,4.52-8.49,3.54-13.23-.53-6.45,7.88-5.3,10.66-9.78,2-2.43,4.76-4.39,7.14-6.54.53-.3,1.1-1.11,1.21-.22-.6,11.67,6.88,13.91,16.71,15.99,11.04,1.6,11.43-14.56,13.92-22.03,1.46-6.68,9.39,1,23.77-8.16,7.51-3.39,13.56-11.12,22.1-11.93.78.35-.36,1.21-.67,1.64-3.35,3.51-6.74,7.3-10.84,9.92-5.71,3.68-10.62,8.64-17.13,11.03-3.15,1.4-11.93,2.41-8.59,7.6.57,1.18,1.38,2.19,2.7,2.57,5.32,2.79,3.03,2.42,9.56,2.18,8.37-.36,14.63-7.13,21.3-11.5,8.44-5.73,16.9-12.13,24.11-19.26,2.34-3.76,4.76-7.11,7.19-10.83,1.05-1.33,2.95-1.67,3.53-3.33.95-2.79,3.75-4.09,5.6-5.97,3.41-14.74,1.28-7.64,8.3-.12l.05.07ZM552.61,546.27c-.29-.12.37-.65.36-.69-.02.1-.62.53-.36.69h0ZM553.19,546.32c.12-.15.93-1.14.95-1.17-.26.32-.7.86-.95,1.16h0ZM554.15,545.15c-.12-.01-.31-.04-.49-.06.18.02.37.04.49.06h0ZM571.57,545.34c-.35.14-1.05.65-1.45.66.1.06.18-.03.39-.12.19-.08,1.15-.57,1.08-.54h-.02ZM576.15,531.06c-.02.26.1.5.31.52-.21-.02-.32-.25-.31-.52ZM577.15,528.69l.05.63-.05-.63h0ZM577.03,530.35c.22,0,.38.11.42.27-.04-.16-.2-.27-.42-.27ZM578.82,529.69c-.38.03-1.09.09-1.5.12-.11,0-.09,0,.07,0,.35-.03,1.11-.09,1.44-.12h0ZM591.67,526.89c.04-.13.54-1.53.62-1.64.22.01.5.39.7.52q.23.2,0,0c-.2-.14-.46-.45-.67-.53-.17.17-.62,1.6-.65,1.66v-.02ZM592.56,526.84s-.14.05-.24.07c-.09.02-.05.02.06-.01.24-.06.64-.32.82-.42.05-.03-.56.31-.62.35h-.03ZM600.45,521.15c-.38,2.01-2.17,3.42-4.14,3.34-.33,0-.7-.05-.29-.41.31-.29.76-.64,1.08-.94.31-.27.33-.54.3-.83-.03-.24.01-.41.29-.37.35.02.8.31,1.13.17.21-.14.2-.47.3-.69.09-.46,1.15-.73,1.32-.32v.06ZM602.55,518.64c1.23-.4,2.98-.69,4.24-1,.05,0,.07,0,.06,0-.26.12-4.97,3.27-5.45,3.38.23-.52.82-1.87,1.12-2.36l.03-.03ZM623.16,511.08c-4.31,2.25-8.72,4.43-12.46,7.48-.89.81-2.07.83-3,1.52-1.32,1.09-3.13,1.74-5.27,2.21-.4.08-2.05.47-1.17-.03,1.77-.97,7.85-4.27,9.81-5.35.21-.11.44-.27.53-.46.16-.32-.12-.68-.65-.77-.79-.16-1.81.52-2.49.79-.43.19-.58.16-.37-.17,1.41-2.35,4.63-2.88,6.62-4.43.99-.59,1.92-1.63,3.11-1.62.68.12.24.77-.55,1.14-.95.45-1.74,1.07-2.8,1.79-.53.39-3.25,2.04-2.06,2.24.92-.06,1.96-.89,2.85-1.32,2.52-1.32,6.81-4.37,9.66-4.62,1.74-.09-.66.98-1.69,1.54l-.08.04ZM625.33,508.23c-.09-.1.27-.14.72-.32.84-.28,3-1.03,3.45-1.16.03,0,.04.01.03.04-.12.22-.4.5-.6.71-.92,1.04-2.32,1.65-3.57.75l-.03-.03ZM622,508.58c.17-.95,1.18-1.65,2.13-1.6.39,0,.65-.14.77-.48.18-.68.34-1.33,1.13-1.53.57-.21,1.33-.33,1.97-.43.72-.08,1.38-.3,1.65-.02.25.21.25.66-.04.82-1.05.5-4.85,2.21-6.5,2.97-.68.29-1.11.6-1.11.3v-.04ZM630.34,505.73s-.03-.03.01-.07c.4-.28,2.4-1.6,2.92-1.95.18-.12.31-.14.55-.15.33-.02.96-.09.98,0,0,.12-.23.25-.34.35-1.44,1.09-2.44,1.79-4.08,1.82h-.04ZM636.76,587.84c-.2-.16-.49-.42-.68-.63.12.14.58.55.7.65l-.02-.02ZM636.81,585.83c-.13.12-.44.42-.55.53q-.08.08,0,0c.1-.1.47-.46.56-.54h0ZM636.68,585.51s.07-.95.09-1.19c-.03.2-.02.93-.09,1.19h0ZM636.87,583.06c-.43.4-1.53,1.43-1.8,1.69-.14.14.12.3.19.37-.15-.14-.39-.26-.09-.47.47-.44,1.29-1.22,1.7-1.6h0ZM637.57,586.31c-.07-.4.05-1.1.24-1.43-.19.33-.3,1.03-.24,1.43h0ZM637.69,553.74s.58-3.41.55-3.21c-.15.91-.4,2.37-.55,3.21h0ZM638.32,588.03c.06-.36.67-3.93.57-3.34-.16.95-.42,2.44-.57,3.34h0ZM662.81,521.67c.92.28.65.52.3,1.23.04-.08.13-.25.18-.36.16-.31.23-.51,0-.64-.22-.13-.49-.27-.59-.17-.09.07-.17.29-.31.55-.24.48-.54,1.06-.77,1.53-.08.16.12-.24.4-.79.33-.59.52-1.18.74-1.34h.04ZM661.32,524.49l.55.27-.55-.27h0ZM660.21,551.62c1.92-2.15,4.59-5.37,6.36-7.26.55-.56,1.08-1.08,1.53-1.75,1.96-3.7,4.6-7.14,7.4-10.37,3.22-4.06,5.39,8.47,5.72,10.44.16,1.05.87,1.85,1.13,2.83.2.78-.1,1.76.44,2.42.16.22.23.31.35.51.6,1.51.81,4.56,1.19,6.21.07.37.22.73.57.87.28.13.61.16.86.38.19.16.34.41.41.78.23,1.17.31,3.26.37,4.59,0,.27-.02.55-.12.77-.17.37-.57.48-1.17.42-9.53-1.51-11.43-10.02-20.94-6.94-1.3.39-2.52.97-3.75,1.39-1.2.36-2.99,1.09-2.68-.48.29-1.67,1.22-3.5,2.28-4.76l.05-.06ZM649.15,547.14c-.21.14-1.19,2.2-1.31,2.34.34-.58.9-1.79,1.28-2.34h.02ZM648.63,549.87h0s-.04-.02-.04-.02l.04.02ZM647.6,550.37s.05,0,.07.01c-.03-.05-.61.14-.65.14l.58-.15ZM646.98,550.54h0s-.1.32-.1.32c0,0,.1-.31.1-.32ZM646.88,550.85s-.1.92.04,1.08c-.13-.2-.07-.85-.04-1.09h0ZM643.01,593.06c-.22-.5-.04-1.34.58-1.49-.58.13-.82,1-.58,1.49h0ZM643.76,593.11c.05-.39.05-1.1-.08-1.46.12.36.13,1.08.08,1.46h0ZM645.81,614.37c-.19-.05-1.04-.28-1.15-.31.17.04.99.27,1.16.31h0ZM646.28,612.81c0-.06.16-.53.11-.65-.03-.12-.31-.15-.61-.25-.62-.21-.56-.14-.7.46-.03.1-.16.63-.06.23.05-.18.12-.51.17-.68.06-.22.23-.11.59-.01.35.12.65.13.63.32-.02.2-.08.4-.12.58h0ZM659.98,592.79c-2.43,6.56-4.36,13.35-6.9,19.75-.36,1.55-1.62,2.64-2.29,3.95-.72,1.92-1.36,4.22-2.15,6.14-1.04,2.65-1.68-1.5-1.66-2.42,0-2.46-.12-5.49-.24-8.19-.07-1.07,0-2.04-.3-2.95-.23-.69-.58-1.39-.84-2.08-.95-2.31-.16-4.86-.25-7.36.01-1.37-.1-2.83-.21-4.13,0-1.94-.84-5,1.13-6.21,5.88-2.13,10.47-6.75,15.46-10.45.47-.35,1.21-.77,1.64-.32.64.72.41,2.19.15,3.12-.96,3.35-2.41,7.99-3.52,11.08l-.03.08ZM660.43,620.91s.49-.5.49-.5l-.49.5ZM662.21,618.05c-.71.49-1.3,1.62-1.67,2.44.5-1.47,1.68-2.62,3.08-3.26.55-.26-1.17.66-1.36.78l-.05.03ZM666.07,617.81l-.27.1c.18-.07.42-.08.34-.37.02.14,0,.25-.07.27ZM678.34,637.27c.05.43.32,1.16.45,1.55-.13-.38-.4-1.13-.45-1.55h0ZM679.78,638.59c-.11.07-.78.52-.87.57.15-.1.65-.42.89-.58h-.02ZM679.91,635.2c-.32.37-.94,1.07-1.3,1.49-.16.19-.21.24-.1.11.28-.32,1.29-1.49,1.4-1.61h0ZM687.45,602.96c-.17,1.54-.47,3.38-2,4.09-.51.14-.57-.62-.9-.47-.42.24-.81,1.04-1.48,1.49-.35.26-.74.43-1.16.59-4.74,1.71-8.88,4.99-13.44,6.91-1.09.33-2.14-.24-3.21.07-1.13.31-2.41,1.34-3.24,1.6-.06,0-.05-.05,0-.16.04-.06.09-.15.16-.25,1.07-1.5,4.73-6.6,6.03-8.4.36-.53.64-.67.33.37-.24.87-.76,1.91-1.29,2.73-.52.88-1.32,1.89-1.04,2.09,2.8-1.65,5.11-7.46,6.55-10.56.16-.42.34-1.34-.25-.72-.43.42-1.03,1.68-1.51,2.23-.69.85-.56.04-.13-.88.35-.71.66-1.46,1.01-2.11.19-.34.44-.6.8-.61.83.05.77-.54,1.25-1.31.21-.34.49-.66.74-.99.55-.66.81-1.74,1.2-2.55.86-1.65,2.08-3.14,2.95-4.79.98-1.87,1.87-3.3,3.04-4.97,1.08-1.59,2.51-3.77,3.44-5.05.82-1.09.79-.3,1.53.38.26.23.6.34.84.59.48.55.41,1.28.42,2.14-.08,1.54-.54,2.97-.17,4.5.04,2.75.18,6.63.4,9.4.11,1.6-.7,2.98-.88,4.56v.09ZM817.6,559.05c.13.23.27.58.33.87-.02-.19-.25-.76-.34-.89v.02ZM816.97,561.63c.15-.07.29-.15.4-.23-.11.08-.25.16-.4.23h0ZM763.21,520.39c.05.66.13,1.71.18,2.4.03.39-.17-2.22-.18-2.41h0ZM758.7,435.82c-2.85-8.37-.61-15.54,6.02-22.53.67-.74,1.46-1.42,2.29-1.88,1.27-.63,1.85-1.56,3.01-2.31.65-.4,1.4-.77,2.11-1.08,1.33-.61,2.55-.82,3.89-.97,3.39-.39,6.97-1.03,10.1-2.43,3.83-1.52,6.71-4.33,9.69-7.05,2.16-1.79,4.86-3.13,7.3-4.67,2.66-1.52,5.49-2.87,8.23-4.28,1.15-.55,5.55-2.27,5.8-.85,0,.48-.6,1.27-1.06,1.98-4.5,6.75-10.89,14.39-16.27,19.69-3.83,3.53-7.26,8.02-11.37,11.22-1.28.99-2.51,1.62-3.84,2.62-1.14.92-2.45,1.54-3.82,2.03-2.23.99-4.34,3.14-6.31,4.73-.98.98-.81,2.17-1.65,3.39-.98,1.34-2.17,2.57-2.74,4.15-.71,2.04-2.11,4.88-2.54,7.06-.16,1.21-.29,3.28-.35,4.94-.12,1.14.35,2.13,1.03,3,.56.78.6,2.06,1.4,3.1,1.19,1.32,2.84,2.48,2.78,4.47.04,1.06-.72,2.06-1.46,3.14-.47.67-1.33,1.74-1.9.49-1.06-2.43-2.5-6-3.57-8.11-.3-.62-.5-1.16-.64-1.86-.2-.89-.27-2.12-.62-2.89-.5-1.18-1.63-1.61-2.04-2.66-1.15-3.68-2.43-8.98-3.45-12.37l-.02-.06ZM766.25,572.5c-.21-.45-.33-.96-.39-1.48-.37-3.54-.83-9-.97-12.57-.07-1.13-1.01-1.16-1.19-2.23-1-7.24-1.25-15.37-1.39-22.77-.02-.39-.03-.96-.1-1.25-.2-.73-.77,1.49-1.03,1.47-.08.04-.13-.02-.17-.1-.13-.32-.16-.78-.19-1.15-.15-1.77-.12-3.57.28-5.13.3-.84.11-1.69.09-2.52.08-1.06.77-.61.83.22.06.38.07.79.04,1.18-.06.81-.28,1.38.01,1.6.24.18.56.18.85.27,1.12.25,1.41,1.25,2.15,2.32,1.22,1.58,2.7,3.07,4.5,3.95,4.14,1.88,7.34-3.69,9.91-6.61,2.48-2.03,6.73-5.34,8.82-6.89.55-.28.21.61.09,1.18-1.94,6.98-7.03,12.43-11.85,17.68-1.57,1.77-3.31,3.5-4.89,5.24-2.67,3.14-3.97,7.21-4.45,11.3-.15,1.13,0,2.27.57,3.26,1.35,2.22,2.77,4.8,4.79,6.46,1.22.91,1.83,1.79,1.16,3.36-.05.23-.19.48.03.61.3.15,1.65-.47,1.87-.36.06.02.06.07.03.13-.19.27-.65.68-.98.96-.69.59-1.37,1.15-1.97,1.82-.81.94-1.45,1.96-2.64,2.73-.58.37-1.35,1.01-2.02.69-.21-.16-.25-.23-.37-.44-.37-.99-.91-2-1.43-2.88l-.03-.07ZM794.16,584.94c-.69.63-1.76,2.47-2.55,2.41-.32-.17-.43-.58-.64-.9-.32-.6-.81-1.06-1.4-1.41-2.38-1.6-5.27-2.16-8.02-2.75-1.4-.66-2.79-1.89-4.5-1.4-2.83.39-8.4,3.92-6.77-1,.13-1.01-.52-1.86-.2-2.86.25-.92,1.68-1.61,2.39-.82.28.38-.35,1.3-.35,1.62-.12.59,1.36-.45,1.77-.59,4.51-2.27,10.05-4.5,14.18-6.86,1.59-.87,3.6-1.33,5.17-2.21,1.44-.85,2.63-2.16,4.13-3.01,2.03-1.32,4.59-2.02,6.36-3.8,1.37-1.5,3.38-2.74,4.48-4.48.49-1.22.23-2.98.24-4.28-.04-1.16-.69-1.8-1.27-2.72-1.35-2.87-3.71-5.33-6.5-6.88-2.01-.99-4.07-2.53-5.97-3.59-.51-.29-1.13-.71-1.12-1.22-.05-1.47,3.03-5.08,4.51-7.04,1.7-2.38,4.07-4.61,5.95-6.7,6.68-6.74,7.3-12.75-.13-20.45-1.43-3.32-1.87-7.63-5.89-9.05-8.35-3.4-15.77,3.64-21.31,9.18-1.7,1.67-2.92,3.98-5.12,5.13-1.25.63-.84-.81-.49-1.51,3.43-8.11,8.66-15.4,14.4-21.95,5.18-4.95,13.65-8.21,20.67-9.35,2.68.16,5.06,2.47,5.62,5.22.51,1.69,1.1,3.27,1.38,5.01.46,2.69.58,5.78,1.18,8.56,3.69,18.92,1.81,39,2.01,58.19-.1,6.12-.32,12.57-.69,18.35-.5,4.74-1.62,10.35-2.23,15.15-.24,2.08-.39,2.88-2.47,2.53-5.29-.69-10.61-1.87-15.35-4.21-.43-.18-1-.53-1.4-.32l-.05.02Z"/>
      <path d="M869.37,681.71c.38-.95.35-2.41,0-3.49-.4-2.56-1.37-5.18-2.3-7.64-.53-1.55-1.32-3.68-1.97-5.32-.48-1.11-.3-2.2-.79-3.26-1.15-1.74-1.56-3.68-2.57-5.5-.36-.66-.82-1.05-1.49-1.31-.88-.35-2.36-.88-3.07-1.16-.71-.26-.93-.48-1.52-1.14-2.02-2.18-5.08-5.57-7.28-7.93-1.77-1.91-4.87-3.2-6.63-5.12-1.73-1.66-3.94-2.98-5.94-4.37-.86-.53-1.16-.58-2.27-.92-3.56-1.13-9.94-2.88-13.73-4.26-4.27-1.79-9.19-3.37-13.79-3.11-3.11-1.16-6.95-2.68-10.02-4.13-.67-.34-1.1-.55-1.22-.05-.1.51-.05,1.12.06,1.65.16.88.54,1.42,1.13,2.05.88,1.01,2.05,2.13,2.83,3.21.17.3.14.51-.04.73-.15.2-.17.31.11.51,1.04.56,2.01,1.31,2.71,2.32.74.94,1.59,1.77,2.25,2.57.45.56.82,1.17,1.21,1.78.78,1.29,1.93,2.44,2.75,3.8.4.64.79,1.29,1.26,1.87,3.01,3.31,6.37,7.42,8.87,10.82,1.42,1.94,2.99,3.81,4.52,5.67,3.16,4.03,5.9,8.5,8.89,12.72,2.02,2.93,4,5.67,6.11,8.27,1.63,2.12,2.81,4.55,4.54,6.54.84.85.95,2.14,1.66,3.03.54.54,1.4.72,1.8,1.43.55.9.56,2.14.99,3.1.39.94,1.29,1.03,1.86,1.88.34.5.5,1.12.66,1.7.07.25.14.47.22.63.11.24.23.31.35.22.22-.2.4-.59.65-.8.57-.41.79.5,1.11,1.34.4.92.37,2.34,1.24,2.58.52.12,1.06-.09,1.59,0,.83.12,1.52.98,2.42,1.08,1.09.14,2.38-.35,3.56-.4,3.06-.24,3.77-2.13,5.42-4.12.76-.69,1.61-1.44,1.68-2.54.12-1.19.31-2.03.96-3.29.46-1.06,1.14-2.02,1.08-3.17,0-1.34-.02-4.68-.02-6.57-.01-.85.02-1.33.17-1.85l.02-.06Z"/>
      <path d="M616.72,625.14c-.21-.96-.34-1.52-.99-.35-.02.57.38,1.6.49,2.22.06.21.09.4.12.42.24-.53.51-1.63.4-2.23l-.02-.07Z"/>
      <path d="M580.89,535.07c.73-.08,4.12-1.28,5.02-1.52.35-.11.34-.34.43-.73.1-.54.34-1.4.3-1.63-.04-.22-.32-.04-.47.03-1.64.91-3.88,2.56-5.27,3.83v.02Z"/>
      <path d="M608.52,505.15c.58.24,1.4.12,2.06,0,.64-.19,1.46-.42,1.78-.98,0-.07-.08-.13-.2-.17-1.35-.37-2.67.13-3.64,1.11v.04Z"/>
    </g>
    <g>
      <path d="M373.88,548.9h0s-.06-.05-.08-.06h.03s.01.02.02.03c0,0,.02,0,.03.02h0Z"/>
      <path d="M374.34,549.23c-.12-.08-.24-.17-.34-.25.1.08.22.16.34.25Z"/>
      <path d="M372.8,555.61c-.06.01-.12.01-.18.02.03,0,.05,0,.09-.01.03,0,.05,0,.09,0Z"/>
      <path d="M373.08,555.58s-.07,0-.1.01c-.03,0-.05,0-.09,0,0,0,0,0,.01,0,.05,0,.1,0,.16-.01h.01Z"/>
      <path d="M374.87,550.61s.01-.05.01-.07c-.02.14-.04.29-.07.42.02-.11.03-.23.05-.35Z"/>
      <path d="M374.92,550.32s0-.05.01-.08c-.01.09-.03.18-.04.27v-.02s.01-.08.02-.12v-.05Z"/>
      <path d="M375,549.76c-.01.08-.03.17-.04.27h0s0-.08.01-.11h0s0-.07.01-.1c0-.02,0-.05.01-.07Z"/>
      <path d="M372,543.78s-.07.08-.11.12c.03-.03.05-.06.08-.1.01,0,.02-.01.03-.02Z"/>
      <path d="M372.95,542.38s-.01.03-.02.05c0,0,0,.02-.02.03.01-.03.03-.05.04-.08Z"/>
      <path d="M381.54,541.85c-.02.07-.04.13-.05.16.01-.04.03-.1.05-.16Z"/>
      <path d="M367.64,537.45s.02-.03.03-.05c-.03.07-.07.13-.1.19.02-.05.05-.1.07-.14Z"/>
      <path d="M368.63,535.52s-.04.07-.05.1c.01-.03.03-.07.05-.1h0Z"/>
      <path d="M378.41,548.03c-.15.19-.27.4-.38.62.1-.22.23-.43.38-.62Z"/>
      <path d="M367.85,534.44c.04-.05.08-.11.13-.17-.08.11-.13.18-.13.17Z"/>
      <path d="M383.46,541.74h-.03.03Z"/>
      <path d="M383.54,541.75h-.03s-.02,0-.03,0h.02s.03,0,.04,0Z"/>
      <path d="M384.25,541.85s-.01,0-.03,0h.03Z"/>
      <path d="M378.42,553.38s-.06.1-.09.14c.02-.03.06-.1.09-.14Z"/>
      <path d="M378.07,553.76c-.05.05-.12.09-.18.14-.06.05-.12.09-.19.13-.04.03-.08.06-.13.08-.03.02-.06.04-.1.06-.03.01-.06.03-.09.05-.06.03-.13.07-.2.1-.07.04-.14.08-.21.11-.03.01-.06.03-.1.04.04-.03.1-.05.14-.08.07-.03.14-.07.21-.11.08-.04.15-.08.22-.12.08-.04.14-.09.21-.13.14-.09.27-.18.4-.28Z"/>
      <path d="M364.35,514.21s.12.13.14.15c.03.03-.11-.12-.14-.15h0Z"/>
      <path d="M365.97,515.24c-.02-.09-.12-.27-.23-.45-.11-.17-.23-.36-.31-.45.03.03.05.06.08.09.09.1.17.21.25.33.1.15.17.31.21.45v.03Z"/>
      <path d="M364.18,513.39s-.01-.07-.03-.11c0-.04-.01-.08-.03-.12,0,0,0,0,0-.01,0-.04-.02-.09-.03-.13h0s-.02-.07-.03-.09h0s-.01-.05-.01-.06h0s0,0,0,0h0s0,0,0,0c0,.01,0,.03,0,.05l.02.05c.03.08.08.29.1.42Z"/>
      <path d="M367.11,514.8c.4-.07.83-.15,1.26-.25-.01,0-.03.01-.04.01-.08.02-.16.04-.23.06h-.01c-.08.01-.16.03-.25.05-.08.01-.15.03-.22.04-.17.03-.34.06-.51.08Z"/>
      <path d="M368.66,514.47s-.07.02-.1.03c-.06.01-.13.03-.19.04.1-.02.19-.05.29-.07Z"/>
      <path d="M370.57,513.82s.01,0,.02,0c-.07.03-.14.06-.21.1-.01,0-.03.01-.05.02.08-.04.16-.08.24-.11Z"/>
      <path d="M370.68,513.77s-.06.03-.1.05c.01,0,.03-.01.05-.03.02,0,.03,0,.05-.02Z"/>
      <polygon points="370.85 513.69 370.85 513.69 370.85 513.69 370.85 513.69"/>
      <path d="M371.67,513.19s-.09.08-.14.11c-.03.02-.05.04-.09.05-.03.02-.06.04-.1.06-.02.01-.05.03-.08.05-.05.03-.12.07-.17.1,0,0-.01,0-.02,0,.01-.01.02-.02.03-.02,0,0,.02-.01.03-.02.01,0,.03-.01.04-.02.05-.03.11-.07.16-.1,0,0,.02-.01.03-.02.01,0,.03-.01.03-.02.08-.05.16-.1.23-.16.01,0,.02,0,.03-.01Z"/>
      <path d="M362.31,542.94c-.04.05-.09.12-.13.17-.14.17-.27.36-.39.53-.03.06-.08.12-.12.17-.03.05-.07.11-.11.16,0,.01-.01.03-.03.04.01-.03.03-.05.05-.09,0-.01.01-.03.03-.05.16-.29.41-.62.7-.93Z"/>
      <path d="M368.37,533.73c.05-.07.1-.13.14-.18,0-.01-.05.07-.14.18Z"/>
      <path d="M372.14,512.26s.02.05.03.08c-.03-.1-.09-.18-.16-.26.01,0,.03.02.04.03.02.02.04.05.06.08t0,.01s.02.04.03.06Z"/>
      <path d="M372.19,512.39s-.01-.03-.02-.05c0,0,.01.02.01.03s0,.02,0,.03Z"/>
      <path d="M363.39,541.89c-.08.08-.22.2-.35.31.02-.03.04-.04.05-.06.02-.02.04-.03.06-.05h0s.08-.08.12-.11c.04-.03.08-.06.11-.09Z"/>
      <path d="M400.64,634.69s.03.01.05.03c-.01,0-.03,0-.03-.01h-.02Z"/>
      <path d="M400.83,634.79s.05.03.08.04h0s-.05-.02-.07-.04Z"/>
      <path d="M401.29,635.02s-.08-.03-.11-.05c-.05-.03-.1-.05-.14-.08-.05-.02-.09-.04-.13-.07h0c.08.04.16.08.25.12.04.03.09.05.13.07Z"/>
      <polygon points="401.32 635.04 401.32 635.04 401.33 635.04 401.32 635.04"/>
      <path d="M401.45,635.1s-.09-.04-.13-.06c0,0,.01,0,.02,0,.03.02.08.03.11.05Z"/>
      <path d="M411.09,621.18s0,0,0,0c0-.01,0,0,0,0Z"/>
      <path d="M413.18,623.67s-.02.02-.03.03c.01-.01.02-.03.03-.03h0Z"/>
      <path d="M413.53,622.2s-.04.08-.05.1c0,.02-.01.04-.01.06,0-.02,0-.04,0-.06,0,0,0-.01,0-.02h0s0-.02.01-.03c0-.01,0-.02.02-.03h0s.01-.02.01-.03h0Z"/>
      <path d="M413.57,622.14h0s0,.01,0,.01t0-.01Z"/>
      <path d="M418.59,614.71h0s0,0-.01,0c0,0,0,0,.01,0Z"/>
      <polygon points="418.32 614.18 418.32 614.18 418.32 614.18 418.32 614.18"/>
      <polygon points="410.9 621.73 410.9 621.74 410.9 621.74 410.9 621.73"/>
      <path d="M407.03,633.68h-.01s-.05,0-.08,0c.03,0,.05,0,.09,0Z"/>
      <path d="M407.14,633.69c.11,0,.25.02.38.03-.13-.01-.27-.03-.38-.03Z"/>
      <path d="M409.15,638.86s0,.03,0,.05c0,.01,0,.02,0,.02-.01-.01-.03-.07-.05-.16l-.02-.06c-.02-.08-.05-.19-.05-.3,0-.13.07-.24.12-.32-.02.05-.04.1-.05.17,0,.18.06.43.06.6Z"/>
      <path d="M409.28,621.65s-.07-.14-.07-.13c0-.01.06.11.07.13h0Z"/>
      <path d="M409.21,621.51s-.04-.14-.05-.16c0,.02.04.15.05.16h0Z"/>
      <path d="M421.2,621.15s.07.11.15.24c-.06-.09-.11-.17-.15-.24Z"/>
      <path d="M404.08,635.01s-.11.08-.19.14c-.03.02-.05.03-.08.05s-.05.03-.09.05l-.07.04c-.08.04-.15.09-.23.12t0,0c-.07.03-.14.05-.2.08,0,0-.02,0-.03,0-.35.08-.53.05-.4.05.12-.01.25-.03.38-.08.22-.08.47-.22.66-.35.3-.21.4-.25.27-.13Z"/>
      <path d="M405.91,630.96c-.91-.32-1.81-.61-2.58-.88.81.28,1.7.57,2.58.88Z"/>
      <path d="M422.37,614.38h0,0Z"/>
      <path d="M422.79,622.17s0,.01-.01.02-.03.03-.06.05c.03-.03.05-.05.08-.08Z"/>
      <path d="M421.86,622.16c-.05-.07-.11-.16-.17-.25.1.15.17.26.17.25h0Z"/>
      <path d="M424.71,609.66c-.07.03-.14.05-.18.07.05-.02.12-.05.18-.07Z"/>
      <path d="M402.78,629.9c-.05-.02-.1-.03-.12-.05.02,0,.05.02.12.05Z"/>
      <path d="M358.13,472.5h0s.05.06.15.19c-.06-.07-.11-.13-.15-.19Z"/>
      <path d="M355.22,475.19s.03-.06.05-.1c-.01.03-.02.05-.03.08,0,0,0,.01-.01.02Z"/>
      <path d="M355.38,474.87h0s-.04.09-.06.13c.02-.05.04-.09.06-.13Z"/>
      <path d="M355.43,474.81s-.03.04-.03.06h0s.03-.04.04-.06Z"/>
      <path d="M358.86,473.4c-.09-.11-.2-.25-.32-.39.18.23.35.43.32.39Z"/>
      <path d="M359.96,472c-.12.03-.23.09-.32.15.08-.05.18-.1.32-.15Z"/>
      <path d="M359.47,473.8s-.05.03-.07.04h.01s.03-.03.05-.04Z"/>
      <path d="M361.24,472.74c-.42.25-.9.54-1.33.79.4-.24.94-.56,1.33-.79Z"/>
      <path d="M380.5,327.62c-.04.1-.11.24-.17.34.06-.1.12-.23.17-.34Z"/>
      <path d="M380,326.35s-.02-.02-.03-.02c0,0,.02.02.04.03,0,0,0,0-.01,0Z"/>
      <path d="M363.74,512.92s-.04.03-.01.01c0,0,.01,0,.01-.01Z"/>
      <polygon points="380.55 327.51 380.55 327.51 380.55 327.51 380.55 327.51"/>
      <path d="M353.93,475.05s.02-.01.03-.02c-.01.02-.03.03-.05.04,0,0-.02.01-.03.02.01-.02.03-.03.05-.04Z"/>
      <path d="M333.04,363.59s0,0,0,0h0s0,0,0,0Z"/>
      <path d="M468.76,353.81h0c.37.5,1.04,1.29,1.56,1.83-.48-.51-1.17-1.3-1.56-1.83Z"/>
      <path d="M471.48,351.32s-.1-.38-.37-.79c-.25-.38-.72-.78-1.01-.99.14.09.29.18.42.31.14.12.27.25.4.4l.04.05c.27.32.45.64.51,1.02Z"/>
      <path d="M469.21,352.74s.06-.18.12-.37c-.04.13-.09.26-.12.37Z"/>
      <path d="M331.11,370.4c-.01.14-.02.27-.03.39,0-.1.01-.23.03-.39Z"/>
      <path d="M450.52,428.27c-.09.03-.31.1-.37.12.07-.02.28-.09.38-.12h0Z"/>
      <path d="M450.92,431.98c-.03-.1-.06-.21-.1-.31-.03-.11-.07-.22-.11-.33-.03-.11-.08-.22-.12-.33-.02-.06-.05-.12-.07-.18-.05-.12-.09-.24-.14-.36-.02-.05-.04-.1-.06-.16-.03-.05-.05-.11-.08-.16-.03-.1-.08-.18-.12-.27-.01-.03-.02-.05-.03-.09.01.02.02.05.03.07.03.07.07.14.1.22.04.09.08.17.12.26.03.05.05.12.08.18.07.17.14.34.2.51.04.11.08.22.11.33.04.1.07.21.1.31.01.05.03.1.04.15.01.05.03.1.04.15Z"/>
      <path d="M448.42,430.09c-.09.28-.2.64-.3,1.04.1-.38.2-.74.3-1.04h0Z"/>
      <polygon points="380.26 326.58 380.26 326.58 380.26 326.58 380.26 326.58"/>
      <path d="M318.73,515.55v.05s0,.03,0,.03c0,0,0-.04,0-.08Z"/>
      <path d="M346.58,344.72s.03-.03.04-.04c0,0-.01,0-.04.04Z"/>
      <path d="M387.74,423.67h0s.32-.21.42-.29c.06-.04.04-.03-.04.03-.1.07-.29.19-.38.26Z"/>
      <path d="M391.47,459.62s0,0,0-.03c.03-.11.05-.23.08-.35-.02.11-.04.22-.07.32-.01.07-.01.06-.01.07Z"/>
      <path d="M335.97,525.62s.01-.01.02-.01h0s0,.01-.01.01Z"/>
      <path d="M336.87,525.08c-.07.05-.14.1-.21.14,0,0,0,0-.01,0-.06.04-.12.08-.18.11-.01,0-.02.01-.03.01,0,0-.01,0-.01.01-.06.03-.12.06-.17.09l-.04.02s-.06.04-.1.05c-.04.02-.08.04-.11.06t-.01,0s.02-.01.03-.03c.05-.03.12-.07.21-.12.14-.08.32-.18.5-.29.05-.03.09-.05.13-.08Z"/>
      <path d="M337.44,524.62s-.02.02-.03.03c-.01.01-.03.03-.05.04,0-.01.01-.02.02-.03.01-.01.03-.02.03-.03,0,0,.02-.01.03-.02Z"/>
      <path d="M337.47,524.59s-.02.02-.03.03c0,0,0-.01,0-.01h.02Z"/>
      <path d="M337.53,524.53l-.04.04s.03-.03.03-.04h0Z"/>
      <path d="M337.66,524.38s-.04.05-.06.08c-.02.02-.04.05-.07.07v-.02s.01,0,.01,0c.03-.03.07-.06.09-.1.01,0,.02-.01.03-.02Z"/>
      <path d="M337.79,524.24s-.02.03-.03.04c-.01.01-.02.03-.04.04.03-.03.05-.07.08-.08Z"/>
      <path d="M363.94,512.81s-.05.02-.09.04c.04-.02.09-.04.09-.04h0Z"/>
      <path d="M335.55,524.59c.04-.1.08-.21.1-.26h0c-.03.05-.07.15-.1.26Z"/>
      <path d="M319.86,513.21h0s-.08.04-.12.06c.04-.02.08-.04.12-.06Z"/>
      <path d="M392.69,456.82c-.22,0-.47-.08-.6.08h0c.13-.16.38-.08.6-.08Z"/>
      <path d="M340.05,353.21c-.15.15-.34.36-.54.59.19-.22.38-.43.54-.59h0Z"/>
      <path d="M340.15,356.07c-.27.5-.75,1.29-1.03,1.73.31-.47.78-1.26,1.03-1.73h0Z"/>
      <path d="M343.91,347.4s.03-.03.05-.05c-.09.1-.17.19-.26.28.06-.08.14-.15.21-.23Z"/>
      <path d="M344.08,347.22l-.12.12s.08-.08.11-.12h0Z"/>
      <path d="M344.28,347.01l.12-.12c-.1.1-.2.21-.29.31.05-.06.12-.12.17-.18Z"/>
      <path d="M380.44,416.47c.13.03.36.07.6.1-.22-.03-.44-.07-.6-.1h0Z"/>
      <path d="M382.03,416.66c-.16,0-.36-.01-.57-.04.23.02.45.04.57.04Z"/>
      <path d="M382.69,414.29v-.09c.03-.77.06-1.65.09-2.47-.03.97-.07,2.04-.1,2.94,0-.13,0-.26.01-.39Z"/>
      <path d="M440.81,597.7c-.2.18-.51.45-.78.74.06-.08.13-.14.19-.21.19-.21.38-.39.59-.53Z"/>
      <path d="M394.92,423.92h0s0,0,0,0h0Z"/>
      <path d="M395.36,428.17c-.03.11-.05.21-.08.29.02-.08.05-.17.08-.29Z"/>
      <path d="M395.73,426.76c-.02.1-.05.2-.08.31.03-.12.06-.23.08-.31Z"/>
      <path d="M394.88,429.47s.06.26.06.26c0,0-.05-.23-.06-.26h0Z"/>
      <path d="M394.51,423.43s.07.08.15.19c-.05-.06-.11-.13-.15-.19Z"/>
      <path d="M439.76,438.06c-.01.16-.02.31-.03.44,0-.14.02-.29.03-.44Z"/>
      <path d="M416.81,397s-.03.02-.05.03c-.04.02-.09.03-.13.05h0s.03-.01.05-.03c.04-.01.08-.03.13-.05Z"/>
      <path d="M417.69,396.51c-.11.08-.23.16-.36.24-.1.07-.29.16-.53.25.1-.05.2-.1.3-.15.21-.11.4-.22.58-.34Z"/>
      <path d="M397.11,452.92c-.06,0-.17-.02-.3-.04.11.02.22.03.3.04Z"/>
      <path d="M396.62,452.85c-.12-.02-.23-.05-.31-.08.09.02.21.05.31.08Z"/>
      <path d="M421.1,326.24s.09.04.09.04c.04.02-.01,0-.09-.04Z"/>
      <path d="M395.1,422.49c-.01.11-.03.21-.04.31,0-.08.02-.18.04-.31Z"/>
      <path d="M415.75,498.68s0,.03,0,.05c0,.05,0,.11,0,.16,0-.03,0-.08,0-.12,0-.05,0-.12,0-.18,0,.03,0,.05,0,.08Z"/>
      <path d="M422.27,325.94s-.03-.1-.06-.15c-.1-.23-.17-.38-.23-.49.01.01.03.03.03.05l.03.05c.08.14.16.34.23.54Z"/>
      <path d="M453.02,495.18s.01,0,.02,0c.02,0,.05.01.01,0,0,0-.02,0-.03,0Z"/>
      <polygon points="448.48 492.46 448.48 492.46 448.48 492.46 448.48 492.46"/>
      <path d="M448.45,492.33c-.04-.14-.08-.29-.13-.43.04.13.1.31.13.43Z"/>
      <path d="M441.45,449.86v.03c-.04-.09-.1-.17-.14-.25.05.08.1.14.14.23Z"/>
      <path d="M441.72,450.31c-.07-.11-.13-.21-.19-.31.05.08.11.17.16.26,0,0,0,.01.01.02,0,.01.01.02.01.03Z"/>
      <path d="M441.77,450.39s-.01-.01-.02-.02c0-.01,0-.02-.01-.03.01.02.02.03.03.05Z"/>
      <path d="M442.32,451.32s-.01-.03-.03-.03c0-.02-.02-.04-.03-.06.02.03.03.07.05.1Z"/>
      <path d="M442.35,451.38c.03.07.07.13.11.19-.05-.08-.1-.16-.14-.25.01.02.02.03.03.05Z"/>
      <path d="M462.89,489.08s-.07.08-.07.1c0,0,0,.01,0,.01,0-.01.02-.03.03-.05.01-.02.03-.04.05-.06Z"/>
      <path d="M462.6,492.25c-.11-.09-.21-.16-.29-.22.08.05.18.14.29.22Z"/>
      <path d="M439.72,498.02c.13.19.19.26.11.15-.03-.04-.07-.1-.11-.15Z"/>
      <path d="M442.35,452.9c-.16-.08-.45-.23-.63-.33.19.1.43.23.63.33Z"/>
      <path d="M440.22,444.39c.06-.14.08-.23.08-.23-.03.08-.06.17-.09.25,0,0,0-.01,0-.02Z"/>
      <path d="M439.39,497.48s.05.09.08.15c-.03-.05-.06-.1-.08-.15h0Z"/>
      <path d="M439.69,497.96s.02.03.03.04c-.07-.11-.16-.24-.22-.35.06.11.14.22.19.31Z"/>
      <path d="M441.19,452.15c.07.07.14.15.2.21.03.03-.02-.02-.11-.12-.03-.03-.06-.06-.09-.09Z"/>
      <polygon points="441.58 452.5 441.58 452.5 441.58 452.5 441.58 452.5"/>
      <path d="M439.26,446.04s-.01.02-.01.03c-.13.16-.26.29-.38.4.12-.11.24-.25.37-.4,0,0,.01-.02.02-.03Z"/>
      <polygon points="441.03 451.97 441.03 451.97 441.03 451.97 441.03 451.97"/>
      <path d="M419.09,621.84s-.03-.02-.05-.03c-.07-.05-.16-.1-.27-.16-.08-.04-.16-.08-.25-.12l-.05-.02c-.06-.02-.12-.04-.18-.05-.42-.11-.85-.07-1.33.04-.1.02-.2.04-.3.07-.42.12-.84.22-1.23.32,1.2-.36,2.62-.91,3.63-.07,0,0,.02.01.03.03Z"/>
      <path d="M419.16,621.89s-.01,0-.03-.02h-.01s.03,0,.04.02Z"/>
      <path d="M419.15,626.71s0,.04-.01.07c0-.02,0-.03,0-.05,0,0,0-.01,0-.02Z"/>
      <path d="M417.24,623.87s0,.01.01.02c-.06-.08-.14-.14-.21-.21.04.03.08.06.11.1.03.03.06.05.09.09Z"/>
      <path d="M417.01,625.57s.08-.09.12-.13c-.12.13-.25.27-.37.4.08-.09.16-.18.25-.27Z"/>
      <path d="M424.89,618.73s.06-.08.13-.2c-.05.07-.09.14-.13.2h0Z"/>
      <path d="M424.93,616.32c-.29.11-.66.26-1.04.42.37-.16.73-.3,1.04-.42h0Z"/>
      <path d="M423.07,621.18s-.02,0-.03-.01c0,0-.01-.01-.02-.01-.05-.04-.1-.08-.16-.12.06.05.13.1.19.14h.01Z"/>
      <path d="M423.08,621.19s0,0-.01-.01h.01Z"/>
      <path d="M423.23,621.28h0,0Z"/>
      <path d="M423.33,621.34s-.02,0-.03-.01c0,0-.01-.01-.01-.01.01,0,.03.01.04.03Z"/>
      <path d="M423.58,621.47s-.04-.01-.06-.03h.01s.03.02.05.03Z"/>
      <path d="M421.9,623.72c-.05.01-.11.02-.17.03-.08,0-.15,0-.23,0,.08,0,.15,0,.23-.01.06,0,.12-.01.17-.02Z"/>
      <path d="M422.22,623.63s-.02,0-.03.01c-.02,0-.03,0-.05.01.02,0,.04-.01.05-.02,0,0,.02,0,.03,0Z"/>
      <path d="M422.23,623.62h0s0,0,0,0h0Z"/>
      <path d="M422.36,623.57s-.02,0-.03.01h0s.02-.01.03-.01Z"/>
      <path d="M423.25,618.98s.02.01.03.02c-.06-.03-.12-.06-.18-.1-.01-.01-.03-.03-.05-.03.03.01.05.03.08.05.03.01.06.03.1.05,0,0,0,0,.01,0Z"/>
      <path d="M423.36,619.05s-.03-.01-.04-.03h0s.02.02.03.03Z"/>
      <path d="M423.92,619.37c-.06-.02-.12-.06-.2-.1-.04-.02-.08-.04-.12-.07-.08-.04-.16-.1-.25-.14.05.02.1.05.14.08h0c.08.04.14.08.21.12.03.01.06.03.09.05,0,0,.01,0,.02.01.03.01.05.02.07.03.01.01.02.02.03.02Z"/>
      <path d="M424.01,619.42s-.03-.01-.05-.02l-.02-.02s.05.03.07.04Z"/>
      <path d="M412.1,637.02c-.12-.09-.25-.19-.37-.29.12.09.26.2.37.29Z"/>
      <path d="M412.43,632.59s-.07.02-.1.03c-.06.01-.11.02-.16.03-.01,0-.02,0-.03,0-.04.01-.09.02-.13.03.05-.01.12-.03.18-.05h0c.07-.02.14-.04.23-.05Z"/>
      <path d="M415.53,623.16h-.16s.07,0,.11,0c.02,0,.03,0,.05,0Z"/>
      <path d="M415.66,623.16h-.01s-.05,0-.08,0h.09Z"/>
      <path d="M416,623.21c-.09-.02-.18-.03-.27-.04h0s-.04,0-.05,0h.03c.1,0,.21.03.31.05Z"/>
      <path d="M425.4,617.86s-.01.02-.02.04c0,0-.01.01-.02.03.01-.03.03-.05.03-.07h0Z"/>
      <path d="M397.5,537.89s.08-.07.15-.13c-.06.05-.11.1-.15.13Z"/>
      <path d="M397.83,537.61c-.06.05-.12.1-.18.15l.04-.04s.09-.08.14-.11Z"/>
      <path d="M397.83,537.61c.21-.18.47-.34.74-.49-.1.06-.21.12-.31.19-.13.08-.28.18-.42.29Z"/>
      <path d="M400.73,536.16c-.64.31-1.41.55-2.16.97.51-.3,1.09-.55,1.54-.71l.05-.02c.25-.1.44-.18.57-.23Z"/>
      <polygon points="415.33 629.22 415.33 629.22 415.33 629.22 415.33 629.22"/>
      <path d="M414.95,622.01c-.23.07-.47.14-.69.22.12-.04.23-.08.34-.12.08-.03.15-.05.22-.07.04,0,.09-.01.13-.03Z"/>
      <path d="M414.42,626.54s-.05,0-.08.01c-.05,0-.12.01-.19.02-.03,0-.06,0-.1,0-.14.01-.29.03-.44.05-.46.05-.95.12-1.44.21-.64.13-1.27.31-1.77.56.61-.34,1.53-.55,2.31-.68h.08c.62-.11,1.16-.15,1.62-.18Z"/>
      <path d="M450.84,581.01s-.08-.13-.16-.25c-.19-.27-.38-.35-.55-.3-.06.01-.12.04-.18.08-.14.1-.27.27-.37.47-.04.08-.07.12-.08.12,0-.16.36-.85.66-.82h.05c.17.01.3.12.4.27.08.1.14.23.18.34.02.03.03.07.05.1Z"/>
      <polygon points="445.37 593.32 445.37 593.32 445.37 593.32 445.37 593.32"/>
      <path d="M451.14,582.12c.04-.25.05-.53.03-.75.03.23.01.51-.03.75Z"/>
      <polygon points="460.73 565.22 460.73 565.22 460.73 565.22 460.73 565.22"/>
      <path d="M460.67,565.47c-.03.18-.04.4-.03.59,0-.19,0-.4.03-.59Z"/>
      <polygon points="410.1 620.15 410.1 620.15 410.1 620.15 410.1 620.15"/>
      <path d="M445.73,591.48c-.07.1-.18.25-.27.38.09-.13.19-.27.27-.38Z"/>
      <path d="M409.69,620.3s-.02,0-.03,0h0s.02,0,.02,0Z"/>
      <path d="M409.78,620.26s-.05.01-.08.03c.01,0,.03-.01.04-.02.01,0,.02-.01.03,0Z"/>
      <path d="M409.86,620.23s-.05.02-.08.03c.01,0,.03-.01.05-.02,0,0,.01,0,.03,0Z"/>
      <path d="M467.53,560.63h0s-.02-.03-.02-.04c0,.01.01.03.03.04Z"/>
      <path d="M425.5,609.32s-.14.07-.31.14c.12-.05.23-.1.31-.14Z"/>
      <path d="M462.97,563.81c-.23.07-.52.19-.83.32.29-.13.58-.24.83-.32h0Z"/>
      <path d="M426.36,605.99c-.16.04-.29.07-.32.08.09-.02.2-.05.32-.08Z"/>
      <path d="M430.79,598.65s.03-.04.06-.05c-.36.4-.57.84-.62.9.06-.13.14-.25.22-.39l.03-.04c.04-.07.1-.14.14-.21.05-.06.1-.12.14-.17,0-.01.02-.03.03-.03Z"/>
      <path d="M430.97,598.46s.05-.05.08-.08c-.05.05-.1.1-.14.14.02-.02.04-.05.06-.07Z"/>
      <path d="M431.38,598.09c.05-.04.1-.08.15-.1-.05.03-.1.08-.16.12h0c-.05.04-.11.08-.16.13.05-.05.11-.1.16-.14h0Z"/>
      <path d="M431.85,597.78c-.09.05-.2.12-.31.21.02-.03.05-.04.07-.05.08-.05.16-.11.25-.15Z"/>
      <path d="M467.01,561.71c-.08.17-.15.32-.21.44.06-.13.13-.28.21-.44Z"/>
      <path d="M467.54,560.64s0,0,0-.01c0,0,0,0,0,0h0Z"/>
      <path d="M318.72,515.63s0-.02,0-.03v-.05s0,.08,0,.08ZM333.04,363.59h0s0,0,0,0h0ZM337.52,524.53s-.02.03-.03.04l.04-.04h0ZM344.08,347.22s-.07.08-.11.12l.12-.12h0ZM343.71,347.62c.09-.09.17-.18.26-.28-.02.02-.03.03-.05.05-.07.08-.14.15-.21.23ZM353.8,475.15h0s0,0,0,0h0ZM355.32,475s.04-.08.06-.12h0s-.04.07-.06.12ZM355.38,474.87h0s.02-.04.03-.06c-.01.02-.03.04-.04.06ZM359.42,473.83h-.01s.04-.01.07-.03c-.02,0-.04.02-.05.03ZM359.63,472.15c.1-.06.21-.12.32-.15-.14.05-.25.1-.32.15ZM361.54,544.01s.02-.03.03-.04c0-.01.01-.03.02-.05-.02.03-.03.06-.05.09ZM364.05,512.87h0s0,0,0,0c0,.01,0,.03.01.05,0-.01,0-.03,0-.04ZM365.99,515.31h0s0,0,0,0h0ZM370.63,513.79s-.03.02-.05.03c.03-.01.07-.03.1-.05-.01.01-.03.02-.05.02ZM371.08,513.57s.01,0,.02,0c0,0,0-.01.01-.01-.01,0-.02,0-.03.02ZM371.64,513.2s-.08.06-.11.09c-.03.02-.06.04-.09.06.03-.01.06-.03.09-.05.05-.03.1-.07.14-.11,0,0-.01,0-.03.01ZM371.97,543.8s-.05.07-.08.1c.04-.03.08-.08.11-.12,0,0-.01.01-.03.02ZM372.11,512.2s0,0,0-.01c-.02-.03-.04-.05-.06-.08.02.03.04.05.05.08.01.02.03.05.04.08,0-.02-.02-.04-.03-.06ZM372.18,512.36s0-.02-.01-.03c0,.02.01.03.02.05,0,0,0-.02,0-.03ZM372.71,555.62s-.06,0-.09.01c.05,0,.12,0,.18-.02-.03,0-.06,0-.09,0ZM373.06,555.58s-.05.01-.08.01c.03,0,.06,0,.1-.01h-.01ZM373.85,548.87s-.01-.01-.02-.02h-.03s.03.02.08.05h0s-.02-.03-.03-.03ZM373.88,548.89h0s0,0,0,0h0ZM374.01,548.98c.1.08.22.16.34.25-.12-.09-.23-.17-.34-.25ZM376.88,554.48s.07-.03.1-.04c.01-.01.03-.03.05-.03-.05.03-.1.05-.14.08ZM377.66,554.04s-.06.05-.1.07c.05-.02.09-.05.13-.08,0,0-.02.01-.03.01ZM378.03,548.65c.11-.22.23-.43.38-.62-.15.19-.28.4-.38.62ZM378.33,553.52s.06-.1.09-.14c-.03.04-.07.1-.09.14ZM380.33,327.96c.06-.1.13-.24.17-.34-.05.11-.11.24-.17.34ZM383.43,541.74s.02,0,.03,0h0s-.03,0-.03,0ZM383.49,541.74h-.02s.01,0,.03,0c0,0,0,0,0,0ZM384.24,541.85h-.02s.03,0,.03,0h0ZM394.91,423.92h0s0,0,0,0h0ZM395.05,422.79c.01-.1.03-.2.04-.31-.02.12-.03.23-.04.31ZM395.27,428.47c.03-.09.05-.18.08-.29-.03.12-.06.22-.08.29ZM396.3,452.77c.09.03.2.05.31.08-.11-.03-.23-.05-.31-.08ZM397.7,537.72l-.04.04c.05-.05.12-.1.18-.15-.05.03-.09.08-.14.11ZM400.91,634.83h0s.08.05.13.07c-.04-.02-.08-.04-.12-.07ZM406.94,633.68s.05,0,.08,0h.01s-.06,0-.09,0ZM412.01,632.69s.09-.01.13-.03c0,0,.01,0,.03,0,0,0,.02,0,.03-.01-.06.01-.13.03-.18.05ZM413.17,623.67s-.01.02-.03.03c.01-.01.03-.03.03-.03h0ZM413.52,622.2s0,.01-.01.02h0s-.01.02-.02.03c0,0-.01.02-.01.02h0s0,.02,0,.03c0,.02,0,.04,0,.06,0-.02,0-.04.01-.06.01-.03.04-.08.05-.1h0ZM414.6,622.1c-.12.04-.23.08-.34.12.23-.08.46-.15.69-.22-.12.03-.23.06-.35.1ZM415.62,623.16h-.04s.05,0,.08,0c-.01,0-.02,0-.03,0ZM415.73,498.79s0,.08,0,.12c0-.05.01-.11,0-.16,0,.01,0,.03,0,.05ZM416.68,397.06s-.03.01-.05.02h0s.09-.03.13-.05c-.03,0-.05.02-.08.03ZM418.57,614.7s0,0,.01.01h0s0-.01-.01-.01ZM421.73,623.74c-.08,0-.15.01-.23.01.08,0,.15,0,.23,0,.06,0,.12-.01.17-.03-.05,0-.11.01-.17.02ZM422.19,623.64h0s.02,0,.03,0c0,0-.02,0-.03,0ZM422.23,623.63h0s0,0,0,0ZM422.86,621.03c.05.04.1.08.16.12,0,0,.01,0,.02.01h.01c-.06-.04-.13-.09-.19-.14ZM423.32,619.02h0s.03.02.04.03c-.01,0-.02-.01-.03-.03ZM423.23,618.97s-.06-.04-.1-.05c-.01,0-.02,0-.03-.01.05.03.12.07.18.1-.01,0-.02-.01-.03-.02,0,0,0,0-.01,0ZM423.89,619.34s-.04-.02-.07-.03c0,0-.01,0-.02-.01-.03,0-.05-.02-.08-.03.08.04.14.08.2.1-.01,0-.02,0-.03-.02ZM423.94,619.38l.02.02s.03.02.05.02c-.01-.01-.04-.03-.07-.04ZM425.4,617.86s-.01.03-.01.04c0-.02.01-.03.02-.04h0ZM430.23,599.5c.06-.12.13-.25.22-.39-.08.14-.16.26-.22.39ZM430.79,598.65s.03-.04.06-.05c0-.01.02-.03.03-.04-.04.03-.07.06-.1.1ZM431.21,598.24s.1-.09.16-.13c0,0,0,0,0-.01-.05.05-.11.1-.16.14ZM431.38,598.09s0,0,0,.01c.05-.04.11-.08.16-.12-.05.03-.1.06-.15.1ZM439.24,446.07c-.13.16-.25.29-.37.4.12-.11.25-.25.38-.4,0,0,0-.02.01-.03,0,0-.01.02-.02.03ZM441.71,450.28s-.01-.01-.01-.02c-.05-.09-.11-.18-.16-.26.06.1.12.21.19.31,0-.01,0-.02-.01-.03ZM450.62,431.08s-.01-.04-.03-.06c.04.11.08.22.12.33-.03-.09-.06-.18-.09-.27ZM450.88,431.83c-.02-.05-.03-.11-.05-.16.03.1.07.21.1.31-.01-.05-.03-.1-.04-.15ZM451.17,581.37c.01.22,0,.5-.03.75.05-.24.06-.51.03-.75ZM466.8,562.15c.05-.12.13-.27.21-.44-.08.16-.14.31-.21.44ZM467.5,560.59s0,.02.02.04h0s-.02-.03-.03-.04ZM365.99,515.31h0s0,0,0,0h0Z"/>
      <path d="M430.79,598.65s-.02.02-.03.03c.03-.03.06-.06.09-.09,0-.01.02-.03.03-.04-.04.03-.07.06-.1.1ZM372.1,512.18h0s-.04-.05-.06-.08c.02.03.04.05.05.08ZM359.96,472c-.14.05-.25.1-.32.15.1-.06.21-.12.32-.15Z"/>
      <path d="M540.98,481.43v-.05c-.58-8.73-6.89-15.51-13.88-20.1-6.39-3.81-14.41-5.58-21.77-6.13-7.25.23-14.62,3.05-20.88,6.72-3.94,2.33-6.53,5.59-10.89,7.39-2.68,1.39-5.72,2.07-8.34,3.51-4.28,2.59-8.94,4.65-14,5.43-8.52,1.94-6.96-3.25-5.35-9.19.92-4.01-1.09-7.62-2.45-11.22-1.09-5.91.44-12.94,4.23-17.82,6.21-8.69,8.55-20,8.47-30.41.22-1.42,1.33-1.96,2.35-2.77,1.07-.86,1.12-2.52,1.55-3.83.72-2.32,1.24-4.7,1.62-7.08,2.25-5.34,6.24-10.63,6.54-16.75.57-4.7.21-9.4,1.87-13.96,2.61-6.11,2.9-11.22,1.25-17.75-.85-4.37-1.95-8.67-2.43-13.05-.81-3.7-.34-7.54-1.48-11.16-1.46-4.85-2.92-9.93-5.26-14.48-4.09-6.08-10.41-11.74-17.35-14.39-7.43-2.64-15.76-3.54-23.63-4-6.1.53-11.56,4.54-16.81,7.47-2.23,1.42-4.77,2.06-7.06,3.31-3.75,2.06-6.89,5.83-10.64,8.13-4.72,2.8-9.29,5.71-13.86,9.01-2.26,1.64-5.51,3.66-6.82,5.89,2.69-.21,6.93-3.93,9.89-5.16,2.31-1.23,3.7-1.75,3.35-1.2-5.16,4.61-12.1,8.12-17.3,12.85-2.64,1.94-5.39,5.68-8.39,6.56-.15-.81,1.25-2.7,1.31-3.71,0-.38-.45-.27-1.26.29-1.13.84-2.24,1.84-3.26,2.86-2.4,2.03-5.87,6.99-8.41,7.53-1.88-4.49,5.15-18.14,7.21-22.9,4.14-8.08,8.52-16.41,14.19-23.5,2.17-2.48,4.61-5.58,6.89-8.16,2.44-2.4,5.3-4.29,7.73-6.54,6.63-6.85,13.29-13.85,21.37-19.05,3.61-2.82,6.3-7.08,7.46-11.61.6-2.98-.53-5.58-1.62-8.36-1.78-4.62-3.24-9.37-6.33-13.38-4.44-6.45-10.32-12.15-17.41-15.46-9.23-3.15-9.62,6.06-7.47,12.53,5.61,19.64-9.79,41.18-16.69,59.16-6.74,15.54-13.45,31.97-17.73,48.29-1.62,5.98-2.98,12.5-4.95,18.37-1.42,3.94-3.64,7.84-5.02,11.87-2.33,6.97-5.33,13.35-6.5,20.64-2.19,10.15-2.18,20.53-1.63,30.83-.16,6.56-1.29,14.13,1.19,20.38,2.48,4.33,6.43,8.03,9.47,12.12,3.09,3.89,7.78,2.46,12.1,2.68,8.58,1.49,16.47-4.54,13.4-13.62-2.5-7.67-5.78-9.23,2.4-14.39,1.7-1.57,2.98-4.13,4.76-6.02,1.53-1.49,5.59-5.48,7.49-4.61-.24,2.94-3.25,5.83-4.65,8.51-3.42,5.53-7.87,11.42-7.26,18.27,1.72,9.78,1.91,10.41-7.1,15.28-4.19,2.37-8.41,5.02-12.78,6.93-3.55,1.48-7.45,2.62-10.47,5.19-11.81,8.82-6.79,28.16,9.08,25.89,6.78-.55,7.06-8.47,11.14-12.29,3.46-3.09,9.81-4.85,12.01-9.04,1.57-5.4-9.42.86-9.23-.68,3.11-3.72,7.6-4.99,11.62-7.68,5.55-2.98,10.86-6.59.31-3.39-2.04.24-16.99,7.61-15.45,3.22.97-2.97,3.56-4.78,5.98-6.64,4.14-3.8,10.01-5.11,14.78-7.79,4.31-3.7,8.12-5.75,7.95,2.05-.31,3.22-2.24,4.91-1.17,7.87.02,3.07-4.8,5.59-6.6,7.78-1.47,1.17-5.09,3.5-.61,2.41,3.08-.84,5.17-3.96,7.78-5.41,2.55.7,4.28,3.71,7.67,2.53,3.39-1.97,5.16-6.71,8.86-8.37,2.78-1.79,9.6-1.24,8.88,3.12-.82,2.09,4.18,1.3,6.32,3.52,5.15,4.13,8.1,11.52,6.21,17.89-3.59,7.17-14.08,3.75-18.9-.38-2.81-1.95-5.63-4.03-7.82-6.69-3.56-5.11-10.05-8.51-8.6.81.95,3.96.43,8.17,0,12.05.16,3.53.03,8.47-4.33,8.89-3.37-.58-5,5.13-7.63,2.7-.82-.97-1.76-1.62-3.06-1.16-1.66.41-4.29,1.23-6.24,1.72-3.3.93-6.72,1.05-9.96,2.22-4.56,1.92-8.77,2.91-13.63,3.8-10.4,4.13-21.36,6.79-32.07,10.29-12.44,4.87-24.91,9.63-37.9,12.88-5.32,1.75-11.01,2.16-16.62,1.91-6.25-.08-12.63.53-18.84.51-5.97.48-14.44-4.38-18.54,1.75-2.47,5.54-.15,12.27,3.48,16.76,2.72,3.24,6.33,4.99,9.68,7.49,4.46,3.75,7.26,9.61,12.69,12.18,8.12,3.2,20.85,4.35,28.88.36,5.06-1.95,8.33-6.58,12.68-9.6,3.32-2.14,7.02-3.51,10.5-5.4,11.38-5.78,22.98-10.92,34.83-15.56,5.19-1.94,9.54-5.5,14.66-7.48,5.59-3.61,5.21-2.05,11.01-3.85,4.03-1.4,6.69-5.43,11.03-5.69,2.05-.16,2.57-2.33,4.09-3.29,6.69-2.06,3.7,4.44,2.01,7.82-1.47,3.4-3.18,7.15-4.37,10.45-4.39,5.07-7.7,4.22-10.93,12.32-1.44,3.53-2.59,7.65-4.33,11.16-6.15,8.11-10.01,2.94-12.4,16.89-2.22,5.68-.7,10.4,5.56,12.22,4.76.78,9.85-.7,14.71,0,6.13-.38,12.87-4.95,17.27-9.08,6.29-7.8,15.13-11.99,24.35-15.37,7.47-3.83,15.13-6.72,23.15-9.22,3.58-1,20.2-8.95,17.49-.06-1.65,9.41-5.96,18.16-11.25,26.06-3.63,5.75-7.02,12.54-11.42,17.84-2.73,4.75-5.38,9.7-8.81,14.09-3.59,5.26-7.04,10.94-11.03,15.93-4.72,5.69-12.18,8.86-19.49,6.9-6.45-1.12-1.73,1.08-.01,3.24,0,.29-.4.29-.7.29-3.07-.11-6.02-1.9-9.02-1.91-1.58.2-1.9,1.36-3.62,1.29-2.86-.18-6.13-1.49-8.84-.54-.55.26-1.83.41-1.37,1.21,4.05,2.81,9.62,4,13.8,6.76,13,6.39,3.73,22.5,18.86,23.68,5.7-.42,9.75-5.71,13.94-9.16,4.2-3.94,8.31-8.1,8.38-14.13-.07-2.53,2.5-1.92,3.81-3.41,2.24-2.13,1.48-5.82,4.12-7.5,2.88-2.16,3.32-4.7,5.98-7.36,2.11-2.61,4.99-4.89,6.92-7.47.71-1.18.9-2.46,1.63-3.55.63-.88,1.64-1.44,2.01-2.5.69-2.03.51-2.22,2.72-2.71,4.04-1.74-3.79-3.18-3.26-4.75,1.03-1.49,4.77-.07,6.43-.77,1.25-.41,2.23-1.4.93-2.43-.57-.86-4.02-1.97-2.77-3.11,2.07-.98,5.61,1.49,7.54-.03,1.36-1.28,1.51-3.36,2.79-4.63,1.24-.79,2.66-1.66,3.13-3.2.82-1.81,2.24-3.61,2.68-5.61,0-3.97,1.04-6.88,3.49-10.09,3.7-4.09,7.75-5.6,9.95-11.35,1.06-2.16,2.38-4.22,3.4-6.49,1.19-1.84,1.79-5.06,4.14-5.42,13.96-.77,6.97-14.05,3.18-21.82-4.18-6.41-10.81-11.74-17.03-16.08-4.74-2.52-11.59-2.84-16.04.28-4.69,4.3-1.79,10.99-9.42,13.15-6.04,2.15-12.29,4.03-18.29,6.32-1.37.16-19.7,8.64-15.79,3.68,4.81-3.39,3.25-3.96,5.26-8.82.66-1.97,2.93-4.25,3.44-6.13.47-2.7,1.41-5.4,3.2-7.77,1.66-2.87,4.87-5.3,5.93-8.55.46-2.57.79-5.07,3.44-5.92,7.77-2.7,16.28-1.91,24.23-4.39,3.21-.62,5.31-.43,8.3-.47,2.22-.25,4.8-.42,6.95-.23,3.34-.19,5.81-1.86,9.28-1.98,14.11-3.07,11.79,2.77,18.27,1.9,1.93-.42.63-2.61,2.35-2.97,1.72-.18,3.46,1.09,4.98,1.58,2.74.18,3.99-2.44,7.28-1.6,4.24.31,8.49,1.64,12.87,1.33,2.95-.31,5.96-1.1,8.88-1.14,8.24.42,19.15-5.59,17.21-15.08ZM470.52,349.85c.14.12.27.25.4.4l.04.05c.27.32.45.64.51,1.02-.02-.04-.1-.38-.37-.79-.25-.38-.72-.78-1.01-.99.15.08.29.18.42.31ZM450.13,429.87c.03.07.07.14.1.22.04.09.08.17.12.26.03.05.05.12.08.18.07.17.14.34.2.51.04.11.08.22.11.33.04.1.07.21.1.31.01.05.03.1.04.15.01.05.03.1.04.15-.03-.1-.06-.21-.1-.31-.03-.11-.07-.22-.11-.33-.03-.11-.08-.22-.12-.33-.02-.06-.05-.12-.07-.18-.05-.12-.09-.24-.14-.36-.02-.05-.04-.1-.06-.16-.03-.05-.05-.11-.08-.16-.03-.1-.08-.18-.12-.27-.01-.03-.02-.05-.03-.09.01.02.02.05.03.07ZM333.04,363.6h0s0,0,0,0c0,0,0,0,0,0ZM361.27,471.84h.09s-.06,0-.1,0h0ZM361.18,471.85h.08s-.04,0-.06,0h-.1s.05,0,.08,0ZM359.42,473.83s.03-.02.05-.03c-.03.01-.05.03-.07.04h.01ZM355.45,474.74s.01-.03.03-.04c0,0,0-.02.01-.03,0,0,0,0,0-.01.02-.03.03-.06.05-.09,0,.03-.02.05-.03.08-.01.02-.02.04-.03.06,0,.02-.02.04-.03.06t-.01.01s0-.02.01-.03ZM355.38,474.87s.03-.04.04-.06c-.01.02-.03.04-.03.06h0s-.04.09-.06.13c.02-.05.04-.09.06-.13ZM353.93,475.05s.02-.01.03-.02c-.01.02-.03.03-.05.04,0,0-.02.01-.03.02.01-.02.03-.03.05-.04ZM353.8,475.15h0s.01,0,.03-.02h.03s-.03.01-.04.02-.01,0-.02,0h0ZM380.5,327.62c-.04.1-.11.24-.17.34.06-.1.12-.23.17-.34ZM380.25,328.1s.01-.03.03-.03c0,0-.01.02-.02.03-.01.02-.02.04-.03.05,0-.01.02-.03.03-.05ZM343.91,347.4s.03-.03.05-.05c.04-.04.08-.08.11-.12h0l-.12.12c-.09.1-.17.19-.26.28.06-.08.14-.15.21-.23ZM354.66,406.59l-.03.04c-1.47,1.76-3.09,3.63-4.6,5.52-1.11,1.18-2.96,4-4.71,2.75-.81-.62-1.49-2.17-2.27-3.82-.55-1.2-1.12-2.4-1.62-3.61-.66-1.6-1.21-3.4-1.6-4.36-.3-.77-.6-1.33-.68-.01-.08.95-.18,2.84-.38,3.76-.16.73-.42.84-.72.17-1.51-5.32-.43-14.25-.14-20.82.19-2.18-.14-5.55.79-7.23.79-.85,1.75,1.26,2.09,2.11.58,1.44,1.06,3.33,1.7,4.9.79,2.07,1.8,3.99,2.81,5.97,1.42,2.64,2.97,5,4.98,7.06,2.22,2.28,7.7,3.68,4.39,7.57ZM357.53,378.42h-.05c-4.57.66-7.47-3.48-11.55-4.45-1.4-.48-4.59.37-4.85-1.51-.16-2.49,1.16-5.24,2.2-7.52.89-2.02,2.12-3.85,3.35-5.66,1.74-2.55,3.35-4.98,5.17-7.48,2.48-3.26,5.54-5.94,8.19-9.03,3.02-3.27,5.5-6.88,8.93-9.74,1.81-1.44,4.72-3.65,6.45-4.15,2.74-.73,1.04,3.67,1.13,5.44-.05,1.06.01,2.14.23,3.17.75,3.68,4.22,6.26,5.24,9.87.76,2.59.68,5.56-.17,8.17-.49,1.38-1.27,2.49-2.16,3.64-4.33,5.34-8.91,10.92-14.35,15.15-2.3,1.81-4.79,3.72-7.74,4.11ZM365.11,398.04h0c-.12-.31.17-.84.57-1.66.42-.81,1.02-1.96,1.54-3.06,1.43-3.09,2.59-6.36,3.29-9.67.61-2.4.91-4.74,1.63-7.13,1.49-4.11,3.63-8.39,5.5-12.31,1.03-1.99,2.16-4.45,3.4-6.21,1.23-1.75,1.61-1.42,1.73.64.13,3.09.04,6.36.03,9.47,0,8.07-.08,12.05-5.51,18.46-1.92,2.3-4.15,4.52-6.3,6.58-1.03.86-5.13,5.43-5.88,4.88ZM382.73,392.45c-.99,2.3-3.36,3.6-5.53,4.94l-.05.03c-.86.56-7.28,3.99-5.88,1.01.83-1.45,2.84-3.1,4.54-4.68,1.73-1.4,4.84-5.04,6.72-4.02.8.66.57,1.76.21,2.71ZM392.09,456.89h0c.13-.16.38-.08.6-.08-.22,0-.47-.08-.6.08ZM318.73,515.6s0,.03,0,.03c0,0,0-.04,0-.08v.05ZM336.66,525.23s0,0-.01,0c-.06.04-.12.08-.18.11-.01,0-.02.01-.03.01,0,0-.01,0-.01.01-.06.03-.12.06-.17.09l-.04.02s-.06.04-.1.05c-.04.02-.08.04-.11.06t-.01,0s.02-.01.03-.03c.05-.03.12-.07.21-.12.14-.08.32-.18.5-.29.05-.03.09-.05.13-.08-.07.05-.14.1-.21.14ZM336.95,525.03h0s.01-.01.02-.01c0,0-.01,0-.02.01ZM337.44,524.62s-.02.02-.03.03c-.01.01-.03.03-.05.04,0-.01.01-.02.02-.03.01-.01.03-.02.03-.03.01-.01.02-.03.03-.03h.02s-.02,0-.03.01ZM337.49,524.57s.03-.03.03-.04h0l-.04.04ZM337.6,524.45s-.04.05-.07.07v-.02s.01,0,.01,0c.03-.03.07-.06.09-.1.01,0,.02-.01.03-.02-.02.02-.04.05-.06.08ZM364.15,513.28s-.01-.08-.03-.12c0,0,0,0,0-.01,0-.04-.02-.09-.03-.13h0s-.02-.07-.03-.09h0s-.01-.05-.01-.06c0-.02,0-.03,0-.01,0,0,0,0,0,.01h0s0,0,0,0c0,.01,0,.03.01.04v.05c.05.08.09.29.11.42,0-.03-.01-.07-.03-.11ZM365.75,514.79c-.11-.17-.23-.36-.31-.45.03.03.05.06.08.09.09.1.17.21.25.33.1.15.17.31.21.45v.03c-.01-.09-.11-.27-.22-.45ZM365.99,515.32h0,0ZM362.18,543.11c-.13.17-.27.36-.39.53-.03.06-.08.12-.12.17-.03.05-.07.11-.11.16,0,.01-.01.03-.03.04.01-.03.03-.05.05-.09,0-.01.01-.03.03-.05.16-.29.41-.62.7-.93.04-.05.09-.1.14-.16-.09.1-.18.21-.27.33ZM363.04,542.2s0,0,0,0h0s-.05.05-.08.07c.02-.03.05-.05.07-.08.03-.02.05-.04.08-.06.02-.02.04-.03.06-.05h0s.08-.08.12-.11c.04-.03.08-.06.11-.09-.08.08-.22.2-.35.31ZM367.7,537.35s-.02.04-.03.05c.03-.05.05-.1.08-.15-.02.03-.03.06-.05.1ZM367.8,537.16l-.02.03s.02-.05.03-.08v.04ZM368.57,535.62s.03-.07.05-.1h0s-.04.07-.05.1ZM368.56,514.5c-.06.01-.13.03-.19.04-.01,0-.03.01-.04.01-.08.02-.16.04-.23.06h-.01c-.08.01-.16.03-.25.05-.08.01-.15.03-.22.04-.09.01-.17.03-.25.05-.11.01-.21.03-.31.05.02,0,.04,0,.06-.01.4-.07.83-.15,1.26-.25.1-.02.19-.05.29-.07-.03.01-.07.02-.1.03ZM369.16,534.45h0s0-.01,0,0c0,0,0,0,0,0ZM369.02,514.38s.07-.02.1-.03c.07-.02.14-.03.21-.05-.1.03-.21.06-.31.09ZM372.99,542.3h0s0,.03-.02.04l.02-.04ZM372.95,542.38s0,0,0,0c0,.02-.01.03-.03.05,0,0,0,.02-.02.03.01-.03.03-.05.04-.08ZM372.04,512.11s.04.05.06.08t0,.01c.03.05.05.11.07.16,0,0,0,.01,0,.03,0,.02,0,.05,0,.07,0-.04-.01-.08-.03-.12-.03-.1-.09-.18-.16-.26.01,0,.03.02.04.03ZM371.11,513.55s.02-.01.03-.02c.01,0,.03-.01.04-.02.05-.03.11-.07.16-.1,0,0,.02-.01.03-.02.01,0,.03-.01.03-.02.08-.05.16-.1.23-.16.01,0,.02,0,.03-.01-.04.04-.09.08-.14.11-.03.02-.05.04-.09.05-.03.02-.06.04-.1.06-.02.01-.05.03-.08.05-.05.03-.12.07-.17.1,0,0-.01,0-.02,0,.01-.01.02-.02.03-.02ZM370.63,513.79s.03,0,.05-.02c-.03.02-.06.03-.1.05.01,0,.03-.01.05-.03ZM371.89,543.9s.05-.06.08-.1c.01,0,.02-.01.03-.02-.03.04-.07.08-.11.12ZM372.98,555.6s-.05,0-.09,0c-.03,0-.06,0-.09,0-.06.01-.12.01-.18.02.03,0,.05,0,.09-.01.03,0,.05,0,.09,0,.03,0,.07,0,.1-.01.05,0,.1,0,.16-.01h.01s-.07,0-.1.01ZM373.88,548.9s-.06-.05-.08-.06h.03s.01.02.02.03c0,0,.02,0,.03.02h0s0,0,0,0ZM374.01,548.98c.1.08.22.16.34.25-.12-.08-.24-.17-.34-.25ZM374.94,550.17v-.03s0-.01,0-.02c0,.01,0,.03,0,.05ZM378.41,548.03c-.15.19-.27.4-.38.62.1-.22.23-.43.38-.62ZM377.89,553.9c-.06.05-.12.09-.19.13-.04.03-.08.06-.13.08-.03.02-.06.04-.1.06-.03.01-.06.03-.09.05-.06.03-.13.07-.2.1-.07.04-.14.08-.21.11-.03.01-.06.03-.1.04.04-.03.1-.05.14-.08.07-.03.14-.07.21-.11.08-.04.15-.08.22-.12.08-.04.14-.09.21-.13.14-.09.27-.18.4-.28-.05.05-.12.09-.18.14ZM378.33,553.52s.06-.1.09-.14c-.03.04-.06.1-.09.14ZM384.24,541.85h0s-.01,0-.03,0h.02ZM383.46,541.74s-.03,0-.03,0h.03ZM383.5,541.75s-.02,0-.03,0h.02s.03,0,.04,0h-.03ZM388.61,541.54c.39.21.86.17,1.36-.01-.49.18-.97.23-1.36.01ZM391.19,530.5s-.05-.03-.08-.03c.03,0,.05.02.08.03.13.05.25.1.38.14-.12-.05-.25-.1-.38-.14ZM401.18,634.97c-.05-.03-.1-.05-.14-.08-.05-.02-.09-.04-.13-.07h0s-.05-.02-.07-.04c.03.01.05.03.08.04h0c.08.04.16.08.25.12.04.03.09.05.13.07-.03-.01-.08-.03-.11-.05ZM404.08,635.01s-.11.09-.19.15c-.03.01-.05.03-.08.05s-.05.03-.09.05l-.07.04c-.08.04-.15.09-.23.12t0,0c-.07.03-.14.05-.2.08,0,0-.02,0-.03,0-.35.08-.53.05-.4.05.12-.01.25-.03.38-.08.22-.08.47-.22.66-.35.3-.21.4-.25.27-.13ZM406.76,625.51s0,.06,0,.08v-.08s0-.09,0-.14v.14ZM407.02,633.68s-.05,0-.08,0c.03,0,.05,0,.09,0h-.01ZM422.37,614.38h0,0ZM418.59,614.71h0s0,0-.01,0c0,0,0,0,.01,0ZM414.31,621.21s.01-.01.03-.02c-.01.01-.02.02-.03.03h0ZM413.57,622.14s.03-.03.03-.03c0,0-.02.02-.03.04h0s0,0,0-.01ZM413.47,622.3s0-.01,0-.02h0s0-.02.01-.03c0-.01,0-.02.02-.03h0s.01-.02.01-.03h0s-.04.08-.05.1c0,.02-.01.04-.01.06,0-.02,0-.04,0-.06ZM413.17,623.67h0s-.02.02-.03.03c.01-.01.02-.03.03-.03ZM409.14,638.91s0,.02,0,.02c-.01-.01-.03-.07-.05-.16l-.02-.06c-.02-.08-.05-.19-.05-.3,0-.13.07-.24.12-.32-.02.05-.04.1-.05.17,0,.18.06.43.06.6,0,.02,0,.03,0,.05ZM409.69,620.3s-.02,0-.03,0c0,0-.02,0-.03.01-.01,0-.03.01-.04.01.02,0,.04-.01.05-.03h.02s.02-.01.03-.01c0,0,0,0,0,0ZM409.7,620.29s.03-.01.04-.02c.01,0,.02-.01.03,0-.03,0-.05.01-.08.03ZM412.32,632.62c-.06.01-.11.02-.16.03-.01,0-.02,0-.03,0-.04.01-.09.02-.13.03.05-.01.12-.03.18-.05h0c.07-.02.14-.04.23-.05-.03.01-.07.02-.1.03ZM412.6,632.54s-.06.01-.09.02c.03-.01.06-.02.1-.03h0ZM414.34,626.55c-.05,0-.12.01-.19.02-.03,0-.06,0-.1.01-.14.01-.29.03-.44.04-.46.05-.95.12-1.44.21-.64.13-1.27.31-1.77.56.61-.34,1.53-.55,2.31-.68h.08c.62-.11,1.16-.15,1.62-.18-.02,0-.05,0-.08.01ZM414.26,622.23c.1-.05.23-.09.34-.12.08-.03.15-.05.22-.07.04,0,.09-.01.13-.03-.23.07-.47.14-.69.22ZM415.46,623.16h-.1s.07,0,.11,0c.02,0,.03,0,.05,0h-.06ZM415.65,623.16s-.05,0-.08,0h.09s-.01,0-.01,0ZM417.61,626.31s0-.05,0-.07h0v.07ZM419.03,621.8c-.07-.05-.16-.1-.27-.16-.08-.04-.16-.08-.25-.12l-.05-.02c-.06-.02-.12-.04-.18-.05-.42-.11-.85-.07-1.33.04-.1.02-.2.04-.3.07-.42.12-.84.22-1.23.32,1.2-.36,2.62-.91,3.63-.07,0,0,.02.01.03.03-.01,0-.03-.02-.05-.03ZM420.53,623.8s-.07.02-.1.03c.03-.01.07-.02.1-.03.01,0,.03,0,.05,0-.01,0-.03,0-.05.01ZM420.71,623.76s-.03,0-.05,0c.02,0,.04,0,.05-.01.02,0,.04,0,.06,0-.02,0-.04,0-.06.01ZM421.86,623.73s-.09.01-.14.01c-.08,0-.15,0-.23,0,.08,0,.15,0,.23-.01.06,0,.12-.01.17-.02,0,0-.02.01-.03.01ZM422.05,623.69s-.02,0-.03,0c-.01,0-.03,0-.05,0,.04,0,.08-.02.12-.03.01,0,.03,0,.04,0-.03.01-.05.02-.08.03ZM422.19,623.64s-.03,0-.05.01c.02,0,.04-.01.05-.02,0,0,.02,0,.03,0,0,0-.02,0-.03.01ZM422.23,623.63h0,0s.02-.01.03-.02c-.01,0-.02.01-.03.02ZM422.36,623.57s-.02,0-.03.01h0s.05-.02.08-.03l-.04.02ZM423.07,621.18s-.02,0-.03-.01c0,0-.01-.01-.02-.01-.05-.04-.1-.08-.16-.12.06.05.13.1.19.14h.01s0,.01,0,.01h0s0,0-.01,0ZM423.06,618.87s.05.03.08.05c.03.01.06.03.1.05,0,0,0,0,.01,0,.01,0,.02.01.03.02-.06-.03-.12-.06-.18-.1-.01-.01-.03-.03-.05-.03ZM423.35,621.36s-.01,0-.02-.01-.02,0-.03-.01c-.01,0-.03-.01-.04-.03-.01,0-.02-.01-.03-.02h0s-.02-.01-.03-.01c-.01-.01-.02-.02-.03-.03.01,0,.02.01.03.02s.02,0,.03.01c0,0,0,0,0,0h0s.01,0,.01,0c0,0,0,0,.01.01,0,0,.02,0,.03.01.01,0,.03.01.04.03,0,0,.01,0,.02,0h0ZM423.58,621.47s-.04-.01-.06-.03c0,0-.01,0-.02-.01.01,0,.02,0,.03.01.07.03.13.06.19.08-.05-.01-.1-.03-.14-.05ZM423.73,619.26s-.08-.04-.12-.07c-.08-.04-.16-.1-.25-.14-.01,0-.03-.01-.04-.03h0c.05.03.11.07.17.1h0c.08.04.14.08.21.12.03.01.06.03.09.05,0,0,.01,0,.02.01.03.01.05.02.07.03.01.01.02.02.03.02-.06-.02-.12-.06-.2-.1ZM423.97,619.4l-.02-.02s.05.03.07.04c-.01,0-.03-.01-.05-.02ZM425.4,617.86s-.01.02-.02.04c0,0-.01.01-.02.03.01-.03.03-.05.03-.07,0-.01.01-.02.01-.02,0,0,0,.01,0,.02ZM430.85,598.6c-.36.4-.57.84-.62.9.06-.12.13-.25.22-.39l.03-.04c.04-.07.1-.14.14-.21.05-.06.1-.12.14-.17,0-.01.02-.03.03-.03.03-.03.05-.06.1-.1-.01.01-.03.03-.03.04ZM430.91,598.53s.04-.05.06-.07c.03-.03.05-.05.08-.08-.05.05-.1.1-.14.14ZM431.54,597.99s-.1.08-.16.12h0c-.05.04-.11.08-.16.13.05-.05.11-.1.16-.14h0c.05-.04.1-.08.15-.1.02-.03.05-.04.07-.05.08-.05.16-.11.25-.15-.09.05-.2.12-.31.21ZM467.53,560.63h0s-.02-.03-.02-.04c0,.01.01.03.03.04ZM467.01,561.71c-.08.17-.15.32-.21.44.06-.13.13-.28.21-.44ZM451.17,581.37c.03.23.01.51-.03.75.04-.25.05-.53.03-.75ZM450.15,580.3h.05c.17.01.3.12.4.27.08.11.14.23.18.34.02.03.03.07.05.1-.03-.03-.08-.13-.16-.25-.19-.27-.38-.35-.55-.3-.06.01-.12.04-.18.08-.14.1-.27.27-.37.47-.04.08-.07.12-.08.12,0-.16.36-.85.66-.82ZM440.22,598.23c.19-.21.38-.39.59-.53-.2.18-.51.45-.78.74.06-.08.13-.14.19-.21ZM398.57,537.12c-.1.06-.21.12-.31.19-.13.08-.28.18-.42.29-.06.05-.12.1-.18.15l.04-.04s.09-.08.14-.11c.21-.18.47-.34.74-.49.51-.3,1.09-.55,1.54-.71l.05-.02c.25-.1.44-.18.57-.23-.64.31-1.41.55-2.16.97ZM415.74,498.74c0,.05,0,.11,0,.16,0-.03,0-.08,0-.12,0-.05,0-.12,0-.18,0,.03,0,.05,0,.08,0,.02,0,.03,0,.05ZM422.01,325.34l.03.05c.08.14.16.34.23.54-.01-.05-.03-.1-.06-.15-.1-.23-.17-.38-.23-.49.01.01.03.03.03.05ZM396.85,319.51h.02c.51-.25,1.42-.17,2.06-.09,1.18.16,2.57.53,4.01.83,1.56.33,3.17.57,4.7.73,1.36.14,2.81.16,4.09.19,1.35.04,2.73.1,3.76.83.83.59,1.01,1.66.51,2.53-.73,1.46-3.19,2.37-4.86,3.02-2.06.79-4.09,2.03-6.24,2.48-2.96.61-4.23-2.44-5.72-4.59-.84-1.26-1.68-2.62-2.19-3.68-.57-1.23-.86-1.89-.16-2.27ZM406.09,381.43l-.02.03c-.66,1.2-1.92,2.64-3.27,3.27-1.31.66-3.11.79-3.73-.8-.8-1.86-.05-4.78.22-6.9.23-1.64.22-3.27.55-4.09.79-2.11,3.85,1.67,4.54,2.53,1.33,1.76,2.94,3.92,1.71,5.95ZM407.66,396.38c1.4-.38,5.01-1.26,5.97-.03.23.75-.55,1.47-1.62,2.64l-.04.05c-1.98,1.9-3.77,3.99-5.75,5.59-.97.77-2.12,1.44-3.4,2.18-1.1.53-4.24,2.77-5.14,1.63-.36-.49-.23-1.59.06-2.92.35-1.59.89-3.2,1.85-4.52,1.88-2.64,4.96-3.69,8.08-4.61ZM394.92,423.92h0s0,0,0,0h0ZM395.05,422.79c0-.08.02-.18.04-.31-.01.11-.03.21-.04.31ZM395.27,428.47c.02-.08.05-.17.08-.29-.03.11-.05.21-.08.29ZM396.3,452.77c.09.02.21.05.31.08-.12-.02-.23-.05-.31-.08ZM397.07,423.25v-.06c.31-2.2.68-4.24,1.18-6.27.12-.7.16-1.42.34-2.09.44-1.47,1.33-2.89,2.39-4.03,1.32-1.27,3.06-2.57,4.83-3.06,1.19-.28,2.98-.18,3.6.98.43,1.01-.62,2.24-1.24,2.99-.38.45-.64.77-.45.97.15.16.6.23,1.2.31,1.22.13,2.92.53,3.39,1.8,1.43,4.8-5.51,10.72-8.83,13.59-5.85,5.24-7.47.91-6.41-5.13ZM438.4,446.89h0s.03-.02.03-.03c0,0-.02.01-.03.03ZM439.24,446.07c-.13.16-.26.29-.38.4.12-.11.24-.25.37-.4,0,0,.01-.02.02-.03,0,0-.01.02-.01.03ZM441.53,450c.05.08.11.17.16.26,0,0,0,.01.01.02,0,.01.01.02.01.03-.07-.11-.13-.21-.19-.31ZM441.75,450.37s0-.02-.01-.03c.01.02.02.03.03.05-.01,0-.01-.01-.02-.02ZM442.29,451.29s-.03-.05-.04-.07c0-.01,0-.03-.01-.03,0,.01.02.03.03.04.02.03.03.07.05.1,0-.01-.01-.03-.03-.03ZM442.39,420.57c-1.09,5.03-2.77,9.97-4.13,14.91-.7,2.7-1.4,5.52-2.03,8.2v.05c-.29,1.43-1.23,4.42-2.6,2.14-2.22-4.35-.88-8.73-6.59-11.14-1.83-.69-3.83-1.15-5.75-1.4-1.93-.2-3.88.51-5.6,1.52-1.08.66-2.17,1.57-3.37,2.38-1.18.81-2.42,1.55-3.53,2.46-1.5,1.14-3.18,2.9-4.61,3.65-2.51,1.23-6.59,1.43-6.73-2.24-.13-2.95,2.87-4.63,5.17-5.94,4.97-2.87,9.84-6.34,14.85-9.06,4.57-2.57,5.84-1.92,10.6-1.92,3.52-.29,3.63-2.74,4.99-5.3,1.16-2.14,2.66-4.4,4.2-6.56,1.81-2.94,1.97-5.6-.93-7.67-1.56-1.18-3.37-2.24-5.05-3.3-1.83-1.19-5.3-2.98-6.01-4.62-.53-1.38,3-1.64,4.74-2.44,5.29-1.82,5.93-7.32,8.3-11.74.84-1.77,1.64-3.86,2.41-5.52.53-1.15.65-2.39.83-3.58.14-.91.3-1.9-.12-2.75-1.44-2.66-6.02-1.66-8.62-1.75-3.81.25-7.32.31-10.99,1.11-3.21.77-6.58,1.35-9.58-.29-2.17-1.17-5.19-3.09-4.89-5.82.29-1.72,1.81-3.13,3-4.39,2.27-2.29,4.37-5.13,7.69-5.52,3.59-.53,7.84-.21,10.83-2.69,3.17-2.18,4.19-6.95,8.33-7.41,4.14.05,5.74,7.91,6.34,11.05.43,2.22.51,4.33.99,6.62.35,1.59.9,3.11,1.49,4.61,2.05,4.46.85,7.17.45,11.74-.48,5.65-1.13,11.25-2.06,16.84-.48,2.79-.47,5.69-.84,8.38-.37,2.53-1.07,4.98-1.14,7.53-.13,3.32.83,6.54-.04,9.83ZM416.63,397.09h0s.03-.01.05-.03c.14-.07.29-.14.43-.21.21-.11.4-.22.58-.34-.11.08-.23.16-.36.24-.1.07-.29.16-.53.25-.01.01-.03.02-.05.03-.04.02-.09.03-.13.05Z"/>
      <polygon points="467.53 560.63 467.53 560.63 467.53 560.63 467.53 560.63"/>
      <path d="M445.88,599.45c.11-.01.08,0,0,0h0Z"/>
      <path d="M392.74,631.3s.01.17.01.19h0s-.01-.21-.01-.19Z"/>
      <path d="M392.76,631.7s0,.1,0,.11v.02s0-.09,0-.13Z"/>
    </g>
  </g>
  <text class="cls-2" transform="translate(125.18 828.41)"><tspan x="0" y="0">YUETWAN</tspan><tspan x="63.21" y="123.97">LONDON</tspan></text>
  <text class="cls-1" transform="translate(130.41 527.25) rotate(-82.23)"><tspan x="0" y="0">倫</tspan></text>
  <text class="cls-1" transform="translate(157.41 399.98) rotate(-63.87)"><tspan x="0" y="0">敦</tspan></text>
  <text class="cls-1" transform="translate(223.12 287.67) rotate(-45.65)"><tspan x="0" y="0">粵</tspan></text>
  <text class="cls-1" transform="translate(320.6 201.47) rotate(-27.45)"><tspan x="0" y="0">韻</tspan></text>
  <text class="cls-1" transform="translate(440.15 150.15) rotate(-9.08)"><tspan x="0" y="0">曲</tspan></text>
  <text class="cls-1" transform="translate(569.82 138.98) rotate(9.04)"><tspan x="0" y="0">藝</tspan></text>
  <text class="cls-1" transform="translate(696.46 168.81) rotate(27.4)"><tspan x="0" y="0">文</tspan></text>
  <text class="cls-1" transform="translate(807.29 236.99) rotate(45.61)"><tspan x="0" y="0">化</tspan></text>
  <text class="cls-1" transform="translate(891.34 336.35) rotate(63.83)"><tspan x="0" y="0">協</tspan></text>
  <text class="cls-1" transform="translate(939.98 457) rotate(82.19)"><tspan x="0" y="0">會</tspan></text>
</svg>